<?xml version="1.0" standalone="no"?>
<!DOCTYPE svg PUBLIC "-//W3C//DTD SVG 1.1//EN" "http://www.w3.org/Graphics/SVG/1.1/DTD/svg11.dtd" >
<svg>
<metadata>
Created by FontForge 20090622 at Mon Apr  8 18:56:26 2019
 By deploy user
Copyright &#194;&#169; 1991 ParaGraph Intl, &#194;&#169; 1998 ParaType Inc., ParaType Ltd. All rights reserved.
</metadata>
<defs>
<font id="JournalSansNew-Display" horiz-adv-x="511" >
  <font-face 
    font-family="Journal Sans New"
    font-weight="250"
    font-stretch="normal"
    units-per-em="1000"
    panose-1="2 11 6 2 2 2 3 2 3 3"
    ascent="809"
    descent="-191"
    x-height="320"
    cap-height="666"
    bbox="-391 -362 1281 920"
    underline-thickness="50"
    underline-position="-50"
    unicode-range="U+0020-U+FEFF"
  />
<missing-glyph horiz-adv-x="233" 
 />
    <glyph glyph-name="afii10017.var.accented" unicode="&#x410;`" horiz-adv-x="665" 
d="M485 183h-313l-85 -183h-79l325 680l324 -680h-87zM329 519l-124 -268h251zM371 741h-52l81 126h111z" />
    <glyph glyph-name="afii10022.var.accented" unicode="&#x415;`" horiz-adv-x="558" 
d="M178 376h290v-69h-290v-238h322v-69h-396v666h393v-69h-319v-221zM295 741h-52l81 126h111z" />
    <glyph glyph-name="afii10026.var.accented" unicode="&#x418;`" horiz-adv-x="760" 
d="M582 0v503l-478 -517v680h74v-499l478 514v-681h-74zM391 741h-52l81 126h111z" />
    <glyph glyph-name="afii10032.var.accented" unicode="&#x41e;`" horiz-adv-x="811" 
d="M50 333q0 149 100 248q100 100 257 100q83 0 153 -31t113 -83q88 -103 88 -234q0 -140 -98 -244t-256 -104q-159 0 -258 103q-99 104 -99 245zM130 332q0 -115 77 -197q78 -81 199 -81t198 80t77 198q0 72 -30 133q-31 65 -96 106t-149 41q-121 0 -199 -82
q-77 -82 -77 -198zM429 741h-52l81 126h111z" />
    <glyph glyph-name="afii10037.var.accented" unicode="&#x423;`" horiz-adv-x="567" 
d="M91 666l214 -423l172 423h78l-203 -486q-81 -195 -214 -195q-31 0 -67 11v67q24 -9 62 -9q45 0 80 29.5t54 75.5l-259 507h83zM316 741h-52l81 126h111z" />
    <glyph glyph-name="afii10045.var.accented" unicode="&#x42b;`" horiz-adv-x="856" 
d="M752 0h-74v666h74v-666zM104 666h74v-262h127q114 0 169 -55q57 -54 57 -136q0 -85 -45 -145q-51 -68 -185 -68h-197v666zM178 335v-266h119q154 0 154 133q0 63 -40.5 98t-111.5 35h-121zM438 741h-52l81 126h111z" />
    <glyph glyph-name="afii10047.var.accented" unicode="&#x42d;`" horiz-adv-x="669" 
d="M40 75l44 52q89 -72 196 -72q112 0 183 74q70 73 79 180h-332v70h328q-6 41 -24.5 80t-49 74t-78 56.5t-104.5 21.5q-63 0 -107 -16.5t-92 -52.5l-39 52q102 87 238 87q103 0 182 -52q77 -51 116 -128t39 -169q0 -147 -97 -247t-242 -100q-147 0 -240 90zM318 741h-52
l81 126h111z" />
    <glyph glyph-name="afii10048.var.accented" unicode="&#x42e;`" horiz-adv-x="1082" 
d="M341 328h-163v-328h-74v666h74v-270l168 -1q19 126 113 206t230 80q68 0 125.5 -20.5t97 -55t67 -80t40.5 -94t13 -98.5q0 -142 -94 -245q-93 -103 -249 -103q-155 0 -251 101q-95 101 -97 242zM422 332q0 -117 72 -198q74 -80 193 -80q121 0 193 79t72 199q0 72 -27 133
q-28 65 -91 106t-147 41q-119 0 -193 -81q-72 -81 -72 -199zM580 741h-52l81 126h111z" />
    <glyph glyph-name="afii10049.var.accented" unicode="&#x42f;`" horiz-adv-x="614" 
d="M435 0v261h-121v1l-192 -262h-92l194 268q-154 51 -154 193q0 88 58 146q59 59 164 59h218v-666h-75zM435 330v267h-122q-163 0 -163 -137q0 -56 44 -93t120 -37h121zM351 741h-52l81 126h111z" />
    <glyph glyph-name="afii10023.var.accented" unicode="&#x401;`" horiz-adv-x="558" 
d="M292 799h-39l74 121h110zM198 823v-81h-80v81h80zM479 823v-81h-79v81h79zM178 376h290v-69h-290v-238h322v-69h-396v666h393v-69h-319v-221z" />
    <glyph glyph-name="afii10065.var.accented" unicode="&#x430;`" horiz-adv-x="362" 
d="M77 253l-11 53q50 22 120 22q59 0 93.5 -26t34.5 -73v-229h-63v23q-44 -31 -107 -31q-54 0 -87.5 28t-33.5 76q0 47 36 75.5t97 28.5q54 0 95 -23v16q0 41 -16 59.5t-61 18.5q-49 0 -97 -18zM92 98q0 -49 70 -49q38 0 64 13t26 36q0 22 -23 35.5t-61 13.5
q-35 0 -55.5 -13t-20.5 -36zM204 378h-49l67 125h104z" />
    <glyph glyph-name="afii10070.var.accented" unicode="&#x435;`" horiz-adv-x="404" 
d="M320 96l44 -36q-56 -68 -152 -68q-84 0 -132 50q-47 50 -47 122q0 70 51 117q53 47 121 47q77 0 121 -47q45 -46 45 -109q0 -11 -3 -26h-272q3 -40 35.5 -67t80.5 -27q66 0 108 44zM101 199h200q-6 31 -31 50t-62 19q-81 0 -107 -69zM233 378h-49l67 125h104z" />
    <glyph glyph-name="afii10074.var.accented" unicode="&#x438;`" horiz-adv-x="390" 
d="M272 0v191l-218 -198v327h64v-188l218 195v-327h-64zM225 378h-49l67 125h104z" />
    <glyph glyph-name="afii10080.var.accented" unicode="&#x43e;`" horiz-adv-x="422" 
d="M33 160q0 69 48 118q48 50 130 50q79 0 128 -48q50 -47 50 -120q0 -77 -49.5 -122.5t-128.5 -45.5q-85 0 -131 49q-47 50 -47 119zM102 160q0 -48 30.5 -78t78.5 -30q50 0 79.5 30t29.5 78q0 49 -30.5 78.5t-78.5 29.5q-49 0 -79 -29t-30 -79zM246 378h-49l67 125h104z
" />
    <glyph glyph-name="afii10085.var.accented" unicode="&#x443;`" horiz-adv-x="344" 
d="M200 154l71 166h70l-214 -474h-67l80 176l-137 298h73l73 -167l17 -51l7 -22q15 43 27 74zM194 378h-49l67 125h104z" />
    <glyph glyph-name="afii10093.var.accented" unicode="&#x44b;`" horiz-adv-x="506" 
d="M452 0h-64v320h64v-320zM54 320h64v-113h85q58 0 89.5 -29t31.5 -71t-28 -74q-28 -33 -101 -33h-141v320zM118 150v-93h75q62 0 62 49q0 44 -62 44h-75zM269 378h-49l67 125h104z" />
    <glyph glyph-name="afii10095.var.accented" unicode="&#x44d;`" horiz-adv-x="371" 
d="M269 139h-155v53h153q-10 35 -39 55t-70 20q-48 0 -92 -30l-26 50q52 40 118 40q86 0 133 -51q47 -50 47 -116q0 -70 -47 -120q-46 -49 -133 -49q-75 0 -129 45l35 47q38 -32 94 -32q45 0 74.5 23t36.5 65zM202 378h-49l67 125h104z" />
    <glyph glyph-name="afii10096.var.accented" unicode="&#x44e;`" horiz-adv-x="551" 
d="M118 320v-117h62q15 55 59.5 90t106.5 35q75 0 123 -48q49 -48 49 -120q0 -76 -48 -122t-124 -46q-72 0 -119 44q-45 43 -51 107h-58v-143h-64v320h64zM245 160q0 -48 28.5 -77.5t72.5 -29.5q47 0 74.5 29.5t27.5 77.5q0 49 -28.5 78.5t-73.5 29.5q-44 0 -72.5 -29.5
t-28.5 -78.5zM265 378h-49l67 125h104z" />
    <glyph glyph-name="afii10097.var.accented" unicode="&#x44f;`" horiz-adv-x="347" 
d="M164 320h129v-320h-64v122h-49l-82 -122h-81l91 127q-32 9 -50.5 34t-18.5 61q0 44 34.5 71t90.5 27zM229 172v91h-67q-26 0 -40 -12t-14 -32q0 -47 63 -47h58zM197 378h-49l67 125h104z" />
    <glyph glyph-name="afii10071.var.accented" unicode="&#x451;`" horiz-adv-x="404" 
d="M320 96l44 -36q-56 -68 -152 -68q-84 0 -132 50q-47 50 -47 122q0 70 51 117q53 47 121 47q77 0 121 -47q45 -46 45 -109q0 -11 -3 -26h-272q3 -40 35.5 -67t80.5 -27q66 0 108 44zM101 199h200q-6 31 -31 50t-62 19q-81 0 -107 -69zM307 477v-73h-70v73h70zM174 477v-73
h-70v73h70zM229 509h-49l67 125h104z" />
    <glyph glyph-name="fi" unicode="fi" horiz-adv-x="383" 
d="M308 536h-64v25q0 45 -44 45q-35 0 -48 -21.5t-13 -71.5v-193h169v-320h-64v260h-105v-260h-65v260h-64v60h64v218q0 19 4 37.5t15.5 41t38 36t65.5 13.5q111 0 111 -105v-25z" />
    <glyph glyph-name="fl" unicode="fl" horiz-adv-x="364" 
d="M244 661h65v-661h-65v260h-105v-260h-65v260h-64v60h64v218q0 49 27 88q27 40 95 40q23 0 48 -5zM139 320h105v280q-20 6 -46 6q-33 0 -46 -22t-13 -71v-193z" />
    <glyph glyph-name=".notdef" horiz-adv-x="233" 
 />
    <glyph glyph-name=".null" horiz-adv-x="0" 
 />
    <glyph glyph-name="nonmarkingreturn" horiz-adv-x="333" 
 />
    <glyph glyph-name="space" unicode=" " horiz-adv-x="233" 
 />
    <glyph glyph-name="exclam" unicode="!" horiz-adv-x="232" 
d="M140 201h-49l-22 465h94zM75 0v93h86v-93h-86z" />
    <glyph glyph-name="quotedbl" unicode="&#x22;" horiz-adv-x="399" 
d="M85 666h86l-22 -207h-40zM228 666h86l-25 -207h-37z" />
    <glyph glyph-name="numbersign" unicode="#" horiz-adv-x="867" 
d="M591 194l-37 -194h-66l36 192h-221v2l-34 -194h-67l37 192h-166l14 68h164v-2l18 93q14 71 17 91h-170l14 69h167v-2l29 163h66l-30 -161h221v-2l31 163h65l-31 -161h168l-13 -69h-167v2l-18 -97l-16 -87h173l-12 -68h-172v2zM536 260v-2l35 184h-221v2q-3 -20 -17 -91
l-18 -93h221z" />
    <glyph glyph-name="dollar" unicode="$" horiz-adv-x="421" 
d="M255 -9v-108h-60v101q-108 3 -185 51l31 62q84 -42 160 -42q65 0 96.5 29t31.5 77q0 37 -33 73t-101 82l-55 38q-59 41 -83 74t-24 83q0 64 45 112q46 49 117 55v76h60v-74q56 -5 114 -38l-29 -58q-53 28 -112 28q-53 0 -83.5 -28.5t-30.5 -70.5q0 -37 36 -69l30 -25
l43 -30l71 -51q114 -82 114 -179q0 -63 -40.5 -108t-112.5 -60z" />
    <glyph glyph-name="percent" unicode="%" horiz-adv-x="881" 
d="M35 512q0 78 46 134q47 57 128 57q85 0 129 -56q43 -55 43 -135q0 -83 -49 -136q-50 -53 -123 -53q-79 0 -126.5 51.5t-47.5 137.5zM209 380q53 0 80.5 34.5t27.5 96.5q0 55 -25 95t-83 40q-53 0 -81.5 -37t-28.5 -98t28.5 -96t81.5 -35zM505 172q0 78 46 134
q47 57 128 57q85 0 129 -56q43 -55 43 -135q0 -83 -49 -136q-50 -53 -123 -53q-79 0 -126.5 51.5t-47.5 137.5zM679 40q53 0 80.5 34.5t27.5 96.5q0 55 -25 95t-83 40q-53 0 -81.5 -37t-28.5 -98t28.5 -96t81.5 -35zM752 648l-563 -646l-43 42l559 647z" />
    <glyph glyph-name="ampersand" unicode="&#x26;" horiz-adv-x="666" 
d="M433 154l-153 232v-1q-70 -28 -110.5 -75t-40.5 -108q0 -60 42 -104q43 -43 109 -43q96 0 153 99zM516 154l95 -154h-76l-62 91q-75 -106 -197 -106q-100 0 -164 62q-62 64 -62 155q0 78 59 142q58 62 142 85l-16 27q-9 14 -23 40q-20 42 -20 81q0 47 36 75.5t92 28.5
q66 0 127 -30l-28 -62q-43 22 -95 22q-26 0 -42.5 -13t-16.5 -32q0 -26 35 -78l174 -267q34 77 66 159l63 -20q-54 -138 -87 -206z" />
    <glyph glyph-name="quotesingle" unicode="'" horiz-adv-x="255" 
d="M85 666h85l-22 -207h-39z" />
    <glyph glyph-name="parenleft" unicode="(" horiz-adv-x="264" 
d="M208 714l55 -41q-143 -160 -143 -425t140 -429l-54 -39q-166 205 -166 456q0 260 168 478z" />
    <glyph glyph-name="parenright" unicode=")" horiz-adv-x="264" 
d="M0 674l56 40q168 -214 168 -478q0 -167 -69 -300q-49 -97 -98 -156l-55 40q75 91 108 206q34 114 34 222q0 99 -36 216q-34 118 -108 210z" />
    <glyph glyph-name="asterisk" unicode="*" horiz-adv-x="407" 
d="M345 567l-96 -31l58 -78l-45 -33l-60 82l-58 -82l-44 32l58 80l-96 31l21 58l94 -31v100h52v-100l96 31z" />
    <glyph glyph-name="plus" unicode="+" horiz-adv-x="594" 
d="M326 265v-216h-64v216h-212v69h212v217h64v-217h218v-69h-218z" />
    <glyph glyph-name="comma" unicode="," horiz-adv-x="161" 
d="M58 92h80l-53 -184h-59z" />
    <glyph glyph-name="hyphen" unicode="-" horiz-adv-x="427" 
d="M352 146h-277v69h277v-69z" />
    <glyph glyph-name="period" unicode="." horiz-adv-x="164" 
d="M44 0v92h92v-92h-92z" />
    <glyph glyph-name="slash" unicode="/" horiz-adv-x="631" 
d="M561 629l-509 -847l-52 36l506 848z" />
    <glyph glyph-name="zero" unicode="0" horiz-adv-x="521" 
d="M50 333q0 126 22 205q20 70 65 105t124 37q125 0 169 -99q41 -85 41 -248q0 -174 -46 -260q-47 -87 -164 -87q-101 0 -154 68q-22 30 -36 77q-21 79 -21 202zM124 388v-55q0 -54 1 -75q7 -90 20 -126q34 -85 117 -85t108 64q20 48 23 98q4 47 4 124q0 42 -1 55
q0 20 -3 54q-1 28 -7 55q-16 64 -39 87q-33 35 -86 35q-45 -3 -71.5 -20.5t-40.5 -54.5q-17 -47 -22 -102z" />
    <glyph glyph-name="one" unicode="1" horiz-adv-x="298" 
d="M125 557l-95 -89v74l125 124h39v-666h-69v557z" />
    <glyph glyph-name="two" unicode="2" horiz-adv-x="415" 
d="M99 64h270l-29 -64h-374l137 163q106 125 152 198q48 75 48 138q0 54 -32 85t-87 31q-66 0 -131 -39l-29 50q77 53 168 53q87 0 136 -52q49 -50 49 -118q0 -65 -42 -139.5t-124 -172.5z" />
    <glyph glyph-name="three" unicode="3" horiz-adv-x="446" 
d="M43 585l-27 52q79 42 169 42q86 0 134.5 -41.5t48.5 -109.5q0 -53 -31.5 -93t-84.5 -58v-1q67 -12 111 -61q45 -48 45 -112q0 -102 -70 -160q-70 -57 -183 -57q-65 0 -133 24v66q69 -26 133 -26q84 0 131.5 38.5t47.5 107.5q0 65 -46.5 105t-136.5 39h-22v64h17
q73 0 111 28.5t38 81.5q0 46 -32.5 73.5t-96.5 27.5q-58 0 -123 -30z" />
    <glyph glyph-name="four" unicode="4" horiz-adv-x="479" 
d="M376 175h68l-13 -64h-55v-111h-69v111h-303v46l336 509h36v-491zM90 175h217v328z" />
    <glyph glyph-name="five" unicode="5" horiz-adv-x="447" 
d="M392 600h-207l-51 -163q131 -1 204.5 -61t73.5 -163q0 -97 -72 -162q-71 -65 -178 -65q-73 0 -136 24v65q49 -25 130 -25t132 44t51 116q0 77 -58.5 122t-157.5 45h-73l94 289h268z" />
    <glyph glyph-name="six" unicode="6" horiz-adv-x="495" 
d="M155 483l140 183h91l-235 -304l2 -3q46 28 108 28q85 0 141 -55q57 -56 57 -137q0 -83 -57 -146t-151 -63q-93 0 -154 58t-61 148q0 74 28 141t91 150zM110 188q0 -63 37.5 -100.5t100.5 -37.5q62 0 99.5 38.5t37.5 99.5q0 53 -37 93q-36 42 -100 42t-101 -40
q-37 -38 -37 -95z" />
    <glyph glyph-name="seven" unicode="7" horiz-adv-x="421" 
d="M325 602h-304l30 64h385l-340 -666h-78z" />
    <glyph glyph-name="eight" unicode="8" horiz-adv-x="533" 
d="M188 363q-102 43 -102 143q0 71 51 122q51 52 130 52q89 0 136 -53q46 -52 46 -113q0 -105 -103 -150l1 -1q62 -21 96 -69t34 -109q0 -78 -58 -139q-59 -60 -152 -60q-94 0 -152 58q-59 59 -59 136q0 67 35 114t97 69zM403 187q0 62 -36.5 100t-99.5 38
q-62 0 -99.5 -38.5t-37.5 -99.5t36 -99t100 -38t100.5 38t36.5 99zM376 503q0 50 -27.5 81.5t-81.5 31.5q-53 0 -80 -35t-27 -78q0 -50 28.5 -82t78.5 -32t79.5 32t29.5 82z" />
    <glyph glyph-name="nine" unicode="9" horiz-adv-x="495" 
d="M344 184l-143 -184h-93l239 304l-1 1q-48 -30 -106 -30q-92 0 -148 59q-56 61 -56 138q0 84 57 146t152 62q90 0 152 -59t62 -144q0 -86 -25 -146q-26 -61 -90 -147zM385 479q0 56 -37 96q-38 41 -101 41q-62 0 -99.5 -38.5t-37.5 -98.5q0 -56 38 -99q38 -41 99 -41
q67 0 102.5 38.5t35.5 101.5z" />
    <glyph glyph-name="colon" unicode=":" horiz-adv-x="240" 
d="M82 0v92h92v-92h-92zM82 235v92h92v-92h-92z" />
    <glyph glyph-name="semicolon" unicode=";" horiz-adv-x="163" 
d="M46 235v92h92v-92h-92zM58 92h80l-53 -184h-59z" />
    <glyph glyph-name="less" unicode="&#x3c;" horiz-adv-x="564" 
d="M514 76l-484 224l484 225v-68l-333 -158l333 -154v-69z" />
    <glyph glyph-name="equal" unicode="=" horiz-adv-x="596" 
d="M546 175h-496v69h496v-69zM546 362h-496v69h496v-69z" />
    <glyph glyph-name="greater" unicode="&#x3e;" horiz-adv-x="564" 
d="M50 525l484 -224l-484 -225v68l333 158l-333 154v69z" />
    <glyph glyph-name="question" unicode="?" horiz-adv-x="284" 
d="M72 0v92h92v-92h-92zM20 607l14 66q45 8 79 8q72 0 111.5 -32t39.5 -89q0 -55 -76 -131l-37 -37q-30 -37 -30 -63q0 -17 12 -36q12 -17 24 -31q11 -12 35 -35l-45 -49q-100 87 -100 148q0 31 15.5 56.5t57.5 67.5l33 34q37 43 37 75q0 53 -86 53q-26 0 -84 -5z" />
    <glyph glyph-name="at" unicode="@" horiz-adv-x="990" 
d="M315 213q0 -74 45 -119t117 -45q74 0 121 47q47 49 47 119q0 71 -46 118q-45 49 -119 49q-73 0 -119 -49q-46 -47 -46 -120zM743 -11q-84 0 -105 75v-1q-71 -74 -170 -74q-104 0 -163 65t-59 159q0 91 64 159q64 70 168 70q94 0 161 -77l4 67h64v-333q0 -48 52 -48
q58 1 87.5 62t27.5 144q0 64 -23.5 123.5t-67.5 106.5t-113.5 75.5t-154.5 28.5q-168 0 -284 -110q-115 -109 -115 -268q0 -156 115 -267q115 -112 284 -112q59 0 107 8v-64q-34 -8 -106 -8q-101 0 -189.5 36t-149.5 99q-60 61 -93.5 141.5t-33.5 165.5q0 188 132 316
q133 127 334 127q105 0 190 -36t135 -97q99 -120 99 -266q0 -63 -20 -123q-19 -57 -67 -102q-47 -42 -110 -42z" />
    <glyph glyph-name="A" unicode="A" horiz-adv-x="665" 
d="M485 183h-313l-85 -183h-79l325 680l324 -680h-87zM329 519l-124 -268h251z" />
    <glyph glyph-name="B" unicode="B" horiz-adv-x="590" 
d="M316 0h-212v666h176q226 0 226 -165q0 -51 -30 -90.5t-82 -55.5v-3q66 -12 106 -56.5t40 -103.5q0 -89 -58.5 -140.5t-165.5 -51.5zM178 597v-218h113q135 0 135 112q0 106 -140 106h-108zM178 310v-241h124q158 0 158 122q0 56 -39 87.5t-116 31.5h-127z" />
    <glyph glyph-name="C" unicode="C" horiz-adv-x="660" 
d="M588 112l40 -50q-91 -77 -222 -77q-85 0 -155 30t-114 81q-87 106 -87 238q0 146 102 247q101 100 256 100q128 0 210 -67l-42 -53q-68 51 -170 51q-121 0 -199 -78q-77 -77 -77 -200q0 -124 77 -203q79 -77 202 -77q100 0 179 58z" />
    <glyph glyph-name="D" unicode="D" horiz-adv-x="704" 
d="M289 0h-185v666h188q191 0 280 -104q82 -94 82 -229q0 -150 -90 -242q-90 -91 -275 -91zM291 598h-113v-530h113q283 0 283 264q0 127 -72 196.5t-211 69.5z" />
    <glyph glyph-name="E" unicode="E" horiz-adv-x="558" 
d="M178 376h290v-69h-290v-238h322v-69h-396v666h393v-69h-319v-221z" />
    <glyph glyph-name="F" unicode="F" horiz-adv-x="514" 
d="M178 357h290v-69h-290v-288h-74v666h396v-69h-322v-240z" />
    <glyph glyph-name="G" unicode="G" horiz-adv-x="781" 
d="M655 581l-52 -43q-80 74 -196 74q-122 0 -200 -82q-77 -82 -77 -198q0 -120 75 -199q76 -79 202 -79q103 0 171 61q70 61 82 159h-248l28 69h301q-7 -108 -49 -191q-84 -167 -284 -167q-162 0 -260 101q-98 103 -98 247q0 139 102 243q102 105 256 105q137 0 247 -100z
" />
    <glyph glyph-name="H" unicode="H" horiz-adv-x="757" 
d="M579 327h-401v-327h-74v666h74v-270h401v270h74v-666h-74v327z" />
    <glyph glyph-name="I" unicode="I" horiz-adv-x="282" 
d="M178 0h-74v666h74v-666z" />
    <glyph glyph-name="J" unicode="J" horiz-adv-x="343" 
d="M18 -4v66q40 -8 59 -8q57 0 73 36q17 37 17 123v453h74v-436q0 -138 -34 -191q-33 -54 -121 -54q-32 0 -68 11z" />
    <glyph glyph-name="K" unicode="K" horiz-adv-x="612" 
d="M178 0h-74v666h74v-365l290 365h91l-222 -280l259 -386h-91l-217 326l-110 -135v-191z" />
    <glyph glyph-name="L" unicode="L" horiz-adv-x="514" 
d="M500 69v-69h-396v666h74v-597h322z" />
    <glyph glyph-name="M" unicode="M" horiz-adv-x="899" 
d="M236 680l215 -498l224 498l186 -680h-77l-127 473l-210 -467l-202 467l-135 -473h-72z" />
    <glyph glyph-name="N" unicode="N" horiz-adv-x="736" 
d="M632 7l-459 492v-499h-69v680l459 -490v476h69v-659z" />
    <glyph glyph-name="O" unicode="O" horiz-adv-x="811" 
d="M50 333q0 149 100 248q100 100 257 100q83 0 153 -31t113 -83q88 -103 88 -234q0 -140 -98 -244t-256 -104q-159 0 -258 103q-99 104 -99 245zM130 332q0 -115 77 -197q78 -81 199 -81t198 80t77 198q0 72 -30 133q-31 65 -96 106t-149 41q-121 0 -199 -82
q-77 -82 -77 -198z" />
    <glyph glyph-name="P" unicode="P" horiz-adv-x="555" 
d="M296 261h-118v-261h-74v666h203q104 0 165 -56q61 -55 61 -140q0 -98 -60 -153.5t-177 -55.5zM178 597v-267h107q168 0 168 132q0 135 -163 135h-112z" />
    <glyph glyph-name="Q" unicode="Q" horiz-adv-x="811" 
d="M774 61l-29 -78q-76 26 -168 26q-18 0 -50 -8q-64 -16 -119 -16q-84 0 -154.5 30t-114.5 82q-88 105 -88 236q0 146 101 247t256 101q152 0 252 -99q101 -99 101 -247q0 -174 -133 -268v-3q32 5 66 5q32 0 80 -8zM208 530q-77 -82 -77 -198t77 -198q78 -80 199 -80
q120 0 197 80t77 198q0 117 -77 199q-76 81 -197 81t-199 -82z" />
    <glyph glyph-name="R" unicode="R" horiz-adv-x="604" 
d="M237 286h-59v-286h-74v666h217q91 0 152 -50q60 -49 60 -134q0 -163 -199 -194l250 -288h-100l-247 287v-1zM292 597h-114v-242h113q79 0 120.5 33.5t41.5 92.5q0 116 -161 116z" />
    <glyph glyph-name="S" unicode="S" horiz-adv-x="492" 
d="M47 36l33 60q78 -42 157 -42q65 0 96.5 29t31.5 77q0 67 -126 151l-62 42q-43 30 -71 58q-35 39 -35 100q0 70 52 119q53 51 140 51q77 0 142 -39l-27 -57q-62 27 -114 27q-50 0 -82 -28t-32 -70q0 -38 40 -76l43 -31l37 -25l58 -42q117 -84 117 -181q0 -79 -61 -127
q-61 -47 -149 -47q-111 0 -188 51z" />
    <glyph glyph-name="T" unicode="T" horiz-adv-x="477" 
d="M276 0h-74v597h-172v69h417v-69h-171v-597z" />
    <glyph glyph-name="U" unicode="U" horiz-adv-x="743" 
d="M569 666h74v-376q0 -149 -70 -227t-200 -78q-137 0 -205 78t-68 227v376h74v-381q0 -231 199 -231q196 0 196 231v381z" />
    <glyph glyph-name="V" unicode="V" horiz-adv-x="638" 
d="M328 154l221 512h81l-303 -679l-319 679h83z" />
    <glyph glyph-name="W" unicode="W" horiz-adv-x="1023" 
d="M732 -13l-218 505l-202 -505l-304 679h84l218 -497l203 510l221 -514l204 501h77z" />
    <glyph glyph-name="X" unicode="X" horiz-adv-x="562" 
d="M455 0l-177 285l-179 -285h-83l220 348l-201 318h89l157 -250l155 250h87l-202 -312l223 -354h-89z" />
    <glyph glyph-name="Y" unicode="Y" horiz-adv-x="576" 
d="M251 0v219l-241 447h84l197 -369l193 369h82l-240 -448v-218h-75z" />
    <glyph glyph-name="Z" unicode="Z" horiz-adv-x="555" 
d="M511 0h-491l378 597h-356l19 69h470l-378 -597h382z" />
    <glyph glyph-name="bracketleft" unicode="[" horiz-adv-x="300" 
d="M104 -220v886h185v-60h-121v-766h121v-60h-185z" />
    <glyph glyph-name="backslash" unicode="\" horiz-adv-x="618" 
d="M120 660l498 -848l-55 -30l-500 847z" />
    <glyph glyph-name="bracketright" unicode="]" horiz-adv-x="300" 
d="M10 666h186v-886h-186v60h122v766h-122v60z" />
    <glyph glyph-name="asciicircum" unicode="^" horiz-adv-x="334" 
d="M257 447l-91 113l-93 -113h-78l176 211l168 -211h-82z" />
    <glyph glyph-name="underscore" unicode="_" horiz-adv-x="590" 
d="M590 -230h-590v69h590v-69z" />
    <glyph glyph-name="grave" unicode="`" horiz-adv-x="229" 
d="M118 500l62 -122h-46l-121 122h105z" />
    <glyph glyph-name="a" unicode="a" horiz-adv-x="362" 
d="M77 253l-11 53q50 22 120 22q59 0 93.5 -26t34.5 -73v-229h-63v23q-44 -31 -107 -31q-54 0 -87.5 28t-33.5 76q0 47 36 75.5t97 28.5q54 0 95 -23v16q0 41 -16 59.5t-61 18.5q-49 0 -97 -18zM92 98q0 -49 70 -49q38 0 64 13t26 36q0 22 -23 35.5t-61 13.5
q-35 0 -55.5 -13t-20.5 -36z" />
    <glyph glyph-name="b" unicode="b" horiz-adv-x="437" 
d="M118 50v-50h-64v666h64v-395q51 57 123 57q75 0 119 -47t44 -115q0 -73 -45 -124q-44 -50 -118 -50q-80 0 -123 58zM117 160q0 -45 31.5 -76.5t79.5 -31.5q49 0 78 29.5t29 80.5q0 47 -29 76.5t-81 29.5q-45 0 -77 -32q-31 -31 -31 -76z" />
    <glyph glyph-name="c" unicode="c" horiz-adv-x="360" 
d="M211 -8q-83 0 -131 50q-47 50 -47 118q0 64 45 116q46 52 132 52q69 0 126 -48l-38 -47q-44 35 -88 35q-48 0 -78 -30t-30 -78t31.5 -78t80.5 -30q50 0 89 33l36 -44q-50 -49 -128 -49z" />
    <glyph glyph-name="d" unicode="d" horiz-adv-x="437" 
d="M383 666v-666h-64v50q-46 -58 -122 -58q-78 0 -121 48q-43 49 -43 119q0 65 47 117q46 52 124 52q74 0 115 -57v395h64zM102 159q0 -46 30 -76.5t77 -30.5t79 31t32 77q0 45 -31.5 76.5t-77.5 31.5q-47 0 -78 -31.5t-31 -77.5z" />
    <glyph glyph-name="e" unicode="e" horiz-adv-x="404" 
d="M320 96l44 -36q-56 -68 -152 -68q-84 0 -132 50q-47 50 -47 122q0 70 51 117q53 47 121 47q77 0 121 -47q45 -46 45 -109q0 -11 -3 -26h-272q3 -40 35.5 -67t80.5 -27q66 0 108 44zM101 199h200q-6 31 -31 50t-62 19q-81 0 -107 -69z" />
    <glyph glyph-name="f" unicode="f" horiz-adv-x="215" 
d="M139 0h-65v260h-65v60h65v218q0 55 29.5 91.5t76.5 36.5h30v-60h-12q-32 0 -45.5 -20.5t-13.5 -64.5v-201h67v-60h-67v-260z" />
    <glyph glyph-name="g" unicode="g" horiz-adv-x="437" 
d="M319 271v49h64v-280q0 -110 -39 -153q-38 -44 -143 -44q-71 0 -151 27l16 60q69 -27 142 -27q56 0 83.5 26t27.5 93v28q-46 -58 -122 -58q-77 0 -120 48q-44 50 -44 120q0 67 46 117q47 51 124 51q73 0 116 -57zM103 160q0 -48 29 -78t77 -30t79.5 30t31.5 78
q0 46 -31.5 77t-77.5 31q-50 0 -79 -30t-29 -78z" />
    <glyph glyph-name="h" unicode="h" horiz-adv-x="390" 
d="M118 0h-64v666h64v-399q14 28 43 44.5t62 16.5q119 0 119 -129v-199h-65v181q0 44 -16 65.5t-56 21.5q-38 0 -62.5 -26t-24.5 -63v-179z" />
    <glyph glyph-name="i" unicode="i" horiz-adv-x="172" 
d="M118 0h-64v320h64v-320zM118 477v-74h-64v74h64z" />
    <glyph glyph-name="j" unicode="j" horiz-adv-x="171" 
d="M53 -9v329h64v-348q0 -45 -28 -85q-27 -41 -83 -41h-7v60h4q50 0 50 85zM117 477v-74h-64v74h64z" />
    <glyph glyph-name="k" unicode="k" horiz-adv-x="351" 
d="M119 0h-65v666h65v-490l133 144h76l-122 -129l145 -191h-77l-114 150l-41 -40v-110z" />
    <glyph glyph-name="l" unicode="l" horiz-adv-x="172" 
d="M118 0h-64v666h64v-666z" />
    <glyph glyph-name="m" unicode="m" horiz-adv-x="577" 
d="M119 0h-65v320h65v-53q15 25 42 43t55 18q73 0 97 -69q31 69 103 69q113 0 113 -129v-199h-65v190q0 78 -61 78q-35 0 -57 -26t-22 -63v-179h-65v189q0 79 -59 79q-34 0 -57.5 -25.5t-23.5 -64.5v-178z" />
    <glyph glyph-name="n" unicode="n" horiz-adv-x="390" 
d="M118 0h-64v320h64v-53q15 27 43 44t61 17q120 0 120 -129v-199h-65v181q0 46 -15.5 66.5t-55.5 20.5q-38 0 -63 -26t-25 -63v-179z" />
    <glyph glyph-name="o" unicode="o" horiz-adv-x="422" 
d="M33 160q0 69 48 118q48 50 130 50q79 0 128 -48q50 -47 50 -120q0 -77 -49.5 -122.5t-128.5 -45.5q-85 0 -131 49q-47 50 -47 119zM102 160q0 -48 30.5 -78t78.5 -30q50 0 79.5 30t29.5 78q0 49 -30.5 78.5t-78.5 29.5q-49 0 -79 -29t-30 -79z" />
    <glyph glyph-name="p" unicode="p" horiz-adv-x="437" 
d="M118 50v-204h-64v474h64v-49q46 57 116 57q80 0 125 -53q45 -52 45 -115q0 -69 -44 -119q-43 -49 -120 -49t-122 58zM117 160q0 -46 31.5 -77t80.5 -31t77.5 30t28.5 78q0 39 -28 73q-29 35 -82 35q-45 0 -76.5 -31t-31.5 -77z" />
    <glyph glyph-name="q" unicode="q" horiz-adv-x="437" 
d="M383 -154h-64v204q-49 -58 -122 -58q-72 0 -119 47q-45 47 -45 121q0 67 46 117q47 51 124 51q75 0 116 -57v49h64v-474zM102 160q0 -49 28.5 -78t78.5 -29q48 0 79.5 29.5t31.5 77.5q0 46 -31.5 77t-77.5 31q-50 0 -79.5 -30t-29.5 -78z" />
    <glyph glyph-name="r" unicode="r" horiz-adv-x="246" 
d="M119 0h-65v320h65v-72q13 35 41 57.5t62 22.5h18v-69h-34q-39 0 -63 -27.5t-24 -70.5v-161z" />
    <glyph glyph-name="s" unicode="s" horiz-adv-x="293" 
d="M250 304l-24 -51q-45 15 -70 15q-38 0 -38 -26q0 -23 55 -48l14 -7q39 -22 57.5 -44t18.5 -57q0 -42 -31.5 -67.5t-82.5 -25.5q-64 0 -119 38l30 52q45 -30 85 -30q49 0 49 37q0 23 -65 58l-18 9q-33 18 -47.5 39t-14.5 51q0 37 30.5 59t74.5 22q52 0 96 -24z" />
    <glyph glyph-name="t" unicode="t" horiz-adv-x="218" 
d="M141 0h-64v260h-66v60h66v181l64 35v-216h66v-60h-66v-260z" />
    <glyph glyph-name="u" unicode="u" horiz-adv-x="391" 
d="M273 320h64v-320h-64v55q-13 -25 -40.5 -44t-65.5 -19q-57 0 -88 33t-31 96v199h65v-182q0 -46 16.5 -65.5t55.5 -19.5q37 0 62.5 25.5t25.5 64.5v177z" />
    <glyph glyph-name="v" unicode="v" horiz-adv-x="336" 
d="M173 80q12 42 24 74l66 166h70l-139 -320h-47l-144 320h73l73 -167q10 -21 24 -73z" />
    <glyph glyph-name="w" unicode="w" horiz-adv-x="520" 
d="M381 128l65 192h71l-121 -320h-53l-82 243l-82 -243h-53l-123 320h72l66 -192l7 -26q2 -10 6 -20l1 3q1 3 1 4l10 38l62 193h66l61 -192q6 -19 7 -26q2 -10 6 -20v-1q0 1 0.5 2t0.5 2q7 32 12 43z" />
    <glyph glyph-name="x" unicode="x" horiz-adv-x="326" 
d="M244 0l-85 118l-85 -118h-71l117 162l-113 158h78l78 -111l41 55q22 29 40 56h74l-116 -155l121 -165h-79z" />
    <glyph glyph-name="y" unicode="y" horiz-adv-x="344" 
d="M200 154l71 166h70l-214 -474h-67l80 176l-137 298h73l73 -167l17 -51l7 -22q15 43 27 74z" />
    <glyph glyph-name="z" unicode="z" horiz-adv-x="307" 
d="M304 320l-184 -260h183l-26 -60h-274l185 260h-156l24 60h248z" />
    <glyph glyph-name="braceleft" unicode="{" horiz-adv-x="336" 
d="M100 228v-1q91 -40 91 -169v-134q0 -40 26 -62t66 -22h23v-60h-43q-136 0 -136 144v116q0 148 -97 158v61q51 6 73.5 43.5t22.5 113.5v108q0 142 135 142h43v-60h-23q-40 0 -65 -21t-25 -61v-131q0 -137 -91 -165z" />
    <glyph glyph-name="bar" unicode="|" horiz-adv-x="204" 
d="M134 -230h-64v1063h64v-1063z" />
    <glyph glyph-name="braceright" unicode="}" horiz-adv-x="336" 
d="M236 229v1q-49 20 -70 58.5t-21 110.5v123q0 40 -26 62t-66 22h-23v60h43q136 0 136 -144v-105q0 -149 97 -159v-61q-51 -6 -73.5 -43t-22.5 -113v-119q0 -142 -135 -142h-43v60h23q40 0 65 21t25 61v142q0 137 91 165z" />
    <glyph glyph-name="asciitilde" unicode="~" horiz-adv-x="626" 
d="M456 321q41 0 85 38l35 -52q-55 -58 -120 -58q-54 0 -167 48q-73 30 -106 30q-41 0 -90 -42l-3 -3l-5 -4l-36 51q67 70 134 70q35 0 123 -35q102 -43 150 -43z" />
    <glyph glyph-name="uni00A0" unicode="&#xa0;" horiz-adv-x="233" 
 />
    <glyph glyph-name="exclamdown" unicode="&#xa1;" horiz-adv-x="232" 
d="M92 118h49l22 -465h-94zM157 319v-93h-86v93h86z" />
    <glyph glyph-name="cent" unicode="&#xa2;" horiz-adv-x="429" 
d="M274 -11v-111h-57v112q-95 11 -151 71q-56 62 -56 153q0 86 58 150q57 63 149 74v112h57v-112q72 -1 140 -53l-36 -47q-53 43 -125 43q-74 0 -121 -47q-46 -46 -46 -120q0 -66 47 -116q46 -49 125 -49q74 0 126 39l37 -45q-55 -43 -147 -54z" />
    <glyph glyph-name="sterling" unicode="&#xa3;" horiz-adv-x="458" 
d="M409 642l-31 -59q-55 29 -105 29q-62 0 -96.5 -34.5t-34.5 -95.5q0 -57 30 -138h153v-63h-136q6 -33 6 -65q0 -76 -68 -139l3 -4q32 13 70 13q23 0 59 -16t60 -16q43 0 81 39l39 -46q-67 -62 -123 -62q-23 0 -69 17q-45 18 -72 18q-52 0 -95 -27l-46 82q50 37 73 68.5
t23 69.5q0 33 -15 68h-96v63h71q-28 75 -28 137q0 92 57.5 146t153.5 54q71 0 136 -39z" />
    <glyph glyph-name="currency" unicode="&#xa4;" horiz-adv-x="606" 
d="M73 69l-42 43l91 92q-45 61 -45 134t45 136l-93 92l43 44l93 -92q58 47 138 47t138 -47l92 92l44 -44l-94 -93q46 -61 46 -135q0 -72 -45 -133l93 -93l-44 -43l-93 92l-14 -11l1 2q-58 -39 -124 -39q-76 0 -138 47zM150 338q0 -66 43 -109q44 -44 110 -44q61 0 107 41
q45 41 45 112q0 58 -42 106q-40 49 -110 49q-66 0 -109 -43q-44 -44 -44 -112z" />
    <glyph glyph-name="yen" unicode="&#xa5;" horiz-adv-x="531" 
d="M228 257h-174v63h144l-184 346h84l169 -320l167 320h83l-188 -346h150v-63h-177v-70h177v-63h-177v-124h-74v124h-174v63h174v70z" />
    <glyph glyph-name="brokenbar" unicode="&#xa6;" horiz-adv-x="204" 
d="M70 833h64v-449h-64v449zM70 219h64v-449h-64v449z" />
    <glyph glyph-name="section" unicode="&#xa7;" horiz-adv-x="541" 
d="M157 247q0 -52 32 -81.5t83 -29.5q49 0 80.5 30.5t31.5 80.5q0 46 -31.5 77.5t-82.5 31.5t-82 -31t-31 -78zM255 -201q-82 0 -143 37l32 57q52 -30 109 -30q41 0 65 21t24 56q0 41 -24 77t-66 56q-75 4 -122 51.5t-47 122.5q0 61 37 108q38 48 97 60q-40 24 -63 60
t-23 73q0 68 46 107q46 40 117 40q75 0 143 -38l-31 -56q-51 30 -109 30q-43 0 -67.5 -23.5t-24.5 -59.5q0 -76 87 -129q75 -6 121 -56q45 -49 45 -116q0 -125 -128 -170q41 -23 63.5 -61t22.5 -76q0 -64 -43.5 -102.5t-117.5 -38.5z" />
    <glyph glyph-name="dieresis" unicode="&#xa8;" horiz-adv-x="248" 
d="M227 477v-73h-70v73h70zM94 477v-73h-70v73h70z" />
    <glyph glyph-name="copyright" unicode="&#xa9;" horiz-adv-x="905" 
d="M468 -11q-105 0 -165 62q-59 62 -59 148q0 80 57.5 146t166.5 66q84 0 151 -57l-41 -48q-50 42 -110 42q-67 0 -109 -43q-41 -44 -41 -106q0 -67 45 -107q44 -40 108 -40t114 38l40 -42q-68 -59 -157 -59zM70 205q0 160 111 271q113 111 272 111q158 0 270 -112
q112 -111 112 -270q0 -160 -112 -271q-112 -112 -270 -112q-160 0 -272 112q-111 112 -111 271zM132 203q0 -131 93 -225q94 -94 228 -94q130 0 225 95t95 224q0 132 -95 227t-225 95q-132 0 -227 -95q-94 -94 -94 -227z" />
    <glyph glyph-name="ordfeminine" unicode="&#xaa;" horiz-adv-x="427" 
d="M129 593l-10 52q62 21 122 21q57 0 91.5 -26t34.5 -71v-237h-62v25q-43 -34 -110 -34q-55 0 -92.5 29.5t-37.5 78.5q0 46 38.5 75t99.5 29q58 0 102 -32v22q0 46 -16.5 65t-60.5 19q-52 0 -99 -16zM133 430q0 -24 23 -37t60 -13q39 0 64.5 12.5t25.5 35.5q0 24 -23.5 37
t-62.5 13q-87 0 -87 -48z" />
    <glyph glyph-name="guillemotleft" unicode="&#xab;" horiz-adv-x="367" 
d="M267 33l-93 126l93 127h70l-90 -127l90 -126h-70zM139 33l-92 126l92 127h71l-91 -127l91 -126h-71z" />
    <glyph glyph-name="logicalnot" unicode="&#xac;" horiz-adv-x="730" 
d="M524 293h-482v69h542v-222h-60v153z" />
    <glyph glyph-name="uni00AD" unicode="&#xad;" horiz-adv-x="427" 
d="M352 146h-277v69h277v-69z" />
    <glyph glyph-name="registered" unicode="&#xae;" horiz-adv-x="612" 
d="M287 459h-25v-98h-59v269h129q38 0 61 -22.5t23 -55.5q0 -58 -59 -84l91 -107h-77zM312 579h-50v-73h50q20 0 32.5 10.5t12.5 28.5q0 34 -45 34zM306 276q86 0 149 63q64 64 64 150q0 87 -64 150q-63 64 -149 64q-88 0 -151 -63t-63 -150q0 -86 63 -151q63 -63 151 -63z
M306 761q112 0 191 -79q80 -80 80 -192t-80 -192q-79 -79 -191 -79q-114 0 -193 79q-78 80 -78 192t78 192q79 79 193 79z" />
    <glyph glyph-name="overscore" unicode="&#xaf;" horiz-adv-x="252" 
d="M229 416h-207v60h207v-60z" />
    <glyph glyph-name="degree" unicode="&#xb0;" horiz-adv-x="327" 
d="M20 515q0 60 42 102t101 42q60 0 102 -42t42 -102q0 -59 -42 -101t-102 -42q-59 0 -101 42t-42 101zM83 516q0 -36 23.5 -60.5t54.5 -24.5q38 0 60.5 23.5t22.5 61.5q0 33 -22 58.5t-60 25.5q-33 0 -56 -25t-23 -59z" />
    <glyph glyph-name="plusminus" unicode="&#xb1;" horiz-adv-x="596" 
d="M546 39h-496v69h496v-69zM326 320v-170h-64v170h-212v69h212v206h64v-206h218v-69h-218z" />
    <glyph glyph-name="twosuperior" unicode="&#xb2;" horiz-adv-x="391" 
d="M193 389h133l-28 -57h-253q114 94 161.5 146t47.5 93q0 75 -94 75q-51 0 -91 -28l-22 46q59 39 126 39q66 0 105.5 -32t39.5 -86q0 -46 -30 -91t-95 -105z" />
    <glyph glyph-name="threesuperior" unicode="&#xb3;" horiz-adv-x="398" 
d="M84 631l-20 48q46 24 108 24q68 0 109 -25t41 -73q0 -32 -21.5 -56.5t-55.5 -32.5v-3q40 -5 64.5 -28.5t24.5 -55.5q0 -52 -46.5 -79t-124.5 -27q-47 0 -95 16v55q53 -14 94 -14q108 0 108 48q0 54 -114 54h-11v53h11q52 0 77 16.5t25 40.5q0 26 -25 40t-64 14
q-51 0 -85 -15z" />
    <glyph glyph-name="acute" unicode="&#xb4;" horiz-adv-x="256" 
d="M122 378h-49l67 125h104z" />
    <glyph glyph-name="mu" unicode="&#xb5;" horiz-adv-x="523" 
d="M451 0h-69v63q-68 -75 -142 -75q-52 0 -99 27v-239h-69v661h70v-254q0 -65 28 -100.5t79 -35.5q76 0 133 85v305h69v-437z" />
    <glyph glyph-name="mu" unicode="&#x3bc;" horiz-adv-x="523" 
d="M451 0h-69v63q-68 -75 -142 -75q-52 0 -99 27v-239h-69v661h70v-254q0 -65 28 -100.5t79 -35.5q76 0 133 85v305h69v-437z" />
    <glyph glyph-name="paragraph" unicode="&#xb6;" horiz-adv-x="489" 
d="M281 -201h-60v560q-81 0 -130 54q-49 55 -49 117q0 66 45 118q45 53 122 53h72v-902zM419 -201h-60v902h60v-902z" />
    <glyph glyph-name="middot" unicode="&#xb7;" horiz-adv-x="229" 
d="M62 306v112h105v-112h-105z" />
    <glyph glyph-name="cedilla" unicode="&#xb8;" horiz-adv-x="161" 
d="M50 4h51v-34q26 -4 40.5 -18t14.5 -35q0 -30 -31 -49.5t-76 -19.5q-13 0 -27 3l4 47q16 -2 23 -2q38 0 38 19q0 17 -37 17v72z" />
    <glyph glyph-name="onesuperior" unicode="&#xb9;" horiz-adv-x="271" 
d="M124 613l-74 -70v64l94 93h37v-368h-57v281z" />
    <glyph glyph-name="ordmasculine" unicode="&#xba;" horiz-adv-x="432" 
d="M56 495q0 67 42 120q43 52 118 52q79 0 118 -51q40 -49 40 -121q0 -73 -45 -123q-45 -49 -113 -49q-73 0 -116.5 47t-43.5 125zM120 494q0 -52 25 -83t71 -31q47 0 70.5 30.5t23.5 83.5q0 51 -23 83.5t-71 32.5q-47 0 -71.5 -32t-24.5 -84z" />
    <glyph glyph-name="guillemotright" unicode="&#xbb;" horiz-adv-x="367" 
d="M101 286l92 -127l-92 -126h-71l91 126l-91 127h71zM228 286l92 -127l-92 -126h-71l91 126l-91 127h71z" />
    <glyph glyph-name="onequarter" unicode="&#xbc;" horiz-adv-x="748" 
d="M656 117h44l-15 -47h-29v-70h-57v70h-199v36l224 263h32v-252zM471 117h128v150zM670 648l-563 -646l-43 42l559 647zM124 613l-74 -70v64l94 93h37v-368h-57v281z" />
    <glyph glyph-name="onehalf" unicode="&#xbd;" horiz-adv-x="821" 
d="M671 648l-561 -646l-44 42l558 647zM124 613l-74 -70v64l94 93h37v-368h-57v281zM638 57h133l-28 -57h-253q114 94 161.5 146t47.5 93q0 75 -94 75q-51 0 -91 -28l-22 46q58 39 126 39q66 0 105.5 -32t39.5 -86q0 -46 -30 -91t-95 -105z" />
    <glyph glyph-name="threequarters" unicode="&#xbe;" horiz-adv-x="836" 
d="M745 648l-562 -646l-45 42l560 647zM84 631l-20 48q46 24 108 24q68 0 109 -25t41 -73q0 -32 -21.5 -56.5t-55.5 -32.5v-3q40 -5 64.5 -28.5t24.5 -55.5q0 -52 -46.5 -79t-124.5 -27q-47 0 -95 16v55q53 -14 94 -14q108 0 108 48q0 54 -114 54h-11v53h11q52 0 77 16.5
t25 40.5q0 26 -25 40t-64 14q-51 0 -85 -15zM709 117h44l-15 -47h-29v-70h-57v70h-199v36l224 263h32v-252zM524 117h128v150z" />
    <glyph glyph-name="questiondown" unicode="&#xbf;" horiz-adv-x="244" 
d="M172 319v-92h-92v92h92zM224 -288l-14 -66q-45 -8 -79 -8q-72 0 -111.5 32t-39.5 89q0 55 76 131q29 29 36 37q31 33 31 63q0 16 -13 35q-15 25 -58 67l45 49q100 -87 100 -148q0 -31 -15.5 -56.5t-57.5 -67.5l-33 -34q-37 -43 -37 -75q0 -53 86 -53q26 0 84 5z" />
    <glyph glyph-name="Agrave" unicode="&#xc0;" horiz-adv-x="665" 
d="M485 183h-313l-85 -183h-79l325 680l324 -680h-87zM329 519l-124 -268h251zM276 867l80 -126h-51l-140 126h111z" />
    <glyph glyph-name="Aacute" unicode="&#xc1;" horiz-adv-x="665" 
d="M485 183h-313l-85 -183h-79l325 680l324 -680h-87zM329 519l-124 -268h251zM371 741h-52l81 126h111z" />
    <glyph glyph-name="Acircumflex" unicode="&#xc2;" horiz-adv-x="665" 
d="M485 183h-313l-85 -183h-79l325 680l324 -680h-87zM329 519l-124 -268h251zM415 730l-79 88l-79 -88h-57l99 147h72l100 -147h-56z" />
    <glyph glyph-name="Atilde" unicode="&#xc3;" horiz-adv-x="665" 
d="M485 183h-313l-85 -183h-79l325 680l324 -680h-87zM329 519l-124 -268h251zM225 731l-52 18q9 40 36 66.5t64 26.5q27 0 64 -19q40 -18 62 -18q15 0 23 9q12 12 16 18l6 10l54 -20q-10 -37 -35 -61t-56 -24q-25 0 -66 18q-39 19 -63 19q-32 0 -53 -43z" />
    <glyph glyph-name="Adieresis" unicode="&#xc4;" horiz-adv-x="665" 
d="M485 183h-313l-85 -183h-79l325 680l324 -680h-87zM329 519l-124 -268h251zM294 849v-87h-80v87h80zM452 849v-87h-79v87h79z" />
    <glyph glyph-name="Aring" unicode="&#xc5;" horiz-adv-x="665" 
d="M485 183h-313l-85 -183h-79l325 680l324 -680h-87zM329 519l-124 -268h251zM242 824q-2 29 15 52t42 33.5t54 6t48 -26.5q27 -29 27 -65t-27.5 -65.5t-65.5 -27.5q-40 0 -66.5 26.5t-26.5 66.5zM300 824q0 -15 10 -25.5t25 -10.5q14 0 24.5 10.5t10.5 25.5q0 14 -10.5 25
t-24.5 11t-24.5 -11t-10.5 -25z" />
    <glyph glyph-name="AE" unicode="&#xc6;" horiz-adv-x="905" 
d="M78 0h-78l417 666h427v-69h-318v-221h288v-69h-288v-238h321v-69h-395v168h-269v1zM452 237v360l-228 -360h228z" />
    <glyph glyph-name="Ccedilla" unicode="&#xc7;" horiz-adv-x="660" 
d="M588 112l40 -50q-85 -71 -205 -76v-38q36 -4 57 -23t21 -49q0 -42 -44 -66q-43 -24 -101 -24q-1 0 -31 2l4 53q7 -1 27 -1q25 0 43 8t18 25q0 27 -51 32v82q-77 7 -138.5 39.5t-99.5 81.5t-58 107t-20 119q0 146 102 247q101 100 256 100q128 0 210 -67l-42 -53
q-68 51 -170 51q-121 0 -199 -78q-77 -77 -77 -200q0 -124 77 -203q79 -77 202 -77q100 0 179 58z" />
    <glyph glyph-name="Egrave" unicode="&#xc8;" horiz-adv-x="558" 
d="M178 376h290v-69h-290v-238h322v-69h-396v666h393v-69h-319v-221zM258 867l80 -126h-51l-140 126h111z" />
    <glyph glyph-name="Eacute" unicode="&#xc9;" horiz-adv-x="558" 
d="M178 376h290v-69h-290v-238h322v-69h-396v666h393v-69h-319v-221zM295 741h-52l81 126h111z" />
    <glyph glyph-name="Ecircumflex" unicode="&#xca;" horiz-adv-x="558" 
d="M178 376h290v-69h-290v-238h322v-69h-396v666h393v-69h-319v-221zM379 730l-79 88l-79 -88h-57l99 147h72l100 -147h-56z" />
    <glyph glyph-name="Edieresis" unicode="&#xcb;" horiz-adv-x="558" 
d="M178 376h290v-69h-290v-238h322v-69h-396v666h393v-69h-319v-221zM261 849v-87h-80v87h80zM419 849v-87h-79v87h79z" />
    <glyph glyph-name="Igrave" unicode="&#xcc;" horiz-adv-x="282" 
d="M79 867l80 -126h-51l-140 126h111zM178 0h-74v666h74v-666z" />
    <glyph glyph-name="Iacute" unicode="&#xcd;" horiz-adv-x="282" 
d="M178 0h-74v666h74v-666zM173 741h-52l81 126h111z" />
    <glyph glyph-name="Icircumflex" unicode="&#xce;" horiz-adv-x="282" 
d="M218 730l-79 88l-79 -88h-57l99 147h72l100 -147h-56zM178 0h-74v666h74v-666z" />
    <glyph glyph-name="Idieresis" unicode="&#xcf;" horiz-adv-x="282" 
d="M102 849v-87h-80v87h80zM260 849v-87h-79v87h79zM178 0h-74v666h74v-666z" />
    <glyph glyph-name="Eth" unicode="&#xd0;" horiz-adv-x="706" 
d="M299 0h-192v301h-84v69h84v296h192q174 0 265 -93q92 -92 92 -240t-88 -240q-88 -93 -269 -93zM298 597h-117v-227h149v-69h-149v-232h120q133 0 204 66.5t71 196.5q0 125 -71 195t-207 70z" />
    <glyph glyph-name="Ntilde" unicode="&#xd1;" horiz-adv-x="736" 
d="M256 731l-52 18q9 40 36 66.5t64 26.5q27 0 64 -19q40 -18 62 -18q15 0 23 9q12 12 16 18l6 10l54 -20q-10 -37 -35 -61t-56 -24q-26 0 -66 18q-39 19 -63 19q-32 0 -53 -43zM632 7l-459 492v-499h-69v680l459 -490v476h69v-659z" />
    <glyph glyph-name="Ograve" unicode="&#xd2;" horiz-adv-x="811" 
d="M50 333q0 149 100 248q100 100 257 100q83 0 153 -31t113 -83q88 -103 88 -234q0 -140 -98 -244t-256 -104q-159 0 -258 103q-99 104 -99 245zM130 332q0 -115 77 -197q78 -81 199 -81t198 80t77 198q0 72 -30 133q-31 65 -96 106t-149 41q-121 0 -199 -82
q-77 -82 -77 -198zM340 867l80 -126h-51l-140 126h111z" />
    <glyph glyph-name="Oacute" unicode="&#xd3;" horiz-adv-x="811" 
d="M50 333q0 149 100 248q100 100 257 100q83 0 153 -31t113 -83q88 -103 88 -234q0 -140 -98 -244t-256 -104q-159 0 -258 103q-99 104 -99 245zM130 332q0 -115 77 -197q78 -81 199 -81t198 80t77 198q0 72 -30 133q-31 65 -96 106t-149 41q-121 0 -199 -82
q-77 -82 -77 -198zM437 741h-52l81 126h111z" />
    <glyph glyph-name="Ocircumflex" unicode="&#xd4;" horiz-adv-x="811" 
d="M50 333q0 149 100 248q100 100 257 100q83 0 153 -31t113 -83q88 -103 88 -234q0 -140 -98 -244t-256 -104q-159 0 -258 103q-99 104 -99 245zM130 332q0 -115 77 -197q78 -81 199 -81t198 80t77 198q0 72 -30 133q-31 65 -96 106t-149 41q-121 0 -199 -82
q-77 -82 -77 -198zM481 730l-79 88l-79 -88h-57l99 147h72l100 -147h-56z" />
    <glyph glyph-name="Otilde" unicode="&#xd5;" horiz-adv-x="811" 
d="M50 333q0 149 100 248q100 100 257 100q83 0 153 -31t113 -83q88 -103 88 -234q0 -140 -98 -244t-256 -104q-159 0 -258 103q-99 104 -99 245zM130 332q0 -115 77 -197q78 -81 199 -81t198 80t77 198q0 72 -30 133q-31 65 -96 106t-149 41q-121 0 -199 -82
q-77 -82 -77 -198zM293 731l-52 18q9 40 36 66.5t64 26.5q27 0 64 -19q41 -18 62 -18q15 0 23 9q12 12 16 18l6 10l54 -20q-10 -37 -35 -61t-56 -24q-25 0 -66 18q-39 19 -63 19q-32 0 -53 -43z" />
    <glyph glyph-name="Odieresis" unicode="&#xd6;" horiz-adv-x="811" 
d="M50 333q0 149 100 248q100 100 257 100q83 0 153 -31t113 -83q88 -103 88 -234q0 -140 -98 -244t-256 -104q-159 0 -258 103q-99 104 -99 245zM130 332q0 -115 77 -197q78 -81 199 -81t198 80t77 198q0 72 -30 133q-31 65 -96 106t-149 41q-121 0 -199 -82
q-77 -82 -77 -198zM307 819v-87h-80v87h80zM586 819v-87h-79v87h79z" />
    <glyph glyph-name="multiply" unicode="&#xd7;" horiz-adv-x="610" 
d="M356 257l204 -204l-51 -51l-203 205l-206 -205l-50 51l204 204l-204 205l50 50l206 -205l203 205l51 -50z" />
    <glyph glyph-name="Oslash" unicode="&#xd8;" horiz-adv-x="812" 
d="M171 67l-80 -77l-41 44l81 75q-80 101 -80 224q0 143 98 246q98 102 259 102q138 0 233 -81l78 78l43 -42l-80 -79q80 -103 80 -224q0 -144 -101 -247q-101 -101 -253 -101q-134 0 -237 82zM626 506l-403 -388q73 -63 183 -63q123 0 199 79q78 80 78 198q0 92 -57 174z
M184 162l402 387q-44 35 -81 48q-39 14 -98 14q-121 0 -199 -82q-78 -81 -78 -197q0 -100 54 -170z" />
    <glyph glyph-name="Ugrave" unicode="&#xd9;" horiz-adv-x="743" 
d="M569 666h74v-376q0 -149 -70 -227t-200 -78q-137 0 -205 78t-68 227v376h74v-381q0 -231 199 -231q196 0 196 231v381zM306 867l80 -126h-51l-140 126h111z" />
    <glyph glyph-name="Uacute" unicode="&#xda;" horiz-adv-x="743" 
d="M569 666h74v-376q0 -149 -70 -227t-200 -78q-137 0 -205 78t-68 227v376h74v-381q0 -231 199 -231q196 0 196 231v381zM393 741h-52l81 126h111z" />
    <glyph glyph-name="Ucircumflex" unicode="&#xdb;" horiz-adv-x="743" 
d="M569 666h74v-376q0 -149 -70 -227t-200 -78q-137 0 -205 78t-68 227v376h74v-381q0 -231 199 -231q196 0 196 231v381zM448 730l-79 88l-79 -88h-57l99 147h72l100 -147h-56z" />
    <glyph glyph-name="Udieresis" unicode="&#xdc;" horiz-adv-x="743" 
d="M569 666h74v-376q0 -149 -70 -227t-200 -78q-137 0 -205 78t-68 227v376h74v-381q0 -231 199 -231q196 0 196 231v381zM330 849v-87h-80v87h80zM488 849v-87h-79v87h79z" />
    <glyph glyph-name="Yacute" unicode="&#xdd;" horiz-adv-x="576" 
d="M251 0v219l-241 447h84l197 -369l193 369h82l-240 -448v-218h-75zM311 741h-52l81 126h111z" />
    <glyph glyph-name="Thorn" unicode="&#xde;" horiz-adv-x="555" 
d="M178 489v-279h107q85 0 126.5 36t41.5 102q0 67 -41 104t-122 37h-112zM296 141h-118v-141h-74v666h74v-108h129q103 0 165 -59q61 -58 61 -143q0 -100 -60.5 -157.5t-176.5 -57.5z" />
    <glyph glyph-name="germandbls" unicode="&#xdf;" horiz-adv-x="414" 
d="M139 0h-66v365q0 75 33.5 118t102.5 43q64 0 101.5 -33.5t37.5 -92.5q0 -40 -20.5 -70t-52.5 -36v-2q44 -7 70.5 -47.5t26.5 -96.5q0 -74 -36.5 -116t-93.5 -42q-38 0 -64 21l21 53q14 -10 37 -10q30 0 48 25t18 69q0 62 -24.5 90t-78.5 24v54q41 0 60.5 19.5t19.5 61.5
q0 65 -75 65q-30 0 -47.5 -25t-17.5 -66v-371z" />
    <glyph glyph-name="agrave" unicode="&#xe0;" horiz-adv-x="362" 
d="M77 253l-11 53q50 22 120 22q59 0 93.5 -26t34.5 -73v-229h-63v23q-44 -31 -107 -31q-54 0 -87.5 28t-33.5 76q0 47 36 75.5t97 28.5q54 0 95 -23v16q0 41 -16 59.5t-61 18.5q-49 0 -97 -18zM92 98q0 -49 70 -49q38 0 64 13t26 36q0 22 -23 35.5t-61 13.5
q-35 0 -55.5 -13t-20.5 -36zM171 500l62 -122h-46l-121 122h105z" />
    <glyph glyph-name="aacute" unicode="&#xe1;" horiz-adv-x="362" 
d="M77 253l-11 53q50 22 120 22q59 0 93.5 -26t34.5 -73v-229h-63v23q-44 -31 -107 -31q-54 0 -87.5 28t-33.5 76q0 47 36 75.5t97 28.5q54 0 95 -23v16q0 41 -16 59.5t-61 18.5q-49 0 -97 -18zM92 98q0 -49 70 -49q38 0 64 13t26 36q0 22 -23 35.5t-61 13.5
q-35 0 -55.5 -13t-20.5 -36zM202 378h-49l67 125h104z" />
    <glyph glyph-name="acircumflex" unicode="&#xe2;" horiz-adv-x="362" 
d="M77 253l-11 53q50 22 120 22q59 0 93.5 -26t34.5 -73v-229h-63v23q-44 -31 -107 -31q-54 0 -87.5 28t-33.5 76q0 47 36 75.5t97 28.5q54 0 95 -23v16q0 41 -16 59.5t-61 18.5q-49 0 -97 -18zM92 98q0 -49 70 -49q38 0 64 13t26 36q0 22 -23 35.5t-61 13.5
q-35 0 -55.5 -13t-20.5 -36zM245 383l-58 63l-60 -63h-51l79 120h60l81 -120h-51z" />
    <glyph glyph-name="atilde" unicode="&#xe3;" horiz-adv-x="362" 
d="M77 253l-11 53q50 22 120 22q59 0 93.5 -26t34.5 -73v-229h-63v23q-44 -31 -107 -31q-54 0 -87.5 28t-33.5 76q0 47 36 75.5t97 28.5q54 0 95 -23v16q0 41 -16 59.5t-61 18.5q-49 0 -97 -18zM92 98q0 -49 70 -49q38 0 64 13t26 36q0 22 -23 35.5t-61 13.5
q-35 0 -55.5 -13t-20.5 -36zM111 397l-48 15q26 71 80 71q21 0 52 -15q24 -12 38 -12q22 0 33 26l47 -18q-7 -27 -27 -45t-46 -18q-23 0 -48 13q-33 13 -44 13q-27 0 -37 -30z" />
    <glyph glyph-name="adieresis" unicode="&#xe4;" horiz-adv-x="362" 
d="M77 253l-11 53q50 22 120 22q59 0 93.5 -26t34.5 -73v-229h-63v23q-44 -31 -107 -31q-54 0 -87.5 28t-33.5 76q0 47 36 75.5t97 28.5q54 0 95 -23v16q0 41 -16 59.5t-61 18.5q-49 0 -97 -18zM92 98q0 -49 70 -49q38 0 64 13t26 36q0 22 -23 35.5t-61 13.5
q-35 0 -55.5 -13t-20.5 -36zM299 477v-73h-70v73h70zM166 477v-73h-70v73h70z" />
    <glyph glyph-name="aring" unicode="&#xe5;" horiz-adv-x="362" 
d="M77 253l-11 53q50 22 120 22q59 0 93.5 -26t34.5 -73v-229h-63v23q-44 -31 -107 -31q-54 0 -87.5 28t-33.5 76q0 47 36 75.5t97 28.5q54 0 95 -23v16q0 41 -16 59.5t-61 18.5q-49 0 -97 -18zM92 98q0 -49 70 -49q38 0 64 13t26 36q0 22 -23 35.5t-61 13.5
q-35 0 -55.5 -13t-20.5 -36zM186 509q30 0 50 -20.5t20 -50.5q1 -28 -21 -49t-49 -21t-50 20q-33 30 -14 76.5t64 44.5zM210 438q0 16 -12 22t-24 -0.5t-12 -21.5q0 -23 24 -23t24 23z" />
    <glyph glyph-name="ae" unicode="&#xe6;" horiz-adv-x="618" 
d="M300 282q49 46 121 46q76 0 120 -47t44 -109q0 -12 -2 -26h-272q2 -40 35 -66.5t81 -26.5q69 0 108 43l43 -36q-56 -68 -152 -68q-85 0 -135 56v-1q-36 -29 -68 -42t-78 -13q-54 0 -88 28t-34 76q0 47 36.5 75.5t97.5 28.5q52 0 95 -23v16q0 40 -16.5 59t-60.5 19
q-50 0 -97 -18l-11 53q48 22 120 22q82 0 113 -46zM93 98q0 -48 70 -48q38 0 64 13t26 35t-23.5 35.5t-60.5 13.5q-76 0 -76 -49zM315 199h200q-6 31 -30.5 50t-60.5 19q-84 0 -109 -69z" />
    <glyph glyph-name="ccedilla" unicode="&#xe7;" horiz-adv-x="360" 
d="M303 85l36 -44q-47 -43 -114 -48v-23q26 -4 40.5 -18t14.5 -35q0 -30 -31 -49.5t-76 -19.5q-13 0 -27 3l4 47q16 -2 23 -2q38 0 38 19q0 17 -37 17v63q-65 11 -103 57t-38 108q0 64 45 116q46 52 132 52q69 0 126 -48l-38 -47q-44 35 -88 35q-48 0 -78 -30t-30 -78
t31.5 -78t80.5 -30q50 0 89 33z" />
    <glyph glyph-name="egrave" unicode="&#xe8;" horiz-adv-x="404" 
d="M320 96l44 -36q-56 -68 -152 -68q-84 0 -132 50q-47 50 -47 122q0 70 51 117q53 47 121 47q77 0 121 -47q45 -46 45 -109q0 -11 -3 -26h-272q3 -40 35.5 -67t80.5 -27q66 0 108 44zM101 199h200q-6 31 -31 50t-62 19q-81 0 -107 -69zM172 500l62 -122h-46l-121 122h105z
" />
    <glyph glyph-name="eacute" unicode="&#xe9;" horiz-adv-x="404" 
d="M320 96l44 -36q-56 -68 -152 -68q-84 0 -132 50q-47 50 -47 122q0 70 51 117q53 47 121 47q77 0 121 -47q45 -46 45 -109q0 -11 -3 -26h-272q3 -40 35.5 -67t80.5 -27q66 0 108 44zM101 199h200q-6 31 -31 50t-62 19q-81 0 -107 -69zM222 378h-49l67 125h104z" />
    <glyph glyph-name="ecircumflex" unicode="&#xea;" horiz-adv-x="404" 
d="M320 96l44 -36q-56 -68 -152 -68q-84 0 -132 50q-47 50 -47 122q0 70 51 117q53 47 121 47q77 0 121 -47q45 -46 45 -109q0 -11 -3 -26h-272q3 -40 35.5 -67t80.5 -27q66 0 108 44zM101 199h200q-6 31 -31 50t-62 19q-81 0 -107 -69zM265 383l-58 63l-60 -63h-51l79 120
h60l81 -120h-51z" />
    <glyph glyph-name="edieresis" unicode="&#xeb;" horiz-adv-x="404" 
d="M320 96l44 -36q-56 -68 -152 -68q-84 0 -132 50q-47 50 -47 122q0 70 51 117q53 47 121 47q77 0 121 -47q45 -46 45 -109q0 -11 -3 -26h-272q3 -40 35.5 -67t80.5 -27q66 0 108 44zM101 199h200q-6 31 -31 50t-62 19q-81 0 -107 -69zM308 477v-73h-70v73h70zM175 477v-73
h-70v73h70z" />
    <glyph glyph-name="igrave" unicode="&#xec;" horiz-adv-x="172" 
d="M45 500l62 -122h-46l-121 122h105zM117 0h-64v320h64v-320z" />
    <glyph glyph-name="iacute" unicode="&#xed;" horiz-adv-x="172" 
d="M117 0h-64v320h64v-320zM105 378h-49l67 125h104z" />
    <glyph glyph-name="icircumflex" unicode="&#xee;" horiz-adv-x="172" 
d="M143 383l-58 63l-60 -63h-51l79 120h60l81 -120h-51zM117 0h-64v320h64v-320z" />
    <glyph glyph-name="idieresis" unicode="&#xef;" horiz-adv-x="172" 
d="M184 477v-73h-70v73h70zM51 477v-73h-70v73h70zM117 0h-64v320h64v-320z" />
    <glyph glyph-name="eth" unicode="&#xf0;" horiz-adv-x="422" 
d="M300 511l35 -42l-60 -40q110 -98 110 -231q0 -93 -50 -149.5t-134 -56.5q-70 0 -119 46t-49 120q0 70 48 120t129 50q50 0 94 -39q-30 65 -84 104l-86 -57l-34 44l74 45q-14 10 -85 41l54 44q42 -10 92 -44zM102 164q0 -49 29 -80t79 -31q49 0 80 34q32 36 31 85
q0 14 -3 29v-1q-35 68 -103 68q-52 0 -82.5 -29.5t-30.5 -74.5z" />
    <glyph glyph-name="ntilde" unicode="&#xf1;" horiz-adv-x="390" 
d="M118 0h-64v320h64v-53q15 27 43 44t61 17q120 0 120 -129v-199h-65v181q0 46 -15.5 66.5t-55.5 20.5q-38 0 -63 -26t-25 -63v-179zM121 397l-48 15q26 71 80 71q21 0 52 -15q24 -12 38 -12q22 0 33 26l47 -18q-7 -27 -27 -45t-46 -18q-23 0 -48 13q-33 13 -44 13
q-26 0 -37 -30z" />
    <glyph glyph-name="ograve" unicode="&#xf2;" horiz-adv-x="422" 
d="M33 160q0 69 48 118q48 50 130 50q79 0 128 -48q50 -47 50 -120q0 -77 -49.5 -122.5t-128.5 -45.5q-85 0 -131 49q-47 50 -47 119zM102 160q0 -48 30.5 -78t78.5 -30q50 0 79.5 30t29.5 78q0 49 -30.5 78.5t-78.5 29.5q-49 0 -79 -29t-30 -79zM174 500l62 -122h-46
l-121 122h105z" />
    <glyph glyph-name="oacute" unicode="&#xf3;" horiz-adv-x="422" 
d="M33 160q0 69 48 118q48 50 130 50q79 0 128 -48q50 -47 50 -120q0 -77 -49.5 -122.5t-128.5 -45.5q-85 0 -131 49q-47 50 -47 119zM102 160q0 -48 30.5 -78t78.5 -30q50 0 79.5 30t29.5 78q0 49 -30.5 78.5t-78.5 29.5q-49 0 -79 -29t-30 -79zM230 378h-49l67 125h104z
" />
    <glyph glyph-name="ocircumflex" unicode="&#xf4;" horiz-adv-x="422" 
d="M33 160q0 69 48 118q48 50 130 50q79 0 128 -48q50 -47 50 -120q0 -77 -49.5 -122.5t-128.5 -45.5q-85 0 -131 49q-47 50 -47 119zM102 160q0 -48 30.5 -78t78.5 -30q50 0 79.5 30t29.5 78q0 49 -30.5 78.5t-78.5 29.5q-49 0 -79 -29t-30 -79zM270 383l-58 63l-60 -63
h-51l79 120h60l81 -120h-51z" />
    <glyph glyph-name="otilde" unicode="&#xf5;" horiz-adv-x="422" 
d="M33 160q0 69 48 118q48 50 130 50q79 0 128 -48q50 -47 50 -120q0 -77 -49.5 -122.5t-128.5 -45.5q-85 0 -131 49q-47 50 -47 119zM102 160q0 -48 30.5 -78t78.5 -30q50 0 79.5 30t29.5 78q0 49 -30.5 78.5t-78.5 29.5q-49 0 -79 -29t-30 -79zM134 397l-48 15
q26 71 80 71q20 0 52 -15q24 -12 38 -12q22 0 33 26l47 -18q-7 -27 -27 -45t-46 -18q-23 0 -48 13q-33 13 -44 13q-27 0 -37 -30z" />
    <glyph glyph-name="odieresis" unicode="&#xf6;" horiz-adv-x="422" 
d="M33 160q0 69 48 118q48 50 130 50q79 0 128 -48q50 -47 50 -120q0 -77 -49.5 -122.5t-128.5 -45.5q-85 0 -131 49q-47 50 -47 119zM102 160q0 -48 30.5 -78t78.5 -30q50 0 79.5 30t29.5 78q0 49 -30.5 78.5t-78.5 29.5q-49 0 -79 -29t-30 -79zM313 477v-73h-70v73h70z
M180 477v-73h-70v73h70z" />
    <glyph glyph-name="divide" unicode="&#xf7;" horiz-adv-x="594" 
d="M225 480q0 30 20.5 51.5t49.5 21.5t49.5 -21.5t20.5 -51.5q0 -31 -20.5 -52.5t-49.5 -21.5t-49.5 21.5t-20.5 52.5zM225 78q0 30 21 52t49 22t49 -22t21 -52q0 -31 -20.5 -52.5t-49.5 -21.5t-49.5 21.5t-20.5 52.5zM544 247h-494v69h494v-69z" />
    <glyph glyph-name="oslash" unicode="&#xf8;" horiz-adv-x="422" 
d="M103 22l-34 -30l-38 42l32 29q-30 41 -30 98q0 69 46 118t131 49q68 0 108 -30l27 25l38 -41l-25 -23q31 -38 31 -99q0 -74 -47.5 -121t-131.5 -47q-65 0 -107 30zM309 214l-160 -147q19 -15 65 -15t77.5 31t31.5 75q0 36 -14 56zM111 109l159 145q-26 14 -56 14
q-51 0 -83 -31t-32 -77q0 -27 12 -51z" />
    <glyph glyph-name="ugrave" unicode="&#xf9;" horiz-adv-x="391" 
d="M273 320h64v-320h-64v55q-13 -25 -40.5 -44t-65.5 -19q-57 0 -88 33t-31 96v199h65v-182q0 -46 16.5 -65.5t55.5 -19.5q37 0 62.5 25.5t25.5 64.5v177zM160 500l62 -122h-46l-121 122h105z" />
    <glyph glyph-name="uacute" unicode="&#xfa;" horiz-adv-x="391" 
d="M273 320h64v-320h-64v55q-13 -25 -40.5 -44t-65.5 -19q-57 0 -88 33t-31 96v199h65v-182q0 -46 16.5 -65.5t55.5 -19.5q37 0 62.5 25.5t25.5 64.5v177zM212 378h-49l67 125h104z" />
    <glyph glyph-name="ucircumflex" unicode="&#xfb;" horiz-adv-x="391" 
d="M273 320h64v-320h-64v55q-13 -25 -40.5 -44t-65.5 -19q-57 0 -88 33t-31 96v199h65v-182q0 -46 16.5 -65.5t55.5 -19.5q37 0 62.5 25.5t25.5 64.5v177zM254 383l-58 63l-60 -63h-51l79 120h60l81 -120h-51z" />
    <glyph glyph-name="udieresis" unicode="&#xfc;" horiz-adv-x="391" 
d="M273 320h64v-320h-64v55q-13 -25 -40.5 -44t-65.5 -19q-57 0 -88 33t-31 96v199h65v-182q0 -46 16.5 -65.5t55.5 -19.5q37 0 62.5 25.5t25.5 64.5v177zM297 477v-73h-70v73h70zM164 477v-73h-70v73h70z" />
    <glyph glyph-name="yacute" unicode="&#xfd;" horiz-adv-x="344" 
d="M200 154l71 166h70l-214 -474h-67l80 176l-137 298h73l73 -167l17 -51l7 -22q15 43 27 74zM194 378h-49l67 125h104z" />
    <glyph glyph-name="thorn" unicode="&#xfe;" horiz-adv-x="437" 
d="M117 160q0 -45 31.5 -76t79.5 -31q49 0 78 29t29 80q0 40 -30 73q-29 33 -80 33q-45 0 -77 -32q-31 -31 -31 -76zM118 50v-204h-64v664h64v-239q44 57 116 57q80 0 125 -53q45 -52 45 -115q0 -69 -44 -119q-43 -49 -120 -49q-34 0 -68 16t-54 42z" />
    <glyph glyph-name="ydieresis" unicode="&#xff;" horiz-adv-x="344" 
d="M200 154l71 166h70l-214 -474h-67l80 176l-137 298h73l73 -167l17 -51l7 -22q15 43 27 74zM275 477v-73h-70v73h70zM142 477v-73h-70v73h70z" />
    <glyph glyph-name="Amacron" unicode="&#x100;" horiz-adv-x="665" 
d="M485 183h-313l-85 -183h-79l325 680l324 -680h-87zM329 519l-124 -268h251zM481 757h-289v69h289v-69z" />
    <glyph glyph-name="amacron" unicode="&#x101;" horiz-adv-x="362" 
d="M77 253l-11 53q50 22 120 22q59 0 93.5 -26t34.5 -73v-229h-63v23q-44 -31 -107 -31q-54 0 -87.5 28t-33.5 76q0 47 36 75.5t97 28.5q54 0 95 -23v16q0 41 -16 59.5t-61 18.5q-49 0 -97 -18zM92 98q0 -49 70 -49q38 0 64 13t26 36q0 22 -23 35.5t-61 13.5
q-35 0 -55.5 -13t-20.5 -36zM294 416h-207v60h207v-60z" />
    <glyph glyph-name="Abreve" unicode="&#x102;" horiz-adv-x="665" 
d="M485 183h-313l-85 -183h-79l325 680l324 -680h-87zM329 519l-124 -268h251zM450 862l46 -35q-61 -97 -163 -97q-51 0 -94 26t-64 70l46 35q47 -63 109 -63q71 0 120 64z" />
    <glyph glyph-name="abreve" unicode="&#x103;" horiz-adv-x="362" 
d="M77 253l-11 53q50 22 120 22q59 0 93.5 -26t34.5 -73v-229h-63v23q-44 -31 -107 -31q-54 0 -87.5 28t-33.5 76q0 47 36 75.5t97 28.5q54 0 95 -23v16q0 41 -16 59.5t-61 18.5q-49 0 -97 -18zM92 98q0 -49 70 -49q38 0 64 13t26 36q0 22 -23 35.5t-61 13.5
q-35 0 -55.5 -13t-20.5 -36zM272 489l39 -31q-43 -70 -119 -70q-87 0 -121 70l39 31q30 -45 81 -45q48 0 81 45z" />
    <glyph glyph-name="Aogonek" unicode="&#x104;" horiz-adv-x="665" 
d="M600 -151q23 0 47 6l16 -64q-39 -11 -81 -11q-53 0 -84.5 23.5t-31.5 67.5q0 64 101 135l-82 178v-1h-313l-85 -183h-79l325 680l324 -680h-2l-25 -15q-83 -50 -83 -94q0 -42 53 -42zM329 519l-124 -268h251z" />
    <glyph glyph-name="aogonek" unicode="&#x105;" horiz-adv-x="362" 
d="M92 98q0 -49 70 -49q38 0 64 13t26 36q0 22 -23 35.5t-61 13.5q-35 0 -55.5 -13t-20.5 -36zM251 0v23q-44 -31 -107 -31q-54 0 -87.5 28t-33.5 76q0 47 36 75.5t97 28.5q54 0 95 -23v16q0 41 -16 59.5t-61 18.5q-49 0 -97 -18l-11 53q50 22 120 22q59 0 93.5 -26
t34.5 -73v-229q-22 -13 -37 -32.5t-15 -37.5q0 -28 33 -28q21 0 34 7l13 -52v-2q-22 -9 -63 -9q-40 0 -63.5 17t-23.5 51q0 48 59 86z" />
    <glyph glyph-name="Cacute" unicode="&#x106;" horiz-adv-x="660" 
d="M588 112l40 -50q-91 -77 -222 -77q-85 0 -155 30t-114 81q-87 106 -87 238q0 146 102 247q101 100 256 100q128 0 210 -67l-42 -53q-68 51 -170 51q-121 0 -199 -78q-77 -77 -77 -200q0 -124 77 -203q79 -77 202 -77q100 0 179 58zM403 741h-52l81 126h111z" />
    <glyph glyph-name="cacute" unicode="&#x107;" horiz-adv-x="360" 
d="M211 -8q-83 0 -131 50q-47 50 -47 118q0 64 45 116q46 52 132 52q69 0 126 -48l-38 -47q-44 35 -88 35q-48 0 -78 -30t-30 -78t31.5 -78t80.5 -30q50 0 89 33l36 -44q-50 -49 -128 -49zM218 378h-49l67 125h104z" />
    <glyph glyph-name="Ccircumflex" unicode="&#x108;" horiz-adv-x="660" 
d="M588 112l40 -50q-91 -77 -222 -77q-85 0 -155 30t-114 81q-87 106 -87 238q0 146 102 247q101 100 256 100q128 0 210 -67l-42 -53q-68 51 -170 51q-121 0 -199 -78q-77 -77 -77 -200q0 -124 77 -203q79 -77 202 -77q100 0 179 58zM470 730l-79 88l-79 -88h-57l99 147h72
l100 -147h-56z" />
    <glyph glyph-name="ccircumflex" unicode="&#x109;" horiz-adv-x="360" 
d="M211 -8q-83 0 -131 50q-47 50 -47 118q0 64 45 116q46 52 132 52q69 0 126 -48l-38 -47q-44 35 -88 35q-48 0 -78 -30t-30 -78t31.5 -78t80.5 -30q50 0 89 33l36 -44q-50 -49 -128 -49zM265 383l-58 63l-60 -63h-51l79 120h60l81 -120h-51z" />
    <glyph glyph-name="Cdotaccent" unicode="&#x10a;" horiz-adv-x="660" 
d="M588 112l40 -50q-91 -77 -222 -77q-85 0 -155 30t-114 81q-87 106 -87 238q0 146 102 247q101 100 256 100q128 0 210 -67l-42 -53q-68 51 -170 51q-121 0 -199 -78q-77 -77 -77 -200q0 -124 77 -203q79 -77 202 -77q100 0 179 58zM438 849v-87h-80v87h80z" />
    <glyph glyph-name="cdotaccent" unicode="&#x10b;" horiz-adv-x="360" 
d="M211 -8q-83 0 -131 50q-47 50 -47 118q0 64 45 116q46 52 132 52q69 0 126 -48l-38 -47q-44 35 -88 35q-48 0 -78 -30t-30 -78t31.5 -78t80.5 -30q50 0 89 33l36 -44q-50 -49 -128 -49zM239 483v-78h-74v78h74z" />
    <glyph glyph-name="Ccaron" unicode="&#x10c;" horiz-adv-x="660" 
d="M588 112l40 -50q-91 -77 -222 -77q-85 0 -155 30t-114 81q-87 106 -87 238q0 146 102 247q101 100 256 100q128 0 210 -67l-42 -53q-68 51 -170 51q-121 0 -199 -78q-77 -77 -77 -200q0 -124 77 -203q79 -77 202 -77q100 0 179 58zM322 889l79 -88l80 88h55l-100 -148
h-72l-98 148h56z" />
    <glyph glyph-name="ccaron" unicode="&#x10d;" horiz-adv-x="360" 
d="M211 -8q-83 0 -131 50q-47 50 -47 118q0 64 45 116q46 52 132 52q69 0 126 -48l-38 -47q-44 35 -88 35q-48 0 -78 -30t-30 -78t31.5 -78t80.5 -30q50 0 89 33l36 -44q-50 -49 -128 -49zM148 503l60 -64l58 64h51l-81 -120h-60l-79 120h51z" />
    <glyph glyph-name="Dcaron" unicode="&#x10e;" horiz-adv-x="704" 
d="M289 0h-185v666h188q191 0 280 -104q82 -94 82 -229q0 -150 -90 -242q-90 -91 -275 -91zM291 598h-113v-530h113q283 0 283 264q0 127 -72 196.5t-211 69.5zM217 889l79 -88l80 88h55l-100 -148h-72l-98 148h56z" />
    <glyph glyph-name="dcaron" unicode="&#x10f;" horiz-adv-x="529" 
d="M382 666v-666h-64v50q-46 -58 -122 -58q-78 0 -121 48q-43 49 -43 119q0 65 47 117q46 52 124 52q75 0 115 -57v395h64zM101 159q0 -46 30 -76.5t77 -30.5t79 31t32 77q0 45 -31.5 76.5t-77.5 31.5q-47 0 -78 -31.5t-31 -77.5zM463 666h80l-61 -187h-44z" />
    <glyph glyph-name="Dcroat" unicode="&#x110;" horiz-adv-x="706" 
d="M299 0h-192v301h-84v69h84v296h192q174 0 265 -93q92 -92 92 -240t-88 -240q-88 -93 -269 -93zM298 597h-117v-227h149v-69h-149v-232h120q133 0 204 66.5t71 196.5q0 125 -71 195t-207 70z" />
    <glyph glyph-name="dslash" unicode="&#x111;" horiz-adv-x="438" 
d="M319 271v118h-123v53h123v224h64v-224h35v-53h-35v-389h-65v50q-48 -58 -122 -58q-78 0 -121 48q-43 49 -43 119q0 65 47 117q46 52 124 52q75 0 116 -57zM101 159q0 -46 30 -76t79 -30q46 0 77.5 30.5t31.5 76.5q0 45 -31 76.5t-78 31.5t-78 -31.5t-31 -77.5z" />
    <glyph glyph-name="Emacron" unicode="&#x112;" horiz-adv-x="558" 
d="M178 376h290v-69h-290v-238h322v-69h-396v666h393v-69h-319v-221zM445 757h-289v69h289v-69z" />
    <glyph glyph-name="emacron" unicode="&#x113;" horiz-adv-x="404" 
d="M320 96l44 -36q-56 -68 -152 -68q-84 0 -132 50q-47 50 -47 122q0 70 51 117q53 47 121 47q77 0 121 -47q45 -46 45 -109q0 -11 -3 -26h-272q3 -40 35.5 -67t80.5 -27q66 0 108 44zM101 199h200q-6 31 -31 50t-62 19q-81 0 -107 -69zM308 416h-207v60h207v-60z" />
    <glyph glyph-name="Edotaccent" unicode="&#x116;" horiz-adv-x="558" 
d="M178 376h290v-69h-290v-238h322v-69h-396v666h393v-69h-319v-221zM338 849v-87h-80v87h80z" />
    <glyph glyph-name="edotaccent" unicode="&#x117;" horiz-adv-x="404" 
d="M320 96l44 -36q-56 -68 -152 -68q-84 0 -132 50q-47 50 -47 122q0 70 51 117q53 47 121 47q77 0 121 -47q45 -46 45 -109q0 -11 -3 -26h-272q3 -40 35.5 -67t80.5 -27q66 0 108 44zM101 199h200q-6 31 -31 50t-62 19q-81 0 -107 -69zM240 483v-78h-74v78h74z" />
    <glyph glyph-name="Eogonek" unicode="&#x118;" horiz-adv-x="558" 
d="M445 -151q23 0 47 6l16 -64q-39 -11 -81 -11q-53 0 -84.5 23.5t-31.5 67.5q0 63 93 129h-300v666h393v-69h-319v-221h290v-69h-290v-238h322v-69l-25 -15q-83 -50 -83 -94q0 -42 53 -42z" />
    <glyph glyph-name="eogonek" unicode="&#x119;" horiz-adv-x="404" 
d="M272 -91l13 -52v-2q-23 -9 -63 -9t-63.5 17t-23.5 51q0 41 52 80q-71 7 -112.5 54.5t-41.5 115.5q0 70 51 117q53 47 121 47q77 0 121 -47q45 -46 45 -109q0 -11 -3 -26h-272q3 -40 35.5 -67t80.5 -27q66 0 108 44l44 -36q-38 -44 -87 -59l-18 -12q-25 -14 -38 -27
t-16 -32q0 -28 33 -28q21 0 34 7zM101 199h200q-6 31 -31 50t-62 19q-81 0 -107 -69z" />
    <glyph glyph-name="Ecaron" unicode="&#x11a;" horiz-adv-x="558" 
d="M178 376h290v-69h-290v-238h322v-69h-396v666h393v-69h-319v-221zM221 889l79 -88l80 88h55l-100 -148h-72l-98 148h56z" />
    <glyph glyph-name="ecaron" unicode="&#x11b;" horiz-adv-x="404" 
d="M320 96l44 -36q-56 -68 -152 -68q-84 0 -132 50q-47 50 -47 122q0 70 51 117q53 47 121 47q77 0 121 -47q45 -46 45 -109q0 -11 -3 -26h-272q3 -40 35.5 -67t80.5 -27q66 0 108 44zM101 199h200q-6 31 -31 50t-62 19q-81 0 -107 -69zM144 503l60 -64l58 64h51l-81 -120
h-60l-79 120h51z" />
    <glyph glyph-name="Gcircumflex" unicode="&#x11c;" horiz-adv-x="781" 
d="M655 581l-52 -43q-80 74 -196 74q-122 0 -200 -82q-77 -82 -77 -198q0 -120 75 -199q76 -79 202 -79q103 0 171 61q70 61 82 159h-248l28 69h301q-7 -108 -49 -191q-84 -167 -284 -167q-162 0 -260 101q-98 103 -98 247q0 139 102 243q102 105 256 105q137 0 247 -100z
M471 730l-79 88l-79 -88h-57l99 147h72l100 -147h-56z" />
    <glyph glyph-name="gcircumflex" unicode="&#x11d;" horiz-adv-x="437" 
d="M319 271v49h64v-280q0 -110 -39 -153q-38 -44 -143 -44q-71 0 -151 27l16 60q69 -27 142 -27q56 0 83.5 26t27.5 93v28q-46 -58 -122 -58q-77 0 -120 48q-44 50 -44 120q0 67 46 117q47 51 124 51q73 0 116 -57zM103 160q0 -48 29 -78t77 -30t79.5 30t31.5 78
q0 46 -31.5 77t-77.5 31q-50 0 -79 -30t-29 -78zM272 383l-58 63l-60 -63h-51l79 120h60l81 -120h-51z" />
    <glyph glyph-name="Gbreve" unicode="&#x11e;" horiz-adv-x="781" 
d="M655 581l-52 -43q-80 74 -196 74q-122 0 -200 -82q-77 -82 -77 -198q0 -120 75 -199q76 -79 202 -79q103 0 171 61q70 61 82 159h-248l28 69h301q-7 -108 -49 -191q-84 -167 -284 -167q-162 0 -260 101q-98 103 -98 247q0 139 102 243q102 105 256 105q137 0 247 -100z
M508 862l46 -35q-61 -97 -163 -97q-51 0 -94 26t-64 70l46 35q47 -63 109 -63q71 0 120 64z" />
    <glyph glyph-name="gbreve" unicode="&#x11f;" horiz-adv-x="437" 
d="M319 271v49h64v-280q0 -110 -39 -153q-38 -44 -143 -44q-71 0 -151 27l16 60q69 -27 142 -27q56 0 83.5 26t27.5 93v28q-46 -58 -122 -58q-77 0 -120 48q-44 50 -44 120q0 67 46 117q47 51 124 51q73 0 116 -57zM103 160q0 -48 29 -78t77 -30t79.5 30t31.5 78
q0 46 -31.5 77t-77.5 31q-50 0 -79 -30t-29 -78zM291 489l39 -31q-43 -70 -119 -70q-87 0 -121 70l39 31q30 -45 81 -45q48 0 81 45z" />
    <glyph glyph-name="Gdotaccent" unicode="&#x120;" horiz-adv-x="781" 
d="M655 581l-52 -43q-80 74 -196 74q-122 0 -200 -82q-77 -82 -77 -198q0 -120 75 -199q76 -79 202 -79q103 0 171 61q70 61 82 159h-248l28 69h301q-7 -108 -49 -191q-84 -167 -284 -167q-162 0 -260 101q-98 103 -98 247q0 139 102 243q102 105 256 105q137 0 247 -100z
M430 849v-87h-80v87h80z" />
    <glyph glyph-name="gdotaccent" unicode="&#x121;" horiz-adv-x="437" 
d="M319 271v49h64v-280q0 -110 -39 -153q-38 -44 -143 -44q-71 0 -151 27l16 60q69 -27 142 -27q56 0 83.5 26t27.5 93v28q-46 -58 -122 -58q-77 0 -120 48q-44 50 -44 120q0 67 46 117q47 51 124 51q73 0 116 -57zM103 160q0 -48 29 -78t77 -30t79.5 30t31.5 78
q0 46 -31.5 77t-77.5 31q-50 0 -79 -30t-29 -78zM248 483v-78h-74v78h74z" />
    <glyph glyph-name="Gcommaaccent" unicode="&#x122;" horiz-adv-x="781" 
d="M655 581l-52 -43q-80 74 -196 74q-122 0 -200 -82q-77 -82 -77 -198q0 -120 75 -199q76 -79 202 -79q103 0 171 61q70 61 82 159h-248l28 69h301q-7 -108 -49 -191q-84 -167 -284 -167q-162 0 -260 101q-98 103 -98 247q0 139 102 243q102 105 256 105q137 0 247 -100z
M337 -67h81l-58 -153h-47z" />
    <glyph glyph-name="gcommaaccent" unicode="&#x123;" horiz-adv-x="437" 
d="M319 271v49h64v-280q0 -110 -39 -153q-38 -44 -143 -44q-71 0 -151 27l16 60q69 -27 142 -27q56 0 83.5 26t27.5 93v28q-46 -58 -122 -58q-77 0 -120 48q-44 50 -44 120q0 67 46 117q47 51 124 51q73 0 116 -57zM103 160q0 -48 29 -78t77 -30t79.5 30t31.5 78
q0 46 -31.5 77t-77.5 31q-50 0 -79 -30t-29 -78zM246 403h-78l54 124h46z" />
    <glyph glyph-name="Hcircumflex" unicode="&#x124;" horiz-adv-x="757" 
d="M579 327h-401v-327h-74v666h74v-270h401v270h74v-666h-74v327zM454 730l-79 88l-79 -88h-57l99 147h72l100 -147h-56z" />
    <glyph glyph-name="hcircumflex" unicode="&#x125;" horiz-adv-x="390" 
d="M118 0h-64v666h64v-399q14 28 43 44.5t62 16.5q119 0 119 -129v-199h-65v181q0 44 -16 65.5t-56 21.5q-38 0 -62.5 -26t-24.5 -63v-179zM144 711l-58 63l-60 -63h-51l79 120h60l81 -120h-51z" />
    <glyph glyph-name="Hbar" unicode="&#x126;" horiz-adv-x="758" 
d="M581 328h-404v-328h-73v543h-54v60h54v63h73v-63h404v63h73v-63h54v-60h-54v-543h-73v328zM581 397v146h-404v-146h404z" />
    <glyph glyph-name="hbar" unicode="&#x127;" horiz-adv-x="390" 
d="M117 666v-224h147v-53h-147v-122q14 28 43 44.5t62 16.5q119 0 119 -129v-199h-65v181q0 87 -72 87q-38 0 -62.5 -26t-24.5 -63v-179h-64v389h-50v53h50v224h64z" />
    <glyph glyph-name="Imacron" unicode="&#x12a;" horiz-adv-x="282" 
d="M178 0h-74v666h74v-666zM284 757h-289v69h289v-69z" />
    <glyph glyph-name="imacron" unicode="&#x12b;" horiz-adv-x="172" 
d="M117 0h-64v320h64v-320zM188 416h-207v60h207v-60z" />
    <glyph glyph-name="Iogonek" unicode="&#x12e;" horiz-adv-x="282" 
d="M124 -151q23 0 47 6l16 -64q-39 -11 -81 -11q-53 0 -84.5 23.5t-31.5 67.5q0 68 114 143v652h74v-666l-24 -15q-83 -53 -83 -94q0 -42 53 -42z" />
    <glyph glyph-name="iogonek" unicode="&#x12f;" horiz-adv-x="172" 
d="M113 -91l13 -52v-2q-22 -9 -63 -9q-40 0 -63.5 17t-23.5 51q0 48 78 97v309h64v-320h-2l-16 -11q-25 -14 -38 -27t-16 -32q0 -28 33 -28q21 0 34 7zM118 477v-74h-64v74h64z" />
    <glyph glyph-name="Idot" unicode="&#x130;" horiz-adv-x="282" 
d="M178 0h-74v666h74v-666zM182 849v-87h-80v87h80z" />
    <glyph glyph-name="dotlessi" unicode="&#x131;" horiz-adv-x="172" 
d="M117 0h-64v320h64v-320z" />
    <glyph glyph-name="Jcircumflex" unicode="&#x134;" horiz-adv-x="343" 
d="M18 -4v66q40 -8 59 -8q57 0 73 36q17 37 17 123v453h74v-436q0 -138 -34 -191q-33 -54 -121 -54q-32 0 -68 11zM282 730l-79 88l-79 -88h-57l99 147h72l100 -147h-56z" />
    <glyph glyph-name="jcircumflex" unicode="&#x135;" horiz-adv-x="171" 
d="M53 -45v365h64v-353q0 -121 -94 -121h-15v67q26 -1 35.5 9t9.5 33zM141 383l-58 63l-60 -63h-51l79 120h60l81 -120h-51z" />
    <glyph glyph-name="Kcommaaccent" unicode="&#x136;" horiz-adv-x="612" 
d="M178 0h-74v666h74v-365l290 365h91l-222 -280l259 -386h-91l-217 326l-110 -135v-191zM290 -67h81l-58 -153h-47z" />
    <glyph glyph-name="kcommaaccent" unicode="&#x137;" horiz-adv-x="351" 
d="M119 0h-65v666h65v-490l133 144h76l-122 -129l145 -191h-77l-114 150l-41 -40v-110zM157 -33h78l-54 -124h-46z" />
    <glyph glyph-name="Lacute" unicode="&#x139;" horiz-adv-x="514" 
d="M500 69v-69h-396v666h74v-597h322zM168 741h-52l81 126h111z" />
    <glyph glyph-name="lacute" unicode="&#x13a;" horiz-adv-x="172" 
d="M118 0h-64v666h64v-666zM113 710h-49l67 125h104z" />
    <glyph glyph-name="Lcommaaccent" unicode="&#x13b;" horiz-adv-x="514" 
d="M500 69v-69h-396v666h74v-597h322zM262 -67h81l-58 -153h-47z" />
    <glyph glyph-name="lcommaaccent" unicode="&#x13c;" horiz-adv-x="172" 
d="M118 0h-64v666h64v-666zM46 -33h78l-54 -124h-46z" />
    <glyph glyph-name="Lcaron" unicode="&#x13d;" horiz-adv-x="507" 
d="M500 69v-69h-396v666h74v-597h322zM414 668h87l-71 -243h-59l25 139z" />
    <glyph glyph-name="lcaron" unicode="&#x13e;" horiz-adv-x="270" 
d="M117 0h-64v666h64v-666zM197 666h80l-61 -187h-44z" />
    <glyph glyph-name="Ldot" unicode="&#x13f;" horiz-adv-x="514" 
d="M500 69v-69h-396v666h74v-597h322zM339 306v112h105v-112h-105z" />
    <glyph glyph-name="ldot" unicode="&#x140;" horiz-adv-x="334" 
d="M117 0h-64v666h64v-666zM184 306v112h105v-112h-105z" />
    <glyph glyph-name="Lslash" unicode="&#x141;" horiz-adv-x="519" 
d="M333 496v-68l-153 -91v-268h325v-69h-399v294l-98 -56v71l98 56v301h74v-258z" />
    <glyph glyph-name="lslash" unicode="&#x142;" horiz-adv-x="225" 
d="M217 332v-70l-73 -43v-219h-64v180l-73 -40v72l73 41v413h64v-376z" />
    <glyph glyph-name="Nacute" unicode="&#x143;" horiz-adv-x="736" 
d="M632 7l-459 492v-499h-69v680l459 -490v476h69v-659zM360 741h-52l81 126h111z" />
    <glyph glyph-name="nacute" unicode="&#x144;" horiz-adv-x="390" 
d="M118 0h-64v320h64v-53q15 27 43 44t61 17q120 0 120 -129v-199h-65v181q0 46 -15.5 66.5t-55.5 20.5q-38 0 -63 -26t-25 -63v-179zM222 378h-49l67 125h104z" />
    <glyph glyph-name="Ncommaaccent" unicode="&#x145;" horiz-adv-x="736" 
d="M632 7l-459 492v-499h-69v680l459 -490v476h69v-659zM327 -67h81l-58 -153h-47z" />
    <glyph glyph-name="ncommaaccent" unicode="&#x146;" horiz-adv-x="390" 
d="M118 0h-64v320h64v-53q15 27 43 44t61 17q120 0 120 -129v-199h-65v181q0 46 -15.5 66.5t-55.5 20.5q-38 0 -63 -26t-25 -63v-179zM164 -33h78l-54 -124h-46z" />
    <glyph glyph-name="Ncaron" unicode="&#x147;" horiz-adv-x="736" 
d="M632 7l-459 492v-499h-69v680l459 -490v476h69v-659zM286 889l79 -88l80 88h55l-100 -148h-72l-98 148h56z" />
    <glyph glyph-name="ncaron" unicode="&#x148;" horiz-adv-x="390" 
d="M118 0h-64v320h64v-53q15 27 43 44t61 17q120 0 120 -129v-199h-65v181q0 46 -15.5 66.5t-55.5 20.5q-38 0 -63 -26t-25 -63v-179zM142 503l60 -64l58 64h51l-81 -120h-60l-79 120h51z" />
    <glyph glyph-name="Omacron" unicode="&#x14c;" horiz-adv-x="811" 
d="M50 333q0 149 100 248q100 100 257 100q83 0 153 -31t113 -83q88 -103 88 -234q0 -140 -98 -244t-256 -104q-159 0 -258 103q-99 104 -99 245zM130 332q0 -115 77 -197q78 -81 199 -81t198 80t77 198q0 72 -30 133q-31 65 -96 106t-149 41q-121 0 -199 -82
q-77 -82 -77 -198zM547 757h-289v69h289v-69z" />
    <glyph glyph-name="omacron" unicode="&#x14d;" horiz-adv-x="422" 
d="M33 160q0 69 48 118q48 50 130 50q79 0 128 -48q50 -47 50 -120q0 -77 -49.5 -122.5t-128.5 -45.5q-85 0 -131 49q-47 50 -47 119zM102 160q0 -48 30.5 -78t78.5 -30q50 0 79.5 30t29.5 78q0 49 -30.5 78.5t-78.5 29.5q-49 0 -79 -29t-30 -79zM315 416h-207v60h207v-60z
" />
    <glyph glyph-name="Ohungarumlaut" unicode="&#x150;" horiz-adv-x="811" 
d="M50 333q0 149 100 248q100 100 257 100q83 0 153 -31t113 -83q88 -103 88 -234q0 -140 -98 -244t-256 -104q-159 0 -258 103q-99 104 -99 245zM130 332q0 -115 77 -197q78 -81 199 -81t198 80t77 198q0 72 -30 133q-31 65 -96 106t-149 41q-121 0 -199 -82
q-77 -82 -77 -198zM346 741h-52l81 126h111zM511 741h-52l81 126h111z" />
    <glyph glyph-name="ohungarumlaut" unicode="&#x151;" horiz-adv-x="422" 
d="M33 160q0 69 48 118q48 50 130 50q79 0 128 -48q50 -47 50 -120q0 -77 -49.5 -122.5t-128.5 -45.5q-85 0 -131 49q-47 50 -47 119zM102 160q0 -48 30.5 -78t78.5 -30q50 0 79.5 30t29.5 78q0 49 -30.5 78.5t-78.5 29.5q-49 0 -79 -29t-30 -79zM282 378h-40l65 125h98z
M166 378h-40l65 125h98z" />
    <glyph glyph-name="OE" unicode="&#x152;" horiz-adv-x="962" 
d="M902 599h-319v-223h289v-69h-289v-239h321v-68h-395q-47 -15 -103 -15q-158 0 -257 103q-99 104 -99 245q0 90 40 167t124 129q82 52 192 52q50 0 103 -14h393v-68zM509 72v524q-59 15 -104 15q-123 0 -199 -81q-77 -82 -77 -198q0 -117 77 -197t199 -80q44 0 104 17z
" />
    <glyph glyph-name="oe" unicode="&#x153;" horiz-adv-x="692" 
d="M390 199h201q-6 30 -32 49.5t-64 19.5q-37 0 -65 -18.5t-40 -50.5zM357 58q-48 -66 -145 -66q-84 0 -132 49q-47 50 -47 119t48 118q50 50 131 50q91 0 144 -65q53 65 140 65q76 0 119 -45q44 -46 44 -107q0 -16 -2 -30h-272q2 -40 35.5 -66.5t82.5 -26.5q68 0 107 43
l44 -36q-56 -68 -152 -68q-92 0 -145 66zM103 160q0 -48 30.5 -77.5t78.5 -29.5q50 0 80 29.5t30 77.5q0 49 -31 78.5t-79 29.5q-49 0 -79 -29t-30 -79z" />
    <glyph glyph-name="Racute" unicode="&#x154;" horiz-adv-x="604" 
d="M237 286h-59v-286h-74v666h217q91 0 152 -50q60 -49 60 -134q0 -163 -199 -194l250 -288h-100l-247 287v-1zM292 597h-114v-242h113q79 0 120.5 33.5t41.5 92.5q0 116 -161 116zM299 741h-52l81 126h111z" />
    <glyph glyph-name="racute" unicode="&#x155;" horiz-adv-x="246" 
d="M119 0h-65v320h65v-72q13 35 41 57.5t62 22.5h18v-69h-34q-39 0 -63 -27.5t-24 -70.5v-161zM164 378h-49l67 125h104z" />
    <glyph glyph-name="Rcommaaccent" unicode="&#x156;" horiz-adv-x="604" 
d="M237 286h-59v-286h-74v666h217q91 0 152 -50q60 -49 60 -134q0 -163 -199 -194l250 -288h-100l-247 287v-1zM292 597h-114v-242h113q79 0 120.5 33.5t41.5 92.5q0 116 -161 116zM272 -67h81l-58 -153h-47z" />
    <glyph glyph-name="rcommaaccent" unicode="&#x157;" horiz-adv-x="246" 
d="M119 0h-65v320h65v-72q13 35 41 57.5t62 22.5h18v-69h-34q-39 0 -63 -27.5t-24 -70.5v-161zM47 -33h78l-54 -124h-46z" />
    <glyph glyph-name="Rcaron" unicode="&#x158;" horiz-adv-x="604" 
d="M237 286h-59v-286h-74v666h217q91 0 152 -50q60 -49 60 -134q0 -163 -199 -194l250 -288h-100l-247 287v-1zM292 597h-114v-242h113q79 0 120.5 33.5t41.5 92.5q0 116 -161 116zM206 889l79 -88l80 88h55l-100 -148h-72l-98 148h56z" />
    <glyph glyph-name="rcaron" unicode="&#x159;" horiz-adv-x="246" 
d="M119 0h-65v320h65v-72q13 35 41 57.5t62 22.5h18v-69h-34q-39 0 -63 -27.5t-24 -70.5v-161zM89 503l60 -64l58 64h51l-81 -120h-60l-79 120h51z" />
    <glyph glyph-name="Sacute" unicode="&#x15a;" horiz-adv-x="492" 
d="M47 36l33 60q78 -42 157 -42q65 0 96.5 29t31.5 77q0 67 -126 151l-62 42q-43 30 -71 58q-35 39 -35 100q0 70 52 119q53 51 140 51q77 0 142 -39l-27 -57q-62 27 -114 27q-50 0 -82 -28t-32 -70q0 -38 40 -76l43 -31l37 -25l58 -42q117 -84 117 -181q0 -79 -61 -127
q-61 -47 -149 -47q-111 0 -188 51zM280 741h-52l81 126h111z" />
    <glyph glyph-name="sacute" unicode="&#x15b;" horiz-adv-x="293" 
d="M250 304l-24 -51q-45 15 -70 15q-38 0 -38 -26q0 -23 55 -48l14 -7q39 -22 57.5 -44t18.5 -57q0 -42 -31.5 -67.5t-82.5 -25.5q-64 0 -119 38l30 52q45 -30 85 -30q49 0 49 37q0 23 -65 58l-18 9q-33 18 -47.5 39t-14.5 51q0 37 30.5 59t74.5 22q52 0 96 -24zM178 378
h-49l67 125h104z" />
    <glyph glyph-name="Scircumflex" unicode="&#x15c;" horiz-adv-x="492" 
d="M47 36l33 60q78 -42 157 -42q65 0 96.5 29t31.5 77q0 67 -126 151l-62 42q-43 30 -71 58q-35 39 -35 100q0 70 52 119q53 51 140 51q77 0 142 -39l-27 -57q-62 27 -114 27q-50 0 -82 -28t-32 -70q0 -38 40 -76l43 -31l37 -25l58 -42q117 -84 117 -181q0 -79 -61 -127
q-61 -47 -149 -47q-111 0 -188 51zM347 730l-79 88l-79 -88h-57l99 147h72l100 -147h-56z" />
    <glyph glyph-name="scircumflex" unicode="&#x15d;" horiz-adv-x="293" 
d="M250 304l-24 -51q-45 15 -70 15q-38 0 -38 -26q0 -23 55 -48l14 -7q39 -22 57.5 -44t18.5 -57q0 -42 -31.5 -67.5t-82.5 -25.5q-64 0 -119 38l30 52q45 -30 85 -30q49 0 49 37q0 23 -65 58l-18 9q-33 18 -47.5 39t-14.5 51q0 37 30.5 59t74.5 22q52 0 96 -24zM216 383
l-58 63l-60 -63h-51l79 120h60l81 -120h-51z" />
    <glyph glyph-name="Scedilla" unicode="&#x15e;" horiz-adv-x="492" 
d="M47 36l33 60q78 -42 157 -42q65 0 96.5 29t31.5 77q0 67 -126 151l-62 42q-43 30 -71 58q-35 39 -35 100q0 70 52 119q53 51 140 51q77 0 142 -39l-27 -57q-62 27 -114 27q-50 0 -82 -28t-32 -70q0 -38 40 -76l43 -31l37 -25l58 -42q117 -84 117 -181q0 -70 -48.5 -116.5
t-127.5 -55.5v-39q36 -4 57 -23t21 -49q0 -42 -44 -66q-43 -24 -101 -24q-1 0 -31 2l4 53q7 -1 27 -1q25 0 43 8t18 25q0 27 -51 32v81q-104 8 -165 50z" />
    <glyph glyph-name="scedilla" unicode="&#x15f;" horiz-adv-x="293" 
d="M250 304l-24 -51q-45 15 -70 15q-38 0 -38 -26q0 -23 55 -48l14 -7q39 -22 57.5 -44t18.5 -57q0 -37 -25 -62t-67 -30v-24q26 -4 40.5 -18t14.5 -35q0 -30 -31 -49.5t-76 -19.5q-13 0 -27 3l4 47q16 -2 23 -2q38 0 38 19q0 17 -37 17v64q-49 6 -90 35l30 52
q45 -30 85 -30q49 0 49 37q0 23 -65 58l-18 9q-33 18 -47.5 39t-14.5 51q0 37 30.5 59t74.5 22q52 0 96 -24z" />
    <glyph glyph-name="Scaron" unicode="&#x160;" horiz-adv-x="492" 
d="M47 36l33 60q78 -42 157 -42q65 0 96.5 29t31.5 77q0 67 -126 151l-62 42q-43 30 -71 58q-35 39 -35 100q0 70 52 119q53 51 140 51q77 0 142 -39l-27 -57q-62 27 -114 27q-50 0 -82 -28t-32 -70q0 -38 40 -76l43 -31l37 -25l58 -42q117 -84 117 -181q0 -79 -61 -127
q-61 -47 -149 -47q-111 0 -188 51zM178 889l79 -88l80 88h55l-100 -148h-72l-98 148h56z" />
    <glyph glyph-name="scaron" unicode="&#x161;" horiz-adv-x="293" 
d="M250 304l-24 -51q-45 15 -70 15q-38 0 -38 -26q0 -23 55 -48l14 -7q39 -22 57.5 -44t18.5 -57q0 -42 -31.5 -67.5t-82.5 -25.5q-64 0 -119 38l30 52q45 -30 85 -30q49 0 49 37q0 23 -65 58l-18 9q-33 18 -47.5 39t-14.5 51q0 37 30.5 59t74.5 22q52 0 96 -24zM95 503
l60 -64l58 64h51l-81 -120h-60l-79 120h51z" />
    <glyph glyph-name="Tcedilla" unicode="&#x162;" horiz-adv-x="477" 
d="M211 0h-9v597h-172v69h417v-69h-171v-597h-8v-52q36 -4 57 -23t21 -49q0 -42 -44 -66t-101 -24q-1 0 -31 2l4 53q7 -1 27 -1q25 0 43 8t18 25q0 27 -51 32v95z" />
    <glyph glyph-name="tcedilla" unicode="&#x163;" horiz-adv-x="218" 
d="M84 0h-7v260h-66v60h66v181l64 35v-216h66v-60h-66v-260h-6v-30q26 -4 40.5 -18t14.5 -35q0 -30 -31 -49.5t-76 -19.5q-13 0 -27 3l4 47q16 -2 23 -2q38 0 38 19q0 17 -37 17v68z" />
    <glyph glyph-name="Tcaron" unicode="&#x164;" horiz-adv-x="477" 
d="M276 0h-74v597h-172v69h417v-69h-171v-597zM158 889l79 -88l80 88h55l-100 -148h-72l-98 148h56z" />
    <glyph glyph-name="tcaron" unicode="&#x165;" horiz-adv-x="280" 
d="M141 0h-64v260h-66v60h66v181l64 35v-216h66v-60h-66v-260zM210 713h80l-61 -187h-44z" />
    <glyph glyph-name="Umacron" unicode="&#x16a;" horiz-adv-x="743" 
d="M569 666h74v-376q0 -149 -70 -227t-200 -78q-137 0 -205 78t-68 227v376h74v-381q0 -231 199 -231q196 0 196 231v381zM513 757h-289v69h289v-69z" />
    <glyph glyph-name="umacron" unicode="&#x16b;" horiz-adv-x="391" 
d="M273 320h64v-320h-64v55q-13 -25 -40.5 -44t-65.5 -19q-57 0 -88 33t-31 96v199h65v-182q0 -46 16.5 -65.5t55.5 -19.5q37 0 62.5 25.5t25.5 64.5v177zM299 416h-207v60h207v-60z" />
    <glyph glyph-name="Ubreve" unicode="&#x16c;" horiz-adv-x="743" 
d="M569 666h74v-376q0 -149 -70 -227t-200 -78q-137 0 -205 78t-68 227v376h74v-381q0 -231 199 -231q196 0 196 231v381zM484 862l46 -35q-61 -97 -163 -97q-51 0 -94 26t-64 70l46 35q47 -63 109 -63q71 0 120 64z" />
    <glyph glyph-name="ubreve" unicode="&#x16d;" horiz-adv-x="391" 
d="M273 320h64v-320h-64v55q-13 -25 -40.5 -44t-65.5 -19q-57 0 -88 33t-31 96v199h65v-182q0 -46 16.5 -65.5t55.5 -19.5q37 0 62.5 25.5t25.5 64.5v177zM276 489l39 -31q-43 -70 -119 -70q-87 0 -121 70l39 31q30 -45 81 -45q48 0 81 45z" />
    <glyph glyph-name="Uring" unicode="&#x16e;" horiz-adv-x="743" 
d="M275 824q-2 29 15 52t42 33.5t54 6t48 -26.5q27 -29 27 -65t-27.5 -65.5t-65.5 -27.5q-40 0 -66.5 26.5t-26.5 66.5zM333 824q0 -15 10 -25.5t25 -10.5q14 0 24.5 10.5t10.5 25.5q0 14 -10.5 25t-24.5 11t-24.5 -11t-10.5 -25zM569 666h74v-376q0 -149 -70 -227t-200 -78
q-137 0 -205 78t-68 227v376h74v-381q0 -231 199 -231q196 0 196 231v381z" />
    <glyph glyph-name="uring" unicode="&#x16f;" horiz-adv-x="391" 
d="M195 509q30 0 50 -20.5t20 -50.5q1 -28 -21 -49t-49 -21t-50 20q-33 30 -14 76.5t64 44.5zM219 438q0 16 -12 22t-24 -0.5t-12 -21.5q0 -23 24 -23t24 23zM273 320h64v-320h-64v55q-13 -25 -40.5 -44t-65.5 -19q-57 0 -88 33t-31 96v199h65v-182q0 -46 16.5 -65.5
t55.5 -19.5q37 0 62.5 25.5t25.5 64.5v177z" />
    <glyph glyph-name="Uhungarumlaut" unicode="&#x170;" horiz-adv-x="743" 
d="M569 666h74v-376q0 -149 -70 -227t-200 -78q-137 0 -205 78t-68 227v376h74v-381q0 -231 199 -231q196 0 196 231v381zM300 741h-52l81 126h111zM465 741h-52l81 126h111z" />
    <glyph glyph-name="uhungarumlaut" unicode="&#x171;" horiz-adv-x="391" 
d="M273 320h64v-320h-64v55q-13 -25 -40.5 -44t-65.5 -19q-57 0 -88 33t-31 96v199h65v-182q0 -46 16.5 -65.5t55.5 -19.5q37 0 62.5 25.5t25.5 64.5v177zM261 378h-40l65 125h98zM145 378h-40l65 125h98z" />
    <glyph glyph-name="Uogonek" unicode="&#x172;" horiz-adv-x="743" 
d="M390 -151q23 0 47 6l16 -64q-39 -11 -81 -11q-53 0 -84.5 23.5t-31.5 67.5q0 58 76 116q-232 22 -232 303v376h74v-381q0 -231 199 -231q196 0 196 231v381h74v-376q0 -133 -56 -209.5t-161 -91.5l-6 -4q-83 -50 -83 -94q0 -42 53 -42z" />
    <glyph glyph-name="uogonek" unicode="&#x173;" horiz-adv-x="391" 
d="M332 -91l13 -52v-2q-23 -9 -63 -9t-63.5 17t-23.5 51q0 48 78 97v44q-13 -25 -40.5 -44t-65.5 -19q-57 0 -88 33t-31 96v199h65v-182q0 -46 16.5 -65.5t55.5 -19.5q37 0 62.5 25.5t25.5 64.5v177h64v-320h-2l-16 -11q-25 -14 -38 -27t-16 -32q0 -28 33 -28q21 0 34 7z
" />
    <glyph glyph-name="Ydieresis" unicode="&#x178;" horiz-adv-x="576" 
d="M251 0v219l-241 447h84l197 -369l193 369h82l-240 -448v-218h-75zM247 849v-87h-80v87h80zM405 849v-87h-79v87h79z" />
    <glyph glyph-name="Zacute" unicode="&#x179;" horiz-adv-x="555" 
d="M511 0h-491l378 597h-356l19 69h470l-378 -597h382zM271 741h-52l81 126h111z" />
    <glyph glyph-name="zacute" unicode="&#x17a;" horiz-adv-x="307" 
d="M304 320l-184 -260h183l-26 -60h-274l185 260h-156l24 60h248zM185 378h-49l67 125h104z" />
    <glyph glyph-name="Zdotaccent" unicode="&#x17b;" horiz-adv-x="555" 
d="M511 0h-491l378 597h-356l19 69h470l-378 -597h382zM317 849v-87h-80v87h80z" />
    <glyph glyph-name="zdotaccent" unicode="&#x17c;" horiz-adv-x="307" 
d="M304 320l-184 -260h183l-26 -60h-274l185 260h-156l24 60h248zM200 483v-78h-74v78h74z" />
    <glyph glyph-name="Zcaron" unicode="&#x17d;" horiz-adv-x="555" 
d="M511 0h-491l378 597h-356l19 69h470l-378 -597h382zM198 889l79 -88l80 88h55l-100 -148h-72l-98 148h56z" />
    <glyph glyph-name="zcaron" unicode="&#x17e;" horiz-adv-x="307" 
d="M304 320l-184 -260h183l-26 -60h-274l185 260h-156l24 60h248zM115 503l60 -64l58 64h51l-81 -120h-60l-79 120h51z" />
    <glyph glyph-name="Schwa" unicode="&#x18f;" horiz-adv-x="792" 
d="M170 517l-54 43q112 121 269 121q163 0 260 -103t97 -245q0 -148 -100 -248t-257 -100q-152 0 -243 97q-92 98 -92 243v18h614q-11 114 -81 190q-71 78 -197 78q-62 0 -119 -25.5t-97 -68.5zM386 55q111 0 179 58.5t94 161.5h-526q12 -98 83 -160q70 -60 170 -60z" />
    <glyph glyph-name="florin" unicode="&#x192;" horiz-adv-x="372" 
d="M289 374h-57l-38 -381q-22 -213 -161 -213h-28l5 61h10q49 0 73.5 37t31.5 109l39 387h-53l6 63h53l7 58q10 84 39 143q35 72 122 72h30l-6 -62h-10q-89 0 -107 -146l-7 -65h57z" />
    <glyph glyph-name="eturn" unicode="&#x1dd;" horiz-adv-x="404" 
d="M84 224l-44 36q56 68 152 68q84 0 131 -50q48 -49 48 -122q0 -72 -52 -118q-50 -46 -120 -46q-77 0 -122 46q-44 47 -44 110q0 11 3 26h272q-3 40 -35.5 67t-80.5 27q-66 0 -108 -44zM303 121h-200q6 -31 31 -50t62 -19q82 0 107 69z" />
    <glyph glyph-name="Gcaron" unicode="&#x1e6;" horiz-adv-x="781" 
d="M655 581l-52 -43q-80 74 -196 74q-122 0 -200 -82q-77 -82 -77 -198q0 -120 75 -199q76 -79 202 -79q103 0 171 61q70 61 82 159h-248l28 69h301q-7 -108 -49 -191q-84 -167 -284 -167q-162 0 -260 101q-98 103 -98 247q0 139 102 243q102 105 256 105q137 0 247 -100z
M319 889l79 -88l80 88h55l-100 -148h-72l-98 148h56z" />
    <glyph glyph-name="gcaron" unicode="&#x1e7;" horiz-adv-x="437" 
d="M319 271v49h64v-280q0 -110 -39 -153q-38 -44 -143 -44q-71 0 -151 27l16 60q69 -27 142 -27q56 0 83.5 26t27.5 93v28q-46 -58 -122 -58q-77 0 -120 48q-44 50 -44 120q0 67 46 117q47 51 124 51q73 0 116 -57zM103 160q0 -48 29 -78t77 -30t79.5 30t31.5 78
q0 46 -31.5 77t-77.5 31q-50 0 -79 -30t-29 -78zM153 503l60 -64l58 64h51l-81 -120h-60l-79 120h51z" />
    <glyph glyph-name="Scommaaccent" unicode="&#x218;" horiz-adv-x="492" 
d="M47 36l33 60q78 -42 157 -42q65 0 96.5 29t31.5 77q0 67 -126 151l-62 42q-43 30 -71 58q-35 39 -35 100q0 70 52 119q53 51 140 51q77 0 142 -39l-27 -57q-62 27 -114 27q-50 0 -82 -28t-32 -70q0 -38 40 -76l43 -31l37 -25l58 -42q117 -84 117 -181q0 -79 -61 -127
q-61 -47 -149 -47q-111 0 -188 51zM206 -67h81l-58 -153h-47z" />
    <glyph glyph-name="scommaaccent" unicode="&#x219;" horiz-adv-x="293" 
d="M250 304l-24 -51q-45 15 -70 15q-38 0 -38 -26q0 -23 55 -48l14 -7q39 -22 57.5 -44t18.5 -57q0 -42 -31.5 -67.5t-82.5 -25.5q-64 0 -119 38l30 52q45 -30 85 -30q49 0 49 37q0 23 -65 58l-18 9q-33 18 -47.5 39t-14.5 51q0 37 30.5 59t74.5 22q52 0 96 -24zM117 -33h78
l-54 -124h-46z" />
    <glyph glyph-name="Tcommaaccent" unicode="&#x21a;" horiz-adv-x="477" 
d="M276 0h-74v597h-172v69h417v-69h-171v-597zM195 -67h81l-58 -153h-47z" />
    <glyph glyph-name="tcommaaccent" unicode="&#x21b;" horiz-adv-x="218" 
d="M141 0h-64v260h-66v60h66v181l64 35v-216h66v-60h-66v-260zM71 -33h78l-54 -124h-46z" />
    <glyph glyph-name="dotlessj" unicode="&#x237;" horiz-adv-x="171" 
d="M53 -45v365h64v-353q0 -121 -94 -121h-15v67q26 -1 35.5 9t9.5 33z" />
    <glyph glyph-name="schwa" unicode="&#x259;" horiz-adv-x="404" 
d="M84 224l-44 36q56 68 152 68q84 0 131 -50q48 -49 48 -122q0 -72 -52 -118q-50 -46 -120 -46q-77 0 -122 46q-44 47 -44 110q0 11 3 26h272q-3 40 -35.5 67t-80.5 27q-66 0 -108 -44zM303 121h-200q6 -31 31 -50t62 -19q82 0 107 69z" />
    <glyph glyph-name="afii57929" unicode="&#x2bc;" horiz-adv-x="255" 
d="M104 666h80l-61 -187h-44z" />
    <glyph glyph-name="circumflex" unicode="&#x2c6;" horiz-adv-x="261" 
d="M189 383l-58 63l-60 -63h-51l79 120h60l81 -120h-51z" />
    <glyph glyph-name="caron" unicode="&#x2c7;" horiz-adv-x="261" 
d="M71 503l60 -64l58 64h51l-81 -120h-60l-79 120h51z" />
    <glyph glyph-name="breve" unicode="&#x2d8;" horiz-adv-x="306" 
d="M233 489l39 -31q-43 -70 -119 -70q-87 0 -121 70l39 31q30 -45 81 -45q48 0 81 45z" />
    <glyph glyph-name="dotaccent" unicode="&#x2d9;" horiz-adv-x="136" 
d="M104 483v-78h-74v78h74z" />
    <glyph glyph-name="ring" unicode="&#x2da;" horiz-adv-x="180" 
d="M90 509q30 0 50 -20.5t20 -50.5q1 -28 -21 -49t-49 -21t-50 20q-33 30 -14 76.5t64 44.5zM114 438q0 16 -12 22t-24 -0.5t-12 -21.5q0 -23 24 -23t24 23z" />
    <glyph glyph-name="ogonek" unicode="&#x2db;" horiz-adv-x="410" 
d="M235 -91l13 -52v-2q-22 -9 -63 -9q-40 0 -63.5 17t-23.5 51q0 37 37 68l29 21l33 21l20 13l23 -36l-18 -12q-25 -14 -38 -27t-16 -32q0 -28 33 -28q21 0 34 7z" />
    <glyph glyph-name="tilde" unicode="&#x2dc;" horiz-adv-x="300" 
d="M69 397l-48 15q26 71 80 71q20 0 52 -15q24 -12 38 -12q22 0 33 26l47 -18q-7 -27 -27 -45t-46 -18q-23 0 -48 13q-33 13 -44 13q-26 0 -37 -30z" />
    <glyph glyph-name="hungarumlaut" unicode="&#x2dd;" horiz-adv-x="299" 
d="M166 378h-40l65 125h98zM50 378h-40l65 125h98z" />
    <glyph glyph-name="acutecomb" unicode="&#x301;" horiz-adv-x="0" 
d="M-221 378h-49l67 125h104z" />
    <glyph glyph-name="increment" unicode="&#x394;" horiz-adv-x="681" 
d="M555 69l-215 534l-212 -534h427zM385 667l266 -667h-621l266 667h89z" />
    <glyph glyph-name="increment" unicode="&#x2206;" horiz-adv-x="681" 
d="M555 69l-215 534l-212 -534h427zM385 667l266 -667h-621l266 667h89z" />
    <glyph glyph-name="Omega" unicode="&#x3a9;" horiz-adv-x="803" 
d="M316 55v-55h-241v69h117q-59 40 -103 111q-43 70 -43 152q0 147 98 248q99 100 259 100q159 0 257 -101q97 -100 97 -247q0 -173 -140 -263h122v-69h-257v52q90 23 142 102q53 80 53 177q0 104 -64 187q-31 43 -86.5 68t-124.5 25q-120 0 -198 -81t-78 -199
q0 -89 53 -169q54 -78 137 -107z" />
    <glyph glyph-name="Omega" unicode="&#x2126;" horiz-adv-x="803" 
d="M316 55v-55h-241v69h117q-59 40 -103 111q-43 70 -43 152q0 147 98 248q99 100 259 100q159 0 257 -101q97 -100 97 -247q0 -173 -140 -263h122v-69h-257v52q90 23 142 102q53 80 53 177q0 104 -64 187q-31 43 -86.5 68t-124.5 25q-120 0 -198 -81t-78 -199
q0 -89 53 -169q54 -78 137 -107z" />
    <glyph glyph-name="pi" unicode="&#x3c0;" horiz-adv-x="552" 
d="M107 293v80h-93l-1 64h513v-64h-67v-258q0 -38 10 -49.5t40 -12.5v-63q-30 -2 -37 -2q-35 0 -58.5 23t-23.5 64v298h-214v-102q0 -283 -151 -283h-17v65q99 0 99 240z" />
    <glyph glyph-name="afii10023" unicode="&#x401;" horiz-adv-x="558" 
d="M178 376h290v-69h-290v-238h322v-69h-396v666h393v-69h-319v-221zM256 849v-87h-80v87h80zM414 849v-87h-79v87h79z" />
    <glyph glyph-name="afii10051" unicode="&#x402;" horiz-adv-x="681" 
d="M446 597h-171v-237q83 43 167 43q105 0 161 -54t56 -154q0 -95 -48 -152.5t-134 -57.5q-27 0 -61 9l13 66q2 0 10 -2q20 -4 38 -4q108 0 108 135q0 69 -38 107t-109 38q-85 0 -163 -45v-289h-74v597h-171v69h416v-69z" />
    <glyph glyph-name="afii10052" unicode="&#x403;" horiz-adv-x="479" 
d="M465 666v-69h-287v-597h-74v666h361zM299 741h-52l81 126h111z" />
    <glyph glyph-name="afii10053" unicode="&#x404;" horiz-adv-x="669" 
d="M131 379h327v-70h-330q10 -113 87 -184q76 -70 194 -70q105 0 176 59l44 -50q-97 -79 -223 -79q-85 0 -155 30t-114 81q-87 106 -87 238q0 146 102 247q101 100 256 100q119 0 210 -68l-43 -52q-71 50 -169 50q-107 0 -183 -64q-76 -65 -92 -168z" />
    <glyph glyph-name="afii10054" unicode="&#x405;" horiz-adv-x="492" 
d="M47 36l33 60q78 -42 157 -42q65 0 96.5 29t31.5 77q0 67 -126 151l-62 42q-43 30 -71 58q-35 39 -35 100q0 70 52 119q53 51 140 51q77 0 142 -39l-27 -57q-62 27 -114 27q-50 0 -82 -28t-32 -70q0 -38 40 -76l43 -31l37 -25l58 -42q117 -84 117 -181q0 -79 -61 -127
q-61 -47 -149 -47q-111 0 -188 51z" />
    <glyph glyph-name="afii10055" unicode="&#x406;" horiz-adv-x="282" 
d="M178 0h-74v666h74v-666z" />
    <glyph glyph-name="afii10056" unicode="&#x407;" horiz-adv-x="282" 
d="M100 849v-87h-80v87h80zM258 849v-87h-79v87h79zM178 0h-74v666h74v-666z" />
    <glyph glyph-name="afii10057" unicode="&#x408;" horiz-adv-x="343" 
d="M18 -4v66q40 -8 59 -8q57 0 73 36q17 37 17 123v453h74v-436q0 -138 -34 -191q-33 -54 -121 -54q-32 0 -68 11z" />
    <glyph glyph-name="afii10058" unicode="&#x409;" horiz-adv-x="987" 
d="M734 0h-197v597h-287v-110q0 -339 -83 -446q-44 -56 -116 -56q-21 0 -29 3v73q3 -1 15 -1q83 0 113 114q28 101 28 301v191h433v-261h128q113 0 169 -55q57 -55 57 -137q0 -85 -46 -145q-51 -68 -185 -68zM611 336v-267h121q153 0 153 133q0 63 -40 98.5t-111 35.5h-123z
" />
    <glyph glyph-name="afii10059" unicode="&#x40a;" horiz-adv-x="1021" 
d="M644 666v-261v-1h129q114 0 169 -55q57 -54 57 -136q0 -42 -10.5 -77.5t-35 -67.5t-71.5 -50t-113 -18h-199v336h-392v-336h-74v666h74v-261h392v261h74zM644 335v-266h123q152 0 152 133q0 63 -39.5 98t-110.5 35h-125z" />
    <glyph glyph-name="afii10060" unicode="&#x40b;" horiz-adv-x="697" 
d="M447 597h-172v-237q83 43 176 43q208 0 208 -205v-198h-74v192q0 142 -149 142q-83 0 -161 -45v-289h-74v597h-171v69h417v-69z" />
    <glyph glyph-name="afii10061" unicode="&#x40c;" horiz-adv-x="624" 
d="M178 0h-74v666h74v-313l301 313h97l-312 -317l342 -349h-106l-322 330v-330zM334 741h-52l81 126h111z" />
    <glyph glyph-name="afii10062" unicode="&#x40e;" horiz-adv-x="567" 
d="M91 666l214 -423l172 423h78l-203 -486q-81 -195 -214 -195q-31 0 -67 11v67q24 -9 62 -9q45 0 80 29.5t54 75.5l-259 507h83zM379 858h71q-8 -55 -51.5 -87t-113.5 -32q-74 0 -117 31.5t-48 87.5h74q8 -50 90 -50q78 0 95 50z" />
    <glyph glyph-name="afii10145" unicode="&#x40f;" horiz-adv-x="762" 
d="M178 666v-597h406v597h74v-666h-240v-172h-74v172h-240v666h74z" />
    <glyph glyph-name="afii10017" unicode="&#x410;" horiz-adv-x="665" 
d="M485 183h-313l-85 -183h-79l325 680l324 -680h-87zM329 519l-124 -268h251z" />
    <glyph glyph-name="afii10018" unicode="&#x411;" horiz-adv-x="577" 
d="M469 666v-69h-291v-205h144q104 0 162.5 -51.5t58.5 -138.5q0 -95 -58 -148.5t-169 -53.5h-212v666h365zM178 323v-254h125q161 0 161 127t-158 127h-128z" />
    <glyph glyph-name="afii10019" unicode="&#x412;" horiz-adv-x="590" 
d="M316 0h-212v666h176q226 0 226 -165q0 -51 -30 -90.5t-82 -55.5v-3q66 -12 106 -56.5t40 -103.5q0 -89 -58.5 -140.5t-165.5 -51.5zM178 597v-218h113q135 0 135 112q0 106 -140 106h-108zM178 310v-241h124q158 0 158 122q0 56 -39 87.5t-116 31.5h-127z" />
    <glyph glyph-name="afii10020" unicode="&#x413;" horiz-adv-x="479" 
d="M465 666v-69h-287v-597h-74v666h361z" />
    <glyph glyph-name="afii10021" unicode="&#x414;" horiz-adv-x="716" 
d="M86 0v-147h-74v216l86 -1v-1q68 147 68 357v242h424v-597h98v-216h-74v147h-528zM516 69v528h-279v-168q0 -119 -12 -198q-11 -79 -45 -162h336z" />
    <glyph glyph-name="afii10022" unicode="&#x415;" horiz-adv-x="558" 
d="M178 376h290v-69h-290v-238h322v-69h-396v666h393v-69h-319v-221z" />
    <glyph glyph-name="afii10024" unicode="&#x416;" horiz-adv-x="894" 
d="M41 666h92l277 -315v315h73v-314l274 314h96l-285 -320l308 -346h-100l-293 329v-329h-73v329l-293 -329h-99l307 345z" />
    <glyph glyph-name="afii10025" unicode="&#x417;" horiz-adv-x="582" 
d="M104 552l-41 45q93 84 216 84q98 0 156.5 -46.5t58.5 -122.5q0 -50 -29 -91.5t-84 -61.5v-3q71 -15 109.5 -61t38.5 -110q0 -84 -66 -142q-65 -58 -179 -58q-145 0 -243 95l46 50q94 -76 199 -76q75 0 119 37t44 97q0 127 -170 127h-78v69h71q142 0 142 122q0 46 -35 76
t-103 30q-91 0 -172 -60z" />
    <glyph glyph-name="afii10026" unicode="&#x418;" horiz-adv-x="760" 
d="M582 0v503l-478 -517v680h74v-499l478 514v-681h-74z" />
    <glyph glyph-name="afii10027" unicode="&#x419;" horiz-adv-x="760" 
d="M582 0v503l-478 -517v680h74v-499l478 514v-681h-74zM490 858h71q-8 -55 -51.5 -87t-113.5 -32q-74 0 -117 31.5t-48 87.5h74q8 -50 90 -50q78 0 95 50z" />
    <glyph glyph-name="afii10028" unicode="&#x41a;" horiz-adv-x="624" 
d="M178 0h-74v666h74v-313l301 313h97l-312 -317l342 -349h-106l-322 330v-330z" />
    <glyph glyph-name="afii10029" unicode="&#x41b;" horiz-adv-x="715" 
d="M537 0v597h-288v-110q0 -175 -21 -289q-36 -207 -183 -213q-13 0 -23 3v73h6l6 -1h8q84 0 110 124q25 107 25 289v193h434v-666h-74z" />
    <glyph glyph-name="afii10030" unicode="&#x41c;" horiz-adv-x="899" 
d="M236 680l215 -498l224 498l186 -680h-77l-127 473l-210 -467l-202 467l-135 -473h-72z" />
    <glyph glyph-name="afii10031" unicode="&#x41d;" horiz-adv-x="757" 
d="M579 327h-401v-327h-74v666h74v-270h401v270h74v-666h-74v327z" />
    <glyph glyph-name="afii10032" unicode="&#x41e;" horiz-adv-x="811" 
d="M50 333q0 149 100 248q100 100 257 100q83 0 153 -31t113 -83q88 -103 88 -234q0 -140 -98 -244t-256 -104q-159 0 -258 103q-99 104 -99 245zM130 332q0 -115 77 -197q78 -81 199 -81t198 80t77 198q0 72 -30 133q-31 65 -96 106t-149 41q-121 0 -199 -82
q-77 -82 -77 -198z" />
    <glyph glyph-name="afii10033" unicode="&#x41f;" horiz-adv-x="747" 
d="M570 597h-392v-597h-74v666h539v-666h-73v597z" />
    <glyph glyph-name="afii10034" unicode="&#x420;" horiz-adv-x="555" 
d="M296 261h-118v-261h-74v666h203q104 0 165 -56q61 -55 61 -140q0 -98 -60 -153.5t-177 -55.5zM178 597v-267h107q168 0 168 132q0 135 -163 135h-112z" />
    <glyph glyph-name="afii10035" unicode="&#x421;" horiz-adv-x="660" 
d="M588 112l40 -50q-91 -77 -222 -77q-85 0 -155 30t-114 81q-87 106 -87 238q0 146 102 247q101 100 256 100q128 0 210 -67l-42 -53q-68 51 -170 51q-121 0 -199 -78q-77 -77 -77 -200q0 -124 77 -203q79 -77 202 -77q100 0 179 58z" />
    <glyph glyph-name="afii10036" unicode="&#x422;" horiz-adv-x="477" 
d="M276 0h-74v597h-172v69h417v-69h-171v-597z" />
    <glyph glyph-name="afii10037" unicode="&#x423;" horiz-adv-x="567" 
d="M91 666l214 -423l172 423h78l-203 -486q-81 -195 -214 -195q-31 0 -67 11v67q24 -9 62 -9q45 0 80 29.5t54 75.5l-259 507h83z" />
    <glyph glyph-name="afii10038" unicode="&#x424;" horiz-adv-x="798" 
d="M436 541v-398q106 1 174 53q68 51 68 147q0 86 -63.5 140.5t-178.5 57.5zM362 610v71h74v-71q144 -4 233 -78t89 -185q0 -124 -92 -198q-92 -72 -230 -75v-89h-74v89q-146 5 -234 76q-88 72 -88 188q0 87 46 148q89 119 276 124zM362 143v398q-102 -1 -173 -54
q-70 -52 -70 -146t68 -145q68 -50 175 -53z" />
    <glyph glyph-name="afii10039" unicode="&#x425;" horiz-adv-x="562" 
d="M455 0l-177 285l-179 -285h-83l220 348l-201 318h89l157 -250l155 250h87l-202 -312l223 -354h-89z" />
    <glyph glyph-name="afii10040" unicode="&#x426;" horiz-adv-x="768" 
d="M642 666v-597h98v-216h-74v147h-562v666h74v-597h390v597h74z" />
    <glyph glyph-name="afii10041" unicode="&#x427;" horiz-adv-x="608" 
d="M430 376v290h74v-666h-74v305q-90 -42 -186 -42q-206 0 -206 205v198h75v-182q0 -80 34.5 -116t107.5 -36q95 0 175 44z" />
    <glyph glyph-name="afii10042" unicode="&#x428;" horiz-adv-x="986" 
d="M882 0h-778v666h74v-597h276v597h74v-597h280v597h74v-666z" />
    <glyph glyph-name="afii10043" unicode="&#x429;" horiz-adv-x="1011" 
d="M909 -147v147h-805v666h74v-597h279v597h74v-597h280v597h74v-597h98v-216h-74z" />
    <glyph glyph-name="afii10044" unicode="&#x42a;" horiz-adv-x="631" 
d="M20 666h236v-262h128q110 0 167.5 -52.5t57.5 -138.5q0 -42 -10.5 -77.5t-34.5 -67.5t-71 -50t-113 -18h-198v597h-162v69zM256 335v-266h120q153 0 153 133q0 63 -40.5 98t-110.5 35h-122z" />
    <glyph glyph-name="afii10045" unicode="&#x42b;" horiz-adv-x="856" 
d="M752 0h-74v666h74v-666zM104 666h74v-262h127q114 0 169 -55q57 -54 57 -136q0 -85 -45 -145q-51 -68 -185 -68h-197v666zM178 335v-266h119q154 0 154 133q0 63 -40.5 98t-111.5 35h-121z" />
    <glyph glyph-name="afii10046" unicode="&#x42c;" horiz-adv-x="555" 
d="M104 666h74v-262h129q114 0 169 -55q57 -54 57 -136q0 -42 -10.5 -77.5t-35 -67.5t-71.5 -50t-113 -18h-199v666zM178 335v-266h123q152 0 152 133q0 63 -39.5 98t-110.5 35h-125z" />
    <glyph glyph-name="afii10047" unicode="&#x42d;" horiz-adv-x="669" 
d="M40 75l44 52q89 -72 196 -72q112 0 183 74q70 73 79 180h-332v70h328q-6 41 -24.5 80t-49 74t-78 56.5t-104.5 21.5q-63 0 -107 -16.5t-92 -52.5l-39 52q102 87 238 87q103 0 182 -52q77 -51 116 -128t39 -169q0 -147 -97 -247t-242 -100q-147 0 -240 90z" />
    <glyph glyph-name="afii10048" unicode="&#x42e;" horiz-adv-x="1082" 
d="M341 328h-163v-328h-74v666h74v-270l168 -1q19 126 113 206t230 80q68 0 125.5 -20.5t97 -55t67 -80t40.5 -94t13 -98.5q0 -142 -94 -245q-93 -103 -249 -103q-155 0 -251 101q-95 101 -97 242zM422 332q0 -117 72 -198q74 -80 193 -80q121 0 193 79t72 199q0 72 -27 133
q-28 65 -91 106t-147 41q-119 0 -193 -81q-72 -81 -72 -199z" />
    <glyph glyph-name="afii10049" unicode="&#x42f;" horiz-adv-x="614" 
d="M435 0v261h-121v1l-192 -262h-92l194 268q-154 51 -154 193q0 88 58 146q59 59 164 59h218v-666h-75zM435 330v267h-122q-163 0 -163 -137q0 -56 44 -93t120 -37h121z" />
    <glyph glyph-name="afii10065" unicode="&#x430;" horiz-adv-x="362" 
d="M77 253l-11 53q50 22 120 22q59 0 93.5 -26t34.5 -73v-229h-63v23q-44 -31 -107 -31q-54 0 -87.5 28t-33.5 76q0 47 36 75.5t97 28.5q54 0 95 -23v16q0 41 -16 59.5t-61 18.5q-49 0 -97 -18zM92 98q0 -49 70 -49q38 0 64 13t26 36q0 22 -23 35.5t-61 13.5
q-35 0 -55.5 -13t-20.5 -36z" />
    <glyph glyph-name="afii10066" unicode="&#x431;" horiz-adv-x="421" 
d="M346 675l1 -70q-13 -15 -40 -20l-30 -6t-34 -7q-52 -12 -82 -39q-65 -58 -65 -297q17 40 53.5 60.5t80.5 20.5q73 0 115.5 -45.5t42.5 -116.5q0 -69 -47 -116t-124 -47q-94 0 -137 58.5t-43 173.5q0 204 45 301t164 114q77 10 100 36zM106 176v1q-4 -48 24 -87
q30 -38 83 -38q46 0 75.5 29.5t29.5 74.5q0 43 -28.5 72t-75.5 29q-39 0 -67.5 -21t-40.5 -60z" />
    <glyph glyph-name="afii10067" unicode="&#x432;" horiz-adv-x="351" 
d="M54 0v320h138q56 0 86 -22t30 -59q0 -52 -50 -67q67 -16 67 -75q0 -44 -32 -70.5t-93 -26.5h-146zM118 267v-77h66q55 0 55 39q0 38 -51 38h-70zM118 142v-89h74q64 0 64 44q0 23 -18.5 34t-44.5 11h-75z" />
    <glyph glyph-name="afii10068" unicode="&#x433;" horiz-adv-x="278" 
d="M54 320h218v-60h-154v-260h-64v320z" />
    <glyph glyph-name="afii10069" unicode="&#x434;" horiz-adv-x="406" 
d="M72 0v-95h-64v155h45v-1q40 46 40 172v89h247v-260h55v-155h-64v95h-259zM126 60h150v200h-121v-50q0 -84 -29 -150z" />
    <glyph glyph-name="afii10070" unicode="&#x435;" horiz-adv-x="404" 
d="M320 96l44 -36q-56 -68 -152 -68q-84 0 -132 50q-47 50 -47 122q0 70 51 117q53 47 121 47q77 0 121 -47q45 -46 45 -109q0 -11 -3 -26h-272q3 -40 35.5 -67t80.5 -27q66 0 108 44zM101 199h200q-6 31 -31 50t-62 19q-81 0 -107 -69z" />
    <glyph glyph-name="afii10072" unicode="&#x436;" horiz-adv-x="490" 
d="M213 0v164l-129 -164h-84l141 173l-127 147h81l118 -144v144h64v-144l118 144h80l-123 -144l138 -176h-84l-129 166v-166h-64z" />
    <glyph glyph-name="afii10073" unicode="&#x437;" horiz-adv-x="318" 
d="M65 244l-26 41q40 43 108 43q59 0 92.5 -21.5t33.5 -63.5q0 -47 -47 -70q66 -17 66 -76q0 -47 -36.5 -76t-100.5 -29q-85 0 -135 44l31 46q46 -32 104 -32q69 0 69 47t-79 47h-30v53h30q59 0 59 37q0 36 -61 36q-37 0 -78 -26z" />
    <glyph glyph-name="afii10074" unicode="&#x438;" horiz-adv-x="390" 
d="M272 0v191l-218 -198v327h64v-188l218 195v-327h-64z" />
    <glyph glyph-name="afii10075" unicode="&#x439;" horiz-adv-x="390" 
d="M272 0v191l-218 -198v327h64v-188l218 195v-327h-64zM254 489h61q0 -46 -30 -73.5t-83 -27.5t-83 27.5t-30 73.5h62q0 -45 51 -45q52 0 52 45z" />
    <glyph glyph-name="afii10076" unicode="&#x43a;" horiz-adv-x="354" 
d="M118 0h-64v320h64v-144l135 144h84l-143 -148l162 -172h-90l-148 160v-160z" />
    <glyph glyph-name="afii10077" unicode="&#x43b;" horiz-adv-x="387" 
d="M269 0v260h-125v-53q0 -112 -26 -163.5t-83 -51.5h-20v63h8q33 0 46 37t13 122v106h251v-320h-64z" />
    <glyph glyph-name="afii10078" unicode="&#x43c;" horiz-adv-x="502" 
d="M366 179l-113 -186l-120 188l-53 -181h-63l98 327l140 -215l135 215l95 -327h-69z" />
    <glyph glyph-name="afii10079" unicode="&#x43d;" horiz-adv-x="409" 
d="M291 140h-173v-140h-64v320h64v-120h173v120h64v-320h-64v140z" />
    <glyph glyph-name="afii10080" unicode="&#x43e;" horiz-adv-x="422" 
d="M33 160q0 69 48 118q48 50 130 50q79 0 128 -48q50 -47 50 -120q0 -77 -49.5 -122.5t-128.5 -45.5q-85 0 -131 49q-47 50 -47 119zM102 160q0 -48 30.5 -78t78.5 -30q50 0 79.5 30t29.5 78q0 49 -30.5 78.5t-78.5 29.5q-49 0 -79 -29t-30 -79z" />
    <glyph glyph-name="afii10081" unicode="&#x43f;" horiz-adv-x="406" 
d="M352 0h-64v260h-170v-260h-64v320h298v-320z" />
    <glyph glyph-name="afii10082" unicode="&#x440;" horiz-adv-x="437" 
d="M118 50v-204h-64v474h64v-49q46 57 116 57q80 0 125 -53q45 -52 45 -115q0 -69 -44 -119q-43 -49 -120 -49t-122 58zM117 160q0 -46 31.5 -77t80.5 -31t77.5 30t28.5 78q0 39 -28 73q-29 35 -82 35q-45 0 -76.5 -31t-31.5 -77z" />
    <glyph glyph-name="afii10083" unicode="&#x441;" horiz-adv-x="360" 
d="M211 -8q-83 0 -131 50q-47 50 -47 118q0 64 45 116q46 52 132 52q69 0 126 -48l-38 -47q-44 35 -88 35q-48 0 -78 -30t-30 -78t31.5 -78t80.5 -30q50 0 89 33l36 -44q-50 -49 -128 -49z" />
    <glyph glyph-name="afii10084" unicode="&#x442;" horiz-adv-x="285" 
d="M174 0h-64v260h-95v60h255v-60h-96v-260z" />
    <glyph glyph-name="afii10085" unicode="&#x443;" horiz-adv-x="344" 
d="M200 154l71 166h70l-214 -474h-67l80 176l-137 298h73l73 -167l17 -51l7 -22q15 43 27 74z" />
    <glyph glyph-name="afii10086" unicode="&#x444;" horiz-adv-x="529" 
d="M102 160q0 -51 35 -79t95 -28v215q-63 0 -96.5 -28.5t-33.5 -79.5zM232 666h64v-338q96 0 148 -46t52 -121t-54.5 -121t-145.5 -48v-146h-64v146q-94 0 -146.5 44t-52.5 124q0 74 53 120.5t146 47.5v338zM296 268v-215q60 0 95.5 27.5t35.5 80.5q0 50 -35.5 77.5
t-95.5 29.5z" />
    <glyph glyph-name="afii10087" unicode="&#x445;" horiz-adv-x="326" 
d="M244 0l-85 118l-85 -118h-71l117 162l-113 158h78l78 -111l41 55q22 29 40 56h74l-116 -155l121 -165h-79z" />
    <glyph glyph-name="afii10088" unicode="&#x446;" horiz-adv-x="416" 
d="M351 320v-260h54v-155h-64v95h-287v320h64v-260h169v260h64z" />
    <glyph glyph-name="afii10089" unicode="&#x447;" horiz-adv-x="363" 
d="M245 187v133h64v-320h-64v128q-51 -20 -98 -20q-113 0 -113 115v97h64v-81q0 -71 64 -71q44 0 83 19z" />
    <glyph glyph-name="afii10090" unicode="&#x448;" horiz-adv-x="563" 
d="M509 0h-455v320h64v-260h131v260h64v-260h132v260h64v-320z" />
    <glyph glyph-name="afii10091" unicode="&#x449;" horiz-adv-x="576" 
d="M565 -95h-64v95h-447v320h64v-260h131v260h64v-260h131v260h64v-260h57v-155z" />
    <glyph glyph-name="afii10092" unicode="&#x44a;" horiz-adv-x="395" 
d="M17 320h157v-113h86q58 0 89 -28.5t31 -71.5q0 -107 -128 -107h-142v260h-93v60zM174 150v-93h76q61 0 61 49q0 44 -61 44h-76z" />
    <glyph glyph-name="afii10093" unicode="&#x44b;" horiz-adv-x="506" 
d="M452 0h-64v320h64v-320zM54 320h64v-113h85q58 0 89.5 -29t31.5 -71t-28 -74q-28 -33 -101 -33h-141v320zM118 150v-93h75q62 0 62 49q0 44 -62 44h-75z" />
    <glyph glyph-name="afii10094" unicode="&#x44c;" horiz-adv-x="340" 
d="M54 320h64v-113h86q57 0 89 -29t32 -71q0 -40 -28.5 -73.5t-100.5 -33.5h-142v320zM118 150v-93h76q29 0 45.5 13.5t16.5 35.5q0 44 -62 44h-76z" />
    <glyph glyph-name="afii10095" unicode="&#x44d;" horiz-adv-x="371" 
d="M269 139h-155v53h153q-10 35 -39 55t-70 20q-48 0 -92 -30l-26 50q52 40 118 40q86 0 133 -51q47 -50 47 -116q0 -70 -47 -120q-46 -49 -133 -49q-75 0 -129 45l35 47q38 -32 94 -32q45 0 74.5 23t36.5 65z" />
    <glyph glyph-name="afii10096" unicode="&#x44e;" horiz-adv-x="551" 
d="M118 320v-117h62q15 55 59.5 90t106.5 35q75 0 123 -48q49 -48 49 -120q0 -76 -48 -122t-124 -46q-72 0 -119 44q-45 43 -51 107h-58v-143h-64v320h64zM245 160q0 -48 28.5 -77.5t72.5 -29.5q47 0 74.5 29.5t27.5 77.5q0 49 -28.5 78.5t-73.5 29.5q-44 0 -72.5 -29.5
t-28.5 -78.5z" />
    <glyph glyph-name="afii10097" unicode="&#x44f;" horiz-adv-x="347" 
d="M164 320h129v-320h-64v122h-49l-82 -122h-81l91 127q-32 9 -50.5 34t-18.5 61q0 44 34.5 71t90.5 27zM229 172v91h-67q-26 0 -40 -12t-14 -32q0 -47 63 -47h58z" />
    <glyph glyph-name="afii10071" unicode="&#x451;" horiz-adv-x="404" 
d="M320 96l44 -36q-56 -68 -152 -68q-84 0 -132 50q-47 50 -47 122q0 70 51 117q53 47 121 47q77 0 121 -47q45 -46 45 -109q0 -11 -3 -26h-272q3 -40 35.5 -67t80.5 -27q66 0 108 44zM101 199h200q-6 31 -31 50t-62 19q-81 0 -107 -69zM305 477v-73h-70v73h70zM172 477v-73
h-70v73h70z" />
    <glyph glyph-name="afii10099" unicode="&#x452;" horiz-adv-x="389" 
d="M275 -9v178q0 53 -15 76t-56 23q-38 0 -62 -25t-24 -64v-179h-65v389h-51v53h51v224h65v-224h148v-53h-148v-122q14 28 42.5 44.5t61.5 16.5q64 0 91.5 -34.5t27.5 -105.5l-1 -216q0 -45 -28 -85q-27 -41 -83 -41h-7v60h4q49 0 49 85z" />
    <glyph glyph-name="afii10100" unicode="&#x453;" horiz-adv-x="278" 
d="M54 320h218v-60h-154v-260h-64v320zM162 378h-49l67 125h104z" />
    <glyph glyph-name="afii10101" unicode="&#x454;" horiz-adv-x="370" 
d="M256 196v-60h-154q6 -36 37 -59.5t75 -23.5q51 0 89 32l38 -47q-52 -46 -130 -46q-83 0 -131 50q-47 50 -47 118q0 64 45 116q46 52 132 52q69 0 126 -48l-38 -47q-43 35 -88 35q-40 0 -68.5 -19.5t-36.5 -52.5h151z" />
    <glyph glyph-name="afii10102" unicode="&#x455;" horiz-adv-x="293" 
d="M250 304l-24 -51q-45 15 -70 15q-38 0 -38 -26q0 -23 55 -48l14 -7q39 -22 57.5 -44t18.5 -57q0 -42 -31.5 -67.5t-82.5 -25.5q-64 0 -119 38l30 52q45 -30 85 -30q49 0 49 37q0 23 -65 58l-18 9q-33 18 -47.5 39t-14.5 51q0 37 30.5 59t74.5 22q52 0 96 -24z" />
    <glyph glyph-name="afii10103" unicode="&#x456;" horiz-adv-x="172" 
d="M118 0h-64v320h64v-320zM118 477v-74h-64v74h64z" />
    <glyph glyph-name="afii10104" unicode="&#x457;" horiz-adv-x="172" 
d="M185 477v-73h-70v73h70zM52 477v-73h-70v73h70zM117 0h-64v320h64v-320z" />
    <glyph glyph-name="afii10105" unicode="&#x458;" horiz-adv-x="171" 
d="M53 -9v329h64v-348q0 -45 -28 -85q-27 -41 -83 -41h-7v60h4q50 0 50 85zM117 477v-74h-64v74h64z" />
    <glyph glyph-name="afii10106" unicode="&#x459;" horiz-adv-x="546" 
d="M325 320v-113h85q58 0 89.5 -28.5t31.5 -71.5q0 -17 -5 -33.5t-17.5 -34t-39.5 -28.5t-66 -11h-142v260h-117v-53q0 -110 -25.5 -162.5t-84.5 -52.5h-19v64l8 -1q24 0 37 22q22 36 22 136v107h243zM325 150v-93h76q29 0 45 13.5t16 35.5q0 44 -61 44h-76z" />
    <glyph glyph-name="afii10107" unicode="&#x45a;" horiz-adv-x="568" 
d="M347 320v-113h85q58 0 89.5 -28.5t31.5 -71.5q0 -17 -5 -33.5t-17.5 -34t-39.5 -28.5t-66 -11h-142v147h-165v-147h-64v320h64v-113h165v113h64zM347 150v-93h76q61 0 61 48q0 45 -61 45h-76z" />
    <glyph glyph-name="afii10108" unicode="&#x45b;" horiz-adv-x="389" 
d="M118 666v-224h147v-53h-147v-122q14 28 42.5 44.5t61.5 16.5q119 0 119 -129v-199h-65v181q0 87 -72 87q-38 0 -62 -25t-24 -64v-179h-65v389h-51v53h51v224h65z" />
    <glyph glyph-name="afii10109" unicode="&#x45c;" horiz-adv-x="354" 
d="M118 0h-64v320h64v-144l135 144h84l-143 -148l162 -172h-90l-148 160v-160zM203 378h-49l67 125h104z" />
    <glyph glyph-name="afii10110" unicode="&#x45e;" horiz-adv-x="344" 
d="M200 154l71 166h70l-214 -474h-67l80 176l-137 298h73l73 -167l17 -51l7 -22q15 43 27 74zM229 489h61q0 -46 -30 -73.5t-83 -27.5t-83 27.5t-30 73.5h62q0 -45 51 -45q52 0 52 45z" />
    <glyph glyph-name="afii10193" unicode="&#x45f;" horiz-adv-x="398" 
d="M118 320v-260h162v260h64v-320h-111v-89h-64v89h-115v320h64z" />
    <glyph glyph-name="afii10146" unicode="&#x462;" horiz-adv-x="645" 
d="M465 511h-188v-107h129q115 0 170 -55q57 -55 57 -137q0 -42 -10.5 -77.5t-35 -67t-72 -49.5t-113.5 -18h-199v511h-149v63h149v92h74v-92h188v-63zM277 336v-268h122q154 0 154 136q0 58 -38.5 95t-113.5 37h-124z" />
    <glyph glyph-name="afii10194" unicode="&#x463;" horiz-adv-x="340" 
d="M195 0h-141v266h-52v52h52v219h64v-219h148v-52h-148v-59h85q57 0 89.5 -29t32.5 -71q0 -39 -29 -74q-28 -33 -101 -33zM118 150v-93h76q28 0 44.5 13t16.5 36q0 44 -61 44h-76z" />
    <glyph glyph-name="afii10147" unicode="&#x472;" horiz-adv-x="811" 
d="M49 333q0 149 101 248q100 100 259 100q84 0 153.5 -30.5t112.5 -83.5q86 -104 86 -234q0 -90 -41 -169q-40 -78 -123 -129q-83 -50 -188 -50q-160 0 -260 103t-100 245zM130 295q16 -103 91 -173q74 -68 187 -68q114 0 187 70t87 186q-65 -44 -139 -44q-55 0 -137 39
t-129 39q-65 0 -147 -49zM130 363q89 50 157 50q41 0 120 -38q84 -40 136 -40q64 0 138 44q-11 60 -41 109q-32 54 -94 89t-138 35q-108 0 -188 -71q-78 -71 -90 -178z" />
    <glyph glyph-name="afii10195" unicode="&#x473;" horiz-adv-x="422" 
d="M267 173q31 0 54 13q-7 38 -37.5 60t-73.5 22q-42 0 -72 -22.5t-37 -60.5q28 19 64 19q20 0 53 -16q30 -15 49 -15zM210 52q43 0 73 23t38 60q-29 -18 -61 -18q-20 0 -50 15q-34 15 -48 15q-34 0 -60 -16q8 -37 37.5 -58t70.5 -21zM33 160q0 68 47 118q48 50 130 50
q78 0 128 -48q50 -47 50 -120q0 -77 -49.5 -122.5t-128.5 -45.5q-85 0 -131 49t-46 119z" />
    <glyph glyph-name="afii10148" unicode="&#x474;" horiz-adv-x="703" 
d="M590 573l-263 -586l-319 679h83l237 -512l197 451q33 76 100 76q21 0 67 -11l-11 -57q-17 4 -35 4q-21 0 -32.5 -9.5t-23.5 -34.5z" />
    <glyph glyph-name="afii10196" unicode="&#x475;" horiz-adv-x="382" 
d="M301 247l-107 -247h-47l-144 320h73l73 -167q10 -21 24 -73q12 42 24 74l48 121q23 53 81 53q18 0 52 -10l-12 -51q-17 4 -31 4q-23 0 -34 -24z" />
    <glyph glyph-name="afii10050" unicode="&#x490;" horiz-adv-x="479" 
d="M465 758v-160h-287v-598h-74v666h300v92h61z" />
    <glyph glyph-name="afii10098" unicode="&#x491;" horiz-adv-x="267" 
d="M54 320h158v89h61v-149h-154v-260h-65v320z" />
    <glyph glyph-name="cyrstraightU" unicode="&#x4ae;" horiz-adv-x="576" 
d="M251 0v219l-241 447h84l197 -369l193 369h82l-240 -448v-218h-75z" />
    <glyph glyph-name="cyrstraightu" unicode="&#x4af;" horiz-adv-x="336" 
d="M334 319l-130 -291v-183h-66v183l-135 291h69l74 -168q1 -3 3 -8t5 -14t6 -16l13 -35q12 43 25 74l67 167h69z" />
    <glyph glyph-name="cyrH" unicode="&#x4ba;" horiz-adv-x="608" 
d="M178 290v-290h-74v666h74v-305q90 42 186 42q206 0 206 -205v-198h-75v182q0 80 -34.5 116t-107.5 36q-95 0 -175 -44z" />
    <glyph glyph-name="cyrh" unicode="&#x4bb;" horiz-adv-x="390" 
d="M118 0h-64v666h64v-399q14 28 43 44.5t62 16.5q119 0 119 -129v-199h-65v181q0 44 -16 65.5t-56 21.5q-38 0 -62.5 -26t-24.5 -63v-179z" />
    <glyph glyph-name="Germandbls" unicode="&#x1e9e;" horiz-adv-x="556" 
d="M216 31l29 54q42 -30 90 -30t77 28t29 88q0 37 -25 77q-24 42 -49 67l-74 72l-22 23l99 187q-55 49 -118 49q-54 0 -83 -38.5t-29 -107.5v-500h-68v497q0 213 182 213q134 0 194 -97l-100 -185l28 -26v1q25 -21 46 -42q16 -15 43 -48q51 -63 51 -142q0 -83 -46.5 -132
t-129.5 -49q-63 0 -124 41z" />
    <glyph glyph-name="uni2010" unicode="&#x2010;" horiz-adv-x="427" 
d="M352 146h-277v69h277v-69z" />
    <glyph glyph-name="uni2011" unicode="&#x2011;" horiz-adv-x="427" 
d="M352 146h-277v69h277v-69z" />
    <glyph glyph-name="figuredash" unicode="&#x2012;" horiz-adv-x="551" 
d="M461 305h-371v69h371v-69z" />
    <glyph glyph-name="endash" unicode="&#x2013;" horiz-adv-x="551" 
d="M461 145h-371v69h371v-69z" />
    <glyph glyph-name="emdash" unicode="&#x2014;" horiz-adv-x="818" 
d="M728 146h-638v69h638v-69z" />
    <glyph glyph-name="quoteleft" unicode="&#x2018;" horiz-adv-x="220" 
d="M131 423h-86l71 243h59z" />
    <glyph glyph-name="quoteright" unicode="&#x2019;" horiz-adv-x="220" 
d="M89 666h86l-71 -243h-59z" />
    <glyph glyph-name="quotesinglbase" unicode="&#x201a;" horiz-adv-x="230" 
d="M94 112h86l-72 -241h-58l29 157z" />
    <glyph glyph-name="quotedblleft" unicode="&#x201c;" horiz-adv-x="390" 
d="M302 423h-86l71 243h58zM131 423h-86l72 243h58z" />
    <glyph glyph-name="quotedblright" unicode="&#x201d;" horiz-adv-x="390" 
d="M88 666h87l-72 -243h-58zM258 666h87l-71 -243h-57z" />
    <glyph glyph-name="quotedblbase" unicode="&#x201e;" horiz-adv-x="407" 
d="M92 112h87l-72 -241h-57zM270 112h87l-71 -241h-57z" />
    <glyph glyph-name="dagger" unicode="&#x2020;" horiz-adv-x="486" 
d="M277 -220h-68v605h-172v68h172v213h68v-213h172v-68h-172v-605z" />
    <glyph glyph-name="daggerdbl" unicode="&#x2021;" horiz-adv-x="486" 
d="M277 -220h-68v280h-172v68h172v257h-172v68h172v213h68v-213h172v-68h-172v-257h172v-68h-172v-280z" />
    <glyph glyph-name="bullet" unicode="&#x2022;" horiz-adv-x="164" 
d="M30 278q0 25 15 41t38 16q22 0 36.5 -17.5t14.5 -39.5q0 -21 -14.5 -38t-36.5 -17q-23 0 -38 16t-15 39z" />
    <glyph glyph-name="ellipsis" unicode="&#x2026;" horiz-adv-x="614" 
d="M44 0v92h92v-92h-92zM277 0v92h92v-92h-92zM511 0v92h92v-92h-92z" />
    <glyph glyph-name="perthousand" unicode="&#x2030;" horiz-adv-x="1348" 
d="M65 512q0 78 46 134q47 57 128 57q85 0 129 -56q43 -55 43 -135q0 -83 -49 -136q-50 -53 -123 -53q-79 0 -126.5 51.5t-47.5 137.5zM239 380q53 0 80.5 34.5t27.5 96.5q0 55 -25 95t-83 40q-53 0 -81.5 -37t-28.5 -98t28.5 -96t81.5 -35zM535 172q0 78 46 134
q47 57 128 57q85 0 129 -56q43 -55 43 -135q0 -83 -49 -136q-50 -53 -123 -53q-79 0 -126.5 51.5t-47.5 137.5zM709 40q53 0 80.5 34.5t27.5 96.5q0 55 -25 95t-83 40q-53 0 -81.5 -37t-28.5 -98t28.5 -96t81.5 -35zM935 172q0 78 46 134q47 57 128 57q85 0 129 -56
q43 -55 43 -135q0 -83 -49 -136q-50 -53 -123 -53q-79 0 -126.5 51.5t-47.5 137.5zM1109 40q53 0 80.5 34.5t27.5 96.5q0 55 -25 95t-83 40q-53 0 -81.5 -37t-28.5 -98t28.5 -96t81.5 -35zM784 648l-563 -646l-43 42l559 647z" />
    <glyph glyph-name="guilsinglleft" unicode="&#x2039;" horiz-adv-x="240" 
d="M139 33l-92 126l92 127h71l-90 -127l90 -126h-71z" />
    <glyph glyph-name="guilsinglright" unicode="&#x203a;" horiz-adv-x="240" 
d="M101 286l92 -127l-92 -126h-71l91 126l-91 127h71z" />
    <glyph glyph-name="fraction" unicode="&#x2044;" horiz-adv-x="146" 
d="M386 648l-562 -646l-44 42l559 647z" />
    <glyph glyph-name="Euro" unicode="&#x20ac;" horiz-adv-x="514" 
d="M179 444h240l-20 -63h-238q-4 -25 -4 -42t3 -35h225l-19 -63h-194q27 -82 94 -134q68 -53 143 -53q25 0 58 6l5 -67q-40 -8 -71 -8q-118 0 -202 78q-84 79 -109 178h-80l20 63h50q-2 26 -2 31q0 22 3 46h-71l20 63h64q30 96 117 166q89 71 193 71q42 0 91 -15l-27 -61
q-32 7 -64 7q-81 0 -139 -49t-86 -119z" />
    <glyph glyph-name="uni20B4" unicode="&#x20b4;" horiz-adv-x="481" 
d="M389 95l30 -52q-79 -58 -192 -58q-85 0 -132 38t-47 100q0 54 63 117h-93v63h135l76 74h-211v63h257q65 60 65 98q0 31 -25 52.5t-69 21.5q-71 0 -131 -30l-32 55q77 44 164 44q79 0 125.5 -36.5t46.5 -94.5q0 -45 -53 -110h96v-63h-144l-76 -74h220v-63h-269
q-65 -59 -65 -107q0 -79 107 -79q81 0 154 41z" />
    <glyph glyph-name="uni20BD" unicode="&#x20bd;" horiz-adv-x="502" 
d="M108 286h-91v63h91v317h162q111 0 167 -53t56 -143q0 -83 -56 -133.5t-163 -50.5h-92v-73h123v-63h-123v-150h-74v150h-91v63h91v73zM182 597v-248h86q145 0 145 126q0 62 -35 92t-114 30h-82z" />
    <glyph glyph-name="afii61352" unicode="&#x2116;" horiz-adv-x="1068" 
d="M723 182v65h302v-65h-302zM604 -14l-431 502v-488h-69v682l431 -500v484h69v-680zM713 494q0 67 41 120q42 52 117 52q79 0 117 -50q39 -49 39 -122t-44 -123q-43 -49 -112 -49q-72 0 -115 47t-43 125zM871 375q44 0 68 32.5t24 85.5q0 48 -22 83q-21 37 -70 37
q-46 0 -70 -33.5t-24 -86.5q0 -52 25 -85t69 -33z" />
    <glyph glyph-name="trademark" unicode="&#x2122;" horiz-adv-x="609" 
d="M152 447h-47v165h-69v44h186v-44h-70v-165zM494 559l-80 -119l-84 119l-34 -112h-50l69 218l99 -141l97 141l72 -218h-53z" />
    <glyph glyph-name="partialdiff" unicode="&#x2202;" horiz-adv-x="567" 
d="M451 361l4 3q-3 67 -26.5 124t-82.5 106.5t-148 68.5l12 54q183 -30 253 -141q64 -101 64 -242q0 -50 -10 -98t-31.5 -92.5t-53 -78t-78 -53.5t-103.5 -20q-98 0 -158 64t-60 159q0 91 66 160q67 70 169 70q122 0 183 -84zM449 258q-21 57 -64 90.5t-104 33.5
q-75 0 -125 -53q-49 -52 -49 -119q-2 -68 41 -112q43 -43 111 -43q72 -1 125 58q54 59 65 145z" />
    <glyph glyph-name="product" unicode="&#x220f;" horiz-adv-x="824" 
d="M660 598h-496v-818h-74v887h644v-887h-74v818z" />
    <glyph glyph-name="summation" unicode="&#x2211;" horiz-adv-x="524" 
d="M271 223l-295 444h548v-69h-414l249 -370l-268 -379h433v-69h-564z" />
    <glyph glyph-name="minus" unicode="&#x2212;" horiz-adv-x="594" 
d="M546 265h-494v69h494v-69z" />
    <glyph glyph-name="division" unicode="&#x2215;" horiz-adv-x="697" 
d="M629 629l-509 -847l-52 36l506 848z" />
    <glyph glyph-name="radical" unicode="&#x221a;" horiz-adv-x="463" 
d="M88 457l152 -399l151 655h230v-69h-174l-165 -686h-77l-166 430h-89v69h138z" />
    <glyph glyph-name="infinity" unicode="&#x221e;" horiz-adv-x="730" 
d="M368 302q47 47 81.5 66t83.5 19q63 0 95 -41t32 -90q0 -50 -34 -90t-100 -40q-45 0 -80 21t-81 72q-47 -48 -84 -70.5t-77 -22.5q-66 0 -100 40t-34 90q0 49 37 89q37 42 103 42q88 0 158 -85zM322 260q-57 63 -110 63q-32 0 -54 -20t-22 -47q0 -28 20 -47t53 -19
q55 0 113 70zM409 257q55 -67 114 -67q32 0 51.5 19t19.5 47t-19.5 47.5t-51.5 19.5q-59 0 -114 -66z" />
    <glyph glyph-name="integral" unicode="&#x222b;" horiz-adv-x="254" 
d="M340 687l-18 -66q-46 12 -71 12q-52 0 -71.5 -32.5t-19.5 -104.5v-506q0 -68 -14 -113q-26 -97 -124 -97q-36 0 -82 11l15 64q23 -6 47 -6q52 0 71.5 32t19.5 104v506q0 209 138 211q43 0 109 -15z" />
    <glyph glyph-name="approxequal" unicode="&#x2248;" horiz-adv-x="627" 
d="M457 381q41 0 85 38l35 -52q-55 -58 -120 -58q-55 0 -167 48q-74 30 -106 30q-40 0 -90 -42l-3 -3l-5 -4l-36 51q67 70 134 70q35 0 123 -35q102 -43 150 -43zM457 211q41 0 85 38l35 -52q-55 -58 -120 -58q-55 0 -167 48q-74 30 -106 30q-40 0 -93 -45l-5 -4l-36 51
q67 70 134 70q35 0 123 -35q102 -43 150 -43z" />
    <glyph glyph-name="notequal" unicode="&#x2260;" horiz-adv-x="596" 
d="M117 92l54 83h-121v69h163l75 118h-238v69h281l101 160l51 -31l-82 -129h145v-69h-189l-74 -118h263v-69h-305l-74 -114z" />
    <glyph glyph-name="lessequal" unicode="&#x2264;" horiz-adv-x="584" 
d="M534 166l-484 224l484 225v-68l-333 -158l333 -154v-69zM534 86v-69l-484 224v72z" />
    <glyph glyph-name="greaterequal" unicode="&#x2265;" horiz-adv-x="585" 
d="M50 615l484 -225l-484 -224v68l333 156l-333 156v69zM50 6v68l485 231v-74z" />
    <glyph glyph-name="lozenge" unicode="&#x25ca;" horiz-adv-x="343" 
d="M191 473l142 -237l-143 -236h-38l-142 235l141 238h40zM169 94l85 144l-83 141l-83 -146z" />
    <glyph glyph-name="accent" unicode="&#xf400;" horiz-adv-x="0" 
d="M-221 378h-49l67 125h104z" />
    <glyph glyph-name="Accent" unicode="&#xf401;" horiz-adv-x="0" 
d="M-339 741h-52l81 126h111z" />
    <glyph glyph-name="Breve" unicode="&#xf406;" horiz-adv-x="400" 
d="M317 862l46 -35q-61 -97 -163 -97q-51 0 -94 26t-64 70l46 35q47 -63 109 -63q71 0 120 64z" />
    <glyph glyph-name="Cedilla" unicode="&#xf407;" horiz-adv-x="255" 
d="M82 0h57v-52q36 -4 57 -23t21 -49q0 -42 -44 -66q-43 -24 -101 -24q-1 0 -31 2l4 53q7 -1 27 -1q25 0 43 8t18 25q0 27 -51 32v95z" />
    <glyph glyph-name="Circumflex" unicode="&#xf408;" horiz-adv-x="358" 
d="M260 730l-79 88l-79 -88h-57l99 147h72l100 -147h-56z" />
    <glyph glyph-name="Commaaccent" unicode="&#xf409;" horiz-adv-x="350" 
d="M130 -67h81l-58 -153h-47z" />
    <glyph glyph-name="Apostrophe" unicode="&#xf40a;" horiz-adv-x="350" 
d="M155 681h87l-71 -243h-59l25 139z" />
    <glyph glyph-name="Dotaccent" unicode="&#xf40b;" horiz-adv-x="186" 
d="M133 849v-87h-80v87h80z" />
    <glyph glyph-name="Ring" unicode="&#xf40c;" horiz-adv-x="247" 
d="M32 824q-2 29 15 52t42 33.5t54 6t48 -26.5q27 -29 27 -65t-27.5 -65.5t-65.5 -27.5q-40 0 -66.5 26.5t-26.5 66.5zM90 824q0 -15 10 -25.5t25 -10.5q14 0 24.5 10.5t10.5 25.5q0 14 -10.5 25t-24.5 11t-24.5 -11t-10.5 -25z" />
    <glyph glyph-name="Tilde" unicode="&#xf40d;" horiz-adv-x="403" 
d="M94 731l-52 18q9 40 36 66.5t64 26.5q27 0 64 -19q40 -18 62 -18q15 0 23 9q12 12 16 18l6 10l54 -20q-10 -37 -35 -61t-56 -24q-26 0 -66 18q-39 19 -63 19q-32 0 -53 -43z" />
    <glyph glyph-name="Ogonek" unicode="&#xf40e;" horiz-adv-x="278" 
d="M175 -151q23 0 47 6l16 -64q-39 -11 -81 -11q-53 0 -84.5 23.5t-31.5 67.5q0 50 51 95q44 37 87 64l20 13l31 -43l-25 -15q-83 -50 -83 -94q0 -42 53 -42z" />
    <glyph glyph-name="zero.tab" unicode="&#xf4e0;" 
d="M45 333q0 126 22 205q20 70 65 105t124 37q125 0 169 -99q41 -85 41 -248q0 -174 -46 -260q-46 -87 -164 -87q-101 0 -154 68q-22 30 -36 77q-21 79 -21 202zM119 388v-55q0 -54 1 -75q7 -90 20 -126q34 -85 117 -85t108 64q20 48 23 98q4 47 4 124q0 42 -1 55
q0 20 -3 54q-1 28 -7 55q-16 64 -39 87q-33 35 -86 35q-45 -3 -71.5 -20.5t-40.5 -54.5q-17 -47 -22 -102z" />
    <glyph glyph-name="one.tab" unicode="&#xf4e1;" 
d="M231 557l-95 -89v74l125 124h39v-666h-69v557z" />
    <glyph glyph-name="two.tab" unicode="&#xf4e2;" 
d="M158 64h270l-29 -64h-374l137 163q106 125 152 198q48 75 48 138q0 54 -32 85t-87 31q-67 0 -131 -39l-29 50q77 53 168 53q87 0 136 -52q49 -50 49 -118q0 -65 -42 -139.5t-124 -172.5z" />
    <glyph glyph-name="three.tab" unicode="&#xf4e3;" 
d="M86 585l-27 52q79 42 169 42q86 0 134.5 -41.5t48.5 -109.5q0 -53 -31.5 -93t-84.5 -58v-1q67 -12 111 -61q45 -48 45 -112q0 -102 -70 -160q-71 -57 -183 -57q-66 0 -133 24v66q69 -26 133 -26q84 0 131.5 38.5t47.5 107.5q0 65 -46.5 105t-136.5 39h-22v64h17
q73 0 111 28.5t38 81.5q0 46 -32.5 73.5t-96.5 27.5q-59 0 -123 -30z" />
    <glyph glyph-name="four.tab" unicode="&#xf4e4;" 
d="M399 175h68l-13 -64h-55v-111h-69v111h-303v46l336 509h36v-491zM113 175h217v328z" />
    <glyph glyph-name="five.tab" unicode="&#xf4e5;" 
d="M425 600h-207l-51 -163q131 -1 204.5 -61t73.5 -163q0 -97 -72 -162q-71 -65 -178 -65q-73 0 -136 24v65q49 -25 130 -25t132 44t51 116q0 77 -58.5 122t-157.5 45h-73l94 289h268z" />
    <glyph glyph-name="six.tab" unicode="&#xf4e6;" 
d="M167 483l140 183h91l-235 -304l2 -3q46 28 108 28q85 0 141 -55q57 -56 57 -137q0 -83 -57 -146t-151 -63q-93 0 -154 58t-61 148q0 74 28 141t91 150zM122 188q0 -63 37.5 -100.5t100.5 -37.5q62 0 99.5 38.5t37.5 99.5q0 53 -37 93q-36 42 -100 42t-101 -40
q-37 -38 -37 -95z" />
    <glyph glyph-name="seven.tab" unicode="&#xf4e7;" 
d="M364 602h-304l30 64h385l-340 -666h-78z" />
    <glyph glyph-name="eight.tab" unicode="&#xf4e8;" 
d="M177 363q-102 43 -102 143q0 71 51 122q51 52 130 52q89 0 136 -53q46 -52 46 -113q0 -105 -103 -150l1 -1q62 -21 96 -69t34 -109q0 -78 -58 -139q-58 -60 -152 -60t-152 58q-59 59 -59 136q0 67 35 114t97 69zM392 187q0 62 -36.5 100t-99.5 38q-62 0 -99.5 -38.5
t-37.5 -99.5t36 -99t100 -38t100.5 38t36.5 99zM365 503q0 50 -27.5 81.5t-81.5 31.5q-53 0 -80 -35t-27 -78q0 -50 28.5 -82t78.5 -32t79.5 32t29.5 82z" />
    <glyph glyph-name="nine.tab" unicode="&#xf4e9;" 
d="M349 184l-143 -184h-93l239 304l-1 1q-48 -30 -106 -30q-92 0 -148 59q-56 61 -56 138q0 84 57 146t152 62q90 0 152 -59t62 -144q0 -86 -25 -146q-25 -61 -90 -147zM390 479q0 56 -37 96q-38 41 -101 41q-62 0 -99.5 -38.5t-37.5 -98.5q0 -56 38 -99q38 -41 99 -41
q67 0 102.5 38.5t35.5 101.5z" />
    <glyph glyph-name="dollar.tab" unicode="&#xf4ec;" 
d="M301 -9v-108h-60v101q-108 3 -185 51l31 62q84 -42 160 -42q65 0 96.5 29t31.5 77q0 37 -33 73t-101 82l-55 38q-59 41 -83 74t-24 83q0 64 45 112q46 49 117 55v76h60v-74q56 -5 114 -38l-29 -58q-53 28 -112 28q-53 0 -83.5 -28.5t-30.5 -70.5q0 -37 36 -69l30 -25
l43 -30l71 -51q114 -82 114 -179q0 -63 -40.5 -108t-112.5 -60z" />
    <glyph glyph-name="Euro.tab" unicode="&#xf4ed;" 
d="M181 444h240l-20 -63h-238q-4 -25 -4 -42t3 -35h225l-19 -63h-194q27 -82 94 -134q68 -53 143 -53q25 0 58 6l5 -67q-40 -8 -71 -8q-118 0 -202 78q-84 79 -109 178h-80l20 63h50q-2 26 -2 31q0 22 3 46h-71l20 63h64q30 96 117 166q89 71 193 71q42 0 91 -15l-27 -61
q-32 7 -64 7q-81 0 -139 -49t-86 -119z" />
    <glyph glyph-name="cent.tab" unicode="&#xf4ee;" 
d="M314 -11v-111h-57v112q-95 11 -151 71q-56 62 -56 153q0 86 58 150q57 63 149 74v112h57v-112q72 -1 140 -53l-36 -47q-53 43 -125 43q-74 0 -121 -47q-46 -46 -46 -120q0 -66 47 -116q46 -49 125 -49q74 0 126 39l37 -45q-55 -43 -147 -54z" />
    <glyph glyph-name="sterling.tab" unicode="&#xf4ef;" 
d="M447 642l-31 -59q-55 29 -105 29q-62 0 -96.5 -34.5t-34.5 -95.5q0 -57 30 -138h153v-63h-136q6 -33 6 -65q0 -76 -68 -139l3 -4q32 13 70 13q23 0 59 -16t60 -16q43 0 81 39l39 -46q-67 -62 -123 -62q-23 0 -69 17q-45 18 -72 18q-51 0 -95 -27l-46 82q50 37 73 68.5
t23 69.5q0 33 -15 68h-96v63h71q-28 75 -28 137q0 92 57.5 146t153.5 54q71 0 136 -39z" />
    <glyph glyph-name="yen.tab" unicode="&#xf4fa;" 
d="M218 257h-174v63h144l-184 346h84l169 -320l167 320h83l-188 -346h150v-63h-177v-70h177v-63h-177v-124h-74v124h-174v63h174v70z" />
    <glyph glyph-name="florin.tab" unicode="&#xf4fb;" 
d="M342 374h-57l-38 -381q-23 -213 -161 -213h-28l5 61h10q49 0 73.5 37t31.5 109l39 387h-53l6 63h53l7 58q10 84 39 143q35 72 122 72h30l-6 -62h-10q-89 0 -107 -146l-7 -65h57z" />
    <glyph glyph-name="uni20B4.tab" unicode="&#xf4fc;" 
d="M405 95l30 -52q-79 -58 -192 -58q-85 0 -132 38t-47 100q0 54 63 117h-93v63h135l76 74h-211v63h257q65 60 65 98q0 31 -25 52.5t-69 21.5q-71 0 -131 -30l-32 55q77 44 164 44q79 0 125.5 -36.5t46.5 -94.5q0 -45 -53 -110h96v-63h-144l-76 -74h220v-63h-269
q-65 -59 -65 -107q0 -79 107 -79q81 0 154 41z" />
    <glyph glyph-name="uni20BD.tab" unicode="&#xf4fd;" 
d="M117 286h-91v63h91v317h162q111 0 167 -53t56 -143q0 -83 -56 -133.5t-163 -50.5h-92v-73h123v-63h-123v-150h-74v150h-91v63h91v73zM191 597v-248h86q145 0 145 126q0 62 -35 92t-114 30h-82z" />
    <glyph glyph-name="currency.tab" unicode="&#xf4fe;" 
d="M26 69l-42 43l91 92q-45 61 -45 134t45 136l-93 92l43 44l93 -92q58 47 138 47t138 -47l92 92l44 -44l-94 -93q46 -61 46 -135q0 -72 -45 -133l93 -93l-44 -43l-93 92l-14 -11l1 2q-58 -39 -124 -39q-76 0 -138 47zM103 338q0 -66 43 -109q44 -44 110 -44q61 0 107 41
q45 41 45 112q0 58 -42 106q-40 49 -110 49q-66 0 -109 -43q-44 -44 -44 -112z" />
    <glyph glyph-name="uniF643" unicode="&#xf643;" 
d="M255 329q80 0 128 -51q49 -49 49 -118q0 -72 -50 -120t-127 -48q-85 0 -131 52t-46 116t48 116q48 53 129 53zM149 160q0 -45 29.5 -74t76.5 -29t76.5 29t29.5 74q0 43 -28.5 73.5t-77.5 30.5q-48 1 -77 -28.5t-29 -75.5z" />
    <glyph glyph-name="uniF644" unicode="&#xf644;" 
d="M253 221l-61 -59v72l87 87h40v-321h-66v221z" />
    <glyph glyph-name="uniF645" unicode="&#xf645;" 
d="M276 62h116l-29 -62h-244l41 34l81 67q26 23 49 52q23 31 23 52q0 62 -69 62q-49 0 -82 -33l-30 55q53 40 118 40q61 0 97.5 -32t36.5 -78q0 -45 -25.5 -80.5t-82.5 -76.5z" />
    <glyph glyph-name="uniF646" unicode="&#xf646;" 
d="M140 237l-29 55q53 36 125 36q58 0 96 -31q40 -31 40 -78q0 -71 -68 -103q96 -26 96 -125q0 -64 -53 -105t-132 -41q-48 0 -100 20v64q50 -22 100 -22q113 0 113 88q0 40 -30 63.5t-86 22.5h-24v61h21q91 0 91 67q0 25 -21 41t-56 16q-48 0 -83 -29z" />
    <glyph glyph-name="uniF647" unicode="&#xf647;" 
d="M348 62h70l-19 -62h-51v-154h-67v154h-189v38l215 290h41v-266zM178 62h103v143z" />
    <glyph glyph-name="uniF648" unicode="&#xf648;" 
d="M231 259v1l-31 -93q95 0 146 -43t51 -116q0 -67 -46 -114q-45 -48 -136 -48q-57 0 -102 21v64q45 -22 97 -22q56 0 85.5 29t29.5 71q0 49 -35 75t-102 26h-61l67 211h202l-19 -62h-146z" />
    <glyph glyph-name="uniF649" unicode="&#xf649;" 
d="M183 356l102 131h88l-165 -210q25 13 57 13q64 0 107 -41q43 -40 43 -103q0 -62 -43 -109q-42 -47 -114 -47q-69 0 -116 44q-46 43 -46 110q0 44 15 88t31 67q25 36 41 57zM168 141q0 -41 24 -65t64 -24t64.5 24.5t24.5 64.5q0 35 -24.5 61t-64.5 26t-64 -24.5t-24 -62.5
z" />
    <glyph glyph-name="uniF64A" unicode="&#xf64a;" 
d="M313 258h-219l34 62h289l-242 -474h-72z" />
    <glyph glyph-name="uniF64B" unicode="&#xf64b;" 
d="M96 135q0 46 24 80t65 47q-31 13 -49.5 41t-18.5 63q0 54 38 92q39 39 100 39q62 0 100.5 -38t38.5 -93q0 -75 -65 -105q85 -28 85 -126q0 -58 -44 -102q-43 -43 -115 -43t-115 43q-44 44 -44 102zM343 140q0 39 -24.5 64.5t-63.5 25.5q-40 0 -64 -25t-24 -65
q0 -38 23.5 -63t63.5 -25q41 0 65 24.5t24 63.5zM323 364q0 28 -18.5 49.5t-49.5 21.5t-48.5 -21t-17.5 -50t18.5 -50.5t47.5 -21.5q30 0 49 21t19 51z" />
    <glyph glyph-name="uniF64C" unicode="&#xf64c;" 
d="M328 -27l-100 -129h-86l157 201q-27 -11 -48 -11q-69 0 -111 42q-41 44 -41 101q0 61 42 106t112 45q68 0 113 -42q46 -40 46 -101q0 -60 -20.5 -108t-63.5 -104zM254 266q-35 0 -59.5 -24.5t-24.5 -59.5q0 -38 22.5 -62t61.5 -24q36 0 61.5 25t25.5 61t-25 60t-62 24z
" />
    <glyph glyph-name="uniF6BA" unicode="&#xf6ba;" horiz-adv-x="427" 
d="M352 305h-277v69h277v-69z" />
    <glyph glyph-name="uniF6BB" unicode="&#xf6bb;" horiz-adv-x="551" 
d="M461 305h-371v69h371v-69z" />
    <glyph glyph-name="uniF6BC" unicode="&#xf6bc;" horiz-adv-x="818" 
d="M728 305h-638v69h638v-69z" />
    <glyph glyph-name="commaaccent" unicode="&#xf6c3;" horiz-adv-x="255" 
d="M85 -33h78l-54 -124h-46z" />
    <glyph glyph-name="Acute" unicode="&#xf6c9;" horiz-adv-x="289" 
d="M99 741h-52l81 126h111z" />
    <glyph glyph-name="Caron" unicode="&#xf6ca;" horiz-adv-x="358" 
d="M102 889l79 -88l80 88h55l-100 -148h-72l-98 148h56z" />
    <glyph glyph-name="Dieresis" unicode="&#xf6cb;" horiz-adv-x="340" 
d="M133 849v-87h-80v87h80zM291 849v-87h-79v87h79z" />
    <glyph glyph-name="DieresisAcute" unicode="&#xf6cc;" horiz-adv-x="440" 
d="M212 799h-39l74 121h110zM118 823v-81h-80v81h80zM399 823v-81h-79v81h79z" />
    <glyph glyph-name="Grave" unicode="&#xf6ce;" horiz-adv-x="289" 
d="M166 867l80 -126h-51l-140 126h111z" />
    <glyph glyph-name="Hungarumlaut" unicode="&#xf6cf;" horiz-adv-x="379" 
d="M67 741h-52l81 126h111zM232 741h-52l81 126h111z" />
    <glyph glyph-name="Macron" unicode="&#xf6d0;" horiz-adv-x="365" 
d="M329 757h-289v69h289v-69z" />
    <glyph glyph-name="cyrBreve" unicode="&#xf6d1;" horiz-adv-x="407" 
d="M300 858h71q-8 -55 -51.5 -87t-113.5 -32q-74 0 -117 31.5t-48 87.5h74q8 -50 90 -50q78 0 95 50z" />
    <glyph glyph-name="cyrbreve" unicode="&#xf6d4;" horiz-adv-x="364" 
d="M244 489h61q0 -46 -30 -73.5t-83 -27.5t-83 27.5t-30 73.5h62q0 -45 51 -45q52 0 52 45z" />
    <glyph glyph-name="dieresisacute" unicode="&#xf6d7;" horiz-adv-x="340" 
d="M227 477v-73h-70v73h70zM94 477v-73h-70v73h70zM149 509h-49l67 125h104z" />
    <glyph glyph-name="zerooldstyle" unicode="&#xf730;" horiz-adv-x="420" 
d="M210 329q80 0 128 -51q49 -49 49 -118q0 -72 -50 -120q-49 -48 -127 -48q-85 0 -131 52t-46 116t48 116q48 53 129 53zM104 160q0 -45 29.5 -74t76.5 -29t76.5 29t29.5 74q0 43 -28.5 73.5t-77.5 30.5q-48 1 -77 -28.5t-29 -75.5z" />
    <glyph glyph-name="oneoldstyle" unicode="&#xf731;" horiz-adv-x="222" 
d="M94 221l-61 -59v72l87 87h40v-321h-66v221z" />
    <glyph glyph-name="twooldstyle" unicode="&#xf732;" horiz-adv-x="297" 
d="M152 62h116l-29 -62h-244l41 34l81 67q26 23 49 52q23 31 23 52q0 62 -69 62q-49 0 -82 -33l-30 55q53 40 118 40q61 0 97.5 -32t36.5 -78q0 -45 -25.5 -80.5t-82.5 -76.5z" />
    <glyph glyph-name="threeoldstyle" unicode="&#xf733;" horiz-adv-x="317" 
d="M40 237l-29 55q52 36 125 36q58 0 96 -31q40 -31 40 -78q0 -71 -68 -103q96 -26 96 -125q0 -64 -53 -105t-132 -41q-48 0 -100 20v64q50 -22 100 -22q113 0 113 88q0 40 -30 63.5t-86 22.5h-24v61h21q91 0 91 67q0 25 -21 41t-56 16q-48 0 -83 -29z" />
    <glyph glyph-name="fouroldstyle" unicode="&#xf734;" horiz-adv-x="337" 
d="M260 62h70l-19 -62h-51v-154h-67v154h-189v38l215 290h41v-266zM90 62h103v143z" />
    <glyph glyph-name="fiveoldstyle" unicode="&#xf735;" horiz-adv-x="329" 
d="M144 259v1l-31 -93q95 0 146 -43t51 -116q0 -67 -46 -114q-45 -48 -136 -48q-57 0 -102 21v64q45 -22 97 -22q56 0 85.5 29t29.5 71q0 49 -35 75t-102 26h-61l67 211h202l-19 -62h-146z" />
    <glyph glyph-name="sixoldstyle" unicode="&#xf736;" horiz-adv-x="385" 
d="M120 356l102 131h88l-165 -210q25 13 57 13q64 0 107 -41q43 -40 43 -103q0 -62 -43 -109q-42 -47 -114 -47q-69 0 -116 44q-46 43 -46 110q0 44 15 88t31 67q25 36 41 57zM105 141q0 -41 24 -65t64 -24t64.5 24.5t24.5 64.5q0 35 -24.5 61t-64.5 26t-64 -24.5t-24 -62.5
z" />
    <glyph glyph-name="sevenoldstyle" unicode="&#xf737;" horiz-adv-x="323" 
d="M219 258h-219l34 62h289l-242 -474h-72z" />
    <glyph glyph-name="eightoldstyle" unicode="&#xf738;" horiz-adv-x="394" 
d="M38 135q0 46 24 80t65 47q-31 13 -49.5 41t-18.5 63q0 54 38 92q39 39 100 39q62 0 100.5 -38t38.5 -93q0 -75 -65 -105q85 -28 85 -126q0 -58 -44 -102q-43 -43 -115 -43t-115 43q-44 44 -44 102zM285 140q0 39 -24.5 64.5t-63.5 25.5q-40 0 -64 -25t-24 -65
q0 -38 23.5 -63t63.5 -25q41 0 65 24.5t24 63.5zM265 364q0 28 -18.5 49.5t-49.5 21.5t-48.5 -21t-17.5 -50t18.5 -50.5t47.5 -21.5q30 0 49 21t19 51z" />
    <glyph glyph-name="nineoldstyle" unicode="&#xf739;" horiz-adv-x="379" 
d="M262 -27l-100 -129h-86l157 201q-27 -11 -48 -11q-69 0 -111 42q-41 44 -41 101q0 61 42 106t112 45q68 0 113 -42q46 -40 46 -101q0 -60 -20.5 -108t-63.5 -104zM188 266q-35 0 -59.5 -24.5t-24.5 -59.5q0 -38 22.5 -62t61.5 -24q36 0 61.5 25t25.5 61t-25 60t-62 24z
" />
    <glyph glyph-name="uniFEFF" unicode="&#xfeff;" horiz-adv-x="0" 
 />
    <glyph glyph-name="NULL" horiz-adv-x="0" 
 />
    <glyph glyph-name="CR" horiz-adv-x="333" 
 />
    <glyph glyph-name="afii10021.ss01" horiz-adv-x="752" 
d="M84 67v-1l293 616l290 -614v1h77v-218h-74v149h-588v-149h-74v218zM375 519l-209 -450h417z" />
    <glyph glyph-name="afii10069.ss01" horiz-adv-x="407" 
d="M127 60h142l-71 132zM342 59v1h60v-155h-65v95h-267v-95h-65v155h50v-1l143 271z" />
    <glyph glyph-name="afii10024.ss01" horiz-adv-x="886" 
d="M345 381h61v294h75v-294h62q43 0 70 29t38 61l31 89q43 124 141 124h26v-71h-11q-33 0 -53 -22t-44 -83l-30 -77q-12 -31 -28 -48t-51 -29q82 -13 108 -113l24 -91q13 -50 36 -72.5t64 -22.5v-67q-18 -3 -47 -3q-44 0 -72.5 31t-48.5 104l-17 62q-17 63 -48.5 96
t-86.5 33h-63v-311h-75v311h-62q-55 0 -85.5 -31t-51.5 -99l-18 -60q-22 -72 -50.5 -104t-70.5 -32q-28 0 -46 3v67q40 0 61.5 21.5t36.5 73.5l27 90q15 49 35.5 74t64.5 40q-55 17 -74 76l-27 78q-20 57 -43 81t-56 24h-11v71h27q97 0 140 -124l31 -88q34 -91 111 -91z" />
    <glyph glyph-name="afii10072.ss01" horiz-adv-x="495" 
d="M280 0h-66v134h-24q-25 0 -38 -13t-29 -49l-7 -16q-14 -35 -29.5 -49t-38.5 -14q-25 0 -42 4v58h14q31 0 49 48l8 19q12 32 40 42q-24 11 -32 38l-6 20q-15 41 -44 46h-14v59h34q55 0 76 -65l7 -20q17 -48 52 -48h24v126h66v-126h24q34 0 51 48l7 20v-1q16 66 76 66h33
v-60h-13q-32 -5 -45 -45l-6 -20q-9 -28 -31 -38q28 -16 39 -42l8 -19q19 -48 50 -48h14v-58q-17 -4 -42 -4q-24 0 -39.5 14t-29.5 49l-6 16q-14 32 -25 44q-15 18 -42 18h-23v-134z" />
    <glyph glyph-name="afii10028.ss01" horiz-adv-x="624" 
d="M434 120l-17 62q-18 65 -49 97.5t-86 32.5h-104v-312h-74v675h74v-294h104q40 0 67 27t41 67l31 85q46 124 140 124h27v-71h-12q-33 0 -53 -22t-44 -83l-30 -77q-13 -34 -29 -51t-49 -26q81 -15 107 -113l24 -91q26 -95 100 -95v-67q-18 -3 -46 -3q-45 0 -73.5 31
t-48.5 104z" />
    <glyph glyph-name="afii10076.ss01" horiz-adv-x="361" 
d="M118 320v-126h39q35 0 51 48l6 20q21 65 77 65h33v-60h-14q-31 -5 -44 -45l-6 -20q-9 -28 -31 -38q29 -16 39 -42l7 -19q21 -48 51 -48h14v-58q-17 -4 -42 -4t-40 13.5t-29 49.5l-7 16q-13 34 -26.5 48t-39.5 14h-38v-134h-65v320h65z" />
    <glyph glyph-name="afii10029.ss01" horiz-adv-x="654" 
d="M646 0h-86l-239 515l-232 -515h-81l315 682z" />
    <glyph glyph-name="afii10077.ss01" horiz-adv-x="335" 
d="M263 0l-96 189l-95 -189h-69l164 330l165 -330h-69z" />
    <glyph glyph-name="afii10058.ss01" horiz-adv-x="919" 
d="M666 336h-179l127 -267h50q153 0 153 133q0 63 -40 98.5t-111 35.5zM323 682l131 -277h217q113 0 169 -55q57 -55 57 -137q0 -85 -46 -145q-51 -68 -185 -68h-106l-241 521l-230 -521h-81z" />
    <glyph glyph-name="afii10106.ss01" horiz-adv-x="496" 
d="M353 0h-90l-96 189l-95 -189h-69l164 330l61 -123h132q58 0 89.5 -28.5t31.5 -71.5q0 -17 -5 -33.5t-17.5 -34t-39.5 -28.5t-66 -11zM256 150l47 -93h48q29 0 45 13.5t16 35.5q0 44 -61 44h-95z" />
    </font>
</defs>
</svg>
