<?xml version="1.0" encoding="utf-8"?>
<!-- Generator: Adobe Illustrator 19.0.1, SVG Export Plug-In . SVG Version: 6.00 Build 0)  -->
<svg version="1.1" id="Слой_1" xmlns:x="&ns_extend;" xmlns:i="&ns_ai;" xmlns:graph="&ns_graphs;"
	 xmlns="http://www.w3.org/2000/svg" xmlns:xlink="http://www.w3.org/1999/xlink" x="0px" y="0px" viewBox="0 0 30.7 28.2"
	 style="enable-background:new 0 0 30.7 28.2;" xml:space="preserve">
<style type="text/css">
	.st0{fill:#FFFFFF;}
</style>
<metadata>
	<sfw  xmlns="&ns_sfw;">
		<slices></slices>
		<sliceSourceBounds  width="30.6" height="28.1" x="283.3" y="-435.8" bottomLeftOrigin="true"></sliceSourceBounds>
	</sfw>
</metadata>
<path class="st0" d="M30.7,13.4c0,0.6-0.5,1.1-1.1,1.1h-0.2L25,27.4c-0.2,0.4-0.6,0.7-1,0.7H6.9c-0.4,0-0.9-0.3-1-0.7L1.4,14.5H1.2
	c-0.6,0-1.1-0.5-1.1-1.1s0.5-1.1,1.1-1.1H10l2-5.4c-0.3-0.4-0.4-0.9-0.3-1.4L13.4,1c0.2-0.6,0.8-1,1.4-1H16c0.6,0,1.2,0.4,1.4,1
	L19,5.5c0.2,0.5,0,1-0.3,1.4l2,5.4h8.9C30.2,12.3,30.7,12.8,30.7,13.4z M3.8,14.5l1,2.8h4.2l-0.5-2.8H3.8z M6.3,21.6h3.4l-0.5-2.9
	H5.2L6.3,21.6z M7.8,26h2.6l-0.5-2.9H6.7L7.8,26z M9.9,14.5l0.5,2.8h4.3v-2.8H9.9z M11.1,21.6h3.5v-2.9h-4L11.1,21.6z M11.4,23.1
	l0.5,2.9h2.7v-2.9H11.4z M11.6,12.3h7.6l-1.8-4.9c-0.5-0.1-0.9-0.4-1.1-0.9l-0.9-2.4l-0.9,2.4c-0.2,0.5-0.6,0.9-1.1,0.9L11.6,12.3z
	 M20.4,17.3l0.5-2.8h-4.8v2.8H20.4z M20.1,18.8h-4v2.9h3.5L20.1,18.8z M16.1,26h2.7l0.5-2.9h-3.3V26z M24.2,23.1h-3.3L20.3,26h2.9
	L24.2,23.1z M25.6,18.8h-4l-0.5,2.9h3.6L25.6,18.8z M27.1,14.5h-4.7l-0.5,2.8h4.3L27.1,14.5z"/>
</svg>
