<?xml version="1.0" encoding="utf-8"?>
<!-- Generator: Adobe Illustrator 19.0.1, SVG Export Plug-In . SVG Version: 6.00 Build 0)  -->
<svg version="1.1" id="Слой_1" xmlns="http://www.w3.org/2000/svg" xmlns:xlink="http://www.w3.org/1999/xlink" x="0px" y="0px"
	 viewBox="0 0 500 500" style="enable-background:new 0 0 500 500;" xml:space="preserve">
<style type="text/css">
	.st0{fill:#b2b2b2;}
</style>
<g transform="translate(0,-952.36218)">
	<path class="st0" d="M11.4,963.8c15.2-15.2,39.8-15.2,55,0l183.4,183.4l183.4-183.4c15.2-15.2,39.8-15.2,55,0
		c15.2,15.2,15.2,39.8,0,55l-183.4,183.4l183.4,183.4c15.2,15.2,15.2,39.8,0,55c-15.2,15.2-39.8,15.2-55,0l-183.4-183.4L66.4,1440.6
		c-15.2,15.2-39.8,15.2-55,0c-15.2-15.2-15.2-39.8,0-55l183.4-183.4L11.4,1018.8C-3.8,1003.6-3.8,979,11.4,963.8L11.4,963.8z"/>
</g>
</svg>
