<?xml version="1.0" encoding="utf-8"?>
<!-- Generator: Adobe Illustrator 19.0.1, SVG Export Plug-In . SVG Version: 6.00 Build 0)  -->
<svg version="1.1" id="Слой_1" xmlns="http://www.w3.org/2000/svg" xmlns:xlink="http://www.w3.org/1999/xlink" x="0px" y="0px"
	 viewBox="0 0 595.3 595.1" style="enable-background:new 0 0 595.3 595.1;" xml:space="preserve">
<style type="text/css">
	.st0{fill:#FFFFFF;}
	.st1{fill-rule:evenodd;clip-rule:evenodd;fill:#FFFFFF;}
</style>
<g>
	<g>
		<g>
			<path class="st0" d="M580.5,205.6c39.8,122.6-3.8,256.9-108.1,332.6c-104.3,75.8-245.5,75.8-349.7,0
				C18.4,462.4-25.2,328.1,14.6,205.6C54.4,83,168.6,0,297.5,0C426.4,0,540.6,83,580.5,205.6z M297.5,26.8
				c-117.3,0-221.2,75.5-257.4,187c-36.2,111.5,3.5,233.7,98.3,302.6c94.9,68.9,223.3,68.9,318.2,0
				c94.9-68.9,134.6-191.1,98.3-302.6C518.7,102.3,414.8,26.8,297.5,26.8z"/>
		</g>
		<path class="st1" d="M338,212c8.1-0.3,16.1-0.1,24.2-0.1c1,0,2,0,3.3,0v-42c-4.3-0.4-8.8-1-13.3-1.3c-8.3-0.4-16.6-0.8-24.9-0.6
			c-12.6,0.3-24.6,3.3-35.1,10.8c-12,8.6-18.6,20.7-21.1,35c-1,5.9-1.3,12-1.5,18c-0.2,9.4,0,18.8,0,28.3v3.5h-40.2v46.9h39.9v117.9
			h48.8V310.8H358c2-15.6,4-31,6.1-47.1c-3.2,0-6.1,0-8.9,0c-11.3,0-37.3,0-37.3,0s0.1-23.2,0.4-33.3
			C318.7,216.6,326.9,212.4,338,212z"/>
	</g>
</g>
</svg>
