<?xml version="1.0" encoding="utf-8"?>
<!-- Generator: Adobe Illustrator 19.0.1, SVG Export Plug-In . SVG Version: 6.00 Build 0)  -->
<svg version="1.1" id="Слой_1" xmlns="http://www.w3.org/2000/svg" xmlns:xlink="http://www.w3.org/1999/xlink" x="0px" y="0px"
	 viewBox="0 0 595.3 595.3" style="enable-background:new 0 0 595.3 595.3;" xml:space="preserve">
<style type="text/css">
	.st0{fill:#0E4E5E;}
	.st1{fill-rule:evenodd;clip-rule:evenodd;fill:#0E4E5E;}
</style>
<g>
	<g>
		<g>
			<path class="st0" d="M580,205.4c39.8,122.5-3.8,256.6-108,332.3c-104.2,75.7-245.2,75.7-349.4,0C18.4,462-25.2,327.9,14.6,205.4
				C54.4,82.9,168.5,0,297.3,0C426,0,540.2,82.9,580,205.4z M297.3,26.8c-117.2,0-221,75.4-257.2,186.9
				C3.8,325.1,43.5,447.2,138.3,516c94.8,68.9,223.2,68.9,317.9,0c94.8-68.9,134.5-190.9,98.2-302.4
				C518.3,102.2,414.4,26.8,297.3,26.8z"/>
		</g>
		<path class="st1" d="M373.2,186.7H221.3c-19.1,0-34.6,15.5-34.6,34.6v151.9c0,19.1,15.5,34.6,34.6,34.6h151.9
			c19.1,0,34.6-15.5,34.6-34.6V221.3C407.8,202.2,392.3,186.7,373.2,186.7z M344.6,217.2c0-3.4,2.8-6.2,6.2-6.2h26.7
			c3.4,0,6.2,2.7,6.2,6.2v26.7c0,3.4-2.8,6.2-6.2,6.2h-26.7c-3.4,0-6.2-2.8-6.2-6.2V217.2z M256.5,281.3
			c6.4-16.3,22.2-27.8,40.7-27.8c18.5,0,34.4,11.5,40.8,27.8c1.9,4.9,3,10.3,3,16c0,24.1-19.6,43.8-43.8,43.8
			c-24.1,0-43.8-19.6-43.8-43.8C253.5,291.6,254.5,286.2,256.5,281.3z M384.4,373.2c0,6.1-5,11.2-11.2,11.2H221.3
			c-6.1,0-11.2-5-11.2-11.2v-91.9H232c-1.3,5.1-1.9,10.5-1.9,16c0,37.1,30.1,67.2,67.2,67.2c37.1,0,67.2-30,67.2-67.2
			c0-5.5-0.7-10.8-1.9-16h21.9V373.2z"/>
	</g>
</g>
</svg>
