<?xml version="1.0" encoding="utf-8"?>
<!-- Generator: Adobe Illustrator 19.0.1, SVG Export Plug-In . SVG Version: 6.00 Build 0)  -->
<svg version="1.1" id="Слой_1"
	 xmlns="http://www.w3.org/2000/svg" xmlns:xlink="http://www.w3.org/1999/xlink" x="0px" y="0px"
	 viewBox="0 0 249.4375 19.4473038" style="enable-background:new 0 0 249.4375 19.4473038;" xml:space="preserve">
<style type="text/css">
	.st0{fill:#AF7599;}
</style>
<metadata>
	<sfw>
		<slices></slices>
		<sliceSourceBounds  height="19.2743244" width="249.3671875" x="115.5898438" y="-257.4642639" bottomLeftOrigin="true">
			</sliceSourceBounds>
	</sfw>
</metadata>
<g>
	<path class="st0" d="M11.0947266,9.1704102l-4.4003906,10.230957L0.0273438,4.4399414h2.2441406l4.4013672,10.3852539
		l4.421875-10.6928711l4.5546875,10.6928711l4.4013672-10.3852539h2.2216797l-6.6230469,14.9614258L11.0947266,9.1704102z"/>
	<path class="st0" d="M29.7734375,19.09375V4.4399414h2.0908203V19.09375H29.7734375z"/>
	<path class="st0" d="M50.3388672,19.09375h-9V4.4399414h2.0908203v12.8276367h6.9091797V19.09375z"/>
	<path class="st0" d="M57.8603516,19.09375V4.4399414h4.3125c2.8164063,0,4.9726563,0.8798828,6.2050781,2.2880859
		s1.8046875,3.1025391,1.8046875,5.0390625c0,2.199707-0.6601563,3.9819336-2.0029297,5.324707
		c-1.3193359,1.3417969-3.34375,2.0019531-6.0722656,2.0019531H57.8603516z M59.9511719,6.2661133v11.0014648h2.2001953
		c3.8720703,0,5.8085938-1.8261719,5.8085938-5.4780273c0-3.4990234-1.9580078-5.5234375-5.8085938-5.5234375H59.9511719z"/>
	<path class="st0" d="M97.5712891,11.0629883v1.8261719h-6.2265625V19.09375h-2.0908203V4.4399414h9v1.8261719h-6.9091797v4.796875
		H97.5712891z"/>
	<path class="st0" d="M107.0673828,6.3100586c1.4746094-1.4521484,3.3886719-2.1777344,5.6992188-2.1777344
		c2.5302734,0,4.6640625,0.9902344,5.8964844,2.4863281c1.2539063,1.4960938,1.9580078,3.3222656,1.9580078,5.1484375
		c0,2.0463867-0.7255859,3.8500977-2.1777344,5.3686523c-1.4521484,1.5175781-3.3447266,2.265625-5.6767578,2.265625
		c-4.7529297,0.0449219-8.03125-3.7177734-7.9208984-7.6342773C104.8457031,9.5893555,105.59375,7.762207,107.0673828,6.3100586z
		 M108.6513672,15.9033203c1.0566406,1.1220703,2.4208984,1.671875,4.0927734,1.671875
		c1.6503906,0,3.0146484-0.5498047,4.0712891-1.671875c1.0556641-1.1220703,1.5839844-2.4863281,1.5839844-4.1137695
		c0-0.9902344-0.1982422-1.9150391-0.6162109-2.7724609c-0.8144531-1.7607422-2.6621094-3.0585938-5.0390625-3.0585938
		c-1.671875,0-3.0361328,0.5722656-4.0927734,1.6943359c-1.0556641,1.1220703-1.5839844,2.5078125-1.5839844,4.1367188
		C107.0673828,13.3945313,107.5957031,14.78125,108.6513672,15.9033203z"/>
	<path class="st0" d="M130.2490234,6.3100586c1.4746094-1.4521484,3.3886719-2.1777344,5.6992188-2.1777344
		c2.5302734,0,4.6640625,0.9902344,5.8964844,2.4863281c1.2539063,1.4960938,1.9580078,3.3222656,1.9580078,5.1484375
		c0,2.0463867-0.7255859,3.8500977-2.1777344,5.3686523c-1.4521484,1.5175781-3.3447266,2.265625-5.6767578,2.265625
		c-4.7529297,0.0449219-8.03125-3.7177734-7.9208984-7.6342773C128.0273438,9.5893555,128.7753906,7.762207,130.2490234,6.3100586z
		 M131.8330078,15.9033203c1.0566406,1.1220703,2.4208984,1.671875,4.0927734,1.671875
		c1.6503906,0,3.0146484-0.5498047,4.0712891-1.671875c1.0556641-1.1220703,1.5839844-2.4863281,1.5839844-4.1137695
		c0-0.9902344-0.1982422-1.9150391-0.6162109-2.7724609c-0.8144531-1.7607422-2.6621094-3.0585938-5.0390625-3.0585938
		c-1.671875,0-3.0361328,0.5722656-4.0927734,1.6943359c-1.0556641,1.1220703-1.5839844,2.5078125-1.5839844,4.1367188
		C130.2490234,13.3945313,130.7773438,14.78125,131.8330078,15.9033203z"/>
	<path class="st0" d="M152.2949219,19.09375V4.4399414h4.3125c2.8164063,0,4.9726563,0.8798828,6.2050781,2.2880859
		s1.8046875,3.1025391,1.8046875,5.0390625c0,2.199707-0.6601563,3.9819336-2.0029297,5.324707
		c-1.3193359,1.3417969-3.34375,2.0019531-6.0722656,2.0019531H152.2949219z M154.3857422,6.2661133v11.0014648h2.2001953
		c3.8720703,0,5.8085938-1.8261719,5.8085938-5.4780273c0-3.4990234-1.9580078-5.5234375-5.8085938-5.5234375H154.3857422z"/>
	<path class="st0" d="M195.5039063,17.5537109c-1.3642578,1.2324219-3.0585938,1.8476563-5.1054688,1.8476563
		c-2.5517578,0-4.6865234-0.9677734-5.9404297-2.4423828C183.2041016,15.4853516,182.5,13.6591797,182.5,11.7456055
		c0-2.15625,0.7480469-3.9609375,2.2441406-5.4130859c1.5175781-1.4746094,3.4101563-2.2001953,5.6982422-2.2001953
		c2.046875,0,3.6533203,0.5273438,4.8193359,1.6064453l-1.1445313,1.4521484
		c-0.9902344-0.8144531-2.2441406-1.2324219-3.71875-1.2324219c-1.6503906,0-2.9921875,0.5498047-4.0703125,1.6279297
		s-1.6064453,2.4648438-1.6064453,4.1591797c0,1.737793,0.5283203,3.1459961,1.5839844,4.2241211
		c1.0791016,1.078125,2.4648438,1.6054688,4.1591797,1.6054688c1.3857422,0,2.6845703-0.4394531,3.8720703-1.2978516
		L195.5039063,17.5537109z"/>
	<path class="st0" d="M206.0849609,15.1552734l-1.8925781,3.9384766h-2.2666016l7.1953125-14.9614258l7.2167969,14.9614258
		h-2.265625l-1.8925781-3.9384766H206.0849609z M206.7890625,13.3291016h4.6640625l-2.3544922-4.8188477L206.7890625,13.3291016z"/>
	<path class="st0" d="M232.1240234,11.0629883v1.8261719h-6.2265625V19.09375h-2.0908203V4.4399414h9v1.8261719h-6.9091797v4.796875
		H232.1240234z"/>
	<path class="st0" d="M248.7119141,10.6674805v1.8261719h-6.2265625v4.7739258h6.9091797V19.09375h-9V4.4399414h8.9335938v1.8261719
		h-6.8427734v4.4013672H248.7119141z M243.2988281,3.1860352l1.9150391-3.0585938h3.1240234l-3.6083984,3.0585938H243.2988281z"/>
</g>
</svg>
