<?xml version="1.0" encoding="utf-8"?>
<!-- Generator: Adobe Illustrator 19.0.1, SVG Export Plug-In . SVG Version: 6.00 Build 0)  -->
<svg version="1.1" id="Слой_1" xmlns="http://www.w3.org/2000/svg" xmlns:xlink="http://www.w3.org/1999/xlink" x="0px" y="0px"
	 viewBox="0 0 249.5 20.260416" style="enable-background:new 0 0 249.5 20.260416;" xml:space="preserve">
<style type="text/css">
	.st0{fill:#F4964A;}
</style>
<g>
	<path class="st0" d="M11.2084961,9.1495771L6.8081055,19.3805332L0.1411133,4.4191079h2.2441406l4.4013672,10.3852539
		l4.421875-10.6928711l4.5546875,10.6928711l4.4013672-10.3852539h2.2216797l-6.6230469,14.9614258L11.2084961,9.1495771z"/>
	<path class="st0" d="M29.887207,19.072916V4.4191079h2.0908203V19.072916H29.887207z"/>
	<path class="st0" d="M50.4526367,19.072916h-9V4.4191079h2.0908203v12.8276367h6.9091797V19.072916z"/>
	<path class="st0" d="M57.9741211,19.072916V4.4191079h4.3125c2.8164063,0,4.9726563,0.8798828,6.2050781,2.2880859
		s1.8046875,3.1025395,1.8046875,5.039063c0,2.199707-0.6601563,3.9819336-2.0029297,5.3247061
		c-1.3193359,1.3417969-3.34375,2.0019531-6.0722656,2.0019531H57.9741211z M60.0649414,6.2452798v11.0014648h2.2001953
		c3.8720703,0,5.8085938-1.8261709,5.8085938-5.4780264c0-3.4990234-1.9580078-5.523438-5.8085938-5.523438H60.0649414z"/>
	<path class="st0" d="M97.6850586,11.0421553v1.8261719h-6.2265625v6.2045889h-2.0908203V4.4191079h9v1.8261719h-6.9091797
		v4.7968755H97.6850586z"/>
	<path class="st0" d="M107.1811523,6.2892251c1.4746094-1.4521484,3.3886719-2.1777344,5.6992188-2.1777344
		c2.5302734,0,4.6640625,0.9902344,5.8964844,2.4863281c1.2539063,1.4960942,1.9580078,3.3222661,1.9580078,5.148438
		c0,2.0463867-0.7255859,3.8500977-2.1777344,5.3686514c-1.4521484,1.5175781-3.3447266,2.265625-5.6767578,2.265625
		c-4.7529297,0.0449219-8.03125-3.7177725-7.9208984-7.6342764C104.9594727,9.5685225,105.7075195,7.7413735,107.1811523,6.2892251z
		 M108.7651367,15.8824873c1.0566406,1.1220694,2.4208984,1.671874,4.0927734,1.671874
		c1.6503906,0,3.0146484-0.5498047,4.0712891-1.671874c1.0556641-1.1220703,1.5839844-2.4863281,1.5839844-4.1137695
		c0-0.9902344-0.1982422-1.9150391-0.6162109-2.7724609c-0.8144531-1.7607427-2.6621094-3.0585942-5.0390625-3.0585942
		c-1.671875,0-3.0361328,0.5722656-4.0927734,1.6943359c-1.0556641,1.1220708-1.5839844,2.507813-1.5839844,4.1367192
		C107.1811523,13.3736982,107.7094727,14.760417,108.7651367,15.8824873z"/>
	<path class="st0" d="M130.362793,6.2892251c1.4746094-1.4521484,3.3886719-2.1777344,5.699707-2.1777344
		c2.5302734,0,4.6640625,0.9902344,5.8964844,2.4863281c1.2539063,1.4960942,1.9580078,3.3222661,1.9580078,5.148438
		c0,2.0463867-0.7255859,3.8500977-2.1777344,5.3686514c-1.4521484,1.5175781-3.3447266,2.265625-5.6767578,2.265625
		c-4.753418,0.0449219-8.0317383-3.7177725-7.9213867-7.6342764C128.1411133,9.5685225,128.8891602,7.7413735,130.362793,6.2892251z
		 M131.9467773,15.8824873c1.0566406,1.1220694,2.4208984,1.671874,4.0932617,1.671874
		c1.6503906,0,3.0146484-0.5498047,4.0712891-1.671874c1.0556641-1.1220703,1.5839844-2.4863281,1.5839844-4.1137695
		c0-0.9902344-0.1982422-1.9150391-0.6162109-2.7724609c-0.8144531-1.7607427-2.6621094-3.0585942-5.0390625-3.0585942
		c-1.6723633,0-3.0366211,0.5722656-4.0932617,1.6943359c-1.0556641,1.1220708-1.5839844,2.507813-1.5839844,4.1367192
		C130.362793,13.3736982,130.8911133,14.760417,131.9467773,15.8824873z"/>
	<path class="st0" d="M152.4091797,19.072916V4.4191079h4.3125c2.8164063,0,4.9726563,0.8798828,6.2050781,2.2880859
		s1.8046875,3.1025395,1.8046875,5.039063c0,2.199707-0.6601563,3.9819336-2.0029297,5.3247061
		c-1.3193359,1.3417969-3.34375,2.0019531-6.0722656,2.0019531H152.4091797z M154.5,6.2452798v11.0014648h2.2001953
		c3.8720703,0,5.8085938-1.8261709,5.8085938-5.4780264c0-3.4990234-1.9580078-5.523438-5.8085938-5.523438H154.5z"/>
	<path class="st0" d="M195.6181641,17.532877c-1.3642578,1.2324219-3.0585938,1.8476563-5.1054688,1.8476563
		c-2.5517578,0-4.6865234-0.9677734-5.9404297-2.4423828c-1.2539063-1.4736319-1.9580078-3.2998037-1.9580078-5.213378
		c0-2.15625,0.7480469-3.960938,2.2441406-5.4130864c1.5175781-1.4746094,3.4101563-2.2001953,5.6982422-2.2001953
		c2.046875,0,3.6533203,0.5273438,4.8193359,1.6064453l-1.1445313,1.4521484
		c-0.9902344-0.8144531-2.2441406-1.2324219-3.71875-1.2324219c-1.6503906,0-2.9921875,0.5498047-4.0703125,1.6279297
		s-1.6064453,2.4648442-1.6064453,4.1591802c0,1.737793,0.5283203,3.1459961,1.5839844,4.2241211
		c1.0791016,1.078124,2.4648438,1.6054678,4.1591797,1.6054678c1.3857422,0,2.6845703-0.4394531,3.8720703-1.2978516
		L195.6181641,17.532877z"/>
	<path class="st0" d="M206.1992188,15.1344404l-1.8925781,3.9384756h-2.2666016l7.1953125-14.9614258l7.2167969,14.9614258
		h-2.265625l-1.8925781-3.9384756H206.1992188z M206.9033203,13.3082685h4.6640625l-2.3544922-4.8188477L206.9033203,13.3082685z"/>
	<path class="st0" d="M232.2382813,11.0421553v1.8261719h-6.2265625v6.2045889h-2.0908203V4.4191079h9v1.8261719h-6.9091797
		v4.7968755H232.2382813z"/>
	<path class="st0" d="M248.8261719,10.6466475v1.8261719h-6.2265625v4.7739248h6.9091797v1.8261719h-9V4.4191079h8.9335938
		v1.8261719h-6.8427734v4.4013677H248.8261719z M243.4130859,3.1652019l1.9150391-3.0585938h3.1240234L244.84375,3.1652019
		H243.4130859z"/>
</g>
</svg>
