<?xml version="1.0" encoding="utf-8"?>
<!-- Generator: Adobe Illustrator 19.0.1, SVG Export Plug-In . SVG Version: 6.00 Build 0)  -->
<svg version="1.1" id="Слой_1"
	 xmlns="http://www.w3.org/2000/svg" xmlns:xlink="http://www.w3.org/1999/xlink" x="0px" y="0px" viewBox="0 0 342.75 19.88"
	 style="enable-background:new 0 0 342.75 19.88;" xml:space="preserve">
<style type="text/css">
	.st0{fill:#E0E9E9;}
	.st1{fill:#F6F6F6;}
</style>
<metadata>
	<sfw>
		<slices></slices>
		<sliceSourceBounds  width="342.64" height="19.54" x="117.86" y="-429.07" bottomLeftOrigin="true"></sliceSourceBounds>
	</sfw>
</metadata>
<g>
	<path class="st0" d="M11.42,9.37L6.95,19.74L0.2,4.57h2.28L6.93,15.1l4.48-10.84l4.62,10.84L20.5,4.57h2.25l-6.71,15.17L11.42,9.37
		z"/>
	<path class="st0" d="M30.36,19.43V4.57h2.12v14.86H30.36z"/>
	<path class="st0" d="M51.22,19.43h-9.12V4.57h2.12v13.01h7V19.43z"/>
	<path class="st0" d="M58.85,19.43V4.57h4.37c2.86,0,5.04,0.89,6.29,2.32s1.83,3.15,1.83,5.11c0,2.23-0.67,4.04-2.03,5.4
		c-1.34,1.36-3.39,2.03-6.16,2.03H58.85z M60.97,6.42v11.15h2.23c3.93,0,5.89-1.85,5.89-5.55c0-3.55-1.99-5.6-5.89-5.6H60.97z"/>
	<path class="st0" d="M99.12,11.28v1.85h-6.31v6.29h-2.12V4.57h9.12v1.85h-7v4.86H99.12z"/>
	<path class="st0" d="M108.76,6.47c1.5-1.47,3.44-2.21,5.78-2.21c2.57,0,4.73,1,5.98,2.52c1.27,1.52,1.99,3.37,1.99,5.22
		c0,2.07-0.74,3.9-2.21,5.44c-1.47,1.54-3.39,2.3-5.76,2.3c-4.82,0.04-8.14-3.77-8.03-7.74C106.5,9.79,107.26,7.94,108.76,6.47z
		 M110.36,16.19c1.07,1.14,2.45,1.7,4.15,1.7c1.67,0,3.06-0.56,4.13-1.7c1.07-1.14,1.61-2.52,1.61-4.17c0-1-0.2-1.94-0.63-2.81
		c-0.83-1.78-2.7-3.1-5.11-3.1c-1.7,0-3.08,0.58-4.15,1.72c-1.07,1.14-1.61,2.54-1.61,4.19C108.76,13.65,109.29,15.05,110.36,16.19z
		"/>
	<path class="st0" d="M132.27,6.47c1.5-1.47,3.44-2.21,5.78-2.21c2.57,0,4.73,1,5.98,2.52c1.27,1.52,1.99,3.37,1.99,5.22
		c0,2.07-0.74,3.9-2.21,5.44c-1.47,1.54-3.39,2.3-5.76,2.3c-4.82,0.04-8.14-3.77-8.03-7.74C130.02,9.79,130.77,7.94,132.27,6.47z
		 M133.87,16.19c1.07,1.14,2.45,1.7,4.15,1.7c1.67,0,3.06-0.56,4.13-1.7c1.07-1.14,1.61-2.52,1.61-4.17c0-1-0.2-1.94-0.63-2.81
		c-0.83-1.78-2.7-3.1-5.11-3.1c-1.7,0-3.08,0.58-4.15,1.72c-1.07,1.14-1.61,2.54-1.61,4.19C132.27,13.65,132.8,15.05,133.87,16.19z"
		/>
	<path class="st0" d="M154.63,19.43V4.57H159c2.86,0,5.04,0.89,6.29,2.32s1.83,3.15,1.83,5.11c0,2.23-0.67,4.04-2.03,5.4
		c-1.34,1.36-3.39,2.03-6.16,2.03H154.63z M156.75,6.42v11.15h2.23c3.93,0,5.89-1.85,5.89-5.55c0-3.55-1.99-5.6-5.89-5.6H156.75z"/>
	<path class="st0" d="M198.45,17.87c-1.38,1.25-3.1,1.87-5.18,1.87c-2.59,0-4.75-0.98-6.02-2.48c-1.27-1.49-1.99-3.35-1.99-5.29
		c0-2.19,0.76-4.02,2.28-5.49c1.54-1.49,3.46-2.23,5.78-2.23c2.07,0,3.7,0.54,4.88,1.63l-1.16,1.47c-1-0.83-2.28-1.25-3.77-1.25
		c-1.67,0-3.04,0.56-4.13,1.65c-1.09,1.09-1.63,2.5-1.63,4.22c0,1.76,0.54,3.19,1.61,4.28c1.09,1.09,2.5,1.63,4.22,1.63
		c1.41,0,2.72-0.45,3.93-1.32L198.45,17.87z"/>
	<path class="st0" d="M209.18,15.43l-1.92,3.99h-2.3l7.29-15.17l7.32,15.17h-2.3l-1.92-3.99H209.18z M209.9,13.58h4.73l-2.39-4.89
		L209.9,13.58z"/>
	<path class="st0" d="M235.59,11.28v1.85h-6.31v6.29h-2.12V4.57h9.12v1.85h-7v4.86H235.59z"/>
	<path class="st0" d="M252.41,10.88v1.85h-6.31v4.84h7.01v1.85h-9.13V4.57h9.06v1.85h-6.94v4.46H252.41z M246.93,3.3l1.94-3.1h3.17
		l-3.66,3.1H246.93z"/>
	<path class="st1" d="M276.56,14.47c-0.33-0.36-0.85-0.78-1.54-1.25c-0.69-0.49-1.09-0.78-1.23-0.89c-1.54-1.27-2.25-2.34-2.25-4.04
		c0-1.14,0.42-2.07,1.27-2.86c0.85-0.78,1.98-1.18,3.43-1.18c1.34,0,2.54,0.2,3.59,0.58v3.03c-1.09-0.47-2.21-0.71-3.32-0.71
		c-0.92,0-1.67,0.42-1.67,1.16c0,0.38,0.22,0.8,0.74,1.27l0.69,0.6l0.87,0.67l0.85,0.6c1.58,1.23,2.39,2.59,2.39,4.06
		c0,2.77-1.9,4.22-5.18,4.22c-1.05,0-2.32-0.2-3.81-0.63v-3.1l1.16,0.45c0.47,0.16,1.47,0.38,2.46,0.38c1.38,0,2.07-0.42,2.07-1.25
		C277.07,15.21,276.89,14.83,276.56,14.47z"/>
	<path class="st1" d="M291.66,13.09v6.33h-3.17V4.57h3.17v5.62h6.07V4.57h3.17v14.86h-3.17v-6.33H291.66z"/>
	<path class="st1" d="M311.1,6.51c1.49-1.49,3.41-2.25,5.78-2.25c2.61,0,4.77,1.05,6.02,2.57c1.25,1.52,1.9,3.37,1.9,5.18
		c0,2.16-0.74,3.99-2.23,5.49c-1.47,1.5-3.37,2.25-5.69,2.25c-2.43,0-4.37-0.76-5.82-2.25c-1.45-1.52-2.16-3.35-2.16-5.49
		C308.89,9.83,309.62,8.01,311.1,6.51z M313.42,15.39c0.82,0.96,1.98,1.45,3.44,1.45c1.36,0,2.45-0.47,3.32-1.38
		c0.87-0.91,1.31-2.07,1.31-3.46c0-1.27-0.42-2.41-1.25-3.37c-0.83-0.98-1.96-1.47-3.39-1.47c-1.36,0-2.48,0.45-3.35,1.36
		c-0.87,0.91-1.31,2.07-1.31,3.48C312.19,13.27,312.59,14.41,313.42,15.39z"/>
	<path class="st1" d="M335.96,14.72v4.71h-3.17V4.57h4.37c3.66,0,5.67,1.87,5.67,4.89c0,1.54-0.47,2.79-1.43,3.79
		c-0.94,0.98-2.34,1.47-4.24,1.47H335.96z M335.96,11.82h1.32c1.49,0,2.25-0.74,2.25-2.19c0-1.49-0.71-2.16-2.39-2.16h-1.18V11.82z"
		/>
</g>
</svg>
