<?xml version="1.0" encoding="utf-8"?>
<!-- Generator: Adobe Illustrator 19.0.1, SVG Export Plug-In . SVG Version: 6.00 Build 0)  -->
<svg version="1.1" id="Слой_1" xmlns="http://www.w3.org/2000/svg" xmlns:xlink="http://www.w3.org/1999/xlink" x="0px" y="0px"
	 viewBox="0 0 518 841.9" style="enable-background:new 0 0 518 841.9;" xml:space="preserve">
<style type="text/css">
	.st0{fill:#0E4E5E;}
</style>
<path class="st0" d="M496.9,22.9C482,8.2,462,0,441.1,0.1c-19.8-1-39.1,6.4-53.2,20.3L23.2,364.8c-30.8,30.6-31,80.3-0.4,111
	c0.1,0.1,0.3,0.3,0.4,0.4l364.7,344.5c30,29.4,78.1,28.9,107.5-1c0.5-0.5,1-1,1.5-1.5c28.3-30.2,27.1-77.5-2.5-106.4L187.8,420.5
	l306.5-291.3C524,100.4,525.1,53.1,496.9,22.9z"/>
</svg>
