<?xml version="1.0" encoding="utf-8"?>
<!-- Generator: Adobe Illustrator 19.0.1, SVG Export Plug-In . SVG Version: 6.00 Build 0)  -->
<svg version="1.1" id="Слой_1" xmlns="http://www.w3.org/2000/svg" xmlns:xlink="http://www.w3.org/1999/xlink" x="0px" y="0px"
	 viewBox="0 0 595.3 596.3" style="enable-background:new 0 0 595.3 596.3;" xml:space="preserve">
<style type="text/css">
	.st0{fill:#FFFFFF;}
	.st1{fill-rule:evenodd;clip-rule:evenodd;fill:#FFFFFF;}
</style>
<g>
	<path class="st0" d="M581.1,205.8c39.9,122.7-3.8,257.2-108.2,333c-104.4,75.8-245.8,75.8-350.1,0C18.4,463-25.3,328.5,14.6,205.8
		C54.5,83.1,168.8,0,297.9,0C426.9,0,541.3,83.1,581.1,205.8z M297.9,26.8c-117.4,0-221.5,75.6-257.7,187.3
		c-36.3,111.7,3.5,234,98.4,303c95,69,223.6,69,318.6,0c95-69,134.7-191.3,98.4-303C519.3,102.4,415.3,26.8,297.9,26.8z"/>
</g>
<path class="st1" d="M253.7,362.5c-30-1-48.8-22.6-53.7-40.1c8.3,1.6,16.6,1.3,24.7-0.7c0.2,0,0.4-0.2,0.8-0.4
	c-16.3-3.8-28.8-12.5-37.5-26.5c-5.8-9.3-8.5-19.5-8.5-30.7c8.1,4.3,16.6,6.7,25.7,7c-12.2-8.8-20.4-20.3-23.8-35
	c-3.3-14.7-1.2-28.6,6.2-41.8c31.3,36.8,70.8,57,119.1,60.3c-0.3-2.3-0.7-4.3-0.9-6.3c-1.6-13.6,1.1-26.3,8.4-37.8
	c9.2-14.4,22.3-23.4,39.1-26.1c19.4-3.2,36.4,2.4,50.6,16.1c0.9,0.9,1.7,1.2,3.1,0.9c11.9-2.6,23.1-6.9,33.6-12.9
	c0.2-0.1,0.5-0.3,0.8-0.4c0,0,0.1,0,0.4,0c-4.6,13.4-12.9,23.8-24.7,31.4c11.2-1.2,21.9-4.2,32.2-8.7c0.1,0.1,0.2,0.2,0.2,0.3
	c-2.2,2.9-4.3,5.8-6.6,8.7c-6.1,7.5-13.2,14.2-21,19.9c-0.7,0.5-1,0.9-1,1.8c0.3,8.6,0,17.1-1.1,25.6c-2.2,18-7.2,35.1-14.9,51.4
	c-7.9,16.9-18.2,32.1-31.2,45.5c-22,22.7-48.5,37.4-79.4,44.2c-10.6,2.3-21.3,3.5-32.2,3.8c-33.3,1-64.1-7.3-92.4-24.8
	c-0.4-0.2-0.7-0.5-1.4-0.9c20.1,2.2,39.3-0.4,57.8-8C236.1,374.5,245.2,369.2,253.7,362.5z"/>
</svg>
