<?xml version="1.0" standalone="no"?>
<!DOCTYPE svg PUBLIC "-//W3C//DTD SVG 1.1//EN" "http://www.w3.org/Graphics/SVG/1.1/DTD/svg11.dtd" >
<svg>
<metadata>
Created by FontForge 20090622 at Mon Apr  8 20:21:09 2019
 By deploy user
Copyright &#194;&#169; 1991 ParaGraph Intl, &#194;&#169; 1998 ParaType Inc., ParaType Ltd. All rights reserved.
</metadata>
<defs>
<font id="JournalSansNew-Oblique" horiz-adv-x="527" >
  <font-face 
    font-family="Journal Sans New"
    font-weight="500"
    font-style="oblique"
    font-stretch="normal"
    units-per-em="1000"
    panose-1="2 11 6 2 2 2 3 9 3 3"
    ascent="764"
    descent="-236"
    x-height="437"
    cap-height="666"
    bbox="-383 -233 1159 912"
    underline-thickness="50"
    underline-position="-50"
    slope="-10"
    unicode-range="U+0020-U+FEFF"
  />
<missing-glyph horiz-adv-x="233" 
 />
    <glyph glyph-name="afii10017.var.accented" unicode="&#x410;`" horiz-adv-x="588" 
d="M410 179h-276l-115 -179h-107l436 680l214 -680h-98zM319 479l-138 -217h208zM383 723h-65l91 139h142z" />
    <glyph glyph-name="afii10022.var.accented" unicode="&#x415;`" horiz-adv-x="547" 
d="M192 383h283l-14 -83h-283l-39 -217h314l-14 -83h-409l120 666h403l-14 -83h-311zM398 723h-65l91 139h142z" />
    <glyph glyph-name="afii10026.var.accented" unicode="&#x418;`" horiz-adv-x="747" 
d="M500 0l80 454l-550 -468l122 680h97l-81 -452l549 466l-122 -680h-95zM459 723h-65l91 139h142z" />
    <glyph glyph-name="afii10032.var.accented" unicode="&#x41e;`" horiz-adv-x="820" 
d="M50 284q0 116 57 207q56 91 147.5 140t200.5 49q68 0 123.5 -20t90.5 -51.5t58.5 -73t33 -81.5t9.5 -79q0 -158 -116 -274q-115 -115 -287 -115q-151 1 -234 90.5t-83 207.5zM151 298q0 -95 59 -163q58 -66 169 -66q121 0 205 87q85 86 85 206q0 96 -56 166
q-55 69 -172 69q-123 0 -207 -88q-83 -88 -83 -211zM506 723h-65l91 139h142z" />
    <glyph glyph-name="afii10037.var.accented" unicode="&#x423;`" horiz-adv-x="522" 
d="M126 666l144 -402l234 402h110l-291 -485q-115 -195 -253 -195q-45 0 -78 18l17 83q32 -17 68 -17q39 0 75 28t59 69l-184 499h99zM370 723h-65l91 139h142z" />
    <glyph glyph-name="afii10045.var.accented" unicode="&#x42b;`" horiz-adv-x="824" 
d="M684 0h-95l110 666h95zM143 666h94l-43 -256h117q98 0 150 -43t52 -119q0 -48 -16 -91t-47.5 -79t-87 -57t-127.5 -21h-205zM180 327l-41 -244h109q77 0 121 38.5t44 104.5q0 101 -121 101h-112zM511 723h-65l91 139h142z" />
    <glyph glyph-name="afii10047.var.accented" unicode="&#x42d;`" horiz-adv-x="676" 
d="M-5 82l58 60q70 -73 185 -73q104 0 180 66q75 65 101 167h-327l15 83h322q1 36 -10 72t-33.5 68t-64 52t-95.5 20q-62 0 -109.5 -17t-102.5 -53l-36 62q113 91 263 91q137 0 210 -81t75 -200q0 -171 -116 -293q-116 -120 -287 -120q-71 0 -131.5 25t-96.5 71zM361 723
h-65l91 139h142z" />
    <glyph glyph-name="afii10048.var.accented" unicode="&#x42e;`" horiz-adv-x="1078" 
d="M323 320h-144l-54 -320h-95l114 666h95l-46 -263h145q38 127 143 201q106 76 239 76q137 0 211 -72q50 -46 73.5 -108.5t23.5 -124.5q0 -159 -113 -275q-113 -114 -283 -114q-154 0 -237 96q-73 90 -73 202q0 28 1 36zM423 298q0 -96 56 -163q55 -66 165 -66
q121 0 202 87t81 206q0 46 -11 85.5t-35.5 74.5t-69 55t-105.5 20q-124 0 -203 -87q-80 -88 -80 -212zM576 723h-65l91 139h142z" />
    <glyph glyph-name="afii10049.var.accented" unicode="&#x42f;`" horiz-adv-x="600" 
d="M359 0l44 255h-95l-225 -255h-127l245 271q-53 15 -85 54t-32 95q0 107 72 176q71 70 204 70h210l-115 -666h-96zM419 338l41 245h-107q-78 0 -123 -38t-45 -107q0 -47 32.5 -73.5t87.5 -26.5h114zM404 723h-65l91 139h142z" />
    <glyph glyph-name="afii10023.var.accented" unicode="&#x401;`" horiz-adv-x="547" 
d="M192 383h283l-14 -83h-283l-39 -217h314l-14 -83h-409l120 666h403l-14 -83h-311zM367 773h-65l110 139h142zM290 818l-17 -101h-101l17 101h101zM562 818l-17 -101h-101l17 101h101z" />
    <glyph glyph-name="afii10065.var.accented" unicode="&#x430;`" horiz-adv-x="507" 
d="M129 349l-4 69q75 30 155 30t125.5 -29t45.5 -85q0 -8 -14 -89l-28 -160q-15 -82 -15 -85h-86l6 32q-67 -43 -151 -43q-68 0 -109.5 33t-41.5 93q0 75 60 115q62 41 144 41t134 -31q9 42 9 64q0 70 -92 70q-70 0 -138 -25zM219 203q-46 0 -78.5 -19.5t-32.5 -56.5
q0 -32 25.5 -48t67.5 -16q52 0 88.5 18.5t42.5 51.5q6 30 -26.5 50t-86.5 20zM324 499h-68l108 167h145z" />
    <glyph glyph-name="afii10070.var.accented" unicode="&#x435;`" horiz-adv-x="548" 
d="M416 117l50 -53q-78 -75 -217 -75q-99 0 -153 56q-53 57 -52 139q0 114 81 189t205 75q90 0 139.5 -47t49.5 -122q0 -37 -14 -77h-366q-1 -5 -1 -18q0 -51 35 -84t92 -33q89 0 151 50zM153 270h268q1 3 1 14q0 39 -28.5 62.5t-79.5 23.5q-53 0 -96 -27t-65 -73zM359 499
h-68l108 167h145z" />
    <glyph glyph-name="afii10074.var.accented" unicode="&#x438;`" horiz-adv-x="541" 
d="M341 0l42 265l-348 -276l79 448h90l-44 -259l346 270l-75 -448h-90zM362 499h-68l108 167h145z" />
    <glyph glyph-name="afii10080.var.accented" unicode="&#x43e;`" horiz-adv-x="582" 
d="M42 189q0 109 81 184t202 75q98 0 156 -58q59 -59 58 -143q-1 -111 -84 -185q-82 -73 -200 -73q-95 0 -154 55q-59 56 -59 145zM305 370q-63 0 -116 -47q-51 -47 -51 -121q0 -63 37 -99t103 -36q72 0 119 50q47 52 46 122q-1 57 -37.5 94t-100.5 37zM359 499h-68l108 167
h145z" />
    <glyph glyph-name="afii10085.var.accented" unicode="&#x443;`" horiz-adv-x="450" 
d="M251 208l132 229h99l-392 -649h-93l149 243l-122 406h95l65 -230q12 -40 19 -100q25 59 48 101zM301 499h-68l108 167h145z" />
    <glyph glyph-name="afii10093.var.accented" unicode="&#x44b;`" horiz-adv-x="696" 
d="M115 437h89l-28 -156h120q67 0 104 -30.5t37 -80.5q0 -80 -56 -125t-150 -45h-196zM163 207l-24 -133h104q42 0 70 20.5t28 57.5q0 55 -74 55h-104zM587 0h-90l74 437h90zM415 499h-68l108 167h145z" />
    <glyph glyph-name="afii10095.var.accented" unicode="&#x44d;`" horiz-adv-x="509" 
d="M367 190h-225l12 68h218q-7 51 -42.5 81t-93.5 30q-76 0 -134 -36l-34 64q80 50 182 50q100 0 158 -58q59 -57 59 -140q0 -118 -81 -190q-80 -71 -203 -71q-109 0 -169 60l48 59q49 -41 135 -41q64 0 110 34t60 90zM305 499h-68l108 167h145z" />
    <glyph glyph-name="afii10096.var.accented" unicode="&#x44e;`" horiz-adv-x="767" 
d="M241 189v8h-79l-37 -197h-90l81 437h90l-30 -162h79q27 79 98 126t164 47q98 0 153 -58q56 -57 54 -143q-2 -113 -81 -186q-79 -72 -196 -72q-95 0 -150 55q-56 56 -56 145zM497 370q-61 0 -110 -48q-50 -48 -50 -120q0 -64 34.5 -99.5t98.5 -35.5q70 0 114 51
q45 53 44 121q-1 59 -34.5 95t-96.5 36zM431 499h-68l108 167h145z" />
    <glyph glyph-name="afii10097.var.accented" unicode="&#x44f;`" horiz-adv-x="481" 
d="M273 437h173l-78 -437h-90l30 168h-55l-142 -168h-121l157 176q-35 10 -56 37.5t-21 62.5q0 68 49 114q50 47 154 47zM320 233l23 131h-84q-40 0 -66.5 -18t-26.5 -55q0 -58 77 -58h77zM338 499h-68l108 167h145z" />
    <glyph glyph-name="afii10071.var.accented" unicode="&#x451;`" horiz-adv-x="548" 
d="M416 117l50 -53q-78 -75 -217 -75q-99 0 -153 56q-53 57 -52 139q0 114 81 189t205 75q90 0 139.5 -47t49.5 -122q0 -37 -14 -77h-366q-1 -5 -1 -18q0 -51 35 -84t92 -33q89 0 151 50zM153 270h268q1 3 1 14q0 39 -28.5 62.5t-79.5 23.5q-53 0 -96 -27t-65 -73zM395 664
h-68l108 167h145zM319 632l-16 -96h-90l16 96h90zM487 632l-16 -96h-90l16 96h90z" />
    <glyph glyph-name="fi" unicode="fi" horiz-adv-x="513" 
d="M343 700q92 0 178 -65l-53 -59q-62 46 -128 46q-45 0 -69.5 -27.5t-35.5 -88.5l-13 -69h234l-81 -437h-90l67 359h-144l-67 -359h-90l67 359h-88l14 78h88l17 89q35 174 194 174z" />
    <glyph glyph-name="fl" unicode="fl" horiz-adv-x="513" 
d="M415 693h90l-129 -693h-90l67 359h-144l-67 -359h-90l67 359h-89l14 78h89l17 89q33 174 194 174q35 0 71 -7zM223 437h144l33 177q-29 8 -59 8q-47 0 -70 -28t-35 -88z" />
    <glyph glyph-name=".notdef" horiz-adv-x="233" 
 />
    <glyph glyph-name=".null" horiz-adv-x="0" 
 />
    <glyph glyph-name="nonmarkingreturn" horiz-adv-x="333" 
 />
    <glyph glyph-name="space" unicode=" " horiz-adv-x="233" 
 />
    <glyph glyph-name="exclam" unicode="!" horiz-adv-x="261" 
d="M133 196h-70l62 470h126zM0 0l22 126h126l-22 -126h-126z" />
    <glyph glyph-name="quotedbl" unicode="&#x22;" horiz-adv-x="381" 
d="M94 666h110l-68 -218h-54zM271 666h110l-69 -218h-52z" />
    <glyph glyph-name="numbersign" unicode="#" horiz-adv-x="875" 
d="M590 187l-45 -187h-87l46 187h-194l-45 -187h-85l44 187h-159l21 84h159l37 161h-165l22 84h163l38 156h88l-38 -156h192l38 156h88l-38 -156h165l-23 -84h-164l-36 -161h170l-21 -84h-171zM331 271h193l37 161h-193z" />
    <glyph glyph-name="dollar" unicode="$" horiz-adv-x="489" 
d="M265 -5l-16 -109h-84l15 100q-46 0 -94.5 15.5t-78.5 38.5l48 73q62 -44 143 -44q60 0 97.5 31t37.5 78q-3 29 -10 45t-28 34q-12 12 -24 22q-16 13 -33 25l-34 27q-24 19 -47 40q-20 20 -36 52t-16 64q0 70 49.5 122t130.5 67l11 77h84l-11 -75q58 -7 107 -37l-49 -71
q-67 27 -108 27q-50 0 -82 -27.5t-32 -68.5q0 -32 22 -58q23 -28 68 -61q50 -37 59 -45q77 -68 77 -146q0 -70 -45 -122t-121 -74z" />
    <glyph glyph-name="percent" unicode="%" horiz-adv-x="834" 
d="M202 328q-61 0 -100 39q-38 41 -38 99q0 95 62 154q61 60 140 60q62 0 100 -39t38 -99q0 -95 -62 -155q-62 -59 -140 -59zM216 394q49 0 77 40q29 41 29 95q0 38 -17.5 61.5t-52.5 23.5q-47 0 -77 -41q-29 -41 -29 -94q0 -85 70 -85zM806 641l-681 -648l-52 58l676 647z
M578 -16q-61 0 -100 39q-38 41 -38 99q0 95 62 154q62 60 140 60q62 0 100 -39t38 -99q0 -95 -62 -155q-62 -59 -140 -59zM592 50q49 0 77 40q29 41 29 95q0 38 -17.5 61.5t-52.5 23.5q-47 0 -77 -41q-29 -41 -29 -94q0 -85 70 -85z" />
    <glyph glyph-name="ampersand" unicode="&#x26;" horiz-adv-x="638" 
d="M396 158l-112 215q-70 -27 -112 -75t-42 -107q0 -54 32.5 -87.5t86.5 -33.5q81 0 147 88zM496 160l86 -160h-102l-43 79q-91 -93 -202 -93q-95 0 -151 54q-56 56 -56 140q0 88 66 159q66 70 158 93q-1 3 -9 16l-19 36q-14 36 -14 65q0 59 43 95t108 36q62 0 135 -35
l-44 -75q-49 26 -93 26q-53 0 -53 -47q1 -29 18 -61l126 -241q44 74 76 142l80 -27q-33 -78 -110 -202z" />
    <glyph glyph-name="quotesingle" unicode="'" horiz-adv-x="203" 
d="M93 666h110l-69 -218h-52z" />
    <glyph glyph-name="parenleft" unicode="(" horiz-adv-x="336" 
d="M281 717l65 -52q-190 -229 -190 -488q-1 -202 93 -347l-67 -48q-127 175 -127 391q0 149 54 274q55 126 172 270z" />
    <glyph glyph-name="parenright" unicode=")" horiz-adv-x="336" 
d="M55 -218l-65 52q190 229 190 488q1 202 -93 347l67 48q127 -175 127 -391q0 -150 -54 -274q-55 -126 -172 -270z" />
    <glyph glyph-name="asterisk" unicode="*" horiz-adv-x="391" 
d="M366 553l-96 -28l38 -73l-67 -43l-37 71l-69 -73l-60 51l69 74l-79 28l38 70l82 -29l18 93h81l-17 -88l89 28z" />
    <glyph glyph-name="plus" unicode="+" horiz-adv-x="621" 
d="M344 308l-38 -211h-83l38 211h-211l15 83h211l38 212h83l-38 -212h212l-15 -83h-212z" />
    <glyph glyph-name="comma" unicode="," horiz-adv-x="259" 
d="M60 126h109l-114 -252h-80z" />
    <glyph glyph-name="hyphen" unicode="-" horiz-adv-x="461" 
d="M362 202h-294l13 83h294z" />
    <glyph glyph-name="period" unicode="." horiz-adv-x="258" 
d="M20 0l20 126h126l-20 -126h-126z" />
    <glyph glyph-name="slash" unicode="/" horiz-adv-x="434" 
d="M449 622l-504 -836l-65 42l502 838z" />
    <glyph glyph-name="zero" unicode="0" horiz-adv-x="535" 
d="M52 333q24 120 63 205q34 70 86.5 105t134.5 37q85 0 127 -47.5t42 -131.5q0 -72 -17 -168q-33 -176 -100.5 -261.5t-187.5 -85.5q-82 0 -123.5 47t-41.5 133q0 79 17 167zM151 350l-3 -17q-17 -82 -17 -162q0 -107 86 -107q65 0 105 54q18 24 31 61q20 53 39 154
q17 97 17 156q0 113 -88 113q-83 0 -120 -81q-25 -57 -50 -171z" />
    <glyph glyph-name="one" unicode="1" horiz-adv-x="293" 
d="M152 526l-108 -87l17 100l150 127h55l-114 -666h-90z" />
    <glyph glyph-name="two" unicode="2" horiz-adv-x="462" 
d="M107 78h258l-52 -78h-393l232 230l45 46q34 34 48 50q3 4 15.5 18.5l21.5 25.5q27 32 36 51q28 58 28 98q0 36 -24 59t-66 23q-64 0 -140 -45l-25 64q92 59 186 59q78 0 121.5 -37t43.5 -106q0 -70 -46.5 -143t-136.5 -163z" />
    <glyph glyph-name="three" unicode="3" horiz-adv-x="469" 
d="M104 565l-19 68q92 46 188 46q78 0 121 -35t43 -98q0 -54 -39 -100q-39 -47 -100 -69v-4q117 -30 117 -143q0 -107 -86 -176q-86 -68 -214 -68q-72 0 -145 29l16 83q65 -34 141 -34q85 0 138.5 43t53.5 117q0 50 -38.5 79t-112.5 28h-33l16 78h28q73 0 117.5 30t44.5 82
q0 80 -102 80q-53 0 -135 -36z" />
    <glyph glyph-name="four" unicode="4" horiz-adv-x="520" 
d="M378 187h73l-35 -78h-51l-20 -109h-90l20 109h-297l7 53l420 504h55zM95 187h193l52 288z" />
    <glyph glyph-name="five" unicode="5" horiz-adv-x="477" 
d="M461 588h-208l-70 -145q114 0 176.5 -49t62.5 -140q0 -110 -84 -190q-84 -78 -214 -78q-93 0 -162 33l14 82q67 -37 148 -37q84 0 143 47q59 48 59 127q0 131 -176 131h-85l146 297h286z" />
    <glyph glyph-name="six" unicode="6" horiz-adv-x="497" 
d="M188 485l172 181h115l-280 -289l2 -3q42 19 84 19q77 0 127 -47q49 -46 49 -117q0 -101 -75 -172q-74 -71 -179 -71q-83 0 -136 49q-53 50 -53 131q0 139 174 319zM110 163q0 -44 27.5 -71.5t77.5 -27.5q59 0 102 43q44 44 44 108q0 44 -26 72t-75 28q-58 0 -105 -44
q-45 -43 -45 -108z" />
    <glyph glyph-name="seven" unicode="7" horiz-adv-x="394" 
d="M331 588h-299l52 78h400l-426 -666h-98z" />
    <glyph glyph-name="eight" unicode="8" horiz-adv-x="514" 
d="M178 358v3q-35 15 -54.5 47t-18.5 73q0 82 64 140q65 59 157 59q78 0 121 -43q44 -44 43 -102q-1 -60 -36 -106t-93 -68v-3q100 -33 100 -134q0 -93 -73 -166q-74 -72 -184 -72q-84 0 -137 47q-53 48 -51 125q2 69 47 125q46 57 115 75zM215 62q66 0 108 47q42 48 42 112
q0 46 -26.5 72.5t-74.5 26.5q-62 0 -107 -46t-45 -110q0 -47 28.5 -74.5t74.5 -27.5zM279 394q45 0 80 36q35 37 35 87q0 40 -19.5 63.5t-56.5 23.5q-50 0 -84 -39q-33 -37 -33 -91q0 -36 21 -58t57 -22z" />
    <glyph glyph-name="nine" unicode="9" horiz-adv-x="488" 
d="M316 182l-156 -182h-115l260 287l-3 3q-37 -20 -83 -20q-79 0 -127 48t-48 121q0 93 72 167t178 74q86 0 141 -50q54 -49 52 -125q0 -143 -171 -323zM391 498q0 46 -27.5 75t-78.5 29q-59 0 -102 -45q-43 -43 -43 -106q1 -45 29.5 -74t73.5 -29q60 0 104 44t44 106z" />
    <glyph glyph-name="colon" unicode=":" horiz-adv-x="274" 
d="M77 322l21 126h126l-21 -126h-126zM19 0l21 126h126l-21 -126h-126z" />
    <glyph glyph-name="semicolon" unicode=";" horiz-adv-x="274" 
d="M76 322l21 126h126l-21 -126h-126zM61 126h109l-114 -252h-80z" />
    <glyph glyph-name="less" unicode="&#x3c;" horiz-adv-x="610" 
d="M493 117l-463 232l542 234l-17 -93l-336 -147l288 -147z" />
    <glyph glyph-name="equal" unicode="=" horiz-adv-x="654" 
d="M558 211h-508l14 83h508zM590 405h-508l14 83h508z" />
    <glyph glyph-name="greater" unicode="&#x3e;" horiz-adv-x="614" 
d="M117 584l467 -234l-546 -234l17 93l334 146l-286 145z" />
    <glyph glyph-name="question" unicode="?" horiz-adv-x="350" 
d="M24 0l28 126h126l-28 -126h-126zM104 589l41 82q53 9 87 9q61 0 96.5 -24t35.5 -71q0 -87 -108 -172q-86 -69 -86 -107q0 -27 44 -83l-58 -52q-80 80 -80 134q0 35 20 64q16 23 70 74q6 6 26 22q30 26 36 32q40 36 40 67q0 33 -57 33q-51 0 -107 -8z" />
    <glyph glyph-name="at" unicode="@" horiz-adv-x="1021" 
d="M517 370q-69 0 -125 -54q-55 -52 -55 -127q0 -54 35 -88t96 -34q70 0 123 52q54 53 54 123q2 55 -34 91.5t-94 36.5zM714 -11q-39 0 -65 19t-33 52v-1q-85 -70 -174 -70t-145 53q-56 54 -56 132q0 103 80 189q81 85 200 85q101 0 155 -82l13 71l85 1l-60 -331
q-4 -40 31 -40q59 0 99 76q41 77 41 157q0 124 -81 200q-80 77 -224 77q-109 0 -210 -55q-101 -54 -168 -152q-66 -98 -66 -208q-2 -131 89 -219q92 -89 234 -89q75 0 118 12l-14 -78q-41 -12 -118 -12q-183 0 -289 106q-106 105 -106 260q0 107 45 203q46 96 120 164
q76 68 176 107t204 39q94 0 169 -28.5t119 -78.5q88 -95 88 -229q0 -78 -30 -153q-29 -74 -90 -126q-60 -51 -137 -51z" />
    <glyph glyph-name="A" unicode="A" horiz-adv-x="588" 
d="M410 179h-276l-115 -179h-107l436 680l214 -680h-98zM319 479l-138 -217h208z" />
    <glyph glyph-name="B" unicode="B" horiz-adv-x="575" 
d="M249 0h-219l119 666h181q207 0 207 -151q0 -55 -41 -102q-39 -45 -94 -59l-1 -3q58 -12 86 -50t28 -92q0 -82 -73 -146q-72 -63 -193 -63zM227 585l-36 -201h101q65 0 104.5 33t39.5 84q0 38 -28.5 61t-86.5 23h-94zM176 303l-39 -222h113q74 0 119 36t45 96
q0 90 -124 90h-114z" />
    <glyph glyph-name="C" unicode="C" horiz-adv-x="678" 
d="M572 134l49 -64q-116 -83 -248 -83q-68 0 -124 19.5t-92 50.5t-61 71.5t-35.5 80t-10.5 78.5q0 165 115 279t297 114q140 0 210 -73l-60 -65q-59 55 -162 55q-134 0 -216 -88q-83 -88 -83 -208q0 -100 63 -166q63 -65 169 -65q97 0 189 64z" />
    <glyph glyph-name="D" unicode="D" horiz-adv-x="706" 
d="M222 0h-192l119 666h192q155 0 235 -70t80 -193q0 -176 -118 -290q-118 -113 -316 -113zM326 583h-96l-90 -500h99q105 0 178 45q138 85 138 268q0 187 -229 187z" />
    <glyph glyph-name="E" unicode="E" horiz-adv-x="547" 
d="M192 383h283l-14 -83h-283l-39 -217h314l-14 -83h-409l120 666h403l-14 -83h-311z" />
    <glyph glyph-name="F" unicode="F" horiz-adv-x="501" 
d="M183 365h275l-15 -83h-272l-47 -282h-94l107 666h402l-14 -83h-307z" />
    <glyph glyph-name="G" unicode="G" horiz-adv-x="803" 
d="M716 574l-71 -54q-77 77 -185 77q-132 0 -221 -84q-88 -84 -88 -211q0 -103 62 -168t166 -65q103 0 174 58q72 59 96 141h-256l45 83h327q-8 -71 -37 -135.5t-77 -116.5t-121 -82.5t-160 -30.5q-78 0 -142 26.5t-103 72.5q-75 92 -75 203q0 103 50 192q52 92 147.5 146
t213.5 54q159 0 255 -106z" />
    <glyph glyph-name="H" unicode="H" horiz-adv-x="729" 
d="M547 320h-370l-52 -320h-95l109 666h95l-44 -263h370l44 263h95l-109 -666h-95z" />
    <glyph glyph-name="I" unicode="I" horiz-adv-x="270" 
d="M125 0h-95l115 666h95z" />
    <glyph glyph-name="J" unicode="J" horiz-adv-x="342" 
d="M-40 2l15 81q33 -14 64 -14q47 0 69 33t37 115l74 449h95l-72 -434q-24 -135 -66 -190q-41 -56 -136 -56q-54 0 -80 16z" />
    <glyph glyph-name="K" unicode="K" horiz-adv-x="569" 
d="M125 0h-95l121 666h95l-55 -316l313 316h115l-275 -283l195 -383h-107l-159 317l-111 -111z" />
    <glyph glyph-name="L" unicode="L" horiz-adv-x="453" 
d="M433 83l-14 -83h-389l114 666h95l-100 -583h294z" />
    <glyph glyph-name="M" unicode="M" horiz-adv-x="835" 
d="M269 680l122 -480l310 480l74 -680h-92l-46 425l-280 -435l-110 435l-198 -425h-101z" />
    <glyph glyph-name="N" unicode="N" horiz-adv-x="704" 
d="M566 -14l-374 490l-78 -476h-84l110 680l372 -484l77 470h85z" />
    <glyph glyph-name="O" unicode="O" horiz-adv-x="820" 
d="M50 284q0 116 57 207q56 91 147.5 140t200.5 49q68 0 123.5 -20t90.5 -51.5t58.5 -73t33 -81.5t9.5 -79q0 -158 -116 -274q-115 -115 -287 -115q-151 1 -234 90.5t-83 207.5zM151 298q0 -95 59 -163q58 -66 169 -66q121 0 205 87q85 86 85 206q0 96 -56 166
q-55 69 -172 69q-123 0 -207 -88q-83 -88 -83 -211z" />
    <glyph glyph-name="P" unicode="P" horiz-adv-x="553" 
d="M274 255h-108l-43 -255h-93l115 666h214q98 0 146 -45.5t48 -124.5q0 -110 -76 -176q-77 -65 -203 -65zM224 583l-43 -245h98q84 0 128.5 37.5t44.5 106.5q0 101 -123 101h-105z" />
    <glyph glyph-name="Q" unicode="Q" horiz-adv-x="820" 
d="M504 11q-78 -25 -137 -25q-151 1 -234 90.5t-83 207.5q0 87 33 161.5t89 125.5t129 80t153 29q68 0 124 -20t90.5 -51t58.5 -70t33.5 -76t9.5 -71q0 -216 -157 -315l1 -7q75 14 145 -8l-30 -84q-103 39 -225 33zM151 298q0 -95 59 -163q58 -66 169 -66q122 0 206 89
q84 90 84 219q0 83 -51 147q-25 34 -72 53.5t-106 19.5q-124 0 -206 -88q-83 -88 -83 -211z" />
    <glyph glyph-name="R" unicode="R" horiz-adv-x="578" 
d="M225 280h-51l-49 -280h-95l118 666h209q92 0 144.5 -41t52.5 -117q0 -89 -60.5 -149.5t-163.5 -75.5l198 -283h-109zM336 583h-107l-39 -220h92q77 0 124 35t47 93q0 42 -29.5 67t-87.5 25z" />
    <glyph glyph-name="S" unicode="S" horiz-adv-x="465" 
d="M-18 47l47 70q70 -48 151 -48q56 0 93 31t37 76q0 43 -26 70q-15 17 -26 26q-10 10 -39 30l-41 32q-34 28 -37 31q-17 17 -29 31q-33 39 -33 96q0 79 65 133q64 55 158 55q86 0 151 -42l-46 -72q-66 31 -118 31q-48 0 -78.5 -27t-30.5 -69q0 -33 22 -59q22 -27 69 -60
q47 -32 60 -45q43 -38 61.5 -70.5t18.5 -74.5q0 -88 -68 -147t-179 -59q-50 0 -101.5 17.5t-80.5 43.5z" />
    <glyph glyph-name="T" unicode="T" horiz-adv-x="422" 
d="M191 0h-94l102 583h-169l13 83h431l-13 -83h-171z" />
    <glyph glyph-name="U" unicode="U" horiz-adv-x="698" 
d="M588 666h96l-66 -374q-27 -154 -112.5 -230t-220.5 -76q-112 0 -170.5 56.5t-58.5 163.5q0 46 18 154l18 99q4 26 20 111l18 96h96l-29 -158q-45 -253 -45 -291q0 -148 148 -148q182 0 222 219z" />
    <glyph glyph-name="V" unicode="V" horiz-adv-x="569" 
d="M261 196l277 470h113l-418 -680l-212 680h98z" />
    <glyph glyph-name="W" unicode="W" horiz-adv-x="947" 
d="M610 -14l-134 461l-264 -461l-194 680h95l126 -471l265 485l134 -486l283 472h108z" />
    <glyph glyph-name="X" unicode="X" horiz-adv-x="542" 
d="M361 0l-106 261l-216 -261h-117l296 354l-129 312h101l95 -235l198 235h118l-278 -329l139 -337h-101z" />
    <glyph glyph-name="Y" unicode="Y" horiz-adv-x="498" 
d="M147 0l36 221l-166 445h98l124 -343l241 343h114l-315 -443l-37 -223h-95z" />
    <glyph glyph-name="Z" unicode="Z" horiz-adv-x="567" 
d="M469 0h-505l444 583h-337l35 83h486l-445 -583h363z" />
    <glyph glyph-name="bracketleft" unicode="[" horiz-adv-x="353" 
d="M20 -213l148 879h205l-13 -75h-119l-122 -729h119l-13 -75h-205z" />
    <glyph glyph-name="backslash" unicode="\" horiz-adv-x="468" 
d="M37 666l466 -847l-69 -35l-469 847z" />
    <glyph glyph-name="bracketright" unicode="]" horiz-adv-x="328" 
d="M288 666l-148 -879h-205l13 75h119l122 729h-119l13 75h205z" />
    <glyph glyph-name="asciicircum" unicode="^" horiz-adv-x="381" 
d="M278 436l-64 107l-100 -107h-104l225 230l146 -230h-103z" />
    <glyph glyph-name="underscore" unicode="_" horiz-adv-x="599" 
d="M590 -224h-597l13 83h599z" />
    <glyph glyph-name="grave" unicode="`" horiz-adv-x="335" 
d="M201 666l71 -167h-64l-150 167h143z" />
    <glyph glyph-name="a" unicode="a" horiz-adv-x="507" 
d="M129 349l-4 69q75 30 155 30t125.5 -29t45.5 -85q0 -8 -14 -89l-28 -160q-15 -82 -15 -85h-86l6 32q-67 -43 -151 -43q-68 0 -109.5 33t-41.5 93q0 75 60 115q62 41 144 41t134 -31q9 42 9 64q0 70 -92 70q-70 0 -138 -25zM219 203q-46 0 -78.5 -19.5t-32.5 -56.5
q0 -32 25.5 -48t67.5 -16q52 0 88.5 18.5t42.5 51.5q6 30 -26.5 50t-86.5 20z" />
    <glyph glyph-name="b" unicode="b" horiz-adv-x="616" 
d="M477 240q-2 56 -39.5 92.5t-101.5 36.5q-72 0 -122 -50q-48 -49 -48 -120q0 -59 39 -96q40 -37 98 -37q83 0 129 52q47 53 45 122zM240 700l-53 -328q75 75 171 75q100 0 155 -58q57 -59 60 -137q5 -110 -72 -187t-190 -77q-54 0 -100.5 22t-72.5 60l-14 -70h-90l116 700
h90z" />
    <glyph glyph-name="c" unicode="c" horiz-adv-x="503" 
d="M264 -11q-107 0 -165 58q-57 59 -57 144q0 107 77 182t201 75q72 0 111 -23q19 -10 29 -18q8 -5 27 -21l-51 -66q-19 17 -31 24q-38 26 -95 26q-78 0 -125 -53t-47 -122q0 -58 38.5 -93t96.5 -35q74 0 144 52l43 -60q-80 -70 -196 -70z" />
    <glyph glyph-name="d" unicode="d" horiz-adv-x="633" 
d="M419 0l12 64q-73 -75 -174 -75q-99 0 -154 57q-55 58 -57 138q-3 110 76 186q80 78 196 78q55 0 98.5 -22.5t68.5 -59.5l61 334h90l-127 -700h-90zM142 196q2 -58 38.5 -93.5t97.5 -35.5q79 0 127 50q49 50 49 115q0 57 -34 97q-35 41 -99 41q-80 0 -131 -52
q-49 -52 -48 -122z" />
    <glyph glyph-name="e" unicode="e" horiz-adv-x="548" 
d="M416 117l50 -53q-78 -75 -217 -75q-99 0 -153 56q-53 57 -52 139q0 114 81 189t205 75q90 0 139.5 -47t49.5 -122q0 -37 -14 -77h-366q-1 -5 -1 -18q0 -51 35 -84t92 -33q89 0 151 50zM153 270h268q1 3 1 14q0 39 -28.5 62.5t-79.5 23.5q-53 0 -96 -27t-65 -73z" />
    <glyph glyph-name="f" unicode="f" horiz-adv-x="288" 
d="M154 0h-90l55 359h-89l14 78h86l16 89q15 80 58.5 127t117.5 47h41l-14 -78h-16q-81 0 -97 -97l-16 -88h94l-14 -78h-91z" />
    <glyph glyph-name="g" unicode="g" horiz-adv-x="631" 
d="M492 366l14 71h90l-70 -385q-28 -157 -94 -212q-65 -56 -187 -56q-99 0 -203 43l34 78q96 -39 185 -39q66 0 109 34q44 33 62 132l6 32q-74 -75 -177 -75q-98 0 -152 57q-55 59 -56 138q-3 110 76 186q79 78 196 78q112 0 167 -82zM149 196q2 -58 37 -93.5t96 -35.5
q78 0 128 50q51 49 51 126q0 54 -35 90.5t-98 36.5q-81 0 -131 -53t-48 -121z" />
    <glyph glyph-name="h" unicode="h" horiz-adv-x="542" 
d="M124 0h-90l119 700h90l-55 -326q38 39 72.5 56.5t83.5 17.5q63 0 100.5 -35.5t39.5 -91.5q0 -80 -50 -321h-90q47 241 47 299q0 33 -21.5 52t-59.5 19q-56 0 -97 -44q-40 -43 -51 -107z" />
    <glyph glyph-name="i" unicode="i" horiz-adv-x="245" 
d="M125 0h-90l72 437h90zM231 632l-16 -96h-90l16 96h90z" />
    <glyph glyph-name="j" unicode="j" horiz-adv-x="242" 
d="M31 -15l75 452h90l-79 -478q-13 -80 -59.5 -126t-121.5 -46h-10l15 82h6q64 0 84 116zM228 632l-16 -96h-90l16 96h90z" />
    <glyph glyph-name="k" unicode="k" horiz-adv-x="469" 
d="M124 0h-90l118 700h90l-77 -460l215 197h113l-209 -186l150 -251h-99l-118 200l-69 -56z" />
    <glyph glyph-name="l" unicode="l" horiz-adv-x="238" 
d="M125 0h-90l113 700h90z" />
    <glyph glyph-name="m" unicode="m" horiz-adv-x="798" 
d="M125 0h-90l73 437h90l-11 -63q62 74 147 74q47 0 77.5 -24t39.5 -64q73 88 162 88q73 0 104.5 -47.5t18.5 -128.5l-43 -272h-90l41 260q14 110 -58 110q-53 0 -91.5 -40t-48.5 -101l-36 -229h-90l41 259q17 111 -64 111q-44 0 -85 -42q-40 -40 -49 -97z" />
    <glyph glyph-name="n" unicode="n" horiz-adv-x="540" 
d="M125 0h-90l75 437h90l-12 -63q72 74 159 74q65 0 101 -35t36 -91q0 -23 -20 -152q-18 -115 -29 -170h-90q46 261 46 302q0 31 -20.5 49.5t-56.5 18.5q-54 0 -98 -42q-43 -40 -52 -97z" />
    <glyph glyph-name="o" unicode="o" horiz-adv-x="582" 
d="M42 189q0 109 81 184t202 75q98 0 156 -58q59 -59 58 -143q-1 -111 -84 -185q-82 -73 -200 -73q-95 0 -154 55q-59 56 -59 145zM305 370q-63 0 -116 -47q-51 -47 -51 -121q0 -63 37 -99t103 -36q72 0 119 50q47 52 46 122q-1 57 -37.5 94t-100.5 37z" />
    <glyph glyph-name="p" unicode="p" horiz-adv-x="620" 
d="M202 436l-10 -64q72 75 171 75q97 0 156 -57t59 -140q0 -110 -75 -187q-73 -75 -187 -75q-115 0 -174 83l-52 -284h-90l112 649h90zM482 234q0 59 -38 97t-103 38q-73 0 -122 -49q-48 -50 -48 -118q0 -61 39.5 -98.5t110.5 -37.5q73 0 117 51q44 52 44 117z" />
    <glyph glyph-name="q" unicode="q" horiz-adv-x="619" 
d="M378 -213l48 272q-77 -70 -175 -70q-88 0 -149 56q-60 55 -60 144q0 107 79 183t193 76q55 0 98.5 -22.5t68.5 -59.5l13 71h90l-116 -650h-90zM138 199q1 -62 39 -97t97 -35q73 0 125 50q51 49 51 122q0 51 -34 91t-99 40q-81 0 -131 -53q-49 -52 -48 -118z" />
    <glyph glyph-name="r" unicode="r" horiz-adv-x="376" 
d="M123 0h-90l74 437h90l-15 -95q27 48 68.5 77t89.5 29h26l-14 -90h-31q-58 0 -105 -47q-48 -48 -58 -109z" />
    <glyph glyph-name="s" unicode="s" horiz-adv-x="394" 
d="M368 416l-44 -66q-46 20 -93 20q-27 0 -43.5 -11.5t-16.5 -32.5q0 -17 10 -28q11 -13 39 -29l34 -20q18 -12 42 -31q15 -11 28 -34.5t13 -48.5q0 -65 -52 -105t-128 -40q-91 0 -152 54l48 65q59 -41 111 -41q35 0 56 16t21 41q0 27 -31 48l-33 21l-29 18
q-38 26 -55.5 49.5t-17.5 57.5q0 58 47 93q48 36 119 36q74 0 127 -32z" />
    <glyph glyph-name="t" unicode="t" horiz-adv-x="293" 
d="M149 0h-90l60 359h-89l13 78h89l26 154l98 47l-34 -201h91l-13 -78h-91z" />
    <glyph glyph-name="u" unicode="u" 
d="M402 437h90l-73 -437h-90l11 65q-22 -33 -63.5 -54.5t-92.5 -21.5q-67 0 -103 32t-37 94q0 29 48 322h90q-45 -262 -45 -299q0 -71 84 -71q50 0 90 37t51 95z" />
    <glyph glyph-name="v" unicode="v" horiz-adv-x="441" 
d="M192 107q5 9 26 52l24 49l132 229h99l-264 -437h-69l-116 437h94l59 -230q14 -59 15 -100z" />
    <glyph glyph-name="w" unicode="w" horiz-adv-x="728" 
d="M518 173l136 264h96l-240 -437h-83l-59 320l-165 -320h-77l-86 437h93l43 -264q1 -5 4.5 -31.5t4.5 -31.5l12 30q13 31 14 33l132 264h92l45 -264q1 -5 4.5 -31.5t4.5 -31.5q19 46 29 63z" />
    <glyph glyph-name="x" unicode="x" horiz-adv-x="447" 
d="M308 0l-91 159l-141 -159h-102l194 221l-122 216h104l82 -148l131 148h110l-193 -210l134 -227h-106z" />
    <glyph glyph-name="y" unicode="y" horiz-adv-x="450" 
d="M251 208l132 229h99l-392 -649h-93l149 243l-122 406h95l65 -230q12 -40 19 -100q25 59 48 101z" />
    <glyph glyph-name="z" unicode="z" horiz-adv-x="429" 
d="M449 437l-304 -359h248l-44 -78h-369l304 359h-216l42 78h339z" />
    <glyph glyph-name="braceleft" unicode="{" horiz-adv-x="396" 
d="M114 228v-3q41 -11 58 -34.5t15.5 -58t-8.5 -81.5l-21 -117q-6 -35 12.5 -54t52.5 -19h37l-13 -75h-53q-145 0 -120 148l19 113q11 61 -3.5 103t-64.5 44l13 74q45 1 74.5 40.5t42.5 105.5l17 105q12 70 55 108.5t116 38.5h53l-13 -75h-37q-76 0 -87 -72l-18 -115
q-13 -77 -40 -120q-25 -39 -87 -56z" />
    <glyph glyph-name="bar" unicode="|" horiz-adv-x="250" 
d="M74 -224h-83l176 1053h84z" />
    <glyph glyph-name="braceright" unicode="}" horiz-adv-x="396" 
d="M249 224l1 4q-63 17 -70 66q-6 41 5 107l20 118q6 35 -12.5 53.5t-52.5 18.5h-37l13 75h51q141 0 123 -148l-18 -105q-26 -146 67 -149l-13 -74q-41 -1 -72.5 -35t-44.5 -109l-18 -113q-25 -147 -170 -147h-51l12 75h35q34 0 57.5 18t30.5 53l19 116q13 78 38 120
q25 39 87 56z" />
    <glyph glyph-name="asciitilde" unicode="~" horiz-adv-x="643" 
d="M455 329q36 0 95 44l43 -63q-74 -67 -146 -67q-53 0 -138 38q-84 39 -116 39q-18 0 -39 -9q-28 -11 -65 -39l-39 60q79 74 158 74q36 0 122 -39q88 -38 125 -38z" />
    <glyph glyph-name="uni00A0" unicode="&#xa0;" horiz-adv-x="233" 
 />
    <glyph glyph-name="exclamdown" unicode="&#xa1;" horiz-adv-x="261" 
d="M90 251h70l-62 -470h-126zM223 447l-22 -126h-126l22 126h126z" />
    <glyph glyph-name="cent" unicode="&#xa2;" horiz-adv-x="463" 
d="M252 -10l-19 -108h-78l19 112q-76 15 -119 68t-43 126q0 96 63 169q64 73 172 88l19 109h78l-19 -108q76 -8 130 -62l-57 -57q-47 43 -117 43q-76 0 -125 -52q-50 -52 -50 -125q0 -57 39 -91.5t102 -34.5q68 0 121 38l40 -62q-65 -49 -156 -53z" />
    <glyph glyph-name="sterling" unicode="&#xa3;" horiz-adv-x="520" 
d="M500 634l-46 -69q-46 32 -102 32q-69 0 -106.5 -40t-37.5 -112q0 -49 10 -95h152l-12 -74h-131v-19q0 -41 -20 -84.5t-54 -74.5l1 -5q21 8 47 8q19 0 52 -16t52 -16q42 0 89 40l39 -57q-73 -66 -143 -66q-30 0 -69 16t-62 16q-59 0 -106 -32l-37 93q67 44 93 79
q27 36 27 91q0 12 -3 27h-97l12 74h70q-11 52 -11 76q0 112 66 183t191 71q36 0 74.5 -13t61.5 -33z" />
    <glyph glyph-name="currency" unicode="&#xa4;" horiz-adv-x="683" 
d="M75 57l-53 64l103 89q-24 46 -22 96q0 98 67 168l-73 86l63 54l73 -88q64 43 147 43q76 0 123 -37l106 89l53 -64l-105 -89q22 -37 22 -90q0 -99 -67 -173l70 -89l-63 -54l-71 90q-76 -43 -146 -43q-82 0 -123 37zM364 473q-70 0 -118 -48q-47 -47 -47 -110
q0 -49 33 -79.5t86 -30.5q69 0 118 47q48 48 47 111q-1 48 -32.5 79t-86.5 31z" />
    <glyph glyph-name="yen" unicode="&#xa5;" horiz-adv-x="599" 
d="M212 255h-171l12 74h138l-127 337h106l107 -306l215 306h98l-239 -337h140l-12 -74h-172l-11 -60h172l-13 -74h-172l-21 -121h-95l21 121h-171l13 74h171z" />
    <glyph glyph-name="brokenbar" unicode="&#xa6;" horiz-adv-x="250" 
d="M167 829h84l-76 -455h-84zM66 230h84l-76 -454h-84z" />
    <glyph glyph-name="section" unicode="&#xa7;" horiz-adv-x="466" 
d="M240 347q-46 0 -79.5 -34t-33.5 -82q0 -38 25 -60t65 -22q44 0 77 33q34 34 34 80q0 37 -23.5 61t-64.5 24zM156 -196q-84 0 -146 45l47 68q55 -35 107 -35q41 0 63.5 23.5t22.5 65.5q-1 33 -18 60.5t-47 32.5q-71 10 -113 51.5t-41 107.5q0 66 44 121q43 55 110 73
q-32 16 -50 45t-18 64q0 76 57 122q58 46 134 46q86 0 148 -45l-47 -68q-53 35 -107 35q-40 0 -64.5 -25t-24.5 -66q0 -32 18.5 -61t48.5 -35q144 -33 144 -160q0 -66 -40 -116.5t-105 -71.5q30 -17 48 -47.5t19 -63.5q0 -75 -56 -120q-55 -46 -134 -46z" />
    <glyph glyph-name="dieresis" unicode="&#xa8;" horiz-adv-x="371" 
d="M154 632l-16 -96h-90l16 96h90zM322 632l-16 -96h-90l16 96h90z" />
    <glyph glyph-name="copyright" unicode="&#xa9;" horiz-adv-x="896" 
d="M25 159q0 115 61 215q62 101 165 161q104 60 224 60q161 0 253 -98q93 -97 93 -240q0 -182 -133 -312q-134 -131 -317 -131q-153 0 -250 99q-96 97 -96 246zM466 517q-147 0 -256 -107q-107 -107 -107 -246q0 -115 77 -194q78 -78 201 -78q143 0 253 107q109 106 109 245
q0 110 -74 192q-73 81 -203 81zM410 -11q-100 0 -155 54t-55 134q0 99 73 169q74 71 189 71q87 0 154 -67l-54 -56q-47 47 -109 47q-73 0 -118 -48q-44 -49 -44 -111q0 -51 36.5 -84t90.5 -33q66 0 128 44l40 -56q-76 -64 -176 -64z" />
    <glyph glyph-name="ordfeminine" unicode="&#xaa;" horiz-adv-x="404" 
d="M136 575l-3 67q66 24 133 24q57 0 90 -22t33 -61q0 -32 -46 -259h-78l4 22q-50 -31 -114 -31q-49 0 -79.5 25.5t-30.5 70.5q0 57 45 92t116 35q46 0 94 -23q5 30 5 39q0 41 -68 41q-43 0 -101 -20zM216 470q-39 0 -62 -12.5t-23 -35.5q0 -38 63 -38q38 0 65 13t27 34
q0 17 -19 28t-51 11z" />
    <glyph glyph-name="guillemotleft" unicode="&#xab;" horiz-adv-x="493" 
d="M123 45l-98 173l155 174h98l-153 -174l95 -173h-97zM298 45l-98 173l155 174h98l-153 -174l95 -173h-97z" />
    <glyph glyph-name="logicalnot" unicode="&#xac;" horiz-adv-x="722" 
d="M538 286h-470l14 83h554l-40 -233h-84z" />
    <glyph glyph-name="uni00AD" unicode="&#xad;" horiz-adv-x="461" 
d="M362 202h-294l13 83h294z" />
    <glyph glyph-name="registered" unicode="&#xae;" horiz-adv-x="670" 
d="M325 458h-10l-16 -96h-83l47 280h139q38 0 59.5 -20t21.5 -51q0 -70 -70 -98l78 -111h-96zM371 576h-36l-9 -55h36q37 0 37 34q0 21 -28 21zM384 695q-106 0 -173 -72q-67 -70 -67 -163q0 -81 47 -128t129 -47q104 0 175 68t71 169q0 74 -45 123q-44 50 -137 50zM70 446
q0 132 94 227q94 96 237 96q109 0 174 -68t65 -167q0 -129 -94 -226t-238 -97q-101 0 -169 64q-69 65 -69 171z" />
    <glyph glyph-name="overscore" unicode="&#xaf;" horiz-adv-x="369" 
d="M320 551h-285l14 78h285z" />
    <glyph glyph-name="degree" unicode="&#xb0;" horiz-adv-x="350" 
d="M42 483q0 71 56 127t133 56q55 0 91 -37t36 -95q0 -68 -56 -124q-55 -55 -130 -55q-57 0 -93.5 36.5t-36.5 91.5zM216 583q-36 0 -61 -26.5t-25 -62.5q0 -24 16 -40t38 -16q36 0 61 25.5t25 61.5q0 24 -15 41t-39 17z" />
    <glyph glyph-name="plusminus" unicode="&#xb1;" horiz-adv-x="632" 
d="M354 312l-28 -165h-83l28 165h-211l15 83h211l36 202h83l-36 -202h214l-15 -83h-214zM522 26h-508l14 83h508z" />
    <glyph glyph-name="twosuperior" unicode="&#xb2;" horiz-adv-x="372" 
d="M208 396h130l-48 -72h-280l63 46q59 43 73 55l58 49q65 57 65 106q0 24 -17.5 37t-47.5 13q-53 0 -104 -33l-19 61q68 44 142 44q61 0 97.5 -26.5t36.5 -74.5q0 -61 -48 -112q-25 -29 -45 -45z" />
    <glyph glyph-name="threesuperior" unicode="&#xb3;" horiz-adv-x="355" 
d="M104 611l-15 62q63 29 126 29t101.5 -22t38.5 -65q0 -36 -26.5 -63.5t-68.5 -37.5l-1 -4q36 -4 56.5 -24t20.5 -50q0 -59 -55 -90t-136 -31q-69 0 -110 18l13 72q45 -18 102 -18q100 0 100 44q0 42 -93 42h-23l13 69h23q96 0 96 51q0 37 -68 37q-52 0 -94 -19z" />
    <glyph glyph-name="acute" unicode="&#xb4;" horiz-adv-x="343" 
d="M133 499h-68l108 167h145z" />
    <glyph glyph-name="mu" unicode="&#xb5;" horiz-adv-x="542" 
d="M433 0h-90l9 52q-74 -63 -151 -63q-39 0 -76 17l-38 -219h-88l109 650h90l-41 -252q-10 -57 9 -87.5t62 -30.5q37 0 74.5 20.5t63.5 51.5l50 298h90z" />
    <glyph glyph-name="mu" unicode="&#x3bc;" horiz-adv-x="542" 
d="M433 0h-90l9 52q-74 -63 -151 -63q-39 0 -76 17l-38 -219h-88l109 650h90l-41 -252q-10 -57 9 -87.5t62 -30.5q37 0 74.5 20.5t63.5 51.5l50 298h90z" />
    <glyph glyph-name="paragraph" unicode="&#xb6;" horiz-adv-x="487" 
d="M175 -196h-70l89 546q-81 1 -119 55q-37 53 -26 120q12 67 67 119q56 53 138 56h70zM322 -196h-70l149 896h70z" />
    <glyph glyph-name="middot" unicode="&#xb7;" horiz-adv-x="246" 
d="M50 298l20 126h126l-20 -126h-126z" />
    <glyph glyph-name="cedilla" unicode="&#xb8;" horiz-adv-x="273" 
d="M116 0h70l-11 -46q63 -10 63 -58q0 -50 -50 -77q-49 -28 -109 -28q-22 0 -44 5l17 58q14 -3 31 -3q18 -1 38 6.5t21 25.5q0 24 -47 24z" />
    <glyph glyph-name="onesuperior" unicode="&#xb9;" horiz-adv-x="267" 
d="M139 579l-81 -61l16 87l113 94h54l-67 -375h-80z" />
    <glyph glyph-name="ordmasculine" unicode="&#xba;" horiz-adv-x="405" 
d="M212 391q47 0 77 36t30 89q0 34 -19 54.5t-52 20.5q-47 0 -77 -36t-30 -89q0 -34 19 -54.5t52 -20.5zM198 315q-63 0 -100.5 37t-37.5 101q0 95 62 154q61 60 140 60q63 0 100.5 -37t37.5 -101q0 -95 -62 -155q-62 -59 -140 -59z" />
    <glyph glyph-name="guillemotright" unicode="&#xbb;" horiz-adv-x="493" 
d="M153 392l98 -173l-155 -174h-98l153 174l-95 173h97zM329 392l98 -173l-155 -174h-98l153 174l-95 173h97z" />
    <glyph glyph-name="onequarter" unicode="&#xbc;" horiz-adv-x="773" 
d="M753 641l-681 -648l-52 58l676 647zM170 579l-81 -61l16 87l113 94h54l-67 -375h-80zM635 131h45l-26 -63h-29l-12 -68h-80l12 68h-194l8 45l270 263h50zM462 131h93l20 108z" />
    <glyph glyph-name="onehalf" unicode="&#xbd;" horiz-adv-x="843" 
d="M614 72h130l-48 -72h-280l63 46q59 43 73 55l58 49q65 57 65 106q0 24 -17.5 37t-47.5 13q-53 0 -104 -33l-19 61q68 44 142 44q61 0 97.5 -26.5t36.5 -74.5q0 -61 -48 -112q-25 -29 -45 -45zM170 579l-81 -61l16 87l113 94h54l-67 -375h-80zM753 641l-681 -648l-52 58
l676 647z" />
    <glyph glyph-name="threequarters" unicode="&#xbe;" horiz-adv-x="847" 
d="M114 611l-15 62q63 29 126 29t101.5 -22t38.5 -65q0 -36 -26.5 -63.5t-68.5 -37.5l-1 -4q36 -4 56.5 -24t20.5 -50q0 -59 -55 -90t-136 -31q-69 0 -110 18l13 72q45 -18 102 -18q100 0 100 44q0 42 -93 42h-23l13 69h23q96 0 96 51q0 37 -68 37q-52 0 -94 -19zM827 641
l-681 -648l-52 58l676 647zM709 131h45l-26 -63h-29l-12 -68h-80l12 68h-194l8 45l270 263h50zM536 131h93l20 108z" />
    <glyph glyph-name="questiondown" unicode="&#xbf;" horiz-adv-x="350" 
d="M282 447l-28 -126h-126l28 126h126zM202 -142l-41 -82q-53 -9 -87 -9q-61 0 -96.5 24t-35.5 71q0 86 108 172q86 69 86 107q0 27 -44 83l58 52q80 -80 80 -134q0 -35 -20 -64q-16 -23 -70 -74l-27 -22q-30 -26 -36 -32q-39 -39 -39 -67q0 -33 57 -33q51 0 107 8z" />
    <glyph glyph-name="Agrave" unicode="&#xc0;" horiz-adv-x="588" 
d="M410 179h-276l-115 -179h-107l436 680l214 -680h-98zM319 479l-138 -217h208zM319 862l71 -139h-64l-150 139h143z" />
    <glyph glyph-name="Aacute" unicode="&#xc1;" horiz-adv-x="588" 
d="M410 179h-276l-115 -179h-107l436 680l214 -680h-98zM319 479l-138 -217h208zM383 723h-65l91 139h142z" />
    <glyph glyph-name="Acircumflex" unicode="&#xc2;" horiz-adv-x="588" 
d="M410 179h-276l-115 -179h-107l436 680l214 -680h-98zM319 479l-138 -217h208zM437 723l-59 86l-95 -86h-77l139 160h82l74 -160h-64z" />
    <glyph glyph-name="Atilde" unicode="&#xc3;" horiz-adv-x="588" 
d="M410 179h-276l-115 -179h-107l436 680l214 -680h-98zM319 479l-138 -217h208zM254 710l-66 25q15 44 49 73.5t77 29.5q28 0 63 -18q36 -18 54 -18q31 0 54 35l66 -26q-15 -41 -45.5 -66.5t-71.5 -25.5q-29 0 -68 18t-54 18q-36 0 -58 -45z" />
    <glyph glyph-name="Adieresis" unicode="&#xc4;" horiz-adv-x="588" 
d="M410 179h-276l-115 -179h-107l436 680l214 -680h-98zM319 479l-138 -217h208zM340 845l-17 -101h-101l17 101h101zM529 845l-17 -101h-101l17 101h101z" />
    <glyph glyph-name="Aring" unicode="&#xc5;" horiz-adv-x="588" 
d="M410 179h-276l-115 -179h-107l436 680l214 -680h-98zM319 479l-138 -217h208zM264 798q0 47 31.5 80t78.5 33q41 0 65 -25t24 -64q0 -44 -33 -77q-34 -32 -80 -32q-38 0 -62 24t-24 61zM330 807q0 -13 8 -20.5t21 -7.5q15 0 26.5 11t11.5 25q0 30 -30 30q-15 0 -26 -11.5
t-11 -26.5z" />
    <glyph glyph-name="AE" unicode="&#xc6;" horiz-adv-x="885" 
d="M21 0h-109l512 666h467l-15 -83h-311l-35 -200h283l-15 -83h-283l-38 -217h314l-15 -83h-409l29 164h-249zM411 247l59 336l-259 -336h200z" />
    <glyph glyph-name="Ccedilla" unicode="&#xc7;" horiz-adv-x="678" 
d="M572 134l49 -64q-104 -74 -220 -82l-6 -25q28 -5 44 -20.5t16 -38.5q0 -54 -50 -83q-49 -30 -113 -30q-24 0 -49 6l19 68q15 -4 32 -4q23 0 39 7.5t16 20.5q0 18 -46 18l19 83q-70 8 -125 39.5t-85.5 75.5t-46 90.5t-15.5 91.5q0 165 115 279t297 114q140 0 210 -73
l-60 -65q-59 55 -162 55q-134 0 -216 -88q-83 -88 -83 -208q0 -100 63 -166q63 -65 169 -65q97 0 189 64z" />
    <glyph glyph-name="Egrave" unicode="&#xc8;" horiz-adv-x="547" 
d="M192 383h283l-14 -83h-283l-39 -217h314l-14 -83h-409l120 666h403l-14 -83h-311zM327 862l71 -139h-64l-150 139h143z" />
    <glyph glyph-name="Eacute" unicode="&#xc9;" horiz-adv-x="547" 
d="M192 383h283l-14 -83h-283l-39 -217h314l-14 -83h-409l120 666h403l-14 -83h-311zM345 723h-65l91 139h142z" />
    <glyph glyph-name="Ecircumflex" unicode="&#xca;" horiz-adv-x="547" 
d="M192 383h283l-14 -83h-283l-39 -217h314l-14 -83h-409l120 666h403l-14 -83h-311zM445 723l-59 86l-95 -86h-77l139 160h82l74 -160h-64z" />
    <glyph glyph-name="Edieresis" unicode="&#xcb;" horiz-adv-x="547" 
d="M192 383h283l-14 -83h-283l-39 -217h314l-14 -83h-409l120 666h403l-14 -83h-311zM334 845l-17 -101h-101l17 101h101zM523 845l-17 -101h-101l17 101h101z" />
    <glyph glyph-name="Igrave" unicode="&#xcc;" horiz-adv-x="270" 
d="M125 0h-95l115 666h95zM162 862l71 -139h-64l-150 139h143z" />
    <glyph glyph-name="Iacute" unicode="&#xcd;" horiz-adv-x="270" 
d="M125 0h-95l115 666h95zM237 723h-65l91 139h142z" />
    <glyph glyph-name="Icircumflex" unicode="&#xce;" horiz-adv-x="270" 
d="M125 0h-95l115 666h95zM278 723l-59 86l-95 -86h-77l139 160h82l74 -160h-64z" />
    <glyph glyph-name="Idieresis" unicode="&#xcf;" horiz-adv-x="270" 
d="M125 0h-95l115 666h95zM182 845l-17 -101h-101l17 101h101zM371 845l-17 -101h-101l17 101h101z" />
    <glyph glyph-name="Eth" unicode="&#xd0;" horiz-adv-x="715" 
d="M24 377h81l53 289h192q155 0 235 -70t80 -193q0 -176 -118 -290q-118 -113 -316 -113h-192l52 294h-81zM332 294h-146l-37 -211h99q104 0 178 45q138 85 138 268q0 187 -229 187h-96l-39 -206h146z" />
    <glyph glyph-name="Ntilde" unicode="&#xd1;" horiz-adv-x="704" 
d="M566 -14l-374 490l-78 -476h-84l110 680l372 -484l77 470h85zM300 710l-66 25q15 44 49 73.5t77 29.5q28 0 63 -18q36 -18 54 -18q31 0 54 35l66 -26q-15 -41 -45.5 -66.5t-71.5 -25.5q-29 0 -68 18t-54 18q-36 0 -58 -45z" />
    <glyph glyph-name="Ograve" unicode="&#xd2;" horiz-adv-x="820" 
d="M50 284q0 116 57 207q56 91 147.5 140t200.5 49q68 0 123.5 -20t90.5 -51.5t58.5 -73t33 -81.5t9.5 -79q0 -158 -116 -274q-115 -115 -287 -115q-151 1 -234 90.5t-83 207.5zM151 298q0 -95 59 -163q58 -66 169 -66q121 0 205 87q85 86 85 206q0 96 -56 166
q-55 69 -172 69q-123 0 -207 -88q-83 -88 -83 -211zM450 862l71 -139h-64l-150 139h143z" />
    <glyph glyph-name="Oacute" unicode="&#xd3;" horiz-adv-x="820" 
d="M50 284q0 116 57 207q56 91 147.5 140t200.5 49q68 0 123.5 -20t90.5 -51.5t58.5 -73t33 -81.5t9.5 -79q0 -158 -116 -274q-115 -115 -287 -115q-151 1 -234 90.5t-83 207.5zM151 298q0 -95 59 -163q58 -66 169 -66q121 0 205 87q85 86 85 206q0 96 -56 166
q-55 69 -172 69q-123 0 -207 -88q-83 -88 -83 -211zM496 723h-65l91 139h142z" />
    <glyph glyph-name="Ocircumflex" unicode="&#xd4;" horiz-adv-x="820" 
d="M50 284q0 116 57 207q56 91 147.5 140t200.5 49q68 0 123.5 -20t90.5 -51.5t58.5 -73t33 -81.5t9.5 -79q0 -158 -116 -274q-115 -115 -287 -115q-151 1 -234 90.5t-83 207.5zM151 298q0 -95 59 -163q58 -66 169 -66q121 0 205 87q85 86 85 206q0 96 -56 166
q-55 69 -172 69q-123 0 -207 -88q-83 -88 -83 -211zM561 723l-59 86l-95 -86h-77l139 160h82l74 -160h-64z" />
    <glyph glyph-name="Otilde" unicode="&#xd5;" horiz-adv-x="820" 
d="M50 284q0 116 57 207q56 91 147.5 140t200.5 49q68 0 123.5 -20t90.5 -51.5t58.5 -73t33 -81.5t9.5 -79q0 -158 -116 -274q-115 -115 -287 -115q-151 1 -234 90.5t-83 207.5zM151 298q0 -95 59 -163q58 -66 169 -66q121 0 205 87q85 86 85 206q0 96 -56 166
q-55 69 -172 69q-123 0 -207 -88q-83 -88 -83 -211zM373 710l-66 25q15 44 49 73.5t77 29.5q29 0 63 -18q36 -18 54 -18q31 0 54 35l66 -26q-15 -41 -45.5 -66.5t-71.5 -25.5q-29 0 -68 18t-54 18q-35 0 -58 -45z" />
    <glyph glyph-name="Odieresis" unicode="&#xd6;" horiz-adv-x="820" 
d="M50 284q0 116 57 207q56 91 147.5 140t200.5 49q68 0 123.5 -20t90.5 -51.5t58.5 -73t33 -81.5t9.5 -79q0 -158 -116 -274q-115 -115 -287 -115q-151 1 -234 90.5t-83 207.5zM151 298q0 -95 59 -163q58 -66 169 -66q121 0 205 87q85 86 85 206q0 96 -56 166
q-55 69 -172 69q-123 0 -207 -88q-83 -88 -83 -211zM471 845l-17 -101h-101l17 101h101zM660 845l-17 -101h-101l17 101h101z" />
    <glyph glyph-name="multiply" unicode="&#xd7;" horiz-adv-x="621" 
d="M352 254l164 -200l-65 -54l-163 200l-241 -204l-55 65l242 204l-164 198l64 54l163 -198l238 205l55 -65z" />
    <glyph glyph-name="Oslash" unicode="&#xd8;" horiz-adv-x="820" 
d="M178 182l419 362q-61 53 -156 53q-123 0 -207 -88q-83 -88 -83 -211q0 -59 27 -116zM642 486l-421 -361q62 -56 158 -56q121 0 205 87q85 86 85 206q0 68 -27 124zM11 38l90 78q-51 76 -51 168q0 116 57 207q56 91 147.5 140t200.5 49q133 0 215 -73l88 76l51 -53
l-91 -78q52 -79 52 -177q0 -158 -116 -274q-115 -115 -287 -115q-135 0 -218 76l-90 -77z" />
    <glyph glyph-name="Ugrave" unicode="&#xd9;" horiz-adv-x="698" 
d="M588 666h96l-66 -374q-27 -154 -112.5 -230t-220.5 -76q-112 0 -170.5 56.5t-58.5 163.5q0 46 18 154l18 99q4 26 20 111l18 96h96l-29 -158q-45 -253 -45 -291q0 -148 148 -148q182 0 222 219zM423 862l71 -139h-64l-150 139h143z" />
    <glyph glyph-name="Uacute" unicode="&#xda;" horiz-adv-x="698" 
d="M588 666h96l-66 -374q-27 -154 -112.5 -230t-220.5 -76q-112 0 -170.5 56.5t-58.5 163.5q0 46 18 154l18 99q4 26 20 111l18 96h96l-29 -158q-45 -253 -45 -291q0 -148 148 -148q182 0 222 219zM440 723h-65l91 139h142z" />
    <glyph glyph-name="Ucircumflex" unicode="&#xdb;" horiz-adv-x="698" 
d="M588 666h96l-66 -374q-27 -154 -112.5 -230t-220.5 -76q-112 0 -170.5 56.5t-58.5 163.5q0 46 18 154l18 99q4 26 20 111l18 96h96l-29 -158q-45 -253 -45 -291q0 -148 148 -148q182 0 222 219zM523 723l-59 86l-95 -86h-77l139 160h82l74 -160h-64z" />
    <glyph glyph-name="Udieresis" unicode="&#xdc;" horiz-adv-x="698" 
d="M588 666h96l-66 -374q-27 -154 -112.5 -230t-220.5 -76q-112 0 -170.5 56.5t-58.5 163.5q0 46 18 154l18 99q4 26 20 111l18 96h96l-29 -158q-45 -253 -45 -291q0 -148 148 -148q182 0 222 219zM399 845l-17 -101h-101l17 101h101zM588 845l-17 -101h-101l17 101h101z
" />
    <glyph glyph-name="Yacute" unicode="&#xdd;" horiz-adv-x="498" 
d="M147 0l36 221l-166 445h98l124 -343l241 343h114l-315 -443l-37 -223h-95zM326 723h-65l91 139h142z" />
    <glyph glyph-name="Thorn" unicode="&#xde;" horiz-adv-x="555" 
d="M209 477l-46 -257h86q185 0 185 156q0 101 -134 101h-91zM245 137h-96l-24 -137h-95l117 666h95l-18 -106h110q94 0 147.5 -45.5t53.5 -121.5q0 -116 -76 -186q-74 -70 -214 -70z" />
    <glyph glyph-name="germandbls" unicode="&#xdf;" horiz-adv-x="519" 
d="M108 0h-90l85 502q17 101 73 160.5t151 59.5q80 0 123.5 -36.5t43.5 -98.5q0 -63 -35 -116t-94 -66l-1 -5q52 -6 78.5 -45t26.5 -96q0 -99 -53 -182q-25 -41 -69.5 -66t-97.5 -25t-81 28l38 69q20 -14 49 -14q41 0 70 32q48 57 48 158q-1 57 -29.5 82t-90.5 21l12 70
q63 0 98 39t35 101q0 31 -22 49t-61 18q-100 0 -121 -129z" />
    <glyph glyph-name="agrave" unicode="&#xe0;" horiz-adv-x="507" 
d="M129 349l-4 69q75 30 155 30t125.5 -29t45.5 -85q0 -8 -14 -89l-28 -160q-15 -82 -15 -85h-86l6 32q-67 -43 -151 -43q-68 0 -109.5 33t-41.5 93q0 75 60 115q62 41 144 41t134 -31q9 42 9 64q0 70 -92 70q-70 0 -138 -25zM219 203q-46 0 -78.5 -19.5t-32.5 -56.5
q0 -32 25.5 -48t67.5 -16q52 0 88.5 18.5t42.5 51.5q6 30 -26.5 50t-86.5 20zM269 666l71 -167h-64l-150 167h143z" />
    <glyph glyph-name="aacute" unicode="&#xe1;" horiz-adv-x="507" 
d="M129 349l-4 69q75 30 155 30t125.5 -29t45.5 -85q0 -8 -14 -89l-28 -160q-15 -82 -15 -85h-86l6 32q-67 -43 -151 -43q-68 0 -109.5 33t-41.5 93q0 75 60 115q62 41 144 41t134 -31q9 42 9 64q0 70 -92 70q-70 0 -138 -25zM219 203q-46 0 -78.5 -19.5t-32.5 -56.5
q0 -32 25.5 -48t67.5 -16q52 0 88.5 18.5t42.5 51.5q6 30 -26.5 50t-86.5 20zM334 499h-68l108 167h145z" />
    <glyph glyph-name="acircumflex" unicode="&#xe2;" horiz-adv-x="507" 
d="M129 349l-4 69q75 30 155 30t125.5 -29t45.5 -85q0 -8 -14 -89l-28 -160q-15 -82 -15 -85h-86l6 32q-67 -43 -151 -43q-68 0 -109.5 33t-41.5 93q0 75 60 115q62 41 144 41t134 -31q9 42 9 64q0 70 -92 70q-70 0 -138 -25zM219 203q-46 0 -78.5 -19.5t-32.5 -56.5
q0 -32 25.5 -48t67.5 -16q52 0 88.5 18.5t42.5 51.5q6 30 -26.5 50t-86.5 20zM401 506l-59 86l-95 -86h-77l139 160h82l74 -160h-64z" />
    <glyph glyph-name="atilde" unicode="&#xe3;" horiz-adv-x="507" 
d="M129 349l-4 69q75 30 155 30t125.5 -29t45.5 -85q0 -8 -14 -89l-28 -160q-15 -82 -15 -85h-86l6 32q-67 -43 -151 -43q-68 0 -109.5 33t-41.5 93q0 75 60 115q62 41 144 41t134 -31q9 42 9 64q0 70 -92 70q-70 0 -138 -25zM219 203q-46 0 -78.5 -19.5t-32.5 -56.5
q0 -32 25.5 -48t67.5 -16q52 0 88.5 18.5t42.5 51.5q6 30 -26.5 50t-86.5 20zM200 524l-60 25q47 89 118 89q30 0 68 -18q37 -18 55 -18q31 0 51 35l61 -24q-16 -37 -45 -60t-64 -23q-28 0 -68 18t-59 18q-35 0 -57 -42z" />
    <glyph glyph-name="adieresis" unicode="&#xe4;" horiz-adv-x="507" 
d="M129 349l-4 69q75 30 155 30t125.5 -29t45.5 -85q0 -8 -14 -89l-28 -160q-15 -82 -15 -85h-86l6 32q-67 -43 -151 -43q-68 0 -109.5 33t-41.5 93q0 75 60 115q62 41 144 41t134 -31q9 42 9 64q0 70 -92 70q-70 0 -138 -25zM219 203q-46 0 -78.5 -19.5t-32.5 -56.5
q0 -32 25.5 -48t67.5 -16q52 0 88.5 18.5t42.5 51.5q6 30 -26.5 50t-86.5 20zM297 632l-16 -96h-90l16 96h90zM465 632l-16 -96h-90l16 96h90z" />
    <glyph glyph-name="aring" unicode="&#xe5;" horiz-adv-x="507" 
d="M129 349l-4 69q75 30 155 30t125.5 -29t45.5 -85q0 -8 -14 -89l-28 -160q-15 -82 -15 -85h-86l6 32q-67 -43 -151 -43q-68 0 -109.5 33t-41.5 93q0 75 60 115q62 41 144 41t134 -31q9 42 9 64q0 70 -92 70q-70 0 -138 -25zM219 203q-46 0 -78.5 -19.5t-32.5 -56.5
q0 -32 25.5 -48t67.5 -16q52 0 88.5 18.5t42.5 51.5q6 30 -26.5 50t-86.5 20zM237 564q0 41 29 75q30 34 76 34q36 0 60 -23t24 -57q0 -44 -32 -76t-75 -32q-36 0 -59 22.5t-23 56.5zM299 574q0 -12 7.5 -19.5t20.5 -7.5q15 0 26 11t11 26q0 12 -8 19.5t-21 7.5
q-15 0 -25.5 -11t-10.5 -26z" />
    <glyph glyph-name="ae" unicode="&#xe6;" horiz-adv-x="842" 
d="M228 203q-27 0 -53 -6.5t-47 -24.5t-21 -45q0 -32 26 -48t68 -16q52 0 88.5 18.5t42.5 51.5q6 31 -23 50.5t-81 19.5zM374 62q-48 -39 -88 -56q-43 -17 -115 -17t-115.5 32.5t-43.5 93.5q0 75 64 115q65 41 149 41q73 0 125 -31q9 42 9 64q0 70 -92 70q-70 0 -138 -25
l-4 69q75 30 155 30q120 0 156 -60q76 60 187 60q90 0 139.5 -47t49.5 -122q0 -37 -14 -77h-366q-1 -5 -1 -18q0 -51 35 -84t92 -33q76 0 149 50l42 -59q-85 -69 -207 -69q-110 0 -168 73zM446 270h267q1 3 1 14q0 39 -28.5 62.5t-78.5 23.5q-53 0 -96 -27t-65 -73z" />
    <glyph glyph-name="ccedilla" unicode="&#xe7;" horiz-adv-x="503" 
d="M417 119l43 -60q-79 -68 -194 -70l-8 -35q63 -10 63 -58q0 -50 -50 -77q-49 -28 -109 -28q-22 0 -44 5l17 58q13 -3 31 -3q18 -1 38 6.5t21 25.5q0 24 -47 24l20 89q-74 17 -115 69.5t-41 125.5q0 107 77 182t201 75q72 0 111 -23q19 -10 29 -18q8 -5 27 -21l-51 -66
q-19 17 -31 24q-38 26 -95 26q-78 0 -125 -53t-47 -122q0 -58 38.5 -93t96.5 -35q74 0 144 52z" />
    <glyph glyph-name="egrave" unicode="&#xe8;" horiz-adv-x="548" 
d="M416 117l50 -53q-78 -75 -217 -75q-99 0 -153 56q-53 57 -52 139q0 114 81 189t205 75q90 0 139.5 -47t49.5 -122q0 -37 -14 -77h-366q-1 -5 -1 -18q0 -51 35 -84t92 -33q89 0 151 50zM153 270h268q1 3 1 14q0 39 -28.5 62.5t-79.5 23.5q-53 0 -96 -27t-65 -73zM300 666
l71 -167h-64l-150 167h143z" />
    <glyph glyph-name="eacute" unicode="&#xe9;" horiz-adv-x="548" 
d="M416 117l50 -53q-78 -75 -217 -75q-99 0 -153 56q-53 57 -52 139q0 114 81 189t205 75q90 0 139.5 -47t49.5 -122q0 -37 -14 -77h-366q-1 -5 -1 -18q0 -51 35 -84t92 -33q89 0 151 50zM153 270h268q1 3 1 14q0 39 -28.5 62.5t-79.5 23.5q-53 0 -96 -27t-65 -73zM376 499
h-68l108 167h145z" />
    <glyph glyph-name="ecircumflex" unicode="&#xea;" horiz-adv-x="548" 
d="M416 117l50 -53q-78 -75 -217 -75q-99 0 -153 56q-53 57 -52 139q0 114 81 189t205 75q90 0 139.5 -47t49.5 -122q0 -37 -14 -77h-366q-1 -5 -1 -18q0 -51 35 -84t92 -33q89 0 151 50zM153 270h268q1 3 1 14q0 39 -28.5 62.5t-79.5 23.5q-53 0 -96 -27t-65 -73zM430 506
l-59 86l-95 -86h-77l139 160h82l74 -160h-64z" />
    <glyph glyph-name="edieresis" unicode="&#xeb;" horiz-adv-x="548" 
d="M416 117l50 -53q-78 -75 -217 -75q-99 0 -153 56q-53 57 -52 139q0 114 81 189t205 75q90 0 139.5 -47t49.5 -122q0 -37 -14 -77h-366q-1 -5 -1 -18q0 -51 35 -84t92 -33q89 0 151 50zM153 270h268q1 3 1 14q0 39 -28.5 62.5t-79.5 23.5q-53 0 -96 -27t-65 -73zM318 632
l-16 -96h-90l16 96h90zM486 632l-16 -96h-90l16 96h90z" />
    <glyph glyph-name="igrave" unicode="&#xec;" horiz-adv-x="270" 
d="M125 0h-90l73 437h90zM132 666l71 -167h-64l-150 167h143z" />
    <glyph glyph-name="iacute" unicode="&#xed;" horiz-adv-x="270" 
d="M125 0h-90l73 437h90zM195 499h-68l108 167h145z" />
    <glyph glyph-name="icircumflex" unicode="&#xee;" horiz-adv-x="270" 
d="M125 0h-90l73 437h90zM240 506l-59 86l-95 -86h-77l139 160h82l74 -160h-64z" />
    <glyph glyph-name="idieresis" unicode="&#xef;" horiz-adv-x="245" 
d="M124 0h-90l73 437h90zM165 632l-16 -96h-90l16 96h90zM307 632l-16 -96h-91l17 96h90z" />
    <glyph glyph-name="eth" unicode="&#xf0;" horiz-adv-x="584" 
d="M513 646l-90 -54q55 -51 87 -125.5t32 -152.5q0 -137 -76 -231t-213 -94q-87 0 -149 54q-62 56 -62 143q0 108 78 184q79 78 182 78q88 0 143 -60q-7 37 -37 84q-28 46 -63 72l-130 -79l-35 55l112 65q-39 29 -111 57l69 54q59 -15 121 -59l106 64zM304 370
q-64 0 -115 -48q-50 -48 -50 -120q0 -61 36 -98t100 -37q77 0 127 60q50 63 46 141q-16 46 -54 74t-90 28z" />
    <glyph glyph-name="ntilde" unicode="&#xf1;" horiz-adv-x="540" 
d="M125 0h-90l75 437h90l-12 -63q72 74 159 74q65 0 101 -35t36 -91q0 -23 -20 -152q-18 -115 -29 -170h-90q46 261 46 302q0 31 -20.5 49.5t-56.5 18.5q-54 0 -98 -42q-43 -40 -52 -97zM216 524l-60 25q47 89 118 89q30 0 68 -18t55 -18q31 0 51 35l61 -24q-16 -37 -45 -60
t-64 -23q-28 0 -68 18q-41 18 -59 18q-35 0 -57 -42z" />
    <glyph glyph-name="ograve" unicode="&#xf2;" horiz-adv-x="582" 
d="M42 189q0 109 81 184t202 75q98 0 156 -58q59 -59 58 -143q-1 -111 -84 -185q-82 -73 -200 -73q-95 0 -154 55q-59 56 -59 145zM305 370q-63 0 -116 -47q-51 -47 -51 -121q0 -63 37 -99t103 -36q72 0 119 50q47 52 46 122q-1 57 -37.5 94t-100.5 37zM314 666l71 -167h-64
l-150 167h143z" />
    <glyph glyph-name="oacute" unicode="&#xf3;" horiz-adv-x="582" 
d="M42 189q0 109 81 184t202 75q98 0 156 -58q59 -59 58 -143q-1 -111 -84 -185q-82 -73 -200 -73q-95 0 -154 55q-59 56 -59 145zM305 370q-63 0 -116 -47q-51 -47 -51 -121q0 -63 37 -99t103 -36q72 0 119 50q47 52 46 122q-1 57 -37.5 94t-100.5 37zM360 499h-68l108 167
h145z" />
    <glyph glyph-name="ocircumflex" unicode="&#xf4;" horiz-adv-x="582" 
d="M42 189q0 109 81 184t202 75q98 0 156 -58q59 -59 58 -143q-1 -111 -84 -185q-82 -73 -200 -73q-95 0 -154 55q-59 56 -59 145zM305 370q-63 0 -116 -47q-51 -47 -51 -121q0 -63 37 -99t103 -36q72 0 119 50q47 52 46 122q-1 57 -37.5 94t-100.5 37zM418 506l-59 86
l-95 -86h-77l139 160h82l74 -160h-64z" />
    <glyph glyph-name="otilde" unicode="&#xf5;" horiz-adv-x="582" 
d="M42 189q0 109 81 184t202 75q98 0 156 -58q59 -59 58 -143q-1 -111 -84 -185q-82 -73 -200 -73q-95 0 -154 55q-59 56 -59 145zM305 370q-63 0 -116 -47q-51 -47 -51 -121q0 -63 37 -99t103 -36q72 0 119 50q47 52 46 122q-1 57 -37.5 94t-100.5 37zM229 524l-60 25
q47 89 118 89q31 0 68 -18q38 -18 55 -18q31 0 51 35l61 -24q-16 -37 -45 -60t-64 -23q-27 0 -68 18t-59 18q-34 0 -57 -42z" />
    <glyph glyph-name="odieresis" unicode="&#xf6;" horiz-adv-x="582" 
d="M42 189q0 109 81 184t202 75q98 0 156 -58q59 -59 58 -143q-1 -111 -84 -185q-82 -73 -200 -73q-95 0 -154 55q-59 56 -59 145zM305 370q-63 0 -116 -47q-51 -47 -51 -121q0 -63 37 -99t103 -36q72 0 119 50q47 52 46 122q-1 57 -37.5 94t-100.5 37zM325 632l-16 -96h-90
l16 96h90zM493 632l-16 -96h-90l16 96h90z" />
    <glyph glyph-name="divide" unicode="&#xf7;" horiz-adv-x="600" 
d="M240 476q6 33 33.5 56.5t60.5 23.5t52.5 -23.5t13.5 -56.5q-5 -33 -32.5 -56.5t-60.5 -23.5t-52.5 23.5t-14.5 56.5zM175 84q5 33 32.5 56.5t60.5 23.5t52.5 -23.5t14.5 -56.5q-6 -33 -33.5 -56.5t-60.5 -23.5t-52.5 23.5t-13.5 56.5zM536 240h-506l14 83h506z" />
    <glyph glyph-name="oslash" unicode="&#xf8;" horiz-adv-x="586" 
d="M119 29l-55 -41l-47 58l50 41q-26 44 -26 102q0 109 81 184t202 75q78 0 136 -40l41 34l50 -58l-40 -32q29 -50 27 -105q-1 -111 -84 -185q-82 -73 -200 -73q-80 0 -135 40zM433 288l-242 -198q35 -23 86 -23q72 0 119 50q47 52 46 122q0 25 -9 49zM145 151l241 197
q-32 22 -82 22q-63 0 -116 -47q-51 -47 -51 -121q0 -25 8 -51z" />
    <glyph glyph-name="ugrave" unicode="&#xf9;" 
d="M402 437h90l-73 -437h-90l11 65q-22 -33 -63.5 -54.5t-92.5 -21.5q-67 0 -103 32t-37 94q0 29 48 322h90q-45 -262 -45 -299q0 -71 84 -71q50 0 90 37t51 95zM266 666l71 -167h-64l-150 167h143z" />
    <glyph glyph-name="uacute" unicode="&#xfa;" 
d="M402 437h90l-73 -437h-90l11 65q-22 -33 -63.5 -54.5t-92.5 -21.5q-67 0 -103 32t-37 94q0 29 48 322h90q-45 -262 -45 -299q0 -71 84 -71q50 0 90 37t51 95zM329 499h-68l108 167h145z" />
    <glyph glyph-name="ucircumflex" unicode="&#xfb;" 
d="M402 437h90l-73 -437h-90l11 65q-22 -33 -63.5 -54.5t-92.5 -21.5q-67 0 -103 32t-37 94q0 29 48 322h90q-45 -262 -45 -299q0 -71 84 -71q50 0 90 37t51 95zM378 506l-59 86l-95 -86h-77l139 160h82l74 -160h-64z" />
    <glyph glyph-name="udieresis" unicode="&#xfc;" 
d="M402 437h90l-73 -437h-90l11 65q-22 -33 -63.5 -54.5t-92.5 -21.5q-67 0 -103 32t-37 94q0 29 48 322h90q-45 -262 -45 -299q0 -71 84 -71q50 0 90 37t51 95zM284 632l-16 -96h-90l16 96h90zM452 632l-16 -96h-90l16 96h90z" />
    <glyph glyph-name="yacute" unicode="&#xfd;" horiz-adv-x="450" 
d="M251 208l132 229h99l-392 -649h-93l149 243l-122 406h95l65 -230q12 -40 19 -100q25 59 48 101zM296 499h-68l108 167h145z" />
    <glyph glyph-name="thorn" unicode="&#xfe;" horiz-adv-x="620" 
d="M249 700l-57 -328q75 75 179 75q92 0 149 -58q58 -57 58 -139q0 -110 -75 -187q-73 -75 -187 -75q-110 0 -173 82l-53 -283h-90l159 913h90zM482 234q0 59 -38 97t-103 38q-73 0 -122 -49q-48 -50 -48 -119q0 -62 40.5 -98.5t109.5 -36.5q73 0 117 51q44 52 44 117z" />
    <glyph glyph-name="ydieresis" unicode="&#xff;" horiz-adv-x="450" 
d="M251 208l132 229h99l-392 -649h-93l149 243l-122 406h95l65 -230q12 -40 19 -100q25 59 48 101zM252 632l-16 -96h-90l16 96h90zM420 632l-16 -96h-90l16 96h90z" />
    <glyph glyph-name="Amacron" unicode="&#x100;" horiz-adv-x="588" 
d="M410 179h-276l-115 -179h-107l436 680l214 -680h-98zM319 479l-138 -217h208zM514 739h-305l14 83h305z" />
    <glyph glyph-name="amacron" unicode="&#x101;" horiz-adv-x="507" 
d="M129 349l-4 69q75 30 155 30t125.5 -29t45.5 -85q0 -8 -14 -89l-28 -160q-15 -82 -15 -85h-86l6 32q-67 -43 -151 -43q-68 0 -109.5 33t-41.5 93q0 75 60 115q62 41 144 41t134 -31q9 42 9 64q0 70 -92 70q-70 0 -138 -25zM219 203q-46 0 -78.5 -19.5t-32.5 -56.5
q0 -32 25.5 -48t67.5 -16q52 0 88.5 18.5t42.5 51.5q6 30 -26.5 50t-86.5 20zM454 551h-285l14 78h285z" />
    <glyph glyph-name="Abreve" unicode="&#x102;" horiz-adv-x="588" 
d="M410 179h-276l-115 -179h-107l436 680l214 -680h-98zM319 479l-138 -217h208zM488 868l52 -49q-33 -45 -82 -70.5t-106 -25.5q-56 0 -96 27.5t-55 72.5l65 43q31 -60 101 -60q62 0 121 62z" />
    <glyph glyph-name="abreve" unicode="&#x103;" horiz-adv-x="507" 
d="M129 349l-4 69q75 30 155 30t125.5 -29t45.5 -85q0 -8 -14 -89l-28 -160q-15 -82 -15 -85h-86l6 32q-67 -43 -151 -43q-68 0 -109.5 33t-41.5 93q0 75 60 115q62 41 144 41t134 -31q9 42 9 64q0 70 -92 70q-70 0 -138 -25zM219 203q-46 0 -78.5 -19.5t-32.5 -56.5
q0 -32 25.5 -48t67.5 -16q52 0 88.5 18.5t42.5 51.5q6 30 -26.5 50t-86.5 20zM442 647l49 -44q-65 -90 -183 -90q-56 0 -94 24.5t-52 69.5l58 37q32 -59 101 -59q65 0 121 62z" />
    <glyph glyph-name="Aogonek" unicode="&#x104;" horiz-adv-x="588" 
d="M543 -120l14 -79q-42 -14 -93 -14q-55 0 -86.5 21.5t-31.5 64.5q0 75 114 140l-50 166h-276l-115 -179h-107l436 680l214 -680l-29 -17q-64 -35 -77 -54q-8 -14 -8 -25q0 -34 45 -34q29 0 50 10zM319 479l-138 -217h208z" />
    <glyph glyph-name="aogonek" unicode="&#x105;" horiz-adv-x="507" 
d="M372 -132l10 -68q-32 -13 -87 -13q-46 0 -77.5 21t-31.5 61q0 75 124 142l4 21q-67 -43 -151 -43q-68 0 -109.5 33t-41.5 93q0 75 60 115q62 41 144 41t134 -31q9 42 9 64q0 70 -92 70q-70 0 -138 -25l-4 69q75 30 155 30t125.5 -29t45.5 -85q0 -8 -14 -89l-28 -160
q-15 -82 -15 -85l-23 -13q-24 -13 -31 -18q-63 -43 -58 -75q0 -35 43 -35q27 0 47 9zM219 203q-46 0 -78.5 -19.5t-32.5 -56.5q0 -32 25.5 -48t67.5 -16q52 0 88.5 18.5t42.5 51.5q6 30 -26.5 50t-86.5 20z" />
    <glyph glyph-name="Cacute" unicode="&#x106;" horiz-adv-x="678" 
d="M572 134l49 -64q-116 -83 -248 -83q-68 0 -124 19.5t-92 50.5t-61 71.5t-35.5 80t-10.5 78.5q0 165 115 279t297 114q140 0 210 -73l-60 -65q-59 55 -162 55q-134 0 -216 -88q-83 -88 -83 -208q0 -100 63 -166q63 -65 169 -65q97 0 189 64zM491 723h-65l91 139h142z" />
    <glyph glyph-name="cacute" unicode="&#x107;" horiz-adv-x="503" 
d="M264 -11q-107 0 -165 58q-57 59 -57 144q0 107 77 182t201 75q72 0 111 -23q19 -10 29 -18q8 -5 27 -21l-51 -66q-19 17 -31 24q-38 26 -95 26q-78 0 -125 -53t-47 -122q0 -58 38.5 -93t96.5 -35q74 0 144 52l43 -60q-80 -70 -196 -70zM356 499h-68l108 167h145z" />
    <glyph glyph-name="Ccircumflex" unicode="&#x108;" horiz-adv-x="678" 
d="M572 134l49 -64q-116 -83 -248 -83q-68 0 -124 19.5t-92 50.5t-61 71.5t-35.5 80t-10.5 78.5q0 165 115 279t297 114q140 0 210 -73l-60 -65q-59 55 -162 55q-134 0 -216 -88q-83 -88 -83 -208q0 -100 63 -166q63 -65 169 -65q97 0 189 64zM541 723l-59 86l-95 -86h-77
l139 160h82l74 -160h-64z" />
    <glyph glyph-name="ccircumflex" unicode="&#x109;" horiz-adv-x="503" 
d="M264 -11q-107 0 -165 58q-57 59 -57 144q0 107 77 182t201 75q72 0 111 -23q19 -10 29 -18q8 -5 27 -21l-51 -66q-19 17 -31 24q-38 26 -95 26q-78 0 -125 -53t-47 -122q0 -58 38.5 -93t96.5 -35q74 0 144 52l43 -60q-80 -70 -196 -70zM409 506l-59 86l-95 -86h-77
l139 160h82l74 -160h-64z" />
    <glyph glyph-name="Cdotaccent" unicode="&#x10a;" horiz-adv-x="678" 
d="M572 134l49 -64q-116 -83 -248 -83q-68 0 -124 19.5t-92 50.5t-61 71.5t-35.5 80t-10.5 78.5q0 165 115 279t297 114q140 0 210 -73l-60 -65q-59 55 -162 55q-134 0 -216 -88q-83 -88 -83 -208q0 -100 63 -166q63 -65 169 -65q97 0 189 64zM539 845l-17 -101h-101l17 101
h101z" />
    <glyph glyph-name="cdotaccent" unicode="&#x10b;" horiz-adv-x="503" 
d="M264 -11q-107 0 -165 58q-57 59 -57 144q0 107 77 182t201 75q72 0 111 -23q19 -10 29 -18q8 -5 27 -21l-51 -66q-19 17 -31 24q-38 26 -95 26q-78 0 -125 -53t-47 -122q0 -58 38.5 -93t96.5 -35q74 0 144 52l43 -60q-80 -70 -196 -70zM412 638l-18 -102h-102l18 102h102
z" />
    <glyph glyph-name="Ccaron" unicode="&#x10c;" horiz-adv-x="678" 
d="M572 134l49 -64q-116 -83 -248 -83q-68 0 -124 19.5t-92 50.5t-61 71.5t-35.5 80t-10.5 78.5q0 165 115 279t297 114q140 0 210 -73l-60 -65q-59 55 -162 55q-134 0 -216 -88q-83 -88 -83 -208q0 -100 63 -166q63 -65 169 -65q97 0 189 64zM422 883l59 -86l95 86h77
l-139 -160h-82l-74 160h64z" />
    <glyph glyph-name="ccaron" unicode="&#x10d;" horiz-adv-x="503" 
d="M264 -11q-107 0 -165 58q-57 59 -57 144q0 107 77 182t201 75q72 0 111 -23q19 -10 29 -18q8 -5 27 -21l-51 -66q-19 17 -31 24q-38 26 -95 26q-78 0 -125 -53t-47 -122q0 -58 38.5 -93t96.5 -35q74 0 144 52l43 -60q-80 -70 -196 -70zM276 666l59 -86l95 86h77
l-139 -160h-82l-74 160h64z" />
    <glyph glyph-name="Dcaron" unicode="&#x10e;" horiz-adv-x="706" 
d="M222 0h-192l119 666h192q155 0 235 -70t80 -193q0 -176 -118 -290q-118 -113 -316 -113zM326 583h-96l-90 -500h99q105 0 178 45q138 85 138 268q0 187 -229 187zM346 883l59 -86l95 86h77l-139 -160h-82l-74 160h64z" />
    <glyph glyph-name="dcaron" unicode="&#x10f;" horiz-adv-x="677" 
d="M419 0l12 64q-73 -75 -174 -75q-99 0 -154 57q-55 58 -57 138q-3 110 76 186q80 78 196 78q55 0 98.5 -22.5t68.5 -59.5l61 334h90l-127 -700h-90zM142 196q2 -58 38.5 -93.5t97.5 -35.5q79 0 127 50q49 50 49 115q0 57 -34 97q-35 41 -99 41q-80 0 -131 -52
q-49 -52 -48 -122zM739 700h109l-127 -231h-61z" />
    <glyph glyph-name="Dcroat" unicode="&#x110;" horiz-adv-x="715" 
d="M24 377h81l53 289h192q155 0 235 -70t80 -193q0 -176 -118 -290q-118 -113 -316 -113h-192l52 294h-81zM332 294h-146l-37 -211h99q104 0 178 45q138 85 138 268q0 187 -229 187h-96l-39 -206h146z" />
    <glyph glyph-name="dslash" unicode="&#x111;" horiz-adv-x="634" 
d="M656 538h-49l-98 -538h-90l12 64q-73 -75 -174 -75q-99 0 -154 57q-55 58 -57 138q-3 110 76 186q80 78 196 78q55 0 98.5 -22.5t68.5 -59.5l32 172h-168l12 67h168l17 95h90l-17 -95h49zM142 196q2 -58 38.5 -93.5t97.5 -35.5q79 0 127 50q49 50 49 115q0 57 -34 97
q-35 41 -99 41q-80 0 -131 -52q-49 -52 -48 -122z" />
    <glyph glyph-name="Emacron" unicode="&#x112;" horiz-adv-x="547" 
d="M192 383h283l-14 -83h-283l-39 -217h314l-14 -83h-409l120 666h403l-14 -83h-311zM516 739h-305l14 83h305z" />
    <glyph glyph-name="emacron" unicode="&#x113;" horiz-adv-x="548" 
d="M416 117l50 -53q-78 -75 -217 -75q-99 0 -153 56q-53 57 -52 139q0 114 81 189t205 75q90 0 139.5 -47t49.5 -122q0 -37 -14 -77h-366q-1 -5 -1 -18q0 -51 35 -84t92 -33q89 0 151 50zM153 270h268q1 3 1 14q0 39 -28.5 62.5t-79.5 23.5q-53 0 -96 -27t-65 -73zM480 551
h-285l14 78h285z" />
    <glyph glyph-name="Edotaccent" unicode="&#x116;" horiz-adv-x="547" 
d="M192 383h283l-14 -83h-283l-39 -217h314l-14 -83h-409l120 666h403l-14 -83h-311zM440 845l-17 -101h-101l17 101h101z" />
    <glyph glyph-name="edotaccent" unicode="&#x117;" horiz-adv-x="548" 
d="M416 117l50 -53q-78 -75 -217 -75q-99 0 -153 56q-53 57 -52 139q0 114 81 189t205 75q90 0 139.5 -47t49.5 -122q0 -37 -14 -77h-366q-1 -5 -1 -18q0 -51 35 -84t92 -33q89 0 151 50zM153 270h268q1 3 1 14q0 39 -28.5 62.5t-79.5 23.5q-53 0 -96 -27t-65 -73zM403 638
l-18 -102h-102l18 102h102z" />
    <glyph glyph-name="Eogonek" unicode="&#x118;" horiz-adv-x="547" 
d="M418 -120l14 -79q-42 -14 -93 -14q-55 0 -86.5 21.5t-31.5 64.5q0 68 92 127h-283l120 666h403l-14 -83h-311l-36 -200h283l-14 -83h-283l-39 -217h314l-14 -83h-2l-29 -17q-64 -35 -77 -54q-8 -14 -8 -25q0 -34 45 -34q29 0 50 10z" />
    <glyph glyph-name="eogonek" unicode="&#x119;" horiz-adv-x="548" 
d="M299 -132l10 -68q-32 -13 -87 -13q-46 0 -77.5 21t-31.5 61q0 64 92 123q-76 12 -119 64.5t-42 127.5q0 114 81 189t205 75q90 0 139.5 -47t49.5 -122q0 -37 -14 -77h-366q-1 -5 -1 -18q0 -51 35 -84t92 -33q89 0 151 50l50 -53q-62 -58 -157 -71l-45 -25
q-16 -10 -35 -30q-20 -23 -20 -44q0 -35 43 -35q28 0 47 9zM153 270h268q1 3 1 14q0 39 -28.5 62.5t-79.5 23.5q-53 0 -96 -27t-65 -73z" />
    <glyph glyph-name="Ecaron" unicode="&#x11a;" horiz-adv-x="547" 
d="M192 383h283l-14 -83h-283l-39 -217h314l-14 -83h-409l120 666h403l-14 -83h-311zM321 883l59 -86l95 86h77l-139 -160h-82l-74 160h64z" />
    <glyph glyph-name="ecaron" unicode="&#x11b;" horiz-adv-x="548" 
d="M416 117l50 -53q-78 -75 -217 -75q-99 0 -153 56q-53 57 -52 139q0 114 81 189t205 75q90 0 139.5 -47t49.5 -122q0 -37 -14 -77h-366q-1 -5 -1 -18q0 -51 35 -84t92 -33q89 0 151 50zM153 270h268q1 3 1 14q0 39 -28.5 62.5t-79.5 23.5q-53 0 -96 -27t-65 -73zM285 666
l59 -86l95 86h77l-139 -160h-82l-74 160h64z" />
    <glyph glyph-name="Gcircumflex" unicode="&#x11c;" horiz-adv-x="803" 
d="M716 574l-71 -54q-77 77 -185 77q-132 0 -221 -84q-88 -84 -88 -211q0 -103 62 -168t166 -65q103 0 174 58q72 59 96 141h-256l45 83h327q-8 -71 -37 -135.5t-77 -116.5t-121 -82.5t-160 -30.5q-78 0 -142 26.5t-103 72.5q-75 92 -75 203q0 103 50 192q52 92 147.5 146
t213.5 54q159 0 255 -106zM546 723l-59 86l-95 -86h-77l139 160h82l74 -160h-64z" />
    <glyph glyph-name="gcircumflex" unicode="&#x11d;" horiz-adv-x="631" 
d="M492 366l14 71h90l-70 -385q-28 -157 -94 -212q-65 -56 -187 -56q-99 0 -203 43l34 78q96 -39 185 -39q66 0 109 34q44 33 62 132l6 32q-74 -75 -177 -75q-98 0 -152 57q-55 59 -56 138q-3 110 76 186q79 78 196 78q112 0 167 -82zM149 196q2 -58 37 -93.5t96 -35.5
q78 0 128 50q51 49 51 126q0 54 -35 90.5t-98 36.5q-81 0 -131 -53t-48 -121zM427 506l-59 86l-95 -86h-77l139 160h82l74 -160h-64z" />
    <glyph glyph-name="Gbreve" unicode="&#x11e;" horiz-adv-x="803" 
d="M716 574l-71 -54q-77 77 -185 77q-132 0 -221 -84q-88 -84 -88 -211q0 -103 62 -168t166 -65q103 0 174 58q72 59 96 141h-256l45 83h327q-8 -71 -37 -135.5t-77 -116.5t-121 -82.5t-160 -30.5q-78 0 -142 26.5t-103 72.5q-75 92 -75 203q0 103 50 192q52 92 147.5 146
t213.5 54q159 0 255 -106zM597 868l52 -49q-33 -45 -82 -70.5t-106 -25.5q-56 0 -96 27.5t-55 72.5l65 43q31 -60 101 -60q62 0 121 62z" />
    <glyph glyph-name="gbreve" unicode="&#x11f;" horiz-adv-x="631" 
d="M492 366l14 71h90l-70 -385q-28 -157 -94 -212q-65 -56 -187 -56q-99 0 -203 43l34 78q96 -39 185 -39q66 0 109 34q44 33 62 132l6 32q-74 -75 -177 -75q-98 0 -152 57q-55 59 -56 138q-3 110 76 186q79 78 196 78q112 0 167 -82zM149 196q2 -58 37 -93.5t96 -35.5
q78 0 128 50q51 49 51 126q0 54 -35 90.5t-98 36.5q-81 0 -131 -53t-48 -121zM486 647l49 -44q-65 -90 -183 -90q-56 0 -94 24.5t-52 69.5l58 37q32 -59 101 -59q65 0 121 62z" />
    <glyph glyph-name="Gdotaccent" unicode="&#x120;" horiz-adv-x="803" 
d="M716 574l-71 -54q-77 77 -185 77q-132 0 -221 -84q-88 -84 -88 -211q0 -103 62 -168t166 -65q103 0 174 58q72 59 96 141h-256l45 83h327q-8 -71 -37 -135.5t-77 -116.5t-121 -82.5t-160 -30.5q-78 0 -142 26.5t-103 72.5q-75 92 -75 203q0 103 50 192q52 92 147.5 146
t213.5 54q159 0 255 -106zM545 845l-17 -101h-101l17 101h101z" />
    <glyph glyph-name="gdotaccent" unicode="&#x121;" horiz-adv-x="631" 
d="M492 366l14 71h90l-70 -385q-28 -157 -94 -212q-65 -56 -187 -56q-99 0 -203 43l34 78q96 -39 185 -39q66 0 109 34q44 33 62 132l6 32q-74 -75 -177 -75q-98 0 -152 57q-55 59 -56 138q-3 110 76 186q79 78 196 78q112 0 167 -82zM149 196q2 -58 37 -93.5t96 -35.5
q78 0 128 50q51 49 51 126q0 54 -35 90.5t-98 36.5q-81 0 -131 -53t-48 -121zM428 638l-18 -102h-102l18 102h102z" />
    <glyph glyph-name="Gcommaaccent" unicode="&#x122;" horiz-adv-x="803" 
d="M716 574l-71 -54q-77 77 -185 77q-132 0 -221 -84q-88 -84 -88 -211q0 -103 62 -168t166 -65q103 0 174 58q72 59 96 141h-256l45 83h327q-8 -71 -37 -135.5t-77 -116.5t-121 -82.5t-160 -30.5q-78 0 -142 26.5t-103 72.5q-75 92 -75 203q0 103 50 192q52 92 147.5 146
t213.5 54q159 0 255 -106zM286 -50h109l-74 -167h-66z" />
    <glyph glyph-name="gcommaaccent" unicode="&#x123;" horiz-adv-x="631" 
d="M492 366l14 71h90l-70 -385q-28 -157 -94 -212q-65 -56 -187 -56q-99 0 -203 43l34 78q96 -39 185 -39q66 0 109 34q44 33 62 132l6 32q-74 -75 -177 -75q-98 0 -152 57q-55 59 -56 138q-3 110 76 186q79 78 196 78q112 0 167 -82zM149 196q2 -58 37 -93.5t96 -35.5
q78 0 128 50q51 49 51 126q0 54 -35 90.5t-98 36.5q-81 0 -131 -53t-48 -121zM390 499h-109l114 252h80z" />
    <glyph glyph-name="Hcircumflex" unicode="&#x124;" horiz-adv-x="729" 
d="M547 320h-370l-52 -320h-95l109 666h95l-44 -263h370l44 263h95l-109 -666h-95zM502 723l-59 86l-95 -86h-77l139 160h82l74 -160h-64z" />
    <glyph glyph-name="hcircumflex" unicode="&#x125;" horiz-adv-x="542" 
d="M124 0h-90l119 700h90l-55 -326q38 39 72.5 56.5t83.5 17.5q63 0 100.5 -35.5t39.5 -91.5q0 -80 -50 -321h-90q47 241 47 299q0 33 -21.5 52t-59.5 19q-56 0 -97 -44q-40 -43 -51 -107zM277 717l-59 86l-95 -86h-77l139 160h82l74 -160h-64z" />
    <glyph glyph-name="Hbar" unicode="&#x126;" horiz-adv-x="715" 
d="M549 320h-370l-54 -320h-95l89 538h-53l13 67h53l10 61h94l-10 -61h370l10 61h96l-10 -61h53l-13 -67h-53l-89 -538h-95zM563 403l21 135h-370l-22 -135h371z" />
    <glyph glyph-name="hbar" unicode="&#x127;" horiz-adv-x="560" 
d="M86 605h69l16 95h90l-16 -95h202l-12 -67h-202l-27 -164q38 39 72.5 56.5t83.5 17.5q64 0 102 -36t38 -91q0 -76 -52 -321h-90q49 246 49 299q0 33 -21.5 52t-59.5 19q-56 0 -97 -44q-40 -43 -51 -107l-38 -219h-90l91 538h-69z" />
    <glyph glyph-name="Imacron" unicode="&#x12a;" horiz-adv-x="270" 
d="M125 0h-95l115 666h95zM359 739h-305l14 83h305z" />
    <glyph glyph-name="imacron" unicode="&#x12b;" horiz-adv-x="270" 
d="M125 0h-90l73 437h90zM313 551h-285l14 78h285z" />
    <glyph glyph-name="Iogonek" unicode="&#x12e;" horiz-adv-x="270" 
d="M103 -120l14 -79q-42 -14 -93 -14q-55 0 -86.5 21.5t-31.5 64.5q0 45 31 78.5t96 69.5l112 645h95l-115 -666h-3l-29 -17q-64 -35 -77 -54q-8 -14 -8 -25q0 -34 45 -34q29 0 50 10z" />
    <glyph glyph-name="iogonek" unicode="&#x12f;" horiz-adv-x="245" 
d="M103 -132l10 -68q-32 -13 -87 -13q-46 0 -77.5 21t-31.5 61q1 40 30.5 72.5t88.5 67.5l71 428h90l-72 -437l-23 -13q-24 -13 -31 -18q-63 -43 -58 -75q0 -35 43 -35q28 0 47 9zM231 632l-16 -96h-90l16 96h90z" />
    <glyph glyph-name="Idot" unicode="&#x130;" horiz-adv-x="270" 
d="M125 0h-95l115 666h95zM273 845l-17 -101h-101l17 101h101z" />
    <glyph glyph-name="dotlessi" unicode="&#x131;" horiz-adv-x="270" 
d="M125 0h-90l73 437h90z" />
    <glyph glyph-name="Jcircumflex" unicode="&#x134;" horiz-adv-x="342" 
d="M-40 2l15 81q33 -14 64 -14q47 0 69 33t37 115l74 449h95l-72 -434q-24 -135 -66 -190q-41 -56 -136 -56q-54 0 -80 16zM352 723l-59 86l-95 -86h-77l139 160h82l74 -160h-64z" />
    <glyph glyph-name="jcircumflex" unicode="&#x135;" horiz-adv-x="242" 
d="M31 -15l75 452h90l-79 -478q-13 -80 -59.5 -126t-121.5 -46h-10l15 82h6q64 0 84 116zM239 506l-59 86l-95 -86h-77l139 160h82l74 -160h-64z" />
    <glyph glyph-name="Kcommaaccent" unicode="&#x136;" horiz-adv-x="569" 
d="M125 0h-95l121 666h95l-55 -316l313 316h115l-275 -283l195 -383h-107l-159 317l-111 -111zM195 -50h109l-74 -167h-66z" />
    <glyph glyph-name="kcommaaccent" unicode="&#x137;" horiz-adv-x="469" 
d="M124 0h-90l118 700h90l-77 -460l215 197h113l-209 -186l150 -251h-99l-118 200l-69 -56zM146 -50h106l-74 -167h-63z" />
    <glyph glyph-name="Lacute" unicode="&#x139;" horiz-adv-x="453" 
d="M433 83l-14 -83h-389l114 666h95l-100 -583h294zM235 723h-65l91 139h142z" />
    <glyph glyph-name="lacute" unicode="&#x13a;" horiz-adv-x="238" 
d="M125 0h-90l113 700h90zM231 731h-68l108 167h145z" />
    <glyph glyph-name="Lcommaaccent" unicode="&#x13b;" horiz-adv-x="453" 
d="M433 83l-14 -83h-389l114 666h95l-100 -583h294zM173 -50h109l-74 -167h-66z" />
    <glyph glyph-name="lcommaaccent" unicode="&#x13c;" horiz-adv-x="238" 
d="M125 0h-90l113 700h90zM20 -50h106l-74 -167h-63z" />
    <glyph glyph-name="Lcaron" unicode="&#x13d;" horiz-adv-x="514" 
d="M433 83l-14 -83h-389l114 666h95l-100 -583h294zM457 666h115l-136 -252h-66z" />
    <glyph glyph-name="lcaron" unicode="&#x13e;" horiz-adv-x="321" 
d="M125 0h-90l113 700h90zM354 700h109l-127 -231h-61z" />
    <glyph glyph-name="Ldot" unicode="&#x13f;" horiz-adv-x="473" 
d="M433 83l-14 -83h-389l114 666h95l-100 -583h294zM306 287l20 126h126l-20 -126h-126z" />
    <glyph glyph-name="ldot" unicode="&#x140;" horiz-adv-x="418" 
d="M125 0h-90l113 700h90zM263 288l20 126h126l-20 -126h-126z" />
    <glyph glyph-name="Lslash" unicode="&#x141;" horiz-adv-x="483" 
d="M373 514l-16 -98l-164 -86l-44 -247h314l-14 -83h-409l49 275l-105 -56l15 100l106 55l52 292h95l-42 -237z" />
    <glyph glyph-name="lslash" unicode="&#x142;" horiz-adv-x="267" 
d="M319 456l-15 -97l-108 -58l-48 -301h-90l39 248l-107 -55l15 99l108 55l58 353h90l-50 -301z" />
    <glyph glyph-name="Nacute" unicode="&#x143;" horiz-adv-x="704" 
d="M566 -14l-374 490l-78 -476h-84l110 680l372 -484l77 470h85zM389 723h-65l91 139h142z" />
    <glyph glyph-name="nacute" unicode="&#x144;" horiz-adv-x="540" 
d="M125 0h-90l75 437h90l-12 -63q72 74 159 74q65 0 101 -35t36 -91q0 -23 -20 -152q-18 -115 -29 -170h-90q46 261 46 302q0 31 -20.5 49.5t-56.5 18.5q-54 0 -98 -42q-43 -40 -52 -97zM346 499h-68l108 167h145z" />
    <glyph glyph-name="Ncommaaccent" unicode="&#x145;" horiz-adv-x="704" 
d="M566 -14l-374 490l-78 -476h-84l110 680l372 -484l77 470h85zM235 -50h109l-74 -167h-66z" />
    <glyph glyph-name="ncommaaccent" unicode="&#x146;" horiz-adv-x="540" 
d="M125 0h-90l75 437h90l-12 -63q72 74 159 74q65 0 101 -35t36 -91q0 -23 -20 -152q-18 -115 -29 -170h-90q46 261 46 302q0 31 -20.5 49.5t-56.5 18.5q-54 0 -98 -42q-43 -40 -52 -97zM179 -50h106l-74 -167h-63z" />
    <glyph glyph-name="Ncaron" unicode="&#x147;" horiz-adv-x="704" 
d="M566 -14l-374 490l-78 -476h-84l110 680l372 -484l77 470h85zM358 883l59 -86l95 86h77l-139 -160h-82l-74 160h64z" />
    <glyph glyph-name="ncaron" unicode="&#x148;" horiz-adv-x="540" 
d="M125 0h-90l75 437h90l-12 -63q72 74 159 74q65 0 101 -35t36 -91q0 -23 -20 -152q-18 -115 -29 -170h-90q46 261 46 302q0 31 -20.5 49.5t-56.5 18.5q-54 0 -98 -42q-43 -40 -52 -97zM274 666l59 -86l95 86h77l-139 -160h-82l-74 160h64z" />
    <glyph glyph-name="Omacron" unicode="&#x14c;" horiz-adv-x="820" 
d="M50 284q0 116 57 207q56 91 147.5 140t200.5 49q68 0 123.5 -20t90.5 -51.5t58.5 -73t33 -81.5t9.5 -79q0 -158 -116 -274q-115 -115 -287 -115q-151 1 -234 90.5t-83 207.5zM151 298q0 -95 59 -163q58 -66 169 -66q121 0 205 87q85 86 85 206q0 96 -56 166
q-55 69 -172 69q-123 0 -207 -88q-83 -88 -83 -211zM632 739h-305l14 83h305z" />
    <glyph glyph-name="omacron" unicode="&#x14d;" horiz-adv-x="582" 
d="M42 189q0 109 81 184t202 75q98 0 156 -58q59 -59 58 -143q-1 -111 -84 -185q-82 -73 -200 -73q-95 0 -154 55q-59 56 -59 145zM305 370q-63 0 -116 -47q-51 -47 -51 -121q0 -63 37 -99t103 -36q72 0 119 50q47 52 46 122q-1 57 -37.5 94t-100.5 37zM490 551h-285l14 78
h285z" />
    <glyph glyph-name="Ohungarumlaut" unicode="&#x150;" horiz-adv-x="820" 
d="M50 284q0 116 57 207q56 91 147.5 140t200.5 49q68 0 123.5 -20t90.5 -51.5t58.5 -73t33 -81.5t9.5 -79q0 -158 -116 -274q-115 -115 -287 -115q-151 1 -234 90.5t-83 207.5zM151 298q0 -95 59 -163q58 -66 169 -66q121 0 205 87q85 86 85 206q0 96 -56 166
q-55 69 -172 69q-123 0 -207 -88q-83 -88 -83 -211zM419 723h-60l91 139h137zM579 723h-60l91 139h137z" />
    <glyph glyph-name="ohungarumlaut" unicode="&#x151;" horiz-adv-x="582" 
d="M42 189q0 109 81 184t202 75q98 0 156 -58q59 -59 58 -143q-1 -111 -84 -185q-82 -73 -200 -73q-95 0 -154 55q-59 56 -59 145zM305 370q-63 0 -116 -47q-51 -47 -51 -121q0 -63 37 -99t103 -36q72 0 119 50q47 52 46 122q-1 57 -37.5 94t-100.5 37zM275 499h-63l108 167
h140zM441 499h-63l108 167h140z" />
    <glyph glyph-name="OE" unicode="&#x152;" horiz-adv-x="960" 
d="M457 83l88 497q-42 17 -104 17q-123 0 -207 -88q-83 -88 -83 -211q0 -94 57 -162q58 -67 162 -67q42 0 87 14zM866 83l-14 -83h-405q-54 -14 -93 -14q-73 0 -132.5 26.5t-96 69.5t-56 95t-19.5 107q0 116 57 207q56 91 147.5 140t200.5 49q55 0 105 -14h406l-14 -83h-311
l-36 -200h283l-14 -83h-283l-39 -217h314z" />
    <glyph glyph-name="oe" unicode="&#x153;" horiz-adv-x="944" 
d="M305 370q-63 0 -116 -47q-51 -47 -51 -121q0 -63 37 -99t103 -36q72 0 119 50q47 52 46 122q-1 57 -37.5 94t-100.5 37zM468 74q-82 -85 -213 -85q-95 0 -154 55q-59 56 -59 145q0 109 81 184t202 75q125 0 182 -88q82 88 218 88q90 0 139.5 -47t49.5 -122q0 -37 -14 -77
h-366q-1 -5 -1 -18q0 -51 35 -84t92 -33q76 0 149 50l42 -59q-85 -69 -207 -69t-176 85zM548 270h267q1 3 1 14q0 39 -28.5 62.5t-78.5 23.5q-53 0 -96 -27t-65 -73z" />
    <glyph glyph-name="Racute" unicode="&#x154;" horiz-adv-x="578" 
d="M225 280h-51l-49 -280h-95l118 666h209q92 0 144.5 -41t52.5 -117q0 -89 -60.5 -149.5t-163.5 -75.5l198 -283h-109zM336 583h-107l-39 -220h92q77 0 124 35t47 93q0 42 -29.5 67t-87.5 25zM351 723h-65l91 139h142z" />
    <glyph glyph-name="racute" unicode="&#x155;" horiz-adv-x="376" 
d="M123 0h-90l74 437h90l-15 -95q27 48 68.5 77t89.5 29h26l-14 -90h-31q-58 0 -105 -47q-48 -48 -58 -109zM272 499h-68l108 167h145z" />
    <glyph glyph-name="Rcommaaccent" unicode="&#x156;" horiz-adv-x="578" 
d="M225 280h-51l-49 -280h-95l118 666h209q92 0 144.5 -41t52.5 -117q0 -89 -60.5 -149.5t-163.5 -75.5l198 -283h-109zM336 583h-107l-39 -220h92q77 0 124 35t47 93q0 42 -29.5 67t-87.5 25zM161 -50h109l-74 -167h-66z" />
    <glyph glyph-name="rcommaaccent" unicode="&#x157;" horiz-adv-x="376" 
d="M123 0h-90l74 437h90l-15 -95q27 48 68.5 77t89.5 29h26l-14 -90h-31q-58 0 -105 -47q-48 -48 -58 -109zM20 -50h106l-74 -167h-63z" />
    <glyph glyph-name="Rcaron" unicode="&#x158;" horiz-adv-x="578" 
d="M225 280h-51l-49 -280h-95l118 666h209q92 0 144.5 -41t52.5 -117q0 -89 -60.5 -149.5t-163.5 -75.5l198 -283h-109zM336 583h-107l-39 -220h92q77 0 124 35t47 93q0 42 -29.5 67t-87.5 25zM285 883l59 -86l95 86h77l-139 -160h-82l-74 160h64z" />
    <glyph glyph-name="rcaron" unicode="&#x159;" horiz-adv-x="376" 
d="M123 0h-90l74 437h90l-15 -95q27 48 68.5 77t89.5 29h26l-14 -90h-31q-58 0 -105 -47q-48 -48 -58 -109zM194 666l59 -86l95 86h77l-139 -160h-82l-74 160h64z" />
    <glyph glyph-name="Sacute" unicode="&#x15a;" horiz-adv-x="465" 
d="M-18 47l47 70q70 -48 151 -48q56 0 93 31t37 76q0 43 -26 70q-15 17 -26 26q-10 10 -39 30l-41 32q-34 28 -37 31q-17 17 -29 31q-33 39 -33 96q0 79 65 133q64 55 158 55q86 0 151 -42l-46 -72q-66 31 -118 31q-48 0 -78.5 -27t-30.5 -69q0 -33 22 -59q22 -27 69 -60
q47 -32 60 -45q43 -38 61.5 -70.5t18.5 -74.5q0 -88 -68 -147t-179 -59q-50 0 -101.5 17.5t-80.5 43.5zM318 723h-65l91 139h142z" />
    <glyph glyph-name="sacute" unicode="&#x15b;" horiz-adv-x="394" 
d="M368 416l-44 -66q-46 20 -93 20q-27 0 -43.5 -11.5t-16.5 -32.5q0 -17 10 -28q11 -13 39 -29l34 -20q18 -12 42 -31q15 -11 28 -34.5t13 -48.5q0 -65 -52 -105t-128 -40q-91 0 -152 54l48 65q59 -41 111 -41q35 0 56 16t21 41q0 27 -31 48l-33 21l-29 18
q-38 26 -55.5 49.5t-17.5 57.5q0 58 47 93q48 36 119 36q74 0 127 -32zM261 499h-68l108 167h145z" />
    <glyph glyph-name="Scircumflex" unicode="&#x15c;" horiz-adv-x="465" 
d="M-18 47l47 70q70 -48 151 -48q56 0 93 31t37 76q0 43 -26 70q-15 17 -26 26q-10 10 -39 30l-41 32q-34 28 -37 31q-17 17 -29 31q-33 39 -33 96q0 79 65 133q64 55 158 55q86 0 151 -42l-46 -72q-66 31 -118 31q-48 0 -78.5 -27t-30.5 -69q0 -33 22 -59q22 -27 69 -60
q47 -32 60 -45q43 -38 61.5 -70.5t18.5 -74.5q0 -88 -68 -147t-179 -59q-50 0 -101.5 17.5t-80.5 43.5zM384 723l-59 86l-95 -86h-77l139 160h82l74 -160h-64z" />
    <glyph glyph-name="scircumflex" unicode="&#x15d;" horiz-adv-x="394" 
d="M368 416l-44 -66q-46 20 -93 20q-27 0 -43.5 -11.5t-16.5 -32.5q0 -17 10 -28q11 -13 39 -29l34 -20q18 -12 42 -31q15 -11 28 -34.5t13 -48.5q0 -65 -52 -105t-128 -40q-91 0 -152 54l48 65q59 -41 111 -41q35 0 56 16t21 41q0 27 -31 48l-33 21l-29 18
q-38 26 -55.5 49.5t-17.5 57.5q0 58 47 93q48 36 119 36q74 0 127 -32zM320 506l-59 86l-95 -86h-77l139 160h82l74 -160h-64z" />
    <glyph glyph-name="Scedilla" unicode="&#x15e;" horiz-adv-x="465" 
d="M-18 47l47 70q70 -48 151 -48q56 0 93 31t37 76q0 43 -26 70q-15 17 -26 26q-10 10 -39 30l-41 32q-34 28 -37 31q-17 17 -29 31q-33 39 -33 96q0 79 65 133q64 55 158 55q86 0 151 -42l-46 -72q-66 31 -118 31q-48 0 -78.5 -27t-30.5 -69q0 -33 22 -59q22 -27 69 -60
q47 -32 60 -45q43 -38 61.5 -70.5t18.5 -74.5q0 -77 -52 -132q-52 -57 -140 -70l-6 -27q28 -5 44 -20.5t16 -38.5q0 -54 -50 -83q-49 -30 -113 -30q-24 0 -49 6l19 68q15 -4 32 -4q23 0 39 7.5t16 20.5q0 18 -46 18l18 80q-101 10 -157 60z" />
    <glyph glyph-name="scedilla" unicode="&#x15f;" horiz-adv-x="394" 
d="M368 416l-44 -66q-46 20 -93 20q-27 0 -43.5 -11.5t-16.5 -32.5q0 -17 10 -28q11 -13 39 -29l34 -20q18 -12 42 -31q15 -11 28 -34.5t13 -48.5q0 -54 -39 -92.5t-101 -48.5l-9 -40q63 -10 63 -58q0 -50 -50 -77q-49 -28 -109 -28q-22 0 -44 5l17 58q13 -3 31 -3
q18 -1 38 6.5t21 25.5q0 24 -47 24l19 85q-73 9 -122 52l48 65q59 -41 111 -41q35 0 56 16t21 41q0 27 -31 48l-33 21l-29 18q-38 26 -55.5 49.5t-17.5 57.5q0 58 47 93q48 36 119 36q74 0 127 -32z" />
    <glyph glyph-name="Scaron" unicode="&#x160;" horiz-adv-x="465" 
d="M-18 47l47 70q70 -48 151 -48q56 0 93 31t37 76q0 43 -26 70q-15 17 -26 26q-10 10 -39 30l-41 32q-34 28 -37 31q-17 17 -29 31q-33 39 -33 96q0 79 65 133q64 55 158 55q86 0 151 -42l-46 -72q-66 31 -118 31q-48 0 -78.5 -27t-30.5 -69q0 -33 22 -59q22 -27 69 -60
q47 -32 60 -45q43 -38 61.5 -70.5t18.5 -74.5q0 -88 -68 -147t-179 -59q-50 0 -101.5 17.5t-80.5 43.5zM241 883l59 -86l95 86h77l-139 -160h-82l-74 160h64z" />
    <glyph glyph-name="scaron" unicode="&#x161;" horiz-adv-x="394" 
d="M368 416l-44 -66q-46 20 -93 20q-27 0 -43.5 -11.5t-16.5 -32.5q0 -17 10 -28q11 -13 39 -29l34 -20q18 -12 42 -31q15 -11 28 -34.5t13 -48.5q0 -65 -52 -105t-128 -40q-91 0 -152 54l48 65q59 -41 111 -41q35 0 56 16t21 41q0 27 -31 48l-33 21l-29 18
q-38 26 -55.5 49.5t-17.5 57.5q0 58 47 93q48 36 119 36q74 0 127 -32zM194 666l59 -86l95 86h77l-139 -160h-82l-74 160h64z" />
    <glyph glyph-name="Tcedilla" unicode="&#x162;" horiz-adv-x="422" 
d="M103 0h-6l102 583h-169l13 83h431l-13 -83h-171l-99 -583h-8l-9 -37q28 -5 44 -20.5t16 -38.5q0 -54 -50 -83q-50 -30 -113 -30q-23 0 -49 6l19 68q15 -4 32 -4q23 0 39 7.5t16 20.5q0 18 -46 18z" />
    <glyph glyph-name="tcedilla" unicode="&#x163;" horiz-adv-x="293" 
d="M70 0h-11l60 359h-89l13 78h89l26 154l98 47l-34 -201h91l-13 -78h-91l-60 -359h-9l-11 -46q63 -10 63 -58q0 -50 -50 -77q-49 -28 -109 -28q-22 0 -44 5l17 58q13 -3 31 -3q18 -1 38 6.5t21 25.5q0 24 -47 24z" />
    <glyph glyph-name="Tcaron" unicode="&#x164;" horiz-adv-x="422" 
d="M191 0h-94l102 583h-169l13 83h431l-13 -83h-171zM216 883l59 -86l95 86h77l-139 -160h-82l-74 160h64z" />
    <glyph glyph-name="tcaron" unicode="&#x165;" horiz-adv-x="293" 
d="M149 0h-90l60 359h-89l13 78h89l26 154l98 47l-34 -201h91l-13 -78h-91zM409 749h109l-127 -231h-61z" />
    <glyph glyph-name="Umacron" unicode="&#x16a;" horiz-adv-x="698" 
d="M588 666h96l-66 -374q-27 -154 -112.5 -230t-220.5 -76q-112 0 -170.5 56.5t-58.5 163.5q0 46 18 154l18 99q4 26 20 111l18 96h96l-29 -158q-45 -253 -45 -291q0 -148 148 -148q182 0 222 219zM571 739h-305l14 83h305z" />
    <glyph glyph-name="umacron" unicode="&#x16b;" 
d="M402 437h90l-73 -437h-90l11 65q-22 -33 -63.5 -54.5t-92.5 -21.5q-67 0 -103 32t-37 94q0 29 48 322h90q-45 -262 -45 -299q0 -71 84 -71q50 0 90 37t51 95zM460 551h-285l14 78h285z" />
    <glyph glyph-name="Ubreve" unicode="&#x16c;" horiz-adv-x="698" 
d="M588 666h96l-66 -374q-27 -154 -112.5 -230t-220.5 -76q-112 0 -170.5 56.5t-58.5 163.5q0 46 18 154l18 99q4 26 20 111l18 96h96l-29 -158q-45 -253 -45 -291q0 -148 148 -148q182 0 222 219zM538 868l52 -49q-33 -45 -82 -70.5t-106 -25.5q-56 0 -96 27.5t-55 72.5
l65 43q32 -60 101 -60q62 0 121 62z" />
    <glyph glyph-name="ubreve" unicode="&#x16d;" 
d="M402 437h90l-73 -437h-90l11 65q-22 -33 -63.5 -54.5t-92.5 -21.5q-67 0 -103 32t-37 94q0 29 48 322h90q-45 -262 -45 -299q0 -71 84 -71q50 0 90 37t51 95zM438 647l49 -44q-65 -90 -183 -90q-56 0 -94 24.5t-52 69.5l58 37q32 -59 101 -59q65 0 121 62z" />
    <glyph glyph-name="Uring" unicode="&#x16e;" horiz-adv-x="698" 
d="M588 666h96l-66 -374q-27 -154 -112.5 -230t-220.5 -76q-112 0 -170.5 56.5t-58.5 163.5q0 46 18 154l18 99q4 26 20 111l18 96h96l-29 -158q-45 -253 -45 -291q0 -148 148 -148q182 0 222 219zM332 798q0 47 31.5 80t78.5 33q41 0 65 -25t24 -64q0 -44 -33 -77
q-34 -32 -80 -32q-38 0 -62 24t-24 61zM398 807q0 -13 8 -20.5t21 -7.5q15 0 26.5 11t11.5 25q0 30 -30 30q-15 0 -26 -11.5t-11 -26.5z" />
    <glyph glyph-name="uring" unicode="&#x16f;" 
d="M402 437h90l-73 -437h-90l11 65q-22 -33 -63.5 -54.5t-92.5 -21.5q-67 0 -103 32t-37 94q0 29 48 322h90q-45 -262 -45 -299q0 -71 84 -71q50 0 90 37t51 95zM227 564q0 41 29 75q30 34 76 34q36 0 60 -23t24 -57q0 -44 -32 -76t-75 -32q-36 0 -59 22.5t-23 56.5z
M289 574q0 -12 7.5 -19.5t20.5 -7.5q15 0 26 11t11 26q0 12 -8 19.5t-21 7.5q-15 0 -25.5 -11t-10.5 -26z" />
    <glyph glyph-name="Uhungarumlaut" unicode="&#x170;" horiz-adv-x="698" 
d="M588 666h96l-66 -374q-27 -154 -112.5 -230t-220.5 -76q-112 0 -170.5 56.5t-58.5 163.5q0 46 18 154l18 99q4 26 20 111l18 96h96l-29 -158q-45 -253 -45 -291q0 -148 148 -148q182 0 222 219zM357 723h-60l91 139h137zM517 723h-60l91 139h137z" />
    <glyph glyph-name="uhungarumlaut" unicode="&#x171;" 
d="M402 437h90l-73 -437h-90l11 65q-22 -33 -63.5 -54.5t-92.5 -21.5q-67 0 -103 32t-37 94q0 29 48 322h90q-45 -262 -45 -299q0 -71 84 -71q50 0 90 37t51 95zM244 499h-63l108 167h140zM410 499h-63l108 167h140z" />
    <glyph glyph-name="Uogonek" unicode="&#x172;" horiz-adv-x="698" 
d="M350 -120l14 -79q-42 -14 -93 -14q-55 0 -86.5 21.5t-31.5 64.5q0 64 77 117q-174 26 -174 216q0 46 18 154l18 99q4 26 20 111l18 96h96l-29 -158q-45 -253 -45 -291q0 -148 148 -148q182 0 222 219l66 378h96l-66 -374q-50 -264 -263 -300l-15 -9q-64 -35 -77 -54
q-8 -14 -8 -25q0 -34 45 -34q29 0 50 10z" />
    <glyph glyph-name="uogonek" unicode="&#x173;" 
d="M395 -132l10 -68q-32 -13 -87 -13q-46 0 -77.5 21t-31.5 61t30.5 73t90.5 68l10 55q-22 -33 -63.5 -54.5t-92.5 -21.5q-67 0 -103 32t-37 94q0 29 48 322h90q-45 -262 -45 -299q0 -71 84 -71q50 0 90 37t51 95l40 238h90l-73 -437h-2l-23 -13q-24 -13 -31 -18
q-63 -43 -58 -75q0 -35 43 -35q28 0 47 9z" />
    <glyph glyph-name="Ydieresis" unicode="&#x178;" horiz-adv-x="498" 
d="M147 0l36 221l-166 445h98l124 -343l241 343h114l-315 -443l-37 -223h-95zM286 845l-17 -101h-101l17 101h101zM475 845l-17 -101h-101l17 101h101z" />
    <glyph glyph-name="Zacute" unicode="&#x179;" horiz-adv-x="567" 
d="M469 0h-505l444 583h-337l35 83h486l-445 -583h363zM341 723h-65l91 139h142z" />
    <glyph glyph-name="zacute" unicode="&#x17a;" horiz-adv-x="429" 
d="M449 437l-304 -359h248l-44 -78h-369l304 359h-216l42 78h339zM301 499h-68l108 167h145z" />
    <glyph glyph-name="Zdotaccent" unicode="&#x17b;" horiz-adv-x="567" 
d="M469 0h-505l444 583h-337l35 83h486l-445 -583h363zM394 845l-17 -101h-101l17 101h101z" />
    <glyph glyph-name="zdotaccent" unicode="&#x17c;" horiz-adv-x="429" 
d="M449 437l-304 -359h248l-44 -78h-369l304 359h-216l42 78h339zM337 638l-18 -102h-102l18 102h102z" />
    <glyph glyph-name="Zcaron" unicode="&#x17d;" horiz-adv-x="567" 
d="M469 0h-505l444 583h-337l35 83h486l-445 -583h363zM279 883l59 -86l95 86h77l-139 -160h-82l-74 160h64z" />
    <glyph glyph-name="zcaron" unicode="&#x17e;" horiz-adv-x="429" 
d="M449 437l-304 -359h248l-44 -78h-369l304 359h-216l42 78h339zM221 666l59 -86l95 86h77l-139 -160h-82l-74 160h64z" />
    <glyph glyph-name="uni018F" unicode="&#x18f;" horiz-adv-x="820" 
d="M212 507l-60 54q58 58 138.5 88.5t166.5 30.5q145 0 227 -87q83 -87 82 -206q0 -77 -32 -150.5t-89 -128.5q-56 -56 -134.5 -89t-162.5 -33q-137 0 -216 79q-78 79 -76 205q0 32 11 81h596q1 6 1 26q0 94 -60 157t-160 63q-64 0 -128 -25t-104 -65zM363 69q97 0 171 55
q76 56 110 144h-486q-6 -88 53 -144q58 -55 152 -55z" />
    <glyph glyph-name="florin" unicode="&#x192;" horiz-adv-x="443" 
d="M340 359h-54l-60 -359q-32 -213 -180 -213h-41l13 76h20q43 0 65.5 33t32.5 100l60 363h-51l12 78h51l10 50q32 213 180 213h41l-13 -76h-20q-43 0 -65.5 -33t-32.5 -100l-10 -54h54z" />
    <glyph glyph-name="uni01DD" unicode="&#x1dd;" horiz-adv-x="548" 
d="M133 320l-50 53q78 75 217 75q99 0 152 -56q55 -56 53 -139q0 -114 -81 -189t-205 -75q-90 0 -139.5 47t-49.5 122q0 37 14 77h366q1 5 1 18q0 51 -35 84t-92 33q-89 0 -151 -50zM396 167h-268q-1 -3 -1 -14q0 -39 28.5 -62.5t79.5 -23.5q53 0 96 27t65 73z" />
    <glyph glyph-name="Gcaron" unicode="&#x1e6;" horiz-adv-x="803" 
d="M716 574l-71 -54q-77 77 -185 77q-132 0 -221 -84q-88 -84 -88 -211q0 -103 62 -168t166 -65q103 0 174 58q72 59 96 141h-256l45 83h327q-8 -71 -37 -135.5t-77 -116.5t-121 -82.5t-160 -30.5q-78 0 -142 26.5t-103 72.5q-75 92 -75 203q0 103 50 192q52 92 147.5 146
t213.5 54q159 0 255 -106zM423 883l59 -86l95 86h77l-139 -160h-82l-74 160h64z" />
    <glyph glyph-name="gcaron" unicode="&#x1e7;" horiz-adv-x="631" 
d="M492 366l14 71h90l-70 -385q-28 -157 -94 -212q-65 -56 -187 -56q-99 0 -203 43l34 78q96 -39 185 -39q66 0 109 34q44 33 62 132l6 32q-74 -75 -177 -75q-98 0 -152 57q-55 59 -56 138q-3 110 76 186q79 78 196 78q112 0 167 -82zM149 196q2 -58 37 -93.5t96 -35.5
q78 0 128 50q51 49 51 126q0 54 -35 90.5t-98 36.5q-81 0 -131 -53t-48 -121zM306 666l59 -86l95 86h77l-139 -160h-82l-74 160h64z" />
    <glyph glyph-name="Scommaaccent" unicode="&#x218;" horiz-adv-x="465" 
d="M-18 47l47 70q70 -48 151 -48q56 0 93 31t37 76q0 43 -26 70q-15 17 -26 26q-10 10 -39 30l-41 32q-34 28 -37 31q-17 17 -29 31q-33 39 -33 96q0 79 65 133q64 55 158 55q86 0 151 -42l-46 -72q-66 31 -118 31q-48 0 -78.5 -27t-30.5 -69q0 -33 22 -59q22 -27 69 -60
q47 -32 60 -45q43 -38 61.5 -70.5t18.5 -74.5q0 -88 -68 -147t-179 -59q-50 0 -101.5 17.5t-80.5 43.5zM110 -50h109l-74 -167h-66z" />
    <glyph glyph-name="scommaaccent" unicode="&#x219;" horiz-adv-x="394" 
d="M368 416l-44 -66q-46 20 -93 20q-27 0 -43.5 -11.5t-16.5 -32.5q0 -17 10 -28q11 -13 39 -29l34 -20q18 -12 42 -31q15 -11 28 -34.5t13 -48.5q0 -65 -52 -105t-128 -40q-91 0 -152 54l48 65q59 -41 111 -41q35 0 56 16t21 41q0 27 -31 48l-33 21l-29 18
q-38 26 -55.5 49.5t-17.5 57.5q0 58 47 93q48 36 119 36q74 0 127 -32zM96 -50h106l-74 -167h-63z" />
    <glyph glyph-name="Tcommaaccent" unicode="&#x21a;" horiz-adv-x="422" 
d="M191 0h-94l102 583h-169l13 83h431l-13 -83h-171zM81 -50h109l-74 -167h-66z" />
    <glyph glyph-name="tcommaaccent" unicode="&#x21b;" horiz-adv-x="293" 
d="M149 0h-90l60 359h-89l13 78h89l26 154l98 47l-34 -201h91l-13 -78h-91zM42 -50h106l-74 -167h-63z" />
    <glyph glyph-name="uni0237" unicode="&#x237;" horiz-adv-x="242" 
d="M31 -15l75 452h90l-79 -478q-13 -80 -59.5 -126t-121.5 -46h-10l15 82h6q64 0 84 116z" />
    <glyph glyph-name="uni0259" unicode="&#x259;" horiz-adv-x="567" 
d="M152 320l-50 53q78 75 217 75q99 0 152 -56q55 -56 53 -139q0 -114 -81 -189t-205 -75q-90 0 -139.5 47t-49.5 122q0 37 14 77h366q1 5 1 18q0 51 -35 84t-92 33q-89 0 -151 -50zM415 167h-268q-1 -3 -1 -14q0 -39 28.5 -62.5t79.5 -23.5q53 0 96 27t65 73z" />
    <glyph glyph-name="afii57929" unicode="&#x2bc;" horiz-adv-x="288" 
d="M144 700h109l-127 -231h-61z" />
    <glyph glyph-name="circumflex" unicode="&#x2c6;" horiz-adv-x="357" 
d="M251 506l-59 86l-95 -86h-77l139 160h82l74 -160h-64z" />
    <glyph glyph-name="caron" unicode="&#x2c7;" horiz-adv-x="357" 
d="M106 666l59 -86l95 86h77l-139 -160h-82l-74 160h64z" />
    <glyph glyph-name="breve" unicode="&#x2d8;" horiz-adv-x="391" 
d="M316 647l49 -44q-65 -90 -183 -90q-56 0 -94 24.5t-52 69.5l58 37q32 -59 101 -59q65 0 121 62z" />
    <glyph glyph-name="dotaccent" unicode="&#x2d9;" horiz-adv-x="190" 
d="M155 638l-18 -102h-102l18 102h102z" />
    <glyph glyph-name="ring" unicode="&#x2da;" horiz-adv-x="259" 
d="M35 564q0 41 29 75q30 34 76 34q36 0 60 -23t24 -57q0 -44 -32 -76t-75 -32q-36 0 -59 22.5t-23 56.5zM97 574q0 -12 7.5 -19.5t20.5 -7.5q15 0 26 11t11 26q0 12 -8 19.5t-21 7.5q-15 0 -25.5 -11t-10.5 -26z" />
    <glyph glyph-name="ogonek" unicode="&#x2db;" horiz-adv-x="278" 
d="M221 -132l10 -68q-32 -13 -87 -13q-46 0 -77.5 21t-31.5 61q0 49 48 90q27 22 41 32q19 12 52 30l42 24l25 -45l-23 -13q-24 -13 -31 -18q-63 -43 -58 -75q0 -35 43 -35q28 0 47 9z" />
    <glyph glyph-name="tilde" unicode="&#x2dc;" horiz-adv-x="423" 
d="M95 524l-60 25q47 89 118 89q30 0 68 -18t55 -18q31 0 51 35l61 -24q-16 -37 -45 -60t-64 -23q-27 0 -68 18t-59 18q-34 0 -57 -42z" />
    <glyph glyph-name="hungarumlaut" unicode="&#x2dd;" horiz-adv-x="504" 
d="M128 499h-63l108 167h140zM294 499h-63l108 167h140z" />
    <glyph glyph-name="acutecomb" unicode="&#x301;" horiz-adv-x="0" 
d="M-245 499h-68l108 167h145z" />
    <glyph glyph-name="uni0394" unicode="&#x394;" horiz-adv-x="601" 
d="M460 83l-113 477l-266 -477h379zM414 667l152 -667h-631l379 667h100z" />
    <glyph glyph-name="uni0394" unicode="&#x2206;" horiz-adv-x="601" 
d="M460 83l-113 477l-266 -477h379zM414 667l152 -667h-631l379 667h100z" />
    <glyph glyph-name="uni03A9" unicode="&#x3a9;" horiz-adv-x="832" 
d="M317 66l-8 -66h-259l11 83h114q-54 31 -84 90q-29 61 -29 120q0 162 120 274q121 113 287 113q97 0 171 -45q142 -86 142 -255q0 -91 -46 -170.5t-130 -126.5h126l-11 -83h-273l7 64q99 22 162 111q64 88 64 187q0 98 -57 166q-56 69 -167 69q-124 0 -209 -85t-85 -213
q0 -83 41 -148q40 -64 113 -85z" />
    <glyph glyph-name="uni03A9" unicode="&#x2126;" horiz-adv-x="832" 
d="M317 66l-8 -66h-259l11 83h114q-54 31 -84 90q-29 61 -29 120q0 162 120 274q121 113 287 113q97 0 171 -45q142 -86 142 -255q0 -91 -46 -170.5t-130 -126.5h126l-11 -83h-273l7 64q99 22 162 111q64 88 64 187q0 98 -57 166q-56 69 -167 69q-124 0 -209 -85t-85 -213
q0 -83 41 -148q40 -64 113 -85z" />
    <glyph glyph-name="pi" unicode="&#x3c0;" horiz-adv-x="592" 
d="M116 290l12 69h-89l13 78h517l-14 -78h-64l-42 -240q-6 -31 3 -41.5t35 -10.5l-13 -74q-25 -4 -48 -4q-40 0 -61 24t-12 68l48 278h-183l-16 -90q-46 -280 -204 -280h-28l14 78h12q80 0 120 223z" />
    <glyph glyph-name="afii10023" unicode="&#x401;" horiz-adv-x="547" 
d="M192 383h283l-14 -83h-283l-39 -217h314l-14 -83h-409l120 666h403l-14 -83h-311zM332 845l-17 -101h-101l17 101h101zM521 845l-17 -101h-101l17 101h101z" />
    <glyph glyph-name="afii10051" unicode="&#x402;" horiz-adv-x="666" 
d="M461 583h-172l-36 -208q78 34 163 34q92 0 142 -46.5t50 -128.5q0 -99 -63 -174q-63 -74 -165 -74q-39 0 -72 13l32 80q26 -10 54 -10q58 0 88 45q32 45 30 104q-2 108 -113 108q-90 0 -160 -37l-48 -289h-94l101 583h-168l12 83h431z" />
    <glyph glyph-name="afii10052" unicode="&#x403;" horiz-adv-x="445" 
d="M493 666l-14 -83h-256l-100 -583h-93l112 666h351zM385 723h-65l91 139h142z" />
    <glyph glyph-name="afii10053" unicode="&#x404;" horiz-adv-x="684" 
d="M164 385h329l-13 -83h-328q0 -107 62.5 -170t174.5 -63q97 0 188 62l46 -61q-109 -84 -249 -84q-150 0 -233 84q-81 84 -86 206q-4 173 118 289q121 115 293 115q140 0 210 -76l-59 -63q-59 56 -160 56q-100 0 -185 -59q-84 -58 -108 -153z" />
    <glyph glyph-name="afii10054" unicode="&#x405;" horiz-adv-x="465" 
d="M-18 47l47 70q70 -48 151 -48q56 0 93 31t37 76q0 43 -26 70q-15 17 -26 26q-10 10 -39 30l-41 32q-34 28 -37 31q-17 17 -29 31q-33 39 -33 96q0 79 65 133q64 55 158 55q86 0 151 -42l-46 -72q-66 31 -118 31q-48 0 -78.5 -27t-30.5 -69q0 -33 22 -59q22 -27 69 -60
q47 -32 60 -45q43 -38 61.5 -70.5t18.5 -74.5q0 -88 -68 -147t-179 -59q-50 0 -101.5 17.5t-80.5 43.5z" />
    <glyph glyph-name="afii10055" unicode="&#x406;" horiz-adv-x="270" 
d="M125 0h-95l115 666h95z" />
    <glyph glyph-name="afii10056" unicode="&#x407;" horiz-adv-x="270" 
d="M125 0h-95l115 666h95zM182 845l-17 -101h-101l17 101h101zM371 845l-17 -101h-101l17 101h101z" />
    <glyph glyph-name="afii10057" unicode="&#x408;" horiz-adv-x="342" 
d="M-40 2l15 81q33 -14 64 -14q47 0 69 33t37 115l74 449h95l-72 -434q-24 -135 -66 -190q-41 -56 -136 -56q-54 0 -80 16z" />
    <glyph glyph-name="afii10058" unicode="&#x409;" horiz-adv-x="930" 
d="M624 0h-206l105 583h-252l-17 -100q0 -3 -6 -34l-9 -47l-11 -52q-8 -36 -15 -60q-17 -66 -40 -121q-29 -69 -59 -106q-57 -77 -155 -77q-17 0 -35 6l16 92l20 -4q75 0 124 116q46 108 75 275l35 195h439l-47 -256h114q98 0 150 -43t52 -119q0 -48 -16 -91t-47.5 -79
t-87 -57t-127.5 -21zM681 327h-110l-45 -244h111q77 0 120.5 38.5t43.5 104.5q0 101 -120 101z" />
    <glyph glyph-name="afii10059" unicode="&#x40a;" horiz-adv-x="988" 
d="M682 0h-207l57 320h-360l-57 -320h-95l119 666h95l-47 -263h360l47 263h95l-45 -256h114q98 0 150 -43t52 -119q0 -48 -16 -91t-47.5 -79t-87 -57t-127.5 -21zM629 327l-43 -244h109q77 0 121 38.5t44 104.5q0 101 -121 101h-110z" />
    <glyph glyph-name="afii10060" unicode="&#x40b;" horiz-adv-x="671" 
d="M461 583h-168l-36 -208q83 34 172 34q86 0 135 -40.5t49 -117.5q0 -34 -39 -251h-93q6 39 13 77q21 123 21 148q0 101 -107 101q-95 0 -165 -37l-52 -289h-94l101 583h-168l14 83h431z" />
    <glyph glyph-name="afii10061" unicode="&#x40c;" horiz-adv-x="563" 
d="M125 0h-95l117 666h95l-53 -302l313 302h127l-342 -322l266 -344h-121l-249 330zM389 723h-65l91 139h142z" />
    <glyph glyph-name="afii10062" unicode="&#x40e;" horiz-adv-x="522" 
d="M126 666l144 -402l234 402h110l-291 -485q-115 -195 -253 -195q-45 0 -78 18l17 83q32 -17 68 -17q39 0 75 28t59 69l-184 499h99zM427 853h96q-11 -61 -64 -96.5t-133 -35.5q-74 0 -114 28.5t-39 79.5q0 12 3 24h90q-1 -3 -1 -11q0 -38 63 -38q92 0 99 49z" />
    <glyph glyph-name="afii10145" unicode="&#x40f;" horiz-adv-x="740" 
d="M241 666l-101 -583h374l101 583h95l-116 -666h-237l-29 -168h-83l29 168h-244l116 666h95z" />
    <glyph glyph-name="afii10017" unicode="&#x410;" horiz-adv-x="588" 
d="M410 179h-276l-115 -179h-107l436 680l214 -680h-98zM319 479l-138 -217h208z" />
    <glyph glyph-name="afii10018" unicode="&#x411;" horiz-adv-x="560" 
d="M529 666l-14 -83h-287l-34 -185h131q89 0 141.5 -41.5t52.5 -113.5q0 -112 -75 -177.5t-207 -65.5h-209l121 666h380zM177 315l-42 -232h103q86 0 133 36.5t47 106.5q0 89 -122 89h-119z" />
    <glyph glyph-name="afii10019" unicode="&#x412;" horiz-adv-x="575" 
d="M249 0h-219l119 666h181q207 0 207 -151q0 -55 -41 -102q-39 -45 -94 -59l-1 -3q58 -12 86 -50t28 -92q0 -82 -73 -146q-72 -63 -193 -63zM227 585l-36 -201h101q65 0 104.5 33t39.5 84q0 38 -28.5 61t-86.5 23h-94zM176 303l-39 -222h113q74 0 119 36t45 96
q0 90 -124 90h-114z" />
    <glyph glyph-name="afii10020" unicode="&#x413;" horiz-adv-x="445" 
d="M493 666l-14 -83h-256l-100 -583h-93l112 666h351z" />
    <glyph glyph-name="afii10021" unicode="&#x414;" horiz-adv-x="676" 
d="M24 0l-26 -143h-94l40 226h80q92 126 133 355l41 228h438l-105 -583h95l-40 -226h-95l26 143h-493zM436 83l90 500h-251l-25 -140q-41 -229 -124 -360h310z" />
    <glyph glyph-name="afii10022" unicode="&#x415;" horiz-adv-x="547" 
d="M192 383h283l-14 -83h-283l-39 -217h314l-14 -83h-409l120 666h403l-14 -83h-311z" />
    <glyph glyph-name="afii10024" unicode="&#x416;" horiz-adv-x="824" 
d="M58 666h111l206 -309l54 309h95l-55 -309l297 309h124l-321 -325l239 -341h-118l-225 328l-57 -328h-95l60 328l-312 -328h-133l343 356z" />
    <glyph glyph-name="afii10025" unicode="&#x417;" horiz-adv-x="565" 
d="M137 532l-42 61q101 87 241 87q91 0 141 -39t50 -111q0 -59 -37.5 -106t-100.5 -65v-3q114 -28 114 -139q0 -94 -83 -163q-83 -68 -209 -68q-133 0 -221 88l56 67q78 -72 182 -72q70 0 122 38q52 37 52 107q0 94 -133 94h-91l16 81h85q67 0 107 33t40 89q0 86 -108 86
q-98 0 -181 -65z" />
    <glyph glyph-name="afii10026" unicode="&#x418;" horiz-adv-x="747" 
d="M500 0l80 454l-550 -468l122 680h97l-81 -452l549 466l-122 -680h-95z" />
    <glyph glyph-name="afii10027" unicode="&#x419;" horiz-adv-x="747" 
d="M500 0l80 454l-550 -468l122 680h97l-81 -452l549 466l-122 -680h-95zM559 853h96q-11 -61 -64 -96.5t-133 -35.5q-74 0 -114 28.5t-39 79.5q0 12 3 24h90q-1 -3 -1 -11q0 -38 63 -38q92 0 99 49z" />
    <glyph glyph-name="afii10028" unicode="&#x41a;" horiz-adv-x="563" 
d="M125 0h-95l117 666h95l-53 -302l313 302h127l-342 -322l266 -344h-121l-249 330z" />
    <glyph glyph-name="afii10029" unicode="&#x41b;" horiz-adv-x="672" 
d="M433 0l99 583h-261l-17 -100q-14 -75 -22 -107l-27 -107q-35 -129 -93 -206q-57 -77 -153 -77q-17 0 -35 6l16 91l20 -4q75 0 124 116q46 107 75 276l35 195h448l-114 -666h-95z" />
    <glyph glyph-name="afii10030" unicode="&#x41c;" horiz-adv-x="835" 
d="M269 680l122 -480l310 480l74 -680h-92l-46 425l-280 -435l-110 435l-198 -425h-101z" />
    <glyph glyph-name="afii10031" unicode="&#x41d;" horiz-adv-x="729" 
d="M547 320h-370l-52 -320h-95l109 666h95l-44 -263h370l44 263h95l-109 -666h-95z" />
    <glyph glyph-name="afii10032" unicode="&#x41e;" horiz-adv-x="820" 
d="M50 284q0 116 57 207q56 91 147.5 140t200.5 49q68 0 123.5 -20t90.5 -51.5t58.5 -73t33 -81.5t9.5 -79q0 -158 -116 -274q-115 -115 -287 -115q-151 1 -234 90.5t-83 207.5zM151 298q0 -95 59 -163q58 -66 169 -66q121 0 205 87q85 86 85 206q0 96 -56 166
q-55 69 -172 69q-123 0 -207 -88q-83 -88 -83 -211z" />
    <glyph glyph-name="afii10033" unicode="&#x41f;" horiz-adv-x="726" 
d="M586 583h-360l-101 -583h-95l116 666h550l-116 -666h-95z" />
    <glyph glyph-name="afii10034" unicode="&#x420;" horiz-adv-x="553" 
d="M274 255h-108l-43 -255h-93l115 666h214q98 0 146 -45.5t48 -124.5q0 -110 -76 -176q-77 -65 -203 -65zM224 583l-43 -245h98q84 0 128.5 37.5t44.5 106.5q0 101 -123 101h-105z" />
    <glyph glyph-name="afii10035" unicode="&#x421;" horiz-adv-x="678" 
d="M572 134l49 -64q-116 -83 -248 -83q-68 0 -124 19.5t-92 50.5t-61 71.5t-35.5 80t-10.5 78.5q0 165 115 279t297 114q140 0 210 -73l-60 -65q-59 55 -162 55q-134 0 -216 -88q-83 -88 -83 -208q0 -100 63 -166q63 -65 169 -65q97 0 189 64z" />
    <glyph glyph-name="afii10036" unicode="&#x422;" horiz-adv-x="422" 
d="M191 0h-94l102 583h-169l13 83h431l-13 -83h-171z" />
    <glyph glyph-name="afii10037" unicode="&#x423;" horiz-adv-x="522" 
d="M126 666l144 -402l234 402h110l-291 -485q-115 -195 -253 -195q-45 0 -78 18l17 83q32 -17 68 -17q39 0 75 28t59 69l-184 499h99z" />
    <glyph glyph-name="afii10038" unicode="&#x424;" horiz-adv-x="812" 
d="M325 154l66 375q-113 0 -189 -63q-75 -63 -75 -164q0 -73 53.5 -110.5t144.5 -37.5zM406 72l-15 -86h-95l15 86q-78 0 -135 19t-89 52.5t-47 73t-15 85.5q0 132 111 220q112 89 270 89l12 69h95l-12 -69q151 0 218 -67q68 -66 68 -167q0 -128 -111 -217
q-110 -88 -270 -88zM487 529l-66 -375q114 0 188 61q76 61 76 160q0 77 -56 115q-55 39 -142 39z" />
    <glyph glyph-name="afii10039" unicode="&#x425;" horiz-adv-x="542" 
d="M361 0l-106 261l-216 -261h-117l296 354l-129 312h101l95 -235l198 235h118l-278 -329l139 -337h-101z" />
    <glyph glyph-name="afii10040" unicode="&#x426;" horiz-adv-x="738" 
d="M698 666l-103 -583h95l-40 -226h-95l25 143h-550l118 666h95l-103 -583h360l103 583h95z" />
    <glyph glyph-name="afii10041" unicode="&#x427;" horiz-adv-x="577" 
d="M402 377l50 289h95l-113 -666h-95l49 291q-83 -34 -172 -34q-86 0 -135 38t-49 111q0 22 42 260h92l-15 -78q-23 -117 -23 -150q0 -98 113 -98q91 0 161 37z" />
    <glyph glyph-name="afii10042" unicode="&#x428;" horiz-adv-x="958" 
d="M814 0h-784l114 666h95l-100 -583h248l100 583h95l-100 -583h251l100 583h95z" />
    <glyph glyph-name="afii10043" unicode="&#x429;" horiz-adv-x="967" 
d="M792 -143l24 143h-786l111 666h95l-97 -583h249l97 583h95l-97 -583h252l97 583h95l-97 -583h95l-38 -226h-95z" />
    <glyph glyph-name="afii10044" unicode="&#x42a;" horiz-adv-x="570" 
d="M26 666h241l-43 -256h116q98 0 150 -43t52 -119q0 -103 -70 -176q-70 -72 -210 -72h-203l100 583h-147zM209 327l-40 -244h106q78 0 122.5 39t44.5 104q0 101 -121 101h-112z" />
    <glyph glyph-name="afii10045" unicode="&#x42b;" horiz-adv-x="824" 
d="M684 0h-95l110 666h95zM143 666h94l-43 -256h117q98 0 150 -43t52 -119q0 -48 -16 -91t-47.5 -79t-87 -57t-127.5 -21h-205zM180 327l-41 -244h109q77 0 121 38.5t44 104.5q0 101 -121 101h-112z" />
    <glyph glyph-name="afii10046" unicode="&#x42c;" horiz-adv-x="541" 
d="M143 666h94l-43 -256h117q98 0 150 -43t52 -119q0 -48 -16 -91t-47.5 -79t-87 -57t-127.5 -21h-205zM180 327l-41 -244h109q77 0 121 38.5t44 104.5q0 101 -121 101h-112z" />
    <glyph glyph-name="afii10047" unicode="&#x42d;" horiz-adv-x="676" 
d="M-5 82l58 60q70 -73 185 -73q104 0 180 66q75 65 101 167h-327l15 83h322q1 36 -10 72t-33.5 68t-64 52t-95.5 20q-62 0 -109.5 -17t-102.5 -53l-36 62q113 91 263 91q137 0 210 -81t75 -200q0 -171 -116 -293q-116 -120 -287 -120q-71 0 -131.5 25t-96.5 71z" />
    <glyph glyph-name="afii10048" unicode="&#x42e;" horiz-adv-x="1078" 
d="M323 320h-144l-54 -320h-95l114 666h95l-46 -263h145q38 127 143 201q106 76 239 76q137 0 211 -72q50 -46 73.5 -108.5t23.5 -124.5q0 -159 -113 -275q-113 -114 -283 -114q-154 0 -237 96q-73 90 -73 202q0 28 1 36zM423 298q0 -96 56 -163q55 -66 165 -66
q121 0 202 87t81 206q0 46 -11 85.5t-35.5 74.5t-69 55t-105.5 20q-124 0 -203 -87q-80 -88 -80 -212z" />
    <glyph glyph-name="afii10049" unicode="&#x42f;" horiz-adv-x="600" 
d="M359 0l44 255h-95l-225 -255h-127l245 271q-53 15 -85 54t-32 95q0 107 72 176q71 70 204 70h210l-115 -666h-96zM419 338l41 245h-107q-78 0 -123 -38t-45 -107q0 -47 32.5 -73.5t87.5 -26.5h114z" />
    <glyph glyph-name="afii10065" unicode="&#x430;" horiz-adv-x="507" 
d="M129 349l-4 69q75 30 155 30t125.5 -29t45.5 -85q0 -8 -14 -89l-28 -160q-15 -82 -15 -85h-86l6 32q-67 -43 -151 -43q-68 0 -109.5 33t-41.5 93q0 75 60 115q62 41 144 41t134 -31q9 42 9 64q0 70 -92 70q-70 0 -138 -25zM219 203q-46 0 -78.5 -19.5t-32.5 -56.5
q0 -32 25.5 -48t67.5 -16q52 0 88.5 18.5t42.5 51.5q6 30 -26.5 50t-86.5 20z" />
    <glyph glyph-name="afii10066" unicode="&#x431;" horiz-adv-x="582" 
d="M552 710l-12 -95q-37 -35 -130 -46q-202 -22 -253 -229l3 -2q86 95 197 95q85 0 131.5 -46.5t46.5 -122.5q0 -111 -80 -194q-79 -81 -203 -81q-97 0 -149 55q-53 56 -53 141q0 46 8 89q68 349 347 380q94 10 147 56zM148 243q-7 -24 -7 -54q0 -52 33 -87t88 -35
q72 0 124 52q53 53 53 123q0 52 -30.5 82.5t-89.5 30.5q-48 0 -96 -31t-75 -81z" />
    <glyph glyph-name="afii10067" unicode="&#x432;" horiz-adv-x="482" 
d="M35 0l79 437h191q66 0 103 -24t37 -69q0 -39 -25.5 -69t-70.5 -38v-2q84 -18 86 -89q0 -64 -54 -105t-144 -41h-202zM192 369l-21 -111h90q38 0 63 18t25 52q-2 41 -62 41h-95zM161 196l-24 -128h101q44 0 72.5 20t28.5 55q0 27 -22 40t-53 13h-103z" />
    <glyph glyph-name="afii10068" unicode="&#x433;" horiz-adv-x="383" 
d="M115 437h302l-14 -78h-212l-57 -359h-90z" />
    <glyph glyph-name="afii10069" unicode="&#x434;" horiz-adv-x="555" 
d="M52 0l-26 -132h-84l35 210h61q36 29 57.5 83.5t41.5 154.5l24 121h341l-67 -359h76l-40 -210h-90l26 132h-355zM136 78h209l53 281h-168l-14 -71q-10 -50 -18 -78q-7 -25 -24 -67q-16 -39 -38 -65z" />
    <glyph glyph-name="afii10070" unicode="&#x435;" horiz-adv-x="548" 
d="M416 117l50 -53q-78 -75 -217 -75q-99 0 -153 56q-53 57 -52 139q0 114 81 189t205 75q90 0 139.5 -47t49.5 -122q0 -37 -14 -77h-366q-1 -5 -1 -18q0 -51 35 -84t92 -33q89 0 151 50zM153 270h268q1 3 1 14q0 39 -28.5 62.5t-79.5 23.5q-53 0 -96 -27t-65 -73z" />
    <glyph glyph-name="afii10072" unicode="&#x436;" horiz-adv-x="660" 
d="M247 0l42 225l-214 -225h-123l243 248l-128 189h102l123 -194l36 194h90l-36 -194l193 194h117l-217 -206l144 -231h-105l-135 225l-42 -225h-90z" />
    <glyph glyph-name="afii10073" unicode="&#x437;" horiz-adv-x="442" 
d="M99 332l-38 59q73 57 185 57q159 0 159 -104q0 -37 -27.5 -66.5t-69.5 -41.5v-3q38 -9 59.5 -33.5t21.5 -58.5q0 -71 -66 -112q-64 -40 -147 -40q-122 0 -178 59l48 60q49 -44 131 -44q54 0 85 18.5t31 53.5q0 59 -98 59h-41l15 68h41q44 0 70 17.5t26 46.5q0 46 -77 46
q-71 0 -130 -41z" />
    <glyph glyph-name="afii10074" unicode="&#x438;" horiz-adv-x="541" 
d="M341 0l42 265l-348 -276l79 448h90l-44 -259l346 270l-75 -448h-90z" />
    <glyph glyph-name="afii10075" unicode="&#x439;" horiz-adv-x="541" 
d="M341 0l42 265l-348 -276l79 448h90l-44 -259l346 270l-75 -448h-90zM424 646h84q-28 -133 -181 -133q-59 0 -93.5 28t-35.5 76q0 14 3 29h81q-1 -3 -1 -15q1 -46 59 -46q72 0 84 61z" />
    <glyph glyph-name="afii10076" unicode="&#x43a;" horiz-adv-x="465" 
d="M125 0h-90l80 437h90l-37 -195l225 195h114l-242 -204l174 -233h-104l-169 225z" />
    <glyph glyph-name="afii10077" unicode="&#x43b;" horiz-adv-x="530" 
d="M326 0l65 359h-168l-14 -76q-20 -105 -46 -167q-50 -123 -165 -127h-26l15 81h12q56 0 85 71q26 61 43 152l27 144h341l-79 -437h-90z" />
    <glyph glyph-name="afii10078" unicode="&#x43c;" horiz-adv-x="664" 
d="M503 246l-209 -253l-110 253l-113 -246h-97l213 448l129 -305l250 305l48 -448h-87z" />
    <glyph glyph-name="afii10079" unicode="&#x43d;" horiz-adv-x="559" 
d="M391 193h-231l-35 -193h-90l77 437h89l-27 -166h231l29 166h90l-76 -437h-90z" />
    <glyph glyph-name="afii10080" unicode="&#x43e;" horiz-adv-x="582" 
d="M42 189q0 109 81 184t202 75q98 0 156 -58q59 -59 58 -143q-1 -111 -84 -185q-82 -73 -200 -73q-95 0 -154 55q-59 56 -59 145zM305 370q-63 0 -116 -47q-51 -47 -51 -121q0 -63 37 -99t103 -36q72 0 119 50q47 52 46 122q-1 57 -37.5 94t-100.5 37z" />
    <glyph glyph-name="afii10081" unicode="&#x43f;" horiz-adv-x="558" 
d="M447 0h-90l62 359h-231l-63 -359h-90l77 437h411z" />
    <glyph glyph-name="afii10082" unicode="&#x440;" horiz-adv-x="620" 
d="M202 436l-10 -64q72 75 171 75q97 0 156 -57t59 -140q0 -110 -75 -187q-73 -75 -187 -75q-115 0 -174 83l-52 -284h-90l112 649h90zM482 234q0 59 -38 97t-103 38q-73 0 -122 -49q-48 -50 -48 -118q0 -61 39.5 -98.5t110.5 -37.5q73 0 117 51q44 52 44 117z" />
    <glyph glyph-name="afii10083" unicode="&#x441;" horiz-adv-x="503" 
d="M264 -11q-107 0 -165 58q-57 59 -57 144q0 107 77 182t201 75q72 0 111 -23q19 -10 29 -18q8 -5 27 -21l-51 -66q-19 17 -31 24q-38 26 -95 26q-78 0 -125 -53t-47 -122q0 -58 38.5 -93t96.5 -35q74 0 144 52l43 -60q-80 -70 -196 -70z" />
    <glyph glyph-name="afii10084" unicode="&#x442;" horiz-adv-x="356" 
d="M178 0h-90l64 359h-132l14 78h354l-14 -78h-132z" />
    <glyph glyph-name="afii10085" unicode="&#x443;" horiz-adv-x="450" 
d="M251 208l132 229h99l-392 -649h-93l149 243l-122 406h95l65 -230q12 -40 19 -100q25 59 48 101z" />
    <glyph glyph-name="afii10086" unicode="&#x444;" horiz-adv-x="728" 
d="M293 67l55 303q-92 1 -151 -47q-57 -47 -59 -128q-1 -52 29 -85.5t87 -40.5q22 -2 39 -2zM435 370l-55 -303q92 -1 151 47q57 47 59 128q1 52 -29 85.5t-87 40.5q-22 2 -39 2zM366 -11l-37 -202h-87l37 202l-40 2q-96 5 -146 59t-51 130q0 111 75 183q77 73 201 83
q26 2 45 2l35 193h87l-35 -193l38 -2q97 -4 147 -59q50 -54 51 -130q0 -111 -76 -183q-76 -73 -200 -83q-26 -2 -44 -2z" />
    <glyph glyph-name="afii10087" unicode="&#x445;" horiz-adv-x="447" 
d="M308 0l-91 159l-141 -159h-102l194 221l-122 216h104l82 -148l131 148h110l-193 -210l134 -227h-106z" />
    <glyph glyph-name="afii10088" unicode="&#x446;" horiz-adv-x="581" 
d="M529 437l-67 -359h75l-39 -210h-90l24 132h-397l82 437h90l-67 -359h232l67 359h90z" />
    <glyph glyph-name="afii10089" unicode="&#x447;" horiz-adv-x="470" 
d="M315 254l30 183h90l-75 -437h-90l33 177q-77 -28 -140 -28q-58 0 -93 29.5t-35 83.5q0 44 28 175h86q-24 -119 -24 -147q0 -63 75 -63q62 0 115 27z" />
    <glyph glyph-name="afii10090" unicode="&#x448;" horiz-adv-x="780" 
d="M665 0h-630l79 437h90l-65 -359h180l65 359h90l-65 -359h180l65 359h90z" />
    <glyph glyph-name="afii10091" unicode="&#x449;" horiz-adv-x="800" 
d="M718 -132h-90l24 132h-617l78 437h90l-64 -359h180l64 359h90l-64 -359h180l64 359h90l-64 -359h77z" />
    <glyph glyph-name="afii10092" unicode="&#x44a;" horiz-adv-x="494" 
d="M22 437h219l-28 -156h117q68 0 106 -30.5t38 -80.5q0 -80 -56 -125t-150 -45h-196l65 359h-129zM200 207l-24 -133h104q42 0 70 20.5t28 57.5q0 55 -74 55h-104z" />
    <glyph glyph-name="afii10093" unicode="&#x44b;" horiz-adv-x="696" 
d="M115 437h89l-28 -156h120q67 0 104 -30.5t37 -80.5q0 -80 -56 -125t-150 -45h-196zM163 207l-24 -133h104q42 0 70 20.5t28 57.5q0 55 -74 55h-104zM587 0h-90l74 437h90z" />
    <glyph glyph-name="afii10094" unicode="&#x44c;" horiz-adv-x="457" 
d="M115 437h89l-28 -156h120q67 0 104 -30.5t37 -80.5q0 -80 -56 -125t-150 -45h-196zM163 207l-24 -133h104q42 0 70 20.5t28 57.5q0 55 -74 55h-104z" />
    <glyph glyph-name="afii10095" unicode="&#x44d;" horiz-adv-x="509" 
d="M367 190h-225l12 68h218q-7 51 -42.5 81t-93.5 30q-76 0 -134 -36l-34 64q80 50 182 50q100 0 158 -58q59 -57 59 -140q0 -118 -81 -190q-80 -71 -203 -71q-109 0 -169 60l48 59q49 -41 135 -41q64 0 110 34t60 90z" />
    <glyph glyph-name="afii10096" unicode="&#x44e;" horiz-adv-x="767" 
d="M241 189v8h-79l-37 -197h-90l81 437h90l-30 -162h79q27 79 98 126t164 47q98 0 153 -58q56 -57 54 -143q-2 -113 -81 -186q-79 -72 -196 -72q-95 0 -150 55q-56 56 -56 145zM497 370q-61 0 -110 -48q-50 -48 -50 -120q0 -64 34.5 -99.5t98.5 -35.5q70 0 114 51
q45 53 44 121q-1 59 -34.5 95t-96.5 36z" />
    <glyph glyph-name="afii10097" unicode="&#x44f;" horiz-adv-x="481" 
d="M273 437h173l-78 -437h-90l30 168h-55l-142 -168h-121l157 176q-35 10 -56 37.5t-21 62.5q0 68 49 114q50 47 154 47zM320 233l23 131h-84q-40 0 -66.5 -18t-26.5 -55q0 -58 77 -58h77z" />
    <glyph glyph-name="afii10071" unicode="&#x451;" horiz-adv-x="548" 
d="M416 117l50 -53q-78 -75 -217 -75q-99 0 -153 56q-53 57 -52 139q0 114 81 189t205 75q90 0 139.5 -47t49.5 -122q0 -37 -14 -77h-366q-1 -5 -1 -18q0 -51 35 -84t92 -33q89 0 151 50zM153 270h268q1 3 1 14q0 39 -28.5 62.5t-79.5 23.5q-53 0 -96 -27t-65 -73zM318 632
l-16 -96h-90l16 96h90zM486 632l-16 -96h-90l16 96h90z" />
    <glyph glyph-name="afii10099" unicode="&#x452;" horiz-adv-x="546" 
d="M488 321q-2 -59 -10 -113q-8 -58 -24 -135q-15 -77 -21 -114q-27 -172 -211 -172h-17l15 82h19q39 -2 66 18.5t33 55.5l15 76l19 104q8 48 15 95q8 56 8 81q0 33 -21.5 52t-59.5 19q-56 0 -97 -44q-40 -43 -51 -107l-38 -219h-90l92 538h-70l11 67h70l17 95h90l-17 -95
h205l-11 -67h-205l-28 -164q38 39 72.5 56.5t83.5 17.5q63 0 100.5 -35.5t39.5 -91.5z" />
    <glyph glyph-name="afii10100" unicode="&#x453;" horiz-adv-x="383" 
d="M115 437h302l-14 -78h-212l-57 -359h-90zM267 499h-68l108 167h145z" />
    <glyph glyph-name="afii10101" unicode="&#x454;" horiz-adv-x="496" 
d="M363 266l-14 -78h-213q-1 -54 36 -87.5t99 -33.5q79 0 142 45l39 -62q-79 -61 -199 -61q-94 0 -152 55t-59 137q0 107 75 187q77 80 205 80q93 0 166 -61l-53 -65q-60 48 -125 48q-52 0 -98 -29.5t-64 -74.5h215z" />
    <glyph glyph-name="afii10102" unicode="&#x455;" horiz-adv-x="394" 
d="M368 416l-44 -66q-46 20 -93 20q-27 0 -43.5 -11.5t-16.5 -32.5q0 -17 10 -28q11 -13 39 -29l34 -20q18 -12 42 -31q15 -11 28 -34.5t13 -48.5q0 -65 -52 -105t-128 -40q-91 0 -152 54l48 65q59 -41 111 -41q35 0 56 16t21 41q0 27 -31 48l-33 21l-29 18
q-38 26 -55.5 49.5t-17.5 57.5q0 58 47 93q48 36 119 36q74 0 127 -32z" />
    <glyph glyph-name="afii10103" unicode="&#x456;" horiz-adv-x="245" 
d="M125 0h-90l72 437h90zM231 632l-16 -96h-90l16 96h90z" />
    <glyph glyph-name="afii10104" unicode="&#x457;" horiz-adv-x="245" 
d="M124 0h-90l73 437h90zM165 632l-16 -96h-90l16 96h90zM307 632l-16 -96h-91l17 96h90z" />
    <glyph glyph-name="afii10105" unicode="&#x458;" horiz-adv-x="242" 
d="M31 -15l75 452h90l-79 -478q-13 -80 -59.5 -126t-121.5 -46h-10l15 82h6q64 0 84 116zM228 632l-16 -96h-90l16 96h90z" />
    <glyph glyph-name="afii10106" unicode="&#x459;" horiz-adv-x="740" 
d="M446 207l-24 -133h104q42 0 70 20.5t28 57.5q0 55 -74 55h-104zM127 293l27 144h333l-28 -156h120q67 0 104 -30.5t37 -80.5q0 -80 -56 -125t-150 -45h-196l65 359h-160l-14 -76q-20 -105 -46 -167q-50 -123 -165 -127h-26l15 81h12q56 0 85 71q26 61 43 152z" />
    <glyph glyph-name="afii10107" unicode="&#x45a;" horiz-adv-x="774" 
d="M548 0h-196l36 203h-225l-38 -203h-90l80 437h90l-29 -157h226l29 157h90l-28 -156h120q67 0 104 -30.5t37 -80.5q0 -80 -56 -125t-150 -45zM480 207l-24 -133h104q42 0 70 20.5t28 57.5q0 55 -74 55h-104z" />
    <glyph glyph-name="afii10108" unicode="&#x45b;" horiz-adv-x="546" 
d="M166 219l-38 -219h-90l92 538h-70l11 67h70l17 95h90l-17 -95h205l-11 -67h-205l-28 -164q38 39 72.5 56.5t83.5 17.5q63 0 100.5 -35.5t39.5 -91.5q0 -80 -50 -321h-90q47 241 47 299q0 33 -21.5 52t-59.5 19q-56 0 -97 -44q-40 -43 -51 -107z" />
    <glyph glyph-name="afii10109" unicode="&#x45c;" horiz-adv-x="465" 
d="M125 0h-90l80 437h90l-37 -195l225 195h114l-242 -204l174 -233h-104l-169 225zM320 499h-68l108 167h145z" />
    <glyph glyph-name="afii10110" unicode="&#x45e;" horiz-adv-x="450" 
d="M251 208l132 229h99l-392 -649h-93l149 243l-122 406h95l65 -230q12 -40 19 -100q25 59 48 101zM356 646h84q-28 -133 -181 -133q-59 0 -93.5 28t-35.5 76q0 14 3 29h81q-1 -3 -1 -15q1 -46 59 -46q72 0 84 61z" />
    <glyph glyph-name="afii10193" unicode="&#x45f;" horiz-adv-x="543" 
d="M198 437l-60 -359h220l60 359h90l-73 -437h-154l-21 -123h-84l21 123h-162l73 437h90z" />
    <glyph glyph-name="afii10146" unicode="&#x462;" horiz-adv-x="607" 
d="M452 494h-184l-14 -84h114q99 0 150 -42.5t51 -119.5q0 -107 -71 -178q-70 -70 -205 -70h-206l87 494h-144l15 83h144l14 89h95l-15 -89h184zM239 327l-42 -244h108q80 0 122 41t42 106q0 46 -30 71.5t-90 25.5h-110z" />
    <glyph glyph-name="afii10194" unicode="&#x463;" horiz-adv-x="456" 
d="M36 0l59 367h-70l12 67h70l43 266h90l-43 -266h205l-12 -67h-205l-12 -86h118q66 0 105.5 -29.5t39.5 -79.5q0 -78 -53 -125t-151 -47h-196zM158 207l-19 -133h104q44 0 70.5 21.5t26.5 60.5q0 51 -75 51h-107z" />
    <glyph glyph-name="afii10147" unicode="&#x472;" horiz-adv-x="820" 
d="M151 285q2 -93 63 -154q62 -62 165 -62q106 0 187 69q82 70 99 174q-85 -52 -134 -52q-54 0 -129 37q-78 38 -119 38q-27 0 -52 -9q-24 -7 -40 -16q-15 -8 -40 -25zM50 284q0 116 57 207q56 91 147.5 140t200.5 49q68 0 123.5 -20t90.5 -51.5t58.5 -73t33 -81.5t9.5 -79
q0 -158 -116 -274q-115 -115 -287 -115q-151 1 -234 90.5t-83 207.5zM156 363l46 27q51 28 102 28q43 0 117 -38q74 -37 120 -37q58 0 127 45q-2 38 -15 73t-38.5 66.5t-70 50.5t-103.5 19q-105 0 -183 -66t-102 -168z" />
    <glyph glyph-name="afii10195" unicode="&#x473;" horiz-adv-x="581" 
d="M444 252q-3 55 -40 86.5t-95 31.5t-104 -32.5t-63 -86.5q41 26 93 26q25 0 68 -22q43 -21 66 -21q41 0 75 18zM438 186q-40 -24 -85 -24q-21 0 -66 20q-42 21 -64 21q-52 0 -86 -22q4 -53 39.5 -83.5t92.5 -30.5q61 0 107 33t62 86zM42 185q0 112 80 187q80 76 198 76
q101 0 160 -56t59 -144q0 -111 -83 -185t-197 -74q-95 0 -156 54q-61 55 -61 142z" />
    <glyph glyph-name="afii10148" unicode="&#x474;" horiz-adv-x="586" 
d="M570 551l-334 -565l-218 680h103l142 -473l223 398q46 84 126 87q26 1 73 -10l-23 -77q-17 4 -35 4q-31 0 -57 -44z" />
    <glyph glyph-name="afii10196" unicode="&#x475;" horiz-adv-x="450" 
d="M244 208l92 168q42 73 116 73q37 0 70 -14l-27 -66q-20 6 -37 6q-26 0 -46 -33l-203 -342h-69l-116 437h94l59 -230q14 -59 15 -100q48 94 52 101z" />
    <glyph glyph-name="afii10050" unicode="&#x490;" horiz-adv-x="464" 
d="M512 756l-30 -173h-261l-98 -583h-93l110 666h272l16 90h84z" />
    <glyph glyph-name="afii10098" unicode="&#x491;" horiz-adv-x="402" 
d="M112 437h216l24 123h84l-38 -201h-211l-53 -359h-90z" />
    <glyph glyph-name="uni04AE" unicode="&#x4ae;" horiz-adv-x="498" 
d="M147 0l36 221l-166 445h98l124 -343l241 343h114l-315 -443l-37 -223h-95z" />
    <glyph glyph-name="uni04AF" unicode="&#x4af;" horiz-adv-x="441" 
d="M473 437l-248 -412l-51 -238h-90l50 238l-110 412h94l59 -230q14 -59 15 -100q5 9 26 52l24 49l132 229h99z" />
    <glyph glyph-name="uni04BA" unicode="&#x4ba;" horiz-adv-x="577" 
d="M175 289l-50 -289h-95l113 666h95l-49 -291q83 34 172 34q86 0 135 -38t49 -111q0 -22 -42 -260h-92l15 77q23 118 23 151q0 98 -113 98q-91 0 -161 -37z" />
    <glyph glyph-name="uni04BB" unicode="&#x4bb;" horiz-adv-x="542" 
d="M124 0h-90l119 700h90l-55 -326q38 39 72.5 56.5t83.5 17.5q63 0 100.5 -35.5t39.5 -91.5q0 -80 -50 -321h-90q47 241 47 299q0 33 -21.5 52t-59.5 19q-56 0 -97 -44q-40 -43 -51 -107z" />
    <glyph glyph-name="uni1E9E" unicode="&#x1e9e;" horiz-adv-x="563" 
d="M173 36l47 65q38 -32 87 -32q53 0 81.5 34.5t28.5 88.5q0 20 -7 38q-12 39 -36 70l-26 33q-2 3 -6.5 7.5t-11.5 13t-13 14.5l-29 33l131 184q-34 37 -93 37q-96 0 -119 -132l-83 -490h-94l83 487q36 213 224 213q56 0 104 -27t79 -72l-127 -175q32 -35 43 -49l35 -46
q42 -58 42 -123q0 -95 -61 -156t-153 -61q-73 0 -126 45z" />
    <glyph glyph-name="uni2010" unicode="&#x2010;" horiz-adv-x="461" 
d="M362 202h-294l13 83h294z" />
    <glyph glyph-name="uni2011" unicode="&#x2011;" horiz-adv-x="461" 
d="M362 202h-294l13 83h294z" />
    <glyph glyph-name="figuredash" unicode="&#x2012;" horiz-adv-x="551" 
d="M469 298h-385l12 83h385z" />
    <glyph glyph-name="endash" unicode="&#x2013;" horiz-adv-x="551" 
d="M453 202h-385l12 83h385z" />
    <glyph glyph-name="emdash" unicode="&#x2014;" horiz-adv-x="814" 
d="M715 202h-647l13 83h647z" />
    <glyph glyph-name="quoteleft" unicode="&#x2018;" horiz-adv-x="249" 
d="M159 428h-109l114 252h80z" />
    <glyph glyph-name="quoteright" unicode="&#x2019;" horiz-adv-x="249" 
d="M135 680h109l-114 -252h-80z" />
    <glyph glyph-name="quotesinglbase" unicode="&#x201a;" horiz-adv-x="259" 
d="M60 126h109l-114 -252h-80z" />
    <glyph glyph-name="quotedblleft" unicode="&#x201c;" horiz-adv-x="462" 
d="M159 428h-109l114 252h80zM372 428h-109l114 252h80z" />
    <glyph glyph-name="quotedblright" unicode="&#x201d;" horiz-adv-x="462" 
d="M135 680h109l-114 -252h-80zM349 680h109l-114 -252h-80z" />
    <glyph glyph-name="quotedblbase" unicode="&#x201e;" horiz-adv-x="472" 
d="M60 126h109l-114 -252h-80zM273 126h109l-114 -252h-80z" />
    <glyph glyph-name="dagger" unicode="&#x2020;" horiz-adv-x="482" 
d="M180 -213h-90l100 588h-168l12 83h170l35 208h90l-36 -208h167l-13 -83h-168z" />
    <glyph glyph-name="daggerdbl" unicode="&#x2021;" horiz-adv-x="539" 
d="M233 -213h-90l47 272h-168l15 83h168l39 233h-168l15 83h166l36 208h90l-36 -208h170l-15 -83h-168l-39 -233h168l-15 -83h-168z" />
    <glyph glyph-name="bullet" unicode="&#x2022;" horiz-adv-x="228" 
d="M59 350q0 28 22 50.5t52 22.5q24 0 38.5 -16t14.5 -39q0 -28 -22 -49.5t-52 -21.5q-24 0 -39 15t-14 38z" />
    <glyph glyph-name="ellipsis" unicode="&#x2026;" horiz-adv-x="898" 
d="M20 0l20 126h126l-20 -126h-126zM340 0l20 126h126l-20 -126h-126zM660 0l20 126h126l-20 -126h-126z" />
    <glyph glyph-name="perthousand" unicode="&#x2030;" horiz-adv-x="1220" 
d="M202 328q-61 0 -100 39q-38 41 -38 99q0 95 62 154q61 60 140 60q62 0 100 -39t38 -99q0 -95 -62 -155q-62 -59 -140 -59zM216 394q49 0 77 40q29 41 29 95q0 38 -17.5 61.5t-52.5 23.5q-47 0 -77 -41q-29 -41 -29 -94q0 -85 70 -85zM806 641l-681 -648l-52 58l676 647z
M578 -16q-61 0 -100 39q-38 41 -38 99q0 95 62 154q62 60 140 60q62 0 100 -39t38 -99q0 -95 -62 -155q-62 -59 -140 -59zM592 50q49 0 77 40q29 41 29 95q0 38 -17.5 61.5t-52.5 23.5q-47 0 -77 -41q-29 -41 -29 -94q0 -85 70 -85zM957 -16q-61 0 -100 39q-38 41 -38 99
q0 95 62 154q61 60 140 60q62 0 100 -39t38 -99q0 -95 -62 -155q-62 -59 -140 -59zM971 50q49 0 77 40q29 41 29 95q0 38 -17.5 61.5t-52.5 23.5q-47 0 -77 -41q-29 -41 -29 -94q0 -85 70 -85z" />
    <glyph glyph-name="guilsinglleft" unicode="&#x2039;" horiz-adv-x="318" 
d="M123 45l-98 173l155 174h98l-153 -174l95 -173h-97z" />
    <glyph glyph-name="guilsinglright" unicode="&#x203a;" horiz-adv-x="318" 
d="M153 392l98 -173l-155 -174h-98l153 174l-95 173h97z" />
    <glyph glyph-name="fraction" unicode="&#x2044;" horiz-adv-x="301" 
d="M544 641l-681 -648l-52 58l676 647z" />
    <glyph glyph-name="Euro" unicode="&#x20ac;" horiz-adv-x="593" 
d="M232 443h236l-31 -66h-232q-9 -33 -10 -69h219l-31 -66h-186q13 -80 64 -126.5t128 -46.5q24 0 64 8l2 -82q-49 -9 -90 -9q-119 0 -189 73t-81 183h-84l30 66h55q2 31 10 69h-75l31 66h66q48 107 147 172q100 65 209 65q46 0 93 -19l-44 -75q-33 11 -61 11
q-74 0 -141 -44t-99 -110z" />
    <glyph glyph-name="uni20B4" unicode="&#x20b4;" horiz-adv-x="528" 
d="M380 116l26 -69q-91 -61 -205 -61q-80 0 -121.5 33.5t-41.5 93.5q0 68 64 123h-84l12 74h140l70 60h-200l12 74h258q70 54 70 101q0 52 -73 52q-68 0 -134 -36l-26 71q83 48 175 48q74 0 116.5 -32t42.5 -86q0 -62 -57 -118h86l-12 -74h-146l-70 -60h206l-12 -74h-266
q-71 -54 -71 -110q0 -57 84 -57q71 0 157 47z" />
    <glyph glyph-name="uni20BD" unicode="&#x20bd;" horiz-adv-x="568" 
d="M125 280h-89l12 74h89l53 312h170q101 0 150 -41.5t49 -115.5q0 -104 -70 -167q-70 -62 -190 -62h-79l-10 -60h121l-12 -74h-121l-25 -146h-95l25 146h-88l11 74h89zM271 583l-39 -229h73q75 0 114 39.5t39 104.5q0 85 -118 85h-69z" />
    <glyph glyph-name="afii61352" unicode="&#x2116;" horiz-adv-x="1061" 
d="M664 176l14 76h318l-14 -76h-318zM537 -14l-339 491l-84 -477h-84l120 680l340 -485l83 471h84zM859 381q49 0 77 40q29 41 29 95q0 38 -17.5 61.5t-52.5 23.5q-47 0 -77 -41q-29 -41 -29 -94q0 -85 70 -85zM845 315q-61 0 -100 39q-38 41 -38 99q0 95 62 154
q61 60 140 60q62 0 100 -39t38 -99q0 -95 -62 -155q-62 -59 -140 -59z" />
    <glyph glyph-name="trademark" unicode="&#x2122;" horiz-adv-x="625" 
d="M173 437h-67l28 167h-69l10 62h206l-10 -62h-70zM521 541l-99 -111l-62 111l-54 -104h-62l118 235l77 -147l124 147l42 -235h-66z" />
    <glyph glyph-name="partialdiff" unicode="&#x2202;" horiz-adv-x="578" 
d="M444 362v26q0 104 -60.5 173.5t-172.5 87.5l24 68q299 -45 299 -323q0 -159 -74 -275q-37 -59 -98.5 -93t-138.5 -34q-89 0 -148 56t-59 141q0 103 74 183q75 79 188 79t166 -89zM428 258q-13 54 -49.5 84.5t-93.5 30.5q-70 0 -122 -52q-52 -51 -52 -118
q0 -62 34.5 -97.5t91.5 -35.5q66 -1 122 53q55 54 69 135z" />
    <glyph glyph-name="product" unicode="&#x220f;" horiz-adv-x="841" 
d="M694 584h-461l-131 -799h-96l145 882h653l-145 -882h-96z" />
    <glyph glyph-name="summation" unicode="&#x2211;" horiz-adv-x="560" 
d="M259 225l-220 442h566l-15 -83h-396l175 -359l-306 -355h408l-13 -83h-578z" />
    <glyph glyph-name="minus" unicode="&#x2212;" horiz-adv-x="619" 
d="M562 308h-506l13 83h506z" />
    <glyph glyph-name="uni2215" unicode="&#x2215;" horiz-adv-x="703" 
d="M703 623l-644 -835l-59 42l640 834z" />
    <glyph glyph-name="radical" unicode="&#x221a;" horiz-adv-x="655" 
d="M199 462l69 -358l243 607h252l-14 -83h-182l-267 -668h-81l-92 419h-97l13 83h156z" />
    <glyph glyph-name="infinity" unicode="&#x221e;" horiz-adv-x="679" 
d="M342 346q32 29 53 45q50 40 119 40q57 0 86 -30.5t29 -78.5q0 -68 -48 -114q-49 -47 -120 -47q-52 2 -82 21.5t-65 65.5l-54 -47q-54 -40 -113 -40q-60 0 -91 31t-31 81q0 65 51 111q52 47 123 47q85 0 143 -85zM268 304q-9 13 -18 22q-8 10 -26 18.5t-37 8.5
q-30 0 -52 -20t-22 -47q0 -21 13.5 -34t36.5 -13q40 0 105 65zM405 307l-17 -17q35 -51 83 -51q30 0 50 20t20 48q0 21 -13.5 33.5t-36.5 12.5q-32 0 -57 -22l-20 -16z" />
    <glyph glyph-name="integral" unicode="&#x222b;" horiz-adv-x="323" 
d="M419 682l-27 -77q-42 13 -80 13q-44 0 -65.5 -30t-30.5 -96l-74 -492q-32 -213 -177 -213q-51 0 -93 15l27 76q32 -8 57 -8q43 0 64.5 29.5t30.5 95.5l74 492q12 82 45 142q43 72 134 72q59 0 115 -19z" />
    <glyph glyph-name="approxequal" unicode="&#x2248;" horiz-adv-x="643" 
d="M450 433q41 0 100 44l43 -63q-74 -67 -146 -67q-47 -2 -136 38.5t-108 38.5q-23 0 -46 -9q-24 -9 -68 -39l-39 60q79 74 158 74q36 0 121 -39q87 -38 121 -38zM450 267q41 0 100 44l43 -63q-74 -67 -146 -67q-47 -2 -136 38.5t-108 38.5q-23 0 -46 -9q-24 -9 -68 -39
l-39 60q79 74 158 74q36 0 121 -39q87 -38 121 -38z" />
    <glyph glyph-name="notequal" unicode="&#x2260;" horiz-adv-x="658" 
d="M312 405h-227l14 83h280l126 157l67 -42l-93 -115h129l-14 -83h-183l-90 -111h252l-14 -83h-305l-127 -156l-65 42l92 114h-104l14 83h157z" />
    <glyph glyph-name="lessequal" unicode="&#x2264;" horiz-adv-x="642" 
d="M525 162l-463 232l542 234l-17 -93l-336 -147l288 -147zM513 65l-15 -80l-470 237l16 85z" />
    <glyph glyph-name="greaterequal" unicode="&#x2265;" horiz-adv-x="640" 
d="M145 628l465 -234l-545 -236l18 93l334 148l-288 145zM596 310l-15 -95l-548 -236l17 93z" />
    <glyph glyph-name="lozenge" unicode="&#x25ca;" horiz-adv-x="414" 
d="M260 478l99 -241l-183 -237h-56l-95 239l179 239h56zM167 114l94 125l-49 121l-92 -124z" />
    <glyph glyph-name="uniF400" unicode="&#xf400;" horiz-adv-x="0" 
d="M-245 499h-68l108 167h145z" />
    <glyph glyph-name="uniF401" unicode="&#xf401;" horiz-adv-x="0" 
d="M-318 723h-65l91 139h142z" />
    <glyph glyph-name="uniF406" unicode="&#xf406;" horiz-adv-x="400" 
d="M322 868l52 -49q-33 -45 -82 -70.5t-106 -25.5q-56 0 -96 27.5t-55 72.5l65 43q32 -60 101 -60q62 0 121 62z" />
    <glyph glyph-name="uniF407" unicode="&#xf407;" horiz-adv-x="282" 
d="M116 0h80l-9 -37q28 -5 44 -20.5t16 -38.5q0 -54 -50 -83q-49 -30 -113 -30q-24 0 -49 6l19 68q15 -4 32 -4q23 0 39 7.5t16 20.5q0 18 -46 18z" />
    <glyph glyph-name="uniF408" unicode="&#xf408;" horiz-adv-x="357" 
d="M251 723l-59 86l-95 -86h-77l139 160h82l74 -160h-64z" />
    <glyph glyph-name="uniF409" unicode="&#xf409;" horiz-adv-x="210" 
d="M66 -50h109l-74 -167h-66z" />
    <glyph glyph-name="uniF40A" unicode="&#xf40a;" horiz-adv-x="302" 
d="M152 666h115l-136 -252h-66z" />
    <glyph glyph-name="uniF40B" unicode="&#xf40b;" horiz-adv-x="188" 
d="M153 845l-17 -101h-101l17 101h101z" />
    <glyph glyph-name="uniF40C" unicode="&#xf40c;" horiz-adv-x="269" 
d="M35 798q0 47 31.5 80t78.5 33q41 0 65 -25t24 -64q0 -44 -33 -77q-34 -32 -80 -32q-38 0 -62 24t-24 61zM101 807q0 -13 8 -20.5t21 -7.5q15 0 26.5 11t11.5 25q0 30 -30 30q-14 0 -25.5 -11.5t-11.5 -26.5z" />
    <glyph glyph-name="uniF40D" unicode="&#xf40d;" horiz-adv-x="433" 
d="M101 710l-66 25q15 44 49 73.5t77 29.5q29 0 63 -18q36 -18 54 -18q31 0 54 35l66 -26q-15 -41 -45.5 -66.5t-71.5 -25.5q-29 0 -68 18t-54 18q-35 0 -58 -45z" />
    <glyph glyph-name="uniF40E" unicode="&#xf40e;" horiz-adv-x="286" 
d="M232 -120l14 -79q-42 -14 -93 -14q-55 0 -86.5 21.5t-31.5 64.5q0 39 33 81q12 14 39 33l38 24l43 24l32 18l31 -53l-29 -17q-64 -35 -77 -54q-8 -14 -8 -25q0 -34 45 -34q29 0 50 10z" />
    <glyph glyph-name="zero.tab" unicode="&#xf4e0;" 
d="M47 333q24 120 63 205q34 70 86.5 105t134.5 37q85 0 127 -47.5t42 -131.5q0 -72 -17 -168q-33 -176 -100.5 -261.5t-187.5 -85.5q-82 0 -123.5 47t-41.5 133q0 79 17 167zM146 350l-3 -17q-17 -82 -17 -162q0 -107 86 -107q65 0 105 54q18 24 31 61q20 53 39 154
q17 97 17 156q0 113 -88 113q-83 0 -120 -81q-25 -57 -50 -171z" />
    <glyph glyph-name="one.tab" unicode="&#xf4e1;" 
d="M265 526l-108 -87l17 100l150 127h55l-114 -666h-90z" />
    <glyph glyph-name="two.tab" unicode="&#xf4e2;" 
d="M139 78h258l-52 -78h-393l232 230l45 46q34 34 48 50q3 4 15.5 18.5l21.5 25.5q27 32 36 51q28 58 28 98q0 36 -24 59t-66 23q-63 0 -140 -45l-25 64q92 59 186 59q78 0 121.5 -37t43.5 -106q0 -70 -46.5 -143t-136.5 -163z" />
    <glyph glyph-name="three.tab" unicode="&#xf4e3;" 
d="M132 565l-19 68q92 46 188 46q78 0 121 -35t43 -98q0 -54 -39 -100q-39 -47 -100 -69v-4q117 -30 117 -143q0 -107 -86 -176q-86 -68 -214 -68q-72 0 -145 29l16 83q65 -34 141 -34q85 0 138.5 43t53.5 117q0 50 -38.5 79t-112.5 28h-33l16 78h28q73 0 117.5 30t44.5 82
q0 80 -102 80q-53 0 -135 -36z" />
    <glyph glyph-name="four.tab" unicode="&#xf4e4;" 
d="M385 187h73l-35 -78h-51l-20 -109h-90l20 109h-297l7 53l420 504h55zM102 187h193l52 288z" />
    <glyph glyph-name="five.tab" unicode="&#xf4e5;" 
d="M494 588h-208l-70 -145q114 0 176.5 -49t62.5 -140q0 -110 -84 -190q-84 -78 -214 -78q-93 0 -162 33l14 82q67 -37 148 -37q84 0 143 47q59 48 59 127q0 131 -176 131h-85l146 297h286z" />
    <glyph glyph-name="six.tab" unicode="&#xf4e6;" 
d="M206 485l172 181h115l-280 -289l2 -3q42 19 84 19q77 0 127 -47q49 -46 49 -117q0 -101 -75 -172q-74 -71 -179 -71q-83 0 -136 49q-53 50 -53 131q0 139 174 319zM128 163q0 -44 27.5 -71.5t77.5 -27.5q59 0 102 43q44 44 44 108q0 44 -26 72t-75 28q-58 0 -105 -44
q-45 -43 -45 -108z" />
    <glyph glyph-name="seven.tab" unicode="&#xf4e7;" 
d="M419 588h-299l52 78h400l-426 -666h-98z" />
    <glyph glyph-name="eight.tab" unicode="&#xf4e8;" 
d="M187 358v3q-35 15 -54.5 47t-18.5 73q0 82 64 140q65 59 157 59q78 0 121 -43q44 -44 43 -102q-1 -60 -36 -106t-93 -68v-3q100 -33 100 -134q0 -93 -73 -166q-73 -72 -184 -72q-84 0 -137 47q-53 48 -51 125q2 69 47 125q46 57 115 75zM224 62q66 0 108 47q42 48 42 112
q0 46 -26.5 72.5t-74.5 26.5q-62 0 -107 -46t-45 -110q0 -47 28.5 -74.5t74.5 -27.5zM288 394q46 0 80 36q35 37 35 87q0 40 -19.5 63.5t-56.5 23.5q-49 0 -84 -39q-33 -37 -33 -91q0 -36 21 -58t57 -22z" />
    <glyph glyph-name="nine.tab" unicode="&#xf4e9;" 
d="M336 182l-156 -182h-115l260 287l-3 3q-37 -20 -83 -20q-79 0 -127 48t-48 121q0 93 72 167t178 74q86 0 141 -50q54 -49 52 -125q0 -143 -171 -323zM411 498q0 46 -27.5 75t-78.5 29q-59 0 -102 -45q-43 -43 -43 -106q1 -45 29.5 -74t73.5 -29q60 0 104 44t44 106z" />
    <glyph glyph-name="dollar.tab" unicode="&#xf4ec;" 
d="M287 -5l-16 -109h-84l15 100q-46 0 -94.5 15.5t-78.5 38.5l48 73q62 -44 143 -44q60 0 97.5 31t37.5 78q-3 29 -10 45t-28 34q-12 12 -24 22q-16 13 -33 25l-34 27q-24 19 -47 40q-20 20 -36 52t-16 64q0 70 49.5 122t130.5 67l11 77h84l-11 -75q58 -7 107 -37l-49 -71
q-67 27 -108 27q-50 0 -82 -27.5t-32 -68.5q0 -32 22 -58q23 -28 68 -61q50 -37 59 -45q77 -68 77 -146q0 -70 -45 -122t-121 -74z" />
    <glyph glyph-name="Euro.tab" unicode="&#xf4ed;" 
d="M220 443h236l-31 -66h-232q-9 -33 -10 -69h219l-31 -66h-186q13 -80 64 -126.5t128 -46.5q24 0 64 8l2 -82q-49 -9 -90 -9q-119 0 -189 73t-81 183h-84l30 66h55q2 31 10 69h-75l31 66h66q48 107 147 172q100 65 209 65q46 0 93 -19l-44 -75q-33 11 -61 11
q-74 0 -141 -44t-99 -110z" />
    <glyph glyph-name="cent.tab" unicode="&#xf4ee;" 
d="M284 -10l-19 -108h-78l19 112q-76 15 -119 68t-43 126q0 96 63 169q64 73 172 88l19 109h78l-19 -108q76 -8 130 -62l-57 -57q-47 43 -117 43q-76 0 -125 -52q-50 -52 -50 -125q0 -57 39 -91.5t102 -34.5q68 0 121 38l40 -62q-65 -49 -156 -53z" />
    <glyph glyph-name="sterling.tab" unicode="&#xf4ef;" 
d="M521 634l-46 -69q-46 32 -102 32q-69 0 -106.5 -40t-37.5 -112q0 -49 10 -95h152l-12 -74h-131v-19q0 -41 -20 -84.5t-54 -74.5l1 -5q21 8 47 8q19 0 52 -16t52 -16q42 0 89 40l39 -57q-74 -66 -143 -66q-29 0 -68 16t-63 16q-59 0 -106 -32l-37 93q67 44 93 79
q27 36 27 91q0 12 -3 27h-97l12 74h70q-11 52 -11 76q0 112 66 183t191 71q36 0 74.5 -13t61.5 -33z" />
    <glyph glyph-name="yen.tab" unicode="&#xf4fa;" 
d="M213 255h-171l12 74h138l-127 337h106l107 -306l215 306h98l-239 -337h140l-12 -74h-172l-11 -60h172l-13 -74h-172l-21 -121h-95l21 121h-171l13 74h171z" />
    <glyph glyph-name="florin.tab" unicode="&#xf4fb;" 
d="M364 359h-54l-60 -359q-32 -213 -180 -213h-41l13 76h20q43 0 65.5 33t32.5 100l60 363h-51l12 78h51l10 50q32 213 180 213h41l-13 -76h-20q-43 0 -65.5 -33t-32.5 -100l-10 -54h54z" />
    <glyph glyph-name="uni20B4.tab" unicode="&#xf4fc;" 
d="M384 116l26 -69q-91 -61 -205 -61q-80 0 -121.5 33.5t-41.5 93.5q0 68 64 123h-84l12 74h140l70 60h-200l12 74h258q70 54 70 101q0 52 -73 52q-68 0 -134 -36l-26 71q83 48 175 48q74 0 116.5 -32t42.5 -86q0 -62 -57 -118h86l-12 -74h-146l-70 -60h206l-12 -74h-266
q-71 -54 -71 -110q0 -57 84 -57q71 0 157 47z" />
    <glyph glyph-name="uni20BD.tab" unicode="&#xf4fd;" 
d="M110 280h-89l12 74h89l53 312h170q101 0 150 -41.5t49 -115.5q0 -104 -70 -167q-70 -62 -190 -62h-79l-10 -60h121l-12 -74h-121l-25 -146h-95l25 146h-88l11 74h89zM256 583l-39 -229h73q75 0 114 39.5t39 104.5q0 85 -118 85h-69z" />
    <glyph glyph-name="currency.tab" unicode="&#xf4fe;" 
d="M0 57l-53 64l103 89q-24 46 -22 96q0 98 67 168l-73 86l63 54l73 -88q64 43 147 43q76 0 123 -37l106 89l53 -64l-105 -89q22 -37 22 -90q0 -99 -67 -173l70 -89l-63 -54l-71 90q-76 -43 -146 -43q-82 0 -123 37zM289 473q-69 0 -117 -48q-48 -47 -48 -110
q0 -49 33 -79.5t86 -30.5q69 0 118 47q48 48 47 111q-1 48 -32.5 79t-86.5 31z" />
    <glyph glyph-name="uniF643" unicode="&#xf643;" 
d="M18 187q2 108 85 184q85 77 200 77q97 0 152 -58q56 -58 56 -141q0 -102 -83 -182q-82 -78 -202 -78q-93 0 -151 55q-59 56 -57 143zM114 197q-1 -57 34 -93.5t91 -36.5q76 0 126 50t50 121q0 58 -33.5 95t-91.5 37q-77 0 -126 -52q-50 -52 -50 -121z" />
    <glyph glyph-name="uniF644" unicode="&#xf644;" 
d="M255 300l-98 -78l16 96l139 119h58l-75 -437h-91z" />
    <glyph glyph-name="uniF645" unicode="&#xf645;" 
d="M281 78h160l-46 -78h-328l77 57l83 62q28 21 66 56q70 64 70 121q0 35 -23 54.5t-66 19.5q-62 0 -118 -47l-30 72q80 53 166 53q77 0 122 -36.5t45 -94.5q0 -65 -45.5 -122.5t-132.5 -116.5z" />
    <glyph glyph-name="uniF646" unicode="&#xf646;" 
d="M173 330l-23 71q84 45 179 45q74 0 115.5 -33.5t41.5 -90.5t-37 -103q-39 -48 -96 -64v-4q115 -25 115 -136q0 -99 -84 -164q-83 -65 -205 -65q-71 0 -138 27l15 79q55 -28 130 -28q82 0 133 39t51 104q0 105 -141 104h-31l15 75h27q68 0 108 29t40 80q0 35 -23 54
t-64 19q-64 0 -128 -38z" />
    <glyph glyph-name="uniF647" unicode="&#xf647;" 
d="M407 78h76l-35 -78h-54l-36 -213h-90l36 213h-260l8 48l361 399h57zM169 78h148l34 196z" />
    <glyph glyph-name="uniF648" unicode="&#xf648;" 
d="M481 359h-197l-67 -136q111 0 172.5 -49.5t62.5 -136.5q1 -102 -83 -176q-82 -73 -215 -73q-78 0 -145 33l13 81q66 -36 146 -36q81 0 133 43q53 44 53 114q0 62 -44.5 94.5t-123.5 32.5h-83l138 287h276z" />
    <glyph glyph-name="uniF649" unicode="&#xf649;" 
d="M207 485l172 181h115l-280 -289l2 -3q42 19 84 19q77 0 127 -47q49 -46 49 -117q0 -101 -75 -172q-74 -71 -179 -71q-83 0 -136 49q-53 50 -53 131q0 139 174 319zM129 163q0 -44 27.5 -71.5t77.5 -27.5q59 0 102 43q44 44 44 108q0 44 -26 72t-75 28q-58 0 -105 -44
q-45 -43 -45 -108z" />
    <glyph glyph-name="uniF64A" unicode="&#xf64a;" 
d="M367 358h-298l51 78h400l-415 -649h-98z" />
    <glyph glyph-name="uniF64B" unicode="&#xf64b;" 
d="M189 358v3q-35 15 -54.5 47t-18.5 73q0 81 67 139q68 60 154 60q78 0 121 -43q44 -44 43 -102q-1 -60 -36 -106t-93 -68v-3q100 -33 100 -140q0 -91 -73 -161q-74 -71 -184 -71q-85 0 -137 49t-51 123q2 69 47 125q46 57 115 75zM226 62q65 0 107 46q43 46 43 106
q0 50 -26 78t-75 28q-62 0 -107 -46t-45 -110q0 -46 27 -74t76 -28zM290 394q46 0 80 36q35 37 35 87q0 40 -19.5 63.5t-56.5 23.5q-45 0 -81 -38t-36 -92q0 -36 21 -58t57 -22z" />
    <glyph glyph-name="uniF64C" unicode="&#xf64c;" 
d="M314 -41l-159 -172h-115l263 277l-3 3q-37 -20 -83 -20q-77 0 -126 46t-49 122q0 89 72 160q72 72 178 72q88 0 141 -48q54 -46 52 -122q0 -78 -43.5 -153.5t-127.5 -164.5zM387 270q0 46 -26 72.5t-78 26.5q-59 0 -101 -42t-42 -104q1 -44 28 -71t73 -27q62 0 104 42
t42 103z" />
    <glyph glyph-name="uniF6BA" unicode="&#xf6ba;" horiz-adv-x="461" 
d="M378 298h-294l13 83h294z" />
    <glyph glyph-name="uniF6BB" unicode="&#xf6bb;" horiz-adv-x="551" 
d="M469 298h-385l12 83h385z" />
    <glyph glyph-name="uniF6BC" unicode="&#xf6bc;" horiz-adv-x="814" 
d="M731 298h-647l13 83h647z" />
    <glyph glyph-name="uniF6C3" unicode="&#xf6c3;" horiz-adv-x="350" 
d="M117 -50h106l-74 -167h-63z" />
    <glyph glyph-name="uniF6C9" unicode="&#xf6c9;" horiz-adv-x="323" 
d="M130 723h-65l91 139h142z" />
    <glyph glyph-name="uniF6CA" unicode="&#xf6ca;" horiz-adv-x="357" 
d="M106 883l59 -86l95 86h77l-139 -160h-82l-74 160h64z" />
    <glyph glyph-name="uniF6CB" unicode="&#xf6cb;" horiz-adv-x="377" 
d="M153 845l-17 -101h-101l17 101h101zM342 845l-17 -101h-101l17 101h101z" />
    <glyph glyph-name="uniF6CC" unicode="&#xf6cc;" horiz-adv-x="460" 
d="M230 773h-65l110 139h142zM153 818l-17 -101h-101l17 101h101zM425 818l-17 -101h-101l17 101h101z" />
    <glyph glyph-name="uniF6CE" unicode="&#xf6ce;" horiz-adv-x="304" 
d="M168 862l71 -139h-64l-150 139h143z" />
    <glyph glyph-name="uniF6CF" unicode="&#xf6cf;" horiz-adv-x="478" 
d="M125 723h-60l91 139h137zM285 723h-60l91 139h137z" />
    <glyph glyph-name="uniF6D0" unicode="&#xf6d0;" horiz-adv-x="389" 
d="M340 739h-305l14 83h305z" />
    <glyph glyph-name="uniF6D1" unicode="&#xf6d1;" horiz-adv-x="421" 
d="M291 853h96q-11 -61 -64 -96.5t-133 -35.5q-74 0 -114 28.5t-39 79.5q0 12 3 24h90q-1 -3 -1 -11q0 -38 63 -38q92 0 99 49z" />
    <glyph glyph-name="uniF6D4" unicode="&#xf6d4;" horiz-adv-x="380" 
d="M261 646h84q-28 -133 -181 -133q-59 0 -93.5 28t-35.5 76q0 14 3 29h81q-1 -3 -1 -15q1 -46 59 -46q72 0 84 61z" />
    <glyph glyph-name="uniF6D7" unicode="&#xf6d7;" horiz-adv-x="364" 
d="M152 632l-16 -96h-90l16 96h90zM320 632l-16 -96h-90l16 96h90zM228 664h-68l108 167h145z" />
    <glyph glyph-name="uniF730" unicode="&#xf730;" horiz-adv-x="578" 
d="M44 187q2 108 85 184q85 77 200 77q97 0 152 -58q56 -58 56 -141q0 -102 -83 -182q-82 -78 -202 -78q-93 0 -151 55q-59 56 -57 143zM140 197q-1 -57 34 -93.5t91 -36.5q76 0 126 50t50 121q0 58 -33.5 95t-91.5 37q-77 0 -126 -52q-50 -52 -50 -121z" />
    <glyph glyph-name="uniF731" unicode="&#xf731;" horiz-adv-x="303" 
d="M143 300l-98 -78l16 96l139 119h58l-75 -437h-91z" />
    <glyph glyph-name="uniF732" unicode="&#xf732;" horiz-adv-x="398" 
d="M186 78h160l-46 -78h-328l77 57l83 62q28 21 66 56q70 64 70 121q0 35 -23 54.5t-66 19.5q-62 0 -118 -47l-30 72q80 53 166 53q77 0 122 -36.5t45 -94.5q0 -65 -45.5 -122.5t-132.5 -116.5z" />
    <glyph glyph-name="uniF733" unicode="&#xf733;" horiz-adv-x="407" 
d="M60 330l-23 71q84 45 179 45q74 0 115.5 -33.5t41.5 -90.5t-37 -103q-39 -48 -96 -64v-4q115 -25 115 -136q0 -99 -84 -164q-83 -65 -205 -65q-70 0 -138 27l15 79q55 -28 130 -28q82 0 133 39t51 104q0 105 -141 104h-31l15 75h27q68 0 108 29t40 80q0 35 -23 54t-64 19
q-64 0 -128 -38z" />
    <glyph glyph-name="uniF734" unicode="&#xf734;" horiz-adv-x="432" 
d="M321 78h76l-35 -78h-54l-36 -213h-90l36 213h-260l8 48l361 399h57zM83 78h148l34 196z" />
    <glyph glyph-name="uniF735" unicode="&#xf735;" horiz-adv-x="430" 
d="M414 359h-197l-67 -136q111 0 172.5 -49.5t62.5 -136.5q1 -102 -83 -176q-82 -73 -215 -73q-78 0 -145 33l13 81q66 -36 146 -36q81 0 133 43q53 44 53 114q0 62 -44.5 94.5t-123.5 32.5h-83l138 287h276z" />
    <glyph glyph-name="uniF736" unicode="&#xf736;" horiz-adv-x="524" 
d="M217 485l172 181h115l-280 -289l2 -3q42 19 84 19q77 0 127 -47q49 -46 49 -117q0 -101 -75 -172q-74 -71 -179 -71q-83 0 -136 49q-53 50 -53 131q0 139 174 319zM139 163q0 -44 27.5 -71.5t77.5 -27.5q59 0 102 43q44 44 44 108q0 44 -26 72t-75 28q-58 0 -105 -44
q-45 -43 -45 -108z" />
    <glyph glyph-name="uniF737" unicode="&#xf737;" horiz-adv-x="408" 
d="M305 358h-298l51 78h400l-415 -649h-98z" />
    <glyph glyph-name="uniF738" unicode="&#xf738;" 
d="M206 358v3q-35 15 -54.5 47t-18.5 73q0 81 67 139q68 60 154 60q78 0 121 -43q44 -44 43 -102q-1 -60 -36 -106t-93 -68v-3q100 -33 100 -140q0 -91 -73 -161q-74 -71 -184 -71q-85 0 -137 49q-53 49 -51 123q2 69 47 125q46 57 115 75zM243 62q65 0 107 46q43 46 43 106
q0 50 -26 78t-75 28q-62 0 -107 -46t-45 -110q0 -46 27 -74t76 -28zM307 394q45 0 80 36q35 37 35 87q0 40 -19.5 63.5t-56.5 23.5q-45 0 -81 -38t-36 -92q0 -36 21 -58t57 -22z" />
    <glyph glyph-name="uniF739" unicode="&#xf739;" horiz-adv-x="511" 
d="M319 -41l-159 -172h-115l263 277l-3 3q-37 -20 -83 -20q-77 0 -126 46t-49 122q0 89 72 160q72 72 178 72q89 0 141 -48q54 -46 52 -122q0 -78 -43.5 -153.5t-127.5 -164.5zM392 270q0 46 -26 72.5t-78 26.5q-59 0 -101 -42t-42 -104q1 -44 28 -71t73 -27q62 0 104 42
t42 103z" />
    <glyph glyph-name="uniFEFF" unicode="&#xfeff;" horiz-adv-x="0" 
 />
    <glyph glyph-name="NULL" horiz-adv-x="0" 
 />
    <glyph glyph-name="CR" horiz-adv-x="333" 
 />
    <glyph glyph-name="afii10021.ss01" horiz-adv-x="701" 
d="M-53 83h73l380 597l192 -597h87l-39 -226h-95l26 143h-543l-26 -143h-94zM369 481l-247 -398h370z" />
    <glyph glyph-name="afii10069.ss01" horiz-adv-x="523" 
d="M132 78h202l-75 194zM281 452l151 -374h83l-40 -210h-90l26 132h-367l-25 -132h-88l36 210h69z" />
    <glyph glyph-name="afii10024.ss01" horiz-adv-x="910" 
d="M379 382h44l50 284h95l-50 -284h45q68 0 111 82l45 85q65 125 167 125h38l-15 -83h-18q-27 0 -47.5 -20.5t-51.5 -75.5l-41 -75q-36 -64 -95 -72v-4q37 -11 58.5 -38.5t25.5 -64.5l9 -91q5 -46 20.5 -65.5t49.5 -19.5h15l-14 -73q-22 -6 -58 -6q-48 0 -72 31t-34 106
l-7 59q-6 61 -27 89t-69 28h-49l-52 -299h-95l52 299h-49q-48 0 -79.5 -28.5t-60.5 -88.5l-27 -59q-33 -74 -68.5 -105.5t-83.5 -31.5q-37 0 -55 6l14 77h11q30 0 51 19.5t42 65.5l39 87q36 83 132 103v4q-60 14 -70 78l-13 73q-9 52 -24 74t-43 22h-23l15 79h38
q53 0 80 -29.5t39 -95.5l14 -80q7 -41 31 -64t60 -23z" />
    <glyph glyph-name="afii10072.ss01" horiz-adv-x="742" 
d="M448 185h-33l-32 -185h-90l32 185h-28q-36 0 -59 -20q-6 -5 -20 -23q-1 -1 -6 -7.5t-10 -14t-6 -8.5l-34 -46q-29 -40 -53 -58t-53 -18q-27 0 -51 6l12 70h18q19 0 32 11l11 11l27 39l26 37q35 50 73 59q-34 11 -41 58l-6 39q-9 54 -46 54h-22l14 73h34q42 0 69 -23
t33 -66l5 -35q9 -60 60 -60h34l30 174h90l-30 -174h33q51 0 82 67l15 33q38 84 118 84h46l-14 -78h-13q-41 0 -71 -63l-13 -28q-23 -48 -65 -55q39 -9 50 -59l6 -26q17 -68 57 -68h22l-13 -74q-26 -6 -44 -6q-73 0 -94 87l-7 29q-10 43 -23 59.5t-52 19.5z" />
    <glyph glyph-name="afii10028.ss01" horiz-adv-x="621" 
d="M368 123l-6 59q-7 61 -28.5 89t-69.5 28h-89l-50 -299h-95l114 666h95l-49 -284h81q71 0 114 82l45 85q65 125 167 125h38l-14 -83h-16q-28 0 -49.5 -21t-50.5 -75l-41 -75q-35 -63 -97 -72v-3q77 -24 85 -104l9 -87q4 -45 19.5 -65t50.5 -20h14l-13 -77q-23 -6 -58 -6
q-48 0 -72 31t-34 106z" />
    <glyph glyph-name="afii10076.ss01" horiz-adv-x="503" 
d="M198 437l-30 -174h54q51 0 82 67l15 33q37 84 118 84h46l-12 -78h-15q-41 0 -71 -63l-13 -28q-23 -48 -65 -55q39 -9 50 -59l6 -26q17 -68 58 -68h22l-13 -74q-26 -6 -52 -6q-66 0 -87 87l-7 29q-10 43 -23 59.5t-52 19.5h-53l-31 -185h-90l73 437h90z" />
    <glyph glyph-name="afii10029.ss01" horiz-adv-x="588" 
d="M563 0h-97l-149 479l-298 -479h-106l435 680z" />
    <glyph glyph-name="afii10077.ss01" horiz-adv-x="419" 
d="M308 0l-87 261l-172 -261h-95l297 452l150 -452h-93z" />
    <glyph glyph-name="afii10058.ss01" horiz-adv-x="871" 
d="M565 0h-99l-149 479l-298 -479h-106l435 680l85 -270h208q98 0 150 -43t52 -119q0 -48 -16 -91t-47.5 -79t-87 -57t-127.5 -21zM459 327l78 -244h41q77 0 120.5 38.5t43.5 104.5q0 101 -120 101h-163z" />
    <glyph glyph-name="afii10106.ss01" horiz-adv-x="655" 
d="M456 207h-123l43 -133h65q42 0 70 20.5t28 57.5q0 55 -83 55zM429 0h-121l-87 261l-172 -261h-95l297 452l57 -171h179q70 0 109 -29t39 -82q0 -80 -56 -125t-150 -45z" />
    </font>
</defs>
</svg>
