<?xml version="1.0" standalone="no"?>
<!DOCTYPE svg PUBLIC "-//W3C//DTD SVG 1.1//EN" "http://www.w3.org/Graphics/SVG/1.1/DTD/svg11.dtd" >
<svg>
<metadata>
Created by FontForge 20090622 at Mon Apr  8 18:53:48 2019
 By deploy user
Copyright &#194;&#169; 1991 ParaGraph Intl, &#194;&#169; 1998 ParaType Inc., ParaType Ltd. All rights reserved.
</metadata>
<defs>
<font id="JournalSansNew" horiz-adv-x="526" >
  <font-face 
    font-family="Journal Sans New"
    font-weight="400"
    font-stretch="normal"
    units-per-em="1000"
    panose-1="2 11 6 2 2 2 3 2 3 3"
    ascent="764"
    descent="-236"
    x-height="437"
    cap-height="666"
    bbox="-400 -233 1214 912"
    underline-thickness="50"
    underline-position="-50"
    unicode-range="U+0020-U+FEFF"
  />
<missing-glyph horiz-adv-x="233" 
 />
    <glyph glyph-name="afii10017.var.accented" unicode="&#x410;`" horiz-adv-x="671" 
d="M474 179h-277l-86 -179h-103l327 680l328 -680h-103zM334 481l-105 -219h212zM368 723h-65l87 139h142z" />
    <glyph glyph-name="afii10022.var.accented" unicode="&#x415;`" horiz-adv-x="571" 
d="M199 383h283v-83h-283v-217h314v-83h-409v666h406v-83h-311v-200zM301 723h-65l87 139h142z" />
    <glyph glyph-name="afii10026.var.accented" unicode="&#x418;`" horiz-adv-x="770" 
d="M571 0v461l-467 -475v680h95v-460l467 474v-680h-95zM377 723h-65l87 139h142z" />
    <glyph glyph-name="afii10032.var.accented" unicode="&#x41e;`" horiz-adv-x="817" 
d="M50 333q0 149 101 248t259 99q85 0 155 -30.5t113 -82.5q89 -106 89 -234q0 -141 -99 -244t-258 -103q-157 -1 -260.5 104t-99.5 243zM151 332q0 -110 72 -187q72 -76 186 -76q113 0 185 76t72 187q0 69 -28 126q-29 62 -89.5 100.5t-139.5 38.5q-114 0 -186 -77
q-72 -76 -72 -188zM401 723h-65l87 139h142z" />
    <glyph glyph-name="afii10037.var.accented" unicode="&#x423;`" horiz-adv-x="606" 
d="M111 666l227 -400l160 400h96l-194 -485q-80 -195 -215 -195q-39 0 -81 14v86q37 -17 72 -17q37 0 68.5 28.5t46.5 69.5l-283 499h103zM291 723h-65l87 139h142z" />
    <glyph glyph-name="afii10045.var.accented" unicode="&#x42b;`" horiz-adv-x="864" 
d="M760 0h-95v666h95v-666zM104 666h95v-256h114q113 0 172.5 -53.5t59.5 -140.5q0 -86 -46 -147q-53 -69 -190 -69h-205v666zM199 327v-244h108q137 0 137 122q0 59 -35.5 90.5t-99.5 31.5h-110zM404 723h-65l87 139h142z" />
    <glyph glyph-name="afii10047.var.accented" unicode="&#x42d;`" horiz-adv-x="681" 
d="M40 80l51 62q82 -73 197 -73q104 0 171 69q68 71 77 164h-329v83h324q-11 80 -74.5 146t-166.5 66q-62 0 -107 -17t-93 -53l-47 62q97 91 247 91q105 0 184 -52q78 -50 117.5 -127t39.5 -169q0 -145 -98 -246q-97 -100 -245 -100q-157 0 -248 94zM325 723h-65l87 139h142
z" />
    <glyph glyph-name="afii10048.var.accented" unicode="&#x42e;`" horiz-adv-x="1103" 
d="M336 320h-137v-320h-95v666h95v-263h143q24 124 120 200q97 77 234 77q85 0 155 -30.5t113 -82.5q89 -106 89 -234q0 -141 -99 -244t-258 -103q-155 0 -256 98q-99 98 -104 236zM437 332q0 -110 72 -187q72 -76 186 -76q113 0 185 76t72 187q0 69 -28 126
q-29 62 -89.5 100.5t-139.5 38.5q-114 0 -186 -77q-72 -76 -72 -188zM584 723h-65l87 139h142z" />
    <glyph glyph-name="afii10049.var.accented" unicode="&#x42f;`" horiz-adv-x="633" 
d="M433 0v255h-100l-185 -255h-118l194 266q-147 56 -147 192q0 89 58 148q59 60 163 60h231v-666h-96zM433 338v245h-107q-73 0 -110.5 -32.5t-37.5 -93.5q0 -52 40.5 -85.5t108.5 -33.5h106zM364 723h-65l87 139h142z" />
    <glyph glyph-name="afii10023.var.accented" unicode="&#x401;`" horiz-adv-x="571" 
d="M199 383h283v-83h-283v-217h314v-83h-409v666h406v-83h-311v-200zM304 773h-65l87 139h142zM220 818v-101h-101v101h101zM492 818v-101h-101v101h101z" />
    <glyph glyph-name="afii10065.var.accented" unicode="&#x430;`" horiz-adv-x="501" 
d="M106 349l-16 69q71 30 166 30q82 0 129.5 -35t47.5 -99v-314h-86v32q-58 -43 -149 -43q-76 0 -122 37.5t-46 103.5q0 64 50.5 102.5t134.5 38.5q77 0 132 -31v24q0 57 -23 83.5t-84 26.5q-71 0 -134 -25zM126 133q0 -70 97 -70q53 0 89 19t36 51q0 31 -32.5 50.5
t-84.5 19.5q-48 0 -76.5 -18.5t-28.5 -51.5zM250 499h-65l87 167h142z" />
    <glyph glyph-name="afii10070.var.accented" unicode="&#x435;`" horiz-adv-x="552" 
d="M438 128l60 -48q-72 -91 -208 -91q-116 0 -182 68q-66 69 -66 168q0 96 71 159q71 64 168 64q105 0 167 -63q61 -62 61 -149q0 -20 -3 -34h-376q4 -57 48 -96q45 -39 113 -39q92 0 147 61zM136 270h278q-9 44 -43 72t-86 28q-57 0 -95.5 -26t-53.5 -74zM278 499h-65
l87 167h142z" />
    <glyph glyph-name="afii10074.var.accented" unicode="&#x438;`" horiz-adv-x="534" 
d="M372 0v271l-300 -282v448h90v-267l300 278v-448h-90zM299 499h-65l87 167h142z" />
    <glyph glyph-name="afii10080.var.accented" unicode="&#x43e;`" horiz-adv-x="578" 
d="M42 218q0 94 66 161q68 69 181 69q110 0 178 -65q69 -65 69 -165q0 -104 -69 -167q-70 -62 -178 -62q-115 0 -181 67q-66 68 -66 162zM138 218q0 -68 42 -109.5t109 -41.5q69 0 110 42t41 109q0 70 -42 111t-109 41t-109 -41.5t-42 -110.5zM291 499h-65l87 167h142z" />
    <glyph glyph-name="afii10085.var.accented" unicode="&#x443;`" horiz-adv-x="473" 
d="M275 208l99 229h95l-295 -649h-90l108 239l-188 410h100l101 -230q6 -13 18 -52l16 -48q13 42 36 101zM260 499h-65l87 167h142z" />
    <glyph glyph-name="afii10093.var.accented" unicode="&#x44b;`" horiz-adv-x="695" 
d="M623 0h-90v437h90v-437zM72 437h90v-156h117q83 0 126 -41q42 -40 42 -95q0 -48 -32 -92q-38 -53 -147 -53h-196v437zM162 207v-133h105q85 0 85 70q0 26 -18 41q-25 22 -67 22h-105zM345 499h-65l87 167h142z" />
    <glyph glyph-name="afii10095.var.accented" unicode="&#x44d;`" horiz-adv-x="506" 
d="M371 192h-216v68h213q-13 51 -53.5 80t-97.5 29q-67 0 -128 -41l-34 65q71 54 162 54q117 0 182 -69q65 -70 65 -160q0 -96 -64 -163t-183 -67q-104 0 -179 60l48 62q52 -44 131 -44q61 0 103.5 34.5t50.5 91.5zM251 499h-65l87 167h142z" />
    <glyph glyph-name="afii10096.var.accented" unicode="&#x44e;`" horiz-adv-x="756" 
d="M162 437v-162h85q20 75 80 124q61 49 150 49q103 0 170 -65q67 -64 67 -165q0 -104 -67 -167q-67 -62 -170 -62q-101 0 -165 60q-64 61 -71 148h-79v-197h-90v437h90zM337 218q0 -68 39.5 -109.5t100.5 -41.5q65 0 103 41.5t38 109.5q0 69 -40 110.5t-101 41.5
t-100.5 -41.5t-39.5 -110.5zM409 499h-65l87 167h142z" />
    <glyph glyph-name="afii10097.var.accented" unicode="&#x44f;`" horiz-adv-x="476" 
d="M226 437h178v-437h-90v168h-66l-112 -168h-111l126 176q-46 12 -71.5 46t-25.5 82q0 54 40 93q40 40 132 40zM314 233v130h-89q-75 0 -75 -63q0 -67 87 -67h77zM243 499h-65l87 167h142z" />
    <glyph glyph-name="afii10071.var.accented" unicode="&#x451;`" horiz-adv-x="552" 
d="M438 128l60 -48q-72 -91 -208 -91q-116 0 -182 68q-66 69 -66 168q0 96 71 159q71 64 168 64q105 0 167 -63q61 -62 61 -149q0 -20 -3 -34h-376q4 -57 48 -96q45 -39 113 -39q92 0 147 61zM136 270h278q-9 44 -43 72t-86 28q-57 0 -95.5 -26t-53.5 -74zM417 632v-96h-96
v96h96zM234 632v-96h-96v96h96zM306 664h-65l87 167h142z" />
    <glyph glyph-name="fi" unicode="fi" horiz-adv-x="525" 
d="M271 700q48 0 89 -15.5t93 -50.5l-49 -59q-67 47 -125 47q-51 0 -69.5 -30.5t-18.5 -100.5v-54h234v-437h-90v359h-144v-359h-90v359h-88v78h88v89q0 44 15 84q38 90 155 90z" />
    <glyph glyph-name="fl" unicode="fl" horiz-adv-x="498" 
d="M336 693h90v-693h-90v359h-144v-359h-90v359h-89v78h89v89q0 57 30 110q38 64 140 64q26 0 64 -7zM192 437h144v177q-30 8 -61 8q-46 0 -64.5 -31t-18.5 -100v-54z" />
    <glyph glyph-name=".notdef" horiz-adv-x="233" 
 />
    <glyph glyph-name=".null" horiz-adv-x="0" 
 />
    <glyph glyph-name="nonmarkingreturn" horiz-adv-x="333" 
 />
    <glyph glyph-name="space" unicode=" " horiz-adv-x="233" 
 />
    <glyph glyph-name="exclam" unicode="!" horiz-adv-x="326" 
d="M198 196h-70l-28 470h126zM100 0v126h126v-126h-126z" />
    <glyph glyph-name="quotedbl" unicode="&#x22;" horiz-adv-x="457" 
d="M85 666h110l-28 -218h-54zM262 666h110l-29 -218h-52z" />
    <glyph glyph-name="numbersign" unicode="#" horiz-adv-x="878" 
d="M598 187l-35 -187h-86l36 187h-195l-35 -187h-84l34 187h-160l17 83h160l30 162h-166l17 83h164l30 157h87l-30 -157h193l30 157h87l-30 -157h165l-18 -83h-164l-29 -162h170l-17 -83h-171zM335 270h194l30 162h-194z" />
    <glyph glyph-name="dollar" unicode="$" horiz-adv-x="440" 
d="M276 -6v-108h-83v100q-112 8 -182 54l38 77q76 -47 162 -47q57 0 85.5 26.5t28.5 68.5q0 38 -37 75q-13 15 -55 46l-35 24l-35 24l-24 16l-15.5 11.5t-10.5 7.5l-22 19q-19 17 -38 49q-16 28 -16 70q0 61 42 109q43 48 114 60v77h83v-76q53 -8 115 -37l-37 -75
q-59 31 -117 31q-45 0 -72 -24t-27 -63q0 -27 27 -56q26 -27 84 -67q53 -34 71 -48q55 -44 80.5 -83.5t25.5 -91.5q0 -64 -41 -108.5t-109 -60.5z" />
    <glyph glyph-name="percent" unicode="%" horiz-adv-x="885" 
d="M56 504q0 78 48 127t119 49q83 0 125 -52t42 -124q0 -76 -48 -126q-47 -50 -119 -50q-76 0 -121.5 48t-45.5 128zM136 503q0 -45 23 -72t64 -27t64 26.5t23 72.5t-22.5 73.5t-64.5 27.5q-29 0 -49 -13t-27 -35q-11 -34 -11 -53zM495 159q0 77 48 127q48 49 119 49
q83 0 125 -52t42 -124q0 -77 -48 -126q-47 -50 -119 -50q-76 0 -121.5 48t-45.5 128zM575 158q0 -45 23 -72t64 -27t64 26.5t23 72.5t-22.5 73.5t-64.5 27.5q-29 0 -49 -13t-27 -35q-11 -34 -11 -53zM767 643l-562 -648l-58 54l558 647z" />
    <glyph glyph-name="ampersand" unicode="&#x26;" horiz-adv-x="683" 
d="M423 158l-141 215q-61 -24 -96 -65.5t-35 -95.5q0 -61 38.5 -102t97.5 -41q80 0 136 89zM529 158l99 -158h-101l-53 79q-81 -93 -191 -93q-105 0 -169 64t-64 162q0 78 57 139q57 62 136 81l-13 21l-21 38q-7 14 -15 37q-5 19 -5 42q0 50 38.5 80t98.5 30q68 0 139 -33
l-35 -76q-54 26 -101 26q-19 0 -31.5 -10.5t-12.5 -26.5q0 -26 31 -72l158 -241q39 86 58 142l83 -27q-23 -79 -86 -204z" />
    <glyph glyph-name="quotesingle" unicode="'" horiz-adv-x="280" 
d="M85 666h110l-28 -218h-54z" />
    <glyph glyph-name="parenleft" unicode="(" horiz-adv-x="284" 
d="M213 717l71 -52q-93 -102 -121 -236q-22 -104 -22 -180q0 -58 7 -113t41 -147q36 -93 92 -155l-68 -52q-173 209 -173 456q0 259 173 479z" />
    <glyph glyph-name="parenright" unicode=")" horiz-adv-x="284" 
d="M0 665l71 52q173 -215 173 -479q0 -180 -80 -318q-27 -48 -55 -89q-16 -23 -38 -49l-68 52q140 161 140 415q0 258 -143 416z" />
    <glyph glyph-name="asterisk" unicode="*" horiz-adv-x="425" 
d="M363 558l-90 -29l56 -76l-62 -44l-55 75l-55 -75l-61 44l54 76l-88 29l24 72l89 -29v93h75v-93l89 29z" />
    <glyph glyph-name="plus" unicode="+" horiz-adv-x="606" 
d="M344 308v-211h-83v211h-211v83h211v212h83v-212h212v-83h-212z" />
    <glyph glyph-name="comma" unicode="," horiz-adv-x="246" 
d="M80 126h109l-73 -252h-81z" />
    <glyph glyph-name="hyphen" unicode="-" horiz-adv-x="444" 
d="M369 202h-294v83h294v-83z" />
    <glyph glyph-name="period" unicode="." horiz-adv-x="246" 
d="M60 0v126h126v-126h-126z" />
    <glyph glyph-name="slash" unicode="/" horiz-adv-x="639" 
d="M569 622l-504 -835l-65 42l502 837z" />
    <glyph glyph-name="zero" unicode="0" horiz-adv-x="562" 
d="M64 333q0 128 24 205q39 138 194 142q128 0 175 -99q43 -86 43 -248q0 -165 -44 -253q-48 -94 -174 -94q-105 0 -159 68q-24 32 -37 77q-22 83 -22 202zM162 385v-52q0 -99 10 -156q11 -55 36.5 -81.5t74.5 -29.5q42 0 65 20t38 58q8 21 11 56l4 62q1 17 1 71q0 40 -1 52
q0 8 -2 50q-1 27 -7 52q-12 59 -34 81q-30 32 -75 32q-75 -6 -99 -69q-16 -45 -19 -95z" />
    <glyph glyph-name="one" unicode="1" horiz-adv-x="385" 
d="M166 524l-92 -87v102l128 127h56v-666h-92v524z" />
    <glyph glyph-name="two" unicode="2" horiz-adv-x="501" 
d="M177 80h261l-40 -80h-398l105 126l88 103q25 27 64 77q34 43 48 67q35 61 35 109q0 52 -27.5 85t-76.5 33q-64 0 -131 -46l-38 67q80 59 177 59q94 0 143 -54q51 -52 51 -126q0 -86 -64 -183q-67 -100 -197 -237z" />
    <glyph glyph-name="three" unicode="3" horiz-adv-x="500" 
d="M75 564l-33 69q83 47 179 47q81 0 137 -44q55 -43 55 -112q0 -47 -28 -88.5t-75 -58.5v-3q67 -15 104.5 -61t37.5 -106q0 -105 -72 -163q-71 -58 -189 -58q-70 0 -143 29v86q78 -35 143 -35q76 0 119.5 35.5t43.5 98.5q0 59 -43 95t-124 35h-34v80h29q133 0 133 100
q0 39 -30 64.5t-82 25.5q-55 0 -128 -36z" />
    <glyph glyph-name="four" unicode="4" horiz-adv-x="504" 
d="M393 188h72l-22 -80h-50v-108h-92v108h-297v55l332 503h57v-478zM112 188h189v288z" />
    <glyph glyph-name="five" unicode="5" horiz-adv-x="496" 
d="M428 586h-213l-46 -142q133 -1 202 -58q80 -68 78 -177q0 -80 -58 -147q-28 -35 -81.5 -55.5t-118.5 -20.5q-79 0 -145 29v85q53 -34 127 -34q48 0 84.5 15t56 39t28.5 48t9 45q0 65 -52 110q-51 45 -140 45h-92l96 298h289z" />
    <glyph glyph-name="six" unicode="6" horiz-adv-x="510" 
d="M157 486l140 180h119l-231 -290l1 -2q32 20 85 20q88 0 147 -56q60 -56 60 -139q0 -85 -60 -149q-58 -64 -157 -64q-96 0 -160 59q-63 60 -63 151q0 59 20 119q22 60 43 93q27 42 56 78zM136 192q0 -58 33 -92t89 -34q55 0 88.5 35t33.5 91q0 50 -33.5 86t-88.5 36
t-88.5 -34.5t-33.5 -87.5z" />
    <glyph glyph-name="seven" unicode="7" horiz-adv-x="457" 
d="M330 586h-298l40 80h401l-338 -666h-101z" />
    <glyph glyph-name="eight" unicode="8" horiz-adv-x="550" 
d="M182 357v3q-44 17 -70.5 55t-26.5 86q0 73 53 126t137 53q86 0 138 -52q53 -53 53 -126q0 -49 -25.5 -86t-71.5 -56v-3q60 -19 92.5 -64t32.5 -109q0 -80 -60 -139q-61 -59 -159 -59q-96 0 -158 59q-61 60 -61 139q0 63 34 110t92 63zM274 66q55 0 88.5 35t33.5 90
q0 56 -33 91t-88 35q-54 0 -87.5 -35.5t-33.5 -90.5t32 -90t88 -35zM275 397q41 0 67 29t26 72q0 38 -24 69q-24 33 -69 33t-69 -32q-23 -32 -23 -70q0 -41 25.5 -71t66.5 -30z" />
    <glyph glyph-name="nine" unicode="9" horiz-adv-x="510" 
d="M353 181l-141 -181h-119l225 286q-42 -17 -73 -17q-90 0 -152 59q-61 60 -61 140q0 83 59 148q58 64 157 64q95 0 160 -59q64 -58 64 -142q0 -90 -28 -153q-27 -63 -91 -145zM251 349q50 0 86 36q37 37 37 90t-36 89t-87 36t-86 -36q-35 -37 -35 -89t35 -90
q34 -36 86 -36z" />
    <glyph glyph-name="colon" unicode=":" horiz-adv-x="350" 
d="M112 0v126h126v-126h-126zM112 322v126h126v-126h-126z" />
    <glyph glyph-name="semicolon" unicode=";" horiz-adv-x="246" 
d="M63 322v126h126v-126h-126zM80 126h109l-73 -252h-81z" />
    <glyph glyph-name="less" unicode="&#x3c;" horiz-adv-x="586" 
d="M536 116l-506 234l506 234v-86l-317 -149l317 -149v-84z" />
    <glyph glyph-name="equal" unicode="=" horiz-adv-x="608" 
d="M558 211h-508v83h508v-83zM558 405h-508v83h508v-83z" />
    <glyph glyph-name="greater" unicode="&#x3e;" horiz-adv-x="586" 
d="M50 584l506 -234l-506 -234v86l317 149l-317 149v84z" />
    <glyph glyph-name="question" unicode="?" horiz-adv-x="430" 
d="M130 0v126h126v-126h-126zM81 589l23 82q50 9 84 9q47 0 96 -21q29 -12 46 -39.5t17 -65.5q0 -36 -15.5 -64t-54.5 -64q-69 -63 -69 -99q0 -20 18 -43q4 -4 9 -10t10 -11l33 -32l-56 -63q-33 27 -53 47q-57 57 -57 111q0 50 63 114q1 2 19 20q15 15 27 29q30 35 30 64
q0 44 -66 44q-51 0 -104 -8z" />
    <glyph glyph-name="at" unicode="@" horiz-adv-x="991" 
d="M338 216q0 -65 41 -107t109 -42q64 0 107 43q44 44 44 108q0 65 -43 108q-44 44 -108 44q-67 0 -109 -44q-41 -44 -41 -110zM724 -11q-75 0 -99 64v-1q-67 -63 -156 -63q-105 0 -167 66q-61 65 -61 161q0 90 65 161q66 71 173 71q85 0 146 -63l7 53h83v-331q0 -40 36 -40
t60 30q43 54 43 162q0 82 -38 153q-38 72 -117 118q-80 47 -184 47q-160 0 -269 -106t-109 -255q0 -148 110 -255t268 -107q74 0 116 12v-78q-38 -12 -115 -12q-100 0 -189 36t-150 98q-60 61 -93.5 141t-33.5 164q0 187 132 313q133 127 334 127q173 0 279 -88
q71 -58 109.5 -141.5t36.5 -167.5q0 -48 -12.5 -93.5t-37 -86t-68 -65t-99.5 -24.5z" />
    <glyph glyph-name="A" unicode="A" horiz-adv-x="671" 
d="M474 179h-277l-86 -179h-103l327 680l328 -680h-103zM334 481l-105 -219h212z" />
    <glyph glyph-name="B" unicode="B" horiz-adv-x="602" 
d="M322 0h-218v666h183q232 0 232 -169q0 -47 -31 -88q-32 -42 -78 -54v-3q67 -12 104.5 -55t37.5 -101q0 -91 -59.5 -143.5t-170.5 -52.5zM199 583v-198h99q120 0 120 102q0 45 -31.5 70.5t-93.5 25.5h-94zM199 302v-219h109q143 0 143 112q0 107 -140 107h-112z" />
    <glyph glyph-name="C" unicode="C" horiz-adv-x="674" 
d="M588 128l53 -58q-93 -84 -232 -84q-85 0 -155.5 30t-114.5 81q-89 105 -89 237q0 147 102 246q103 100 259 100q140 0 219 -73l-52 -66q-68 56 -169 56q-111 0 -185 -74q-73 -73 -73 -189q0 -118 72 -192q73 -73 189 -73q94 0 176 59z" />
    <glyph glyph-name="D" unicode="D" horiz-adv-x="714" 
d="M297 0h-193v666h196q191 0 282 -104q82 -94 82 -229q0 -151 -91 -242q-90 -91 -276 -91zM299 583h-100v-500h100q264 0 264 249q0 121 -67 186t-197 65z" />
    <glyph glyph-name="E" unicode="E" horiz-adv-x="571" 
d="M199 383h283v-83h-283v-217h314v-83h-409v666h406v-83h-311v-200z" />
    <glyph glyph-name="F" unicode="F" horiz-adv-x="527" 
d="M199 365h283v-83h-283v-282h-95v666h409v-83h-314v-218z" />
    <glyph glyph-name="G" unicode="G" horiz-adv-x="787" 
d="M667 574l-68 -53q-80 76 -190 76q-114 0 -186 -77q-72 -76 -72 -188q0 -115 70 -189q71 -74 188 -74q96 0 160 55q65 56 74 144h-245l34 83h315q-2 -102 -46 -192q-35 -78 -108 -125t-183 -48q-163 0 -262 101q-98 103 -98 246q0 139 102 243q104 104 258 104
q147 0 257 -106z" />
    <glyph glyph-name="H" unicode="H" horiz-adv-x="768" 
d="M569 320h-370v-320h-95v666h95v-263h370v263h95v-666h-95v320z" />
    <glyph glyph-name="I" unicode="I" horiz-adv-x="303" 
d="M199 0h-95v666h95v-666z" />
    <glyph glyph-name="J" unicode="J" horiz-adv-x="361" 
d="M18 0v83q36 -14 68 -14q47 0 62.5 32t15.5 116v449h95v-434q0 -139 -33 -193q-33 -53 -131 -53q-46 0 -77 14z" />
    <glyph glyph-name="K" unicode="K" horiz-adv-x="631" 
d="M199 0h-95v666h95v-333l266 333h109l-221 -275l262 -391h-115l-209 315l-92 -109v-206z" />
    <glyph glyph-name="L" unicode="L" horiz-adv-x="527" 
d="M513 83v-83h-409v666h95v-583h314z" />
    <glyph glyph-name="M" unicode="M" horiz-adv-x="904" 
d="M236 680l216 -483l216 483l198 -680h-95l-123 429l-196 -443l-196 443l-123 -429h-95z" />
    <glyph glyph-name="N" unicode="N" horiz-adv-x="747" 
d="M643 -14l-455 483v-469h-84v680l455 -480v466h84v-680z" />
    <glyph glyph-name="O" unicode="O" horiz-adv-x="817" 
d="M50 333q0 149 101 248t259 99q85 0 155 -30.5t113 -82.5q89 -106 89 -234q0 -141 -99 -244t-258 -103q-157 -1 -260.5 104t-99.5 243zM151 332q0 -110 72 -187q72 -76 186 -76q113 0 185 76t72 187q0 69 -28 126q-29 62 -89.5 100.5t-139.5 38.5q-114 0 -186 -77
q-72 -76 -72 -188z" />
    <glyph glyph-name="P" unicode="P" horiz-adv-x="567" 
d="M302 255h-103v-255h-95v666h209q109 0 170 -57q62 -57 62 -142q0 -101 -61.5 -156.5t-181.5 -55.5zM199 583v-245h93q152 0 152 121q0 124 -147 124h-98z" />
    <glyph glyph-name="Q" unicode="Q" horiz-adv-x="826" 
d="M776 65l-30 -84q-74 28 -172 28q-17 0 -72 -11q-52 -12 -92 -12q-85 0 -156 30t-115 81q-89 106 -89 236q0 141 102 244t258 103q154 0 254 -99q102 -99 102 -246q0 -46 -20 -111q-26 -84 -117 -143l2 -8q68 13 145 -8zM409 69q114 0 184 76q72 76 72 187q0 112 -72 188
q-71 77 -184 77q-114 0 -186 -77q-72 -76 -72 -188q0 -110 72 -187q72 -76 186 -76z" />
    <glyph glyph-name="R" unicode="R" horiz-adv-x="622" 
d="M241 280h-42v-280h-95v666h224q96 0 157 -51q61 -49 61 -137q0 -166 -192 -195l248 -283h-118zM300 583h-101v-220h100q71 0 108.5 30t37.5 84q0 106 -145 106z" />
    <glyph glyph-name="S" unicode="S" horiz-adv-x="507" 
d="M47 43l39 74q32 -20 77 -34t82 -14q57 0 85.5 26.5t28.5 68.5q0 38 -37 75q-21 25 -56 46l-34 24l-35 25l-21 14l-22 16q-40 35 -41 36q-27 38 -31 46q-11 35 -11 62q0 72 54 121q55 51 145 51q82 0 154 -42l-34 -72q-72 31 -119 31q-45 0 -72 -24t-27 -63q0 -32 27 -61
q25 -26 83 -64q54 -33 72 -47q55 -44 80.5 -83.5t25.5 -91.5q0 -81 -62 -129t-155 -48q-55 0 -109 15.5t-87 41.5z" />
    <glyph glyph-name="T" unicode="T" horiz-adv-x="491" 
d="M293 0h-95v583h-168v83h431v-83h-168v-583z" />
    <glyph glyph-name="U" unicode="U" horiz-adv-x="754" 
d="M559 666h95v-374q0 -149 -72 -227.5t-204 -78.5q-139 0 -208.5 78.5t-69.5 227.5v374h95v-378q0 -219 183 -219q181 0 181 219v378z" />
    <glyph glyph-name="V" unicode="V" horiz-adv-x="649" 
d="M326 190l212 476h103l-315 -680l-318 680h103z" />
    <glyph glyph-name="W" unicode="W" horiz-adv-x="1027" 
d="M718 -14l-207 465l-200 -465l-303 680h102l200 -472l201 486l207 -486l200 472h101z" />
    <glyph glyph-name="X" unicode="X" horiz-adv-x="591" 
d="M462 0l-168 268l-167 -268h-108l221 352l-201 314h109l149 -234l145 234h110l-201 -318l222 -348h-111z" />
    <glyph glyph-name="Y" unicode="Y" horiz-adv-x="597" 
d="M251 0v218l-241 448h103l185 -346l186 346h103l-241 -448v-218h-95z" />
    <glyph glyph-name="Z" unicode="Z" horiz-adv-x="575" 
d="M526 0h-506l369 583h-345l25 83h486l-369 -583h369z" />
    <glyph glyph-name="bracketleft" unicode="[" horiz-adv-x="319" 
d="M104 -213v879h205v-75h-119v-729h119v-75h-205z" />
    <glyph glyph-name="backslash" unicode="\" horiz-adv-x="635" 
d="M134 660l501 -836l-67 -38l-505 836z" />
    <glyph glyph-name="bracketright" unicode="]" horiz-adv-x="319" 
d="M10 666h205v-879h-205v75h119v729h-119v75z" />
    <glyph glyph-name="asciicircum" unicode="^" horiz-adv-x="364" 
d="M270 436l-81 113l-83 -113h-108l191 230l184 -230h-103z" />
    <glyph glyph-name="underscore" unicode="_" horiz-adv-x="599" 
d="M599 -224h-599v83h599v-83z" />
    <glyph glyph-name="grave" unicode="`" horiz-adv-x="349" 
d="M161 666l86 -167h-64l-165 167h143z" />
    <glyph glyph-name="a" unicode="a" horiz-adv-x="501" 
d="M106 349l-16 69q71 30 166 30q82 0 129.5 -35t47.5 -99v-314h-86v32q-58 -43 -149 -43q-76 0 -122 37.5t-46 103.5q0 64 50.5 102.5t134.5 38.5q77 0 132 -31v24q0 57 -23 83.5t-84 26.5q-71 0 -134 -25zM126 133q0 -70 97 -70q53 0 89 19t36 51q0 31 -32.5 50.5
t-84.5 19.5q-48 0 -76.5 -18.5t-28.5 -51.5z" />
    <glyph glyph-name="b" unicode="b" horiz-adv-x="599" 
d="M162 67v-67h-90v700h90v-330q66 78 169 78q106 0 166 -64t60 -157q0 -98 -62 -169q-61 -69 -164 -69q-49 0 -96 21.5t-73 56.5zM160 218q0 -64 44 -108q43 -43 110 -43q68 0 107.5 41.5t39.5 111.5q0 68 -40 109t-111 41q-64 0 -107 -45q-43 -43 -43 -107z" />
    <glyph glyph-name="c" unicode="c" horiz-adv-x="493" 
d="M289 -11q-115 0 -181 68t-66 161q0 40 14.5 79.5t43.5 73.5t77.5 55.5t110.5 21.5q99 0 172 -64l-51 -62q-55 48 -121 48q-68 0 -109 -42.5t-41 -109.5q0 -68 44 -110q46 -41 111 -41q69 0 124 46l48 -59q-70 -65 -176 -65z" />
    <glyph glyph-name="d" unicode="d" horiz-adv-x="600" 
d="M438 0v67q-62 -78 -168 -78t-167 66q-61 65 -61 161q0 90 65 161q66 71 173 71q96 0 158 -78v330h90v-700h-90zM138 216q0 -64 41.5 -106.5t109.5 -42.5q64 0 107 43q44 44 44 108q0 65 -43 108q-44 44 -108 44q-67 0 -109 -44t-42 -110z" />
    <glyph glyph-name="e" unicode="e" horiz-adv-x="552" 
d="M438 128l60 -48q-72 -91 -208 -91q-116 0 -182 68q-66 69 -66 168q0 96 71 159q71 64 168 64q105 0 167 -63q61 -62 61 -149q0 -20 -3 -34h-376q4 -57 48 -96q45 -39 113 -39q92 0 147 61zM136 270h278q-9 44 -43 72t-86 28q-57 0 -95.5 -26t-53.5 -74z" />
    <glyph glyph-name="f" unicode="f" horiz-adv-x="294" 
d="M192 0h-90v359h-89v78h89v89q0 75 40 124q41 50 106 50h41v-78h-16q-44 0 -62.5 -29t-18.5 -92v-64h91v-78h-91v-359z" />
    <glyph glyph-name="g" unicode="g" horiz-adv-x="600" 
d="M438 370v67h90v-385q0 -161 -63 -217q-32 -28 -76 -39.5t-114 -11.5q-104 0 -206 37l22 80q101 -39 194 -39q68 0 107 29q46 31 46 137v39q-28 -34 -73 -56t-95 -22q-102 0 -165 68q-63 67 -63 161q0 90 64 160t172 70q48 0 91 -22.5t69 -55.5zM138 218q0 -68 40 -109.5
t108 -41.5q65 0 109 41q45 42 45 110q0 65 -43 108q-44 44 -108 44q-69 0 -110 -42.5t-41 -109.5z" />
    <glyph glyph-name="h" unicode="h" horiz-adv-x="533" 
d="M162 0h-90v700h90v-335q19 39 57.5 61t86.5 22q164 0 164 -176v-272h-90v248q0 60 -23 91t-76 31t-86 -35.5t-33 -89.5v-245z" />
    <glyph glyph-name="i" unicode="i" horiz-adv-x="234" 
d="M162 0h-90v437h90v-437zM162 632v-96h-90v96h90z" />
    <glyph glyph-name="j" unicode="j" horiz-adv-x="234" 
d="M72 -15v452h90v-478q0 -26 -8 -54t-25 -55.5t-48.5 -45t-72.5 -17.5h-10v78h6q68 0 68 120zM162 632v-96h-90v96h90z" />
    <glyph glyph-name="k" unicode="k" horiz-adv-x="480" 
d="M162 0h-90v700h90v-460l182 197h103l-166 -175l199 -262h-105l-156 206l-57 -55v-151z" />
    <glyph glyph-name="l" unicode="l" horiz-adv-x="234" 
d="M162 0h-90v700h90v-700z" />
    <glyph glyph-name="m" unicode="m" horiz-adv-x="791" 
d="M162 0h-90v437h90v-72q18 36 55 59.5t79 23.5q101 0 134 -94q43 94 141 94q79 0 118 -46t39 -130v-272h-90v260q0 110 -84 110q-48 0 -78.5 -36.5t-30.5 -88.5v-245h-90v259q0 111 -82 111q-46 0 -78.5 -36t-32.5 -90v-244z" />
    <glyph glyph-name="n" unicode="n" horiz-adv-x="533" 
d="M162 0h-90v437h90v-72q47 83 142 83q166 0 166 -176v-272h-90v248q0 63 -22 92.5t-76 29.5q-53 0 -86.5 -35.5t-33.5 -89.5v-245z" />
    <glyph glyph-name="o" unicode="o" horiz-adv-x="578" 
d="M42 218q0 94 66 161q68 69 181 69q110 0 178 -65q69 -65 69 -165q0 -104 -69 -167q-70 -62 -178 -62q-115 0 -181 67q-66 68 -66 162zM138 218q0 -68 42 -109.5t109 -41.5q69 0 110 42t41 109q0 70 -42 111t-109 41t-109 -41.5t-42 -110.5z" />
    <glyph glyph-name="p" unicode="p" horiz-adv-x="599" 
d="M162 67v-280h-90v650h90v-67q65 78 160 78q110 0 173 -72.5t62 -157.5q0 -95 -61 -162t-166 -67q-49 0 -95.5 21.5t-72.5 56.5zM160 218q0 -64 43 -107q44 -44 112 -44t107 42t39 109q0 56 -39 104q-38 48 -112 48q-63 0 -107 -44q-43 -43 -43 -108z" />
    <glyph glyph-name="q" unicode="q" horiz-adv-x="600" 
d="M528 -213h-90v280q-28 -34 -73 -56t-95 -22q-102 0 -165 68q-63 67 -63 161q0 90 64 160t172 70q97 0 160 -78v67h90v-650zM138 218q0 -68 40 -109.5t108 -41.5q65 0 109 41q45 42 45 110q0 65 -43 108q-44 44 -108 44q-69 0 -110 -42.5t-41 -109.5z" />
    <glyph glyph-name="r" unicode="r" horiz-adv-x="335" 
d="M162 0h-90v437h90v-99q19 49 57 79.5t85 30.5h26v-90h-48q-53 0 -86.5 -39t-33.5 -100v-219z" />
    <glyph glyph-name="s" unicode="s" horiz-adv-x="400" 
d="M341 416l-33 -67q-60 21 -96 21q-52 0 -52 -39q0 -21 22 -37l21 -14q7 -4 28 -14.5t24 -12.5q53 -28 79 -59.5t26 -77.5q0 -57 -43.5 -91.5t-113.5 -34.5q-91 0 -163 51l39 68q64 -41 118 -41q67 0 67 54q0 14 -13.5 30t-29.5 25q-15 10 -41 23l-31 17q-46 28 -65.5 54.5
t-19.5 66.5q0 53 43 81q44 29 102 29q73 0 132 -32z" />
    <glyph glyph-name="t" unicode="t" horiz-adv-x="298" 
d="M193 0h-90v359h-89v78h89v154l90 47v-201h91v-78h-91v-359z" />
    <glyph glyph-name="u" unicode="u" horiz-adv-x="533" 
d="M371 437h90v-437h-90v75q-16 -35 -54 -60.5t-90 -25.5q-80 0 -122 44t-42 131v273h90v-250q0 -64 23 -92t76 -28q50 0 84 36q35 37 35 92v242z" />
    <glyph glyph-name="v" unicode="v" horiz-adv-x="462" 
d="M238 107q20 69 33 101l92 229h95l-191 -437h-64l-199 437h100l101 -230q18 -40 33 -100z" />
    <glyph glyph-name="w" unicode="w" horiz-adv-x="717" 
d="M524 173l91 264h98l-168 -437h-73l-113 334l-114 -334h-73l-168 437h98l91 -264q1 -2 2 -6.5t3.5 -13t4.5 -14.5l8 -29q15 58 17 63l86 264h90l85 -264q1 -2 2 -6.5t3.5 -13t4.5 -14.5l8 -29q15 58 17 63z" />
    <glyph glyph-name="x" unicode="x" horiz-adv-x="445" 
d="M333 0l-115 161l-116 -161h-98l161 221l-155 216h106l107 -152l110 152h101l-159 -211l166 -226h-108z" />
    <glyph glyph-name="y" unicode="y" horiz-adv-x="473" 
d="M275 208l99 229h95l-295 -649h-90l108 239l-188 410h100l101 -230q6 -13 18 -52l16 -48q13 42 36 101z" />
    <glyph glyph-name="z" unicode="z" horiz-adv-x="422" 
d="M416 437l-252 -359h252l-34 -78h-376l253 359h-214l32 78h339z" />
    <glyph glyph-name="braceleft" unicode="{" horiz-adv-x="351" 
d="M112 227q32 -7 54 -25.5t29 -42.5q11 -36 11 -46q1 -11 1 -22v-40v-117q0 -35 21.5 -54t55.5 -19h37v-75h-53q-146 0 -146 148v113q0 76 -26 111t-67 36v74q41 1 66.5 36t25.5 110v105q0 147 145 147h53v-75h-37q-34 0 -54.5 -18.5t-20.5 -53.5v-115v-18v-22
q0 -33 -5 -47l-4 -12t-6.5 -18t-8.5 -14q-28 -33 -71 -46z" />
    <glyph glyph-name="bar" unicode="|" horiz-adv-x="224" 
d="M154 -224h-84v1053h84v-1053z" />
    <glyph glyph-name="braceright" unicode="}" horiz-adv-x="351" 
d="M239 225q-65 16 -84 67q-2 7 -5 15t-4.5 15t-1.5 17q-1 11 -1 22v22v18v118q0 35 -21 53.5t-55 18.5h-37v75h52q147 0 147 -148v-105q0 -76 25.5 -111t66.5 -36v-74q-41 -1 -66.5 -36t-25.5 -110v-113q0 -147 -145 -147h-52v75h36q34 0 54.5 18t20.5 53v116v35q0 10 1 20
q1 14 7 41q19 62 88 81z" />
    <glyph glyph-name="asciitilde" unicode="~" horiz-adv-x="639" 
d="M459 330q45 0 88 42l42 -65q-62 -65 -130 -65q-53 0 -145 39t-123 39q-21 0 -42 -10q-24 -12 -30 -17l-28 -23l-41 60q37 40 68 58t74 18q34 0 130 -38t137 -38z" />
    <glyph glyph-name="uni00A0" unicode="&#xa0;" horiz-adv-x="233" 
 />
    <glyph glyph-name="exclamdown" unicode="&#xa1;" horiz-adv-x="326" 
d="M128 251h70l28 -470h-126zM226 447v-126h-126v126h126z" />
    <glyph glyph-name="cent" unicode="&#xa2;" horiz-adv-x="499" 
d="M320 -10v-108h-78v110q-94 13 -147 79q-53 65 -53 147q0 78 51 145q52 67 149 82v109h78v-108q76 -7 140 -62l-51 -62q-55 48 -121 48q-67 0 -108 -42.5t-41 -109.5q0 -60 42 -106q44 -45 112 -45q69 0 124 46l50 -62q-61 -52 -147 -61z" />
    <glyph glyph-name="sterling" unicode="&#xa3;" horiz-adv-x="483" 
d="M453 636l-37 -74q-56 35 -108 35q-55 0 -86 -32t-31 -87q0 -46 27 -128h152v-74h-131q4 -17 4 -57q0 -37 -15 -70t-33 -51l2 -5q21 8 45 8q17 0 53 -16t57 -16q44 0 81 42l50 -59q-63 -66 -134 -66q-32 0 -73 16q-39 16 -62 16q-59 0 -100 -32l-53 93q50 36 72 66.5
t22 66.5q0 41 -10 64h-97v74h67q-25 63 -25 127q0 94 59 148.5t159 54.5q86 0 145 -44z" />
    <glyph glyph-name="currency" unicode="&#xa4;" horiz-adv-x="625" 
d="M92 62l-59 59l90 89q-40 53 -40 128q0 74 40 130l-91 89l59 59l90 -89q53 42 132 42t131 -42l91 89l58 -59l-91 -90q40 -53 40 -129q0 -72 -39 -127l90 -90l-59 -59l-90 89q-61 -42 -131 -42q-79 0 -132 42zM178 338q0 -56 38 -96q40 -38 97 -38q55 0 94 36q40 36 40 98
q0 52 -37 93q-37 43 -97 43q-58 0 -96.5 -38.5t-38.5 -97.5z" />
    <glyph glyph-name="yen" unicode="&#xa5;" horiz-adv-x="550" 
d="M228 255h-171v74h141l-186 337h110l159 -306l163 306h94l-185 -337h142v-74h-172v-60h172v-74h-172v-121h-95v121h-171v74h171v60z" />
    <glyph glyph-name="brokenbar" unicode="&#xa6;" horiz-adv-x="224" 
d="M70 829h84v-455h-84v455zM70 230h84v-455h-84v455z" />
    <glyph glyph-name="section" unicode="&#xa7;" horiz-adv-x="583" 
d="M179 248q0 -46 27.5 -72.5t71.5 -26.5q42 0 70 28.5t28 70.5q0 41 -27.5 70t-72.5 29q-44 0 -70.5 -28t-26.5 -71zM262 -196q-87 0 -152 44l38 69q56 -35 112 -35q35 0 55.5 18.5t20.5 49.5q0 84 -76 120q-75 1 -127 49q-50 48 -50 129q0 59 35.5 105.5t92.5 63.5
q-38 18 -60 51.5t-22 74.5q0 70 49 110q50 41 121 41q83 0 154 -44l-38 -69q-53 35 -112 35q-36 0 -57 -20.5t-21 -52.5q0 -75 76 -118q78 -8 124.5 -57.5t46.5 -119.5q0 -60 -32.5 -104t-89.5 -63q36 -19 59 -55.5t23 -75.5q0 -66 -46 -106t-124 -40z" />
    <glyph glyph-name="dieresis" unicode="&#xa8;" horiz-adv-x="340" 
d="M312 632v-96h-96v96h96zM129 632v-96h-96v96h96z" />
    <glyph glyph-name="copyright" unicode="&#xa9;" horiz-adv-x="921" 
d="M70 205q0 163 114 276q114 114 277 114q161 0 275 -114q115 -114 115 -276q0 -163 -115 -277q-114 -114 -275 -114q-163 0 -277 115q-114 114 -114 276zM148 203q0 -128 91 -219q92 -92 222 -92q128 0 220 92t92 219q0 129 -92 221q-91 93 -220 93q-131 0 -222 -93
q-91 -91 -91 -221zM469 -11q-107 0 -169 63q-61 62 -61 150q0 37 13.5 73.5t40 69t72.5 52.5t104 20q91 0 162 -63l-52 -61q-52 46 -110 46q-59 0 -96 -38.5t-37 -98.5q0 -61 40 -98t96 -37q61 0 114 44l50 -58q-71 -64 -167 -64z" />
    <glyph glyph-name="ordfeminine" unicode="&#xaa;" horiz-adv-x="460" 
d="M137 575l-15 67q66 24 133 24q62 0 98.5 -27t36.5 -76v-239h-78v22q-37 -31 -108 -31q-57 0 -93 31.5t-36 82.5q0 49 38.5 79t103.5 30q54 0 95 -23v5q0 42 -16 58t-61 16q-48 0 -98 -19zM160 429q0 -42 69 -42q85 0 85 40t-81 40q-73 0 -73 -38z" />
    <glyph glyph-name="guillemotleft" unicode="&#xab;" 
d="M366 45l-127 173l127 174h96l-124 -174l124 -173h-96zM191 45l-127 173l127 174h96l-124 -174l124 -173h-96z" />
    <glyph glyph-name="logicalnot" unicode="&#xac;" horiz-adv-x="742" 
d="M512 286h-470v83h554v-233h-84v150z" />
    <glyph glyph-name="uni00AD" unicode="&#xad;" horiz-adv-x="444" 
d="M369 202h-294v83h294v-83z" />
    <glyph glyph-name="registered" unicode="&#xae;" horiz-adv-x="628" 
d="M281 458h-10v-96h-83v280h139q42 0 68 -25t26 -60q0 -62 -55 -84l97 -111h-96zM307 576h-36v-55h36q32 0 32 29q0 26 -32 26zM314 284q83 0 144 61t61 144q0 84 -61 145t-144 61q-85 0 -146 -61q-60 -60 -60 -144t60 -145q61 -61 146 -61zM314 769q115 0 197 -82
q82 -81 82 -197t-82 -198q-83 -81 -197 -81q-117 0 -198 81q-81 82 -81 198t81 197q81 82 198 82z" />
    <glyph glyph-name="overscore" unicode="&#xaf;" horiz-adv-x="345" 
d="M315 551h-285v78h285v-78z" />
    <glyph glyph-name="degree" unicode="&#xb0;" horiz-adv-x="348" 
d="M20 510q0 65 45 110q45 46 110 46t110 -46q46 -45 46 -110t-46 -110q-45 -45 -110 -45t-110 45q-45 46 -45 110zM107 511q0 -32 19.5 -52.5t46.5 -20.5q32 0 51.5 20.5t19.5 52.5q0 29 -19 50.5t-51 21.5q-29 0 -48 -21t-19 -51z" />
    <glyph glyph-name="plusminus" unicode="&#xb1;" horiz-adv-x="608" 
d="M344 312v-165h-83v165h-211v83h211v202h83v-202h214v-83h-214zM558 26h-508v83h508v-83z" />
    <glyph glyph-name="twosuperior" unicode="&#xb2;" horiz-adv-x="445" 
d="M241 396h130l-36 -72h-280q53 43 59 49l50 42q39 36 46 43q3 4 14 16.5t17 20.5q31 36 31 70q0 65 -79 65q-57 0 -94 -34l-29 62q61 44 135 44q69 0 110.5 -33.5t41.5 -89.5q0 -36 -19 -70q-20 -35 -39 -57q-17 -18 -58 -56z" />
    <glyph glyph-name="threesuperior" unicode="&#xb3;" horiz-adv-x="436" 
d="M100 611l-26 62q52 29 120 29q70 0 113.5 -25.5t43.5 -74.5q0 -33 -22.5 -56.5t-56.5 -30.5v-2q41 -2 65.5 -27t24.5 -59q0 -56 -48 -84t-130 -28q-62 0 -106 18v72q48 -18 105 -18q94 0 94 39q0 45 -100 45h-23v69h23q45 0 67 13t22 33t-21.5 32t-54.5 12q-51 0 -90 -19
z" />
    <glyph glyph-name="acute" unicode="&#xb4;" horiz-adv-x="351" 
d="M168 499h-65l87 167h142z" />
    <glyph glyph-name="mu" unicode="&#xb5;" horiz-adv-x="542" 
d="M470 0h-90v52q-63 -63 -135 -63q-44 0 -84 17v-219h-89v650h90v-252q0 -57 24.5 -87.5t67.5 -30.5q37 0 71 20.5t55 51.5v298h90v-437z" />
    <glyph glyph-name="mu" unicode="&#x3bc;" horiz-adv-x="542" 
d="M470 0h-90v52q-63 -63 -135 -63q-44 0 -84 17v-219h-89v650h90v-252q0 -57 24.5 -87.5t67.5 -30.5q37 0 71 20.5t55 51.5v298h90v-437z" />
    <glyph glyph-name="paragraph" unicode="&#xb6;" horiz-adv-x="504" 
d="M287 -196h-70v546q-82 1 -129 55q-46 53 -46 120t46 119q47 53 129 56h70v-896zM434 -196h-70v896h70v-896z" />
    <glyph glyph-name="middot" unicode="&#xb7;" horiz-adv-x="250" 
d="M62 299v126h126v-126h-126z" />
    <glyph glyph-name="cedilla" unicode="&#xb8;" horiz-adv-x="220" 
d="M69 0h70v-46q37 -6 56.5 -25t19.5 -47q0 -39 -42.5 -65t-105.5 -26q-19 0 -37 3l5 60q13 -3 32 -3q52 0 52 28t-50 28v93z" />
    <glyph glyph-name="onesuperior" unicode="&#xb9;" horiz-adv-x="312" 
d="M132 586l-72 -70v86l98 97h54v-375h-80v262z" />
    <glyph glyph-name="ordmasculine" unicode="&#xba;" horiz-adv-x="468" 
d="M66 491q0 77 48 127q48 49 119 49q83 0 125 -52q42 -53 42 -124q0 -77 -48 -126q-47 -50 -119 -50q-76 0 -121.5 48t-45.5 128zM146 490q0 -45 23 -72t64 -27t64 26.5t23 72.5t-22.5 73.5t-64.5 27.5q-29 0 -49 -13t-27 -35q-11 -34 -11 -53z" />
    <glyph glyph-name="guillemotright" unicode="&#xbb;" 
d="M161 392l126 -174l-126 -173h-97l125 173l-125 174h97zM336 392l126 -174l-126 -173h-97l124 173l-124 174h97z" />
    <glyph glyph-name="onequarter" unicode="&#xbc;" horiz-adv-x="782" 
d="M678 131h46l-19 -63h-27v-68h-80v68h-194v45l224 263h50v-245zM500 131h98v114zM694 643l-562 -648l-58 54l558 647zM132 586l-72 -70v86l98 97h54v-375h-80v262z" />
    <glyph glyph-name="onehalf" unicode="&#xbd;" horiz-adv-x="854" 
d="M664 72h130l-36 -72h-280q53 43 59 49l50 42q39 36 46 43q3 4 14 16.5t17 20.5q31 36 31 70q0 65 -79 65q-57 0 -94 -34l-29 62q61 44 135 44q69 0 110.5 -33.5t41.5 -89.5q0 -36 -19 -70q-19 -35 -39 -57q-17 -18 -58 -56zM694 643l-562 -648l-58 54l558 647zM132 586
l-72 -70v86l98 97h54v-375h-80v262z" />
    <glyph glyph-name="threequarters" unicode="&#xbe;" horiz-adv-x="870" 
d="M769 643l-562 -648l-58 54l558 647zM551 134h98v121zM100 611l-26 62q52 29 120 29q70 0 113.5 -25.5t43.5 -74.5q0 -33 -22.5 -56.5t-56.5 -30.5v-2q41 -2 65.5 -27t24.5 -59q0 -56 -48 -84t-130 -28q-62 0 -106 18v72q48 -18 105 -18q94 0 94 39q0 45 -100 45h-23v69
h23q45 0 67 13t22 33t-21.5 32t-54.5 12q-51 0 -90 -19zM731 131h46l-19 -63h-27v-68h-80v68h-194v45l224 263h50v-245z" />
    <glyph glyph-name="questiondown" unicode="&#xbf;" horiz-adv-x="430" 
d="M300 447v-126h-126v126h126zM349 -142l-23 -82q-50 -9 -84 -9q-47 0 -96 21q-29 12 -46 39.5t-17 65.5q0 36 15.5 64t54.5 64q69 63 69 99q0 24 -19 43q-12 17 -51 53l56 63q33 -27 53 -47q57 -57 57 -111q0 -49 -63 -114q-2 -3 -20 -20l-27 -29q-29 -36 -29 -64
q0 -44 66 -44q51 0 104 8z" />
    <glyph glyph-name="Agrave" unicode="&#xc0;" horiz-adv-x="671" 
d="M474 179h-277l-86 -179h-103l327 680l328 -680h-103zM334 481l-105 -219h212zM284 862l86 -139h-64l-165 139h143z" />
    <glyph glyph-name="Aacute" unicode="&#xc1;" horiz-adv-x="671" 
d="M474 179h-277l-86 -179h-103l327 680l328 -680h-103zM334 481l-105 -219h212zM368 723h-65l87 139h142z" />
    <glyph glyph-name="Acircumflex" unicode="&#xc2;" horiz-adv-x="671" 
d="M474 179h-277l-86 -179h-103l327 680l328 -680h-103zM334 481l-105 -219h212zM415 712l-80 86l-80 -86h-69l104 160h87l107 -160h-69z" />
    <glyph glyph-name="Atilde" unicode="&#xc3;" horiz-adv-x="671" 
d="M474 179h-277l-86 -179h-103l327 680l328 -680h-103zM334 481l-105 -219h212zM239 713l-65 21q6 44 36 74t74 30q27 0 65 -18q39 -18 58 -18q30 0 45 35l65 -24q-6 -39 -34 -66.5t-67 -27.5q-23 0 -65 18t-62 18q-35 0 -50 -42z" />
    <glyph glyph-name="Adieresis" unicode="&#xc4;" horiz-adv-x="671" 
d="M474 179h-277l-86 -179h-103l327 680l328 -680h-103zM334 481l-105 -219h212zM291 845v-101h-101v101h101zM480 845v-101h-101v101h101z" />
    <glyph glyph-name="Aring" unicode="&#xc5;" horiz-adv-x="671" 
d="M474 179h-277l-86 -179h-103l327 680l328 -680h-103zM334 481l-105 -219h212zM240 812q0 42 28 70q29 29 70 29t70 -30q23 -20 27.5 -50t-6.5 -56.5t-35.5 -44.5t-55.5 -17q-42 0 -70 28.5t-28 70.5zM319 831q-17 -19 1 -38t37 0t0 38t-38 0z" />
    <glyph glyph-name="AE" unicode="&#xc6;" horiz-adv-x="923" 
d="M110 0h-110l395 666h467v-83h-311v-200h283v-83h-283v-217h314v-83h-409v164h-249zM456 247v336l-200 -336h200z" />
    <glyph glyph-name="Ccedilla" unicode="&#xc7;" horiz-adv-x="674" 
d="M588 128l53 -58q-89 -80 -219 -84v-23q76 -14 76 -76q0 -42 -44 -69t-109 -27q-23 0 -42 4l5 70q15 -4 37 -4q47 0 47 23t-50 23v84q-93 13 -161 68q-131 104 -131 275q0 147 102 246q103 100 259 100q140 0 219 -73l-52 -66q-68 56 -169 56q-111 0 -185 -74
q-73 -73 -73 -189q0 -118 72 -192q73 -73 189 -73q94 0 176 59z" />
    <glyph glyph-name="Egrave" unicode="&#xc8;" horiz-adv-x="571" 
d="M199 383h283v-83h-283v-217h314v-83h-409v666h406v-83h-311v-200zM295 862l86 -139h-64l-165 139h143z" />
    <glyph glyph-name="Eacute" unicode="&#xc9;" horiz-adv-x="571" 
d="M199 383h283v-83h-283v-217h314v-83h-409v666h406v-83h-311v-200zM301 723h-65l87 139h142z" />
    <glyph glyph-name="Ecircumflex" unicode="&#xca;" horiz-adv-x="571" 
d="M199 383h283v-83h-283v-217h314v-83h-409v666h406v-83h-311v-200zM388 712l-80 86l-80 -86h-69l104 160h87l107 -160h-69z" />
    <glyph glyph-name="Edieresis" unicode="&#xcb;" horiz-adv-x="571" 
d="M199 383h283v-83h-283v-217h314v-83h-409v666h406v-83h-311v-200zM264 845v-101h-101v101h101zM453 845v-101h-101v101h101z" />
    <glyph glyph-name="Igrave" unicode="&#xcc;" horiz-adv-x="303" 
d="M100 862l86 -139h-64l-165 139h143zM199 0h-95v666h95v-666z" />
    <glyph glyph-name="Iacute" unicode="&#xcd;" horiz-adv-x="303" 
d="M199 0h-95v666h95v-666zM183 723h-65l87 139h142z" />
    <glyph glyph-name="Icircumflex" unicode="&#xce;" horiz-adv-x="303" 
d="M231 712l-80 86l-80 -86h-69l104 160h87l107 -160h-69zM199 0h-95v666h95v-666z" />
    <glyph glyph-name="Idieresis" unicode="&#xcf;" horiz-adv-x="303" 
d="M199 0h-95v666h95v-666zM107 845v-101h-101v101h101zM296 845v-101h-101v101h101z" />
    <glyph glyph-name="Eth" unicode="&#xd0;" horiz-adv-x="714" 
d="M304 0h-200v294h-81v83h81v289h200q176 0 267 -93q93 -93 93 -240q0 -146 -89 -240q-89 -93 -271 -93zM303 583h-104v-206h146v-83h-146v-211h107q125 0 191 62.5t66 186.5q0 118 -66.5 184.5t-193.5 66.5z" />
    <glyph glyph-name="Ntilde" unicode="&#xd1;" horiz-adv-x="747" 
d="M643 -14l-455 483v-469h-84v680l455 -480v466h84v-680zM267 713l-65 21q6 44 36 74t74 30q28 0 65 -18q39 -18 58 -18q30 0 45 35l65 -24q-6 -39 -34 -66.5t-67 -27.5q-23 0 -65 18t-62 18q-35 0 -50 -42z" />
    <glyph glyph-name="Ograve" unicode="&#xd2;" horiz-adv-x="817" 
d="M50 333q0 149 101 248t259 99q85 0 155 -30.5t113 -82.5q89 -106 89 -234q0 -141 -99 -244t-258 -103q-157 -1 -260.5 104t-99.5 243zM151 332q0 -110 72 -187q72 -76 186 -76q113 0 185 76t72 187q0 69 -28 126q-29 62 -89.5 100.5t-139.5 38.5q-114 0 -186 -77
q-72 -76 -72 -188zM355 862l86 -139h-64l-165 139h143z" />
    <glyph glyph-name="Oacute" unicode="&#xd3;" horiz-adv-x="817" 
d="M50 333q0 149 101 248t259 99q85 0 155 -30.5t113 -82.5q89 -106 89 -234q0 -141 -99 -244t-258 -103q-157 -1 -260.5 104t-99.5 243zM151 332q0 -110 72 -187q72 -76 186 -76q113 0 185 76t72 187q0 69 -28 126q-29 62 -89.5 100.5t-139.5 38.5q-114 0 -186 -77
q-72 -76 -72 -188zM441 723h-65l87 139h142z" />
    <glyph glyph-name="Ocircumflex" unicode="&#xd4;" horiz-adv-x="817" 
d="M50 333q0 149 101 248t259 99q85 0 155 -30.5t113 -82.5q89 -106 89 -234q0 -141 -99 -244t-258 -103q-157 -1 -260.5 104t-99.5 243zM151 332q0 -110 72 -187q72 -76 186 -76q113 0 185 76t72 187q0 69 -28 126q-29 62 -89.5 100.5t-139.5 38.5q-114 0 -186 -77
q-72 -76 -72 -188zM488 712l-80 86l-80 -86h-69l104 160h87l107 -160h-69z" />
    <glyph glyph-name="Otilde" unicode="&#xd5;" horiz-adv-x="817" 
d="M50 333q0 149 101 248t259 99q85 0 155 -30.5t113 -82.5q89 -106 89 -234q0 -141 -99 -244t-258 -103q-157 -1 -260.5 104t-99.5 243zM151 332q0 -110 72 -187q72 -76 186 -76q113 0 185 76t72 187q0 69 -28 126q-29 62 -89.5 100.5t-139.5 38.5q-114 0 -186 -77
q-72 -76 -72 -188zM302 713l-65 21q6 44 36.5 74t73.5 30q27 0 65 -18q39 -18 58 -18q30 0 45 35l65 -24q-6 -39 -34 -66.5t-67 -27.5q-23 0 -65 18t-62 18q-35 0 -50 -42z" />
    <glyph glyph-name="Odieresis" unicode="&#xd6;" horiz-adv-x="817" 
d="M50 333q0 149 101 248t259 99q85 0 155 -30.5t113 -82.5q89 -106 89 -234q0 -141 -99 -244t-258 -103q-157 -1 -260.5 104t-99.5 243zM151 332q0 -110 72 -187q72 -76 186 -76q113 0 185 76t72 187q0 69 -28 126q-29 62 -89.5 100.5t-139.5 38.5q-114 0 -186 -77
q-72 -76 -72 -188zM365 845v-101h-101v101h101zM554 845v-101h-101v101h101z" />
    <glyph glyph-name="multiply" unicode="&#xd7;" horiz-adv-x="626" 
d="M377 259l199 -200l-64 -63l-198 200l-200 -200l-64 63l200 200l-200 200l64 63l200 -200l198 200l64 -63z" />
    <glyph glyph-name="Oslash" unicode="&#xd8;" horiz-adv-x="817" 
d="M178 63l-81 -77l-47 52l78 75q-78 105 -78 220q0 144 98 245q99 102 262 102q132 0 228 -75l78 75l51 -49l-78 -77q78 -95 78 -221q0 -144 -102 -246q-103 -101 -255 -101q-129 0 -232 77zM619 489l-377 -362q67 -58 166 -58q114 0 186 76t72 187q0 92 -47 157zM196 179
l376 363q-70 55 -163 55q-113 0 -186 -78q-72 -77 -72 -187q0 -82 45 -153z" />
    <glyph glyph-name="Ugrave" unicode="&#xd9;" horiz-adv-x="754" 
d="M559 666h95v-374q0 -149 -72 -227.5t-204 -78.5q-139 0 -208.5 78.5t-69.5 227.5v374h95v-378q0 -219 183 -219q181 0 181 219v378zM323 862l86 -139h-64l-165 139h143z" />
    <glyph glyph-name="Uacute" unicode="&#xda;" horiz-adv-x="754" 
d="M559 666h95v-374q0 -149 -72 -227.5t-204 -78.5q-139 0 -208.5 78.5t-69.5 227.5v374h95v-378q0 -219 183 -219q181 0 181 219v378zM399 723h-65l87 139h142z" />
    <glyph glyph-name="Ucircumflex" unicode="&#xdb;" horiz-adv-x="754" 
d="M559 666h95v-374q0 -149 -72 -227.5t-204 -78.5q-139 0 -208.5 78.5t-69.5 227.5v374h95v-378q0 -219 183 -219q181 0 181 219v378zM457 712l-80 86l-80 -86h-69l104 160h87l107 -160h-69z" />
    <glyph glyph-name="Udieresis" unicode="&#xdc;" horiz-adv-x="754" 
d="M559 666h95v-374q0 -149 -72 -227.5t-204 -78.5q-139 0 -208.5 78.5t-69.5 227.5v374h95v-378q0 -219 183 -219q181 0 181 219v378zM333 845v-101h-101v101h101zM522 845v-101h-101v101h101z" />
    <glyph glyph-name="Yacute" unicode="&#xdd;" horiz-adv-x="597" 
d="M251 0v218l-241 448h103l185 -346l186 346h103l-241 -448v-218h-95zM321 723h-65l87 139h142z" />
    <glyph glyph-name="Thorn" unicode="&#xde;" horiz-adv-x="567" 
d="M199 477v-257h93q76 0 114 33.5t38 93.5q0 61 -37 95.5t-110 34.5h-98zM302 137h-103v-137h-95v666h95v-106h114q109 0 170 -60q62 -59 62 -145q0 -101 -62 -159.5t-181 -58.5z" />
    <glyph glyph-name="germandbls" unicode="&#xdf;" horiz-adv-x="567" 
d="M190 0h-90v502q0 96 44 158q45 62 143 62q90 0 141.5 -45.5t51.5 -125.5q0 -55 -28 -96.5t-74 -49.5v-5q65 -7 100 -63q34 -55 34 -136q0 -104 -52 -159q-51 -56 -127 -56q-54 0 -86 28l27 69q23 -14 50 -14q43 0 68 35t25 97q0 87 -34.5 127t-108.5 34v70q56 -1 83.5 27
t27.5 87q0 93 -104 93q-42 0 -66.5 -35t-24.5 -94v-510z" />
    <glyph glyph-name="agrave" unicode="&#xe0;" horiz-adv-x="501" 
d="M106 349l-16 69q71 30 166 30q82 0 129.5 -35t47.5 -99v-314h-86v32q-58 -43 -149 -43q-76 0 -122 37.5t-46 103.5q0 64 50.5 102.5t134.5 38.5q77 0 132 -31v24q0 57 -23 83.5t-84 26.5q-71 0 -134 -25zM126 133q0 -70 97 -70q53 0 89 19t36 51q0 31 -32.5 50.5
t-84.5 19.5q-48 0 -76.5 -18.5t-28.5 -51.5zM226 666l86 -167h-64l-165 167h143z" />
    <glyph glyph-name="aacute" unicode="&#xe1;" horiz-adv-x="501" 
d="M106 349l-16 69q71 30 166 30q82 0 129.5 -35t47.5 -99v-314h-86v32q-58 -43 -149 -43q-76 0 -122 37.5t-46 103.5q0 64 50.5 102.5t134.5 38.5q77 0 132 -31v24q0 57 -23 83.5t-84 26.5q-71 0 -134 -25zM126 133q0 -70 97 -70q53 0 89 19t36 51q0 31 -32.5 50.5
t-84.5 19.5q-48 0 -76.5 -18.5t-28.5 -51.5zM296 499h-65l87 167h142z" />
    <glyph glyph-name="acircumflex" unicode="&#xe2;" horiz-adv-x="501" 
d="M106 349l-16 69q71 30 166 30q82 0 129.5 -35t47.5 -99v-314h-86v32q-58 -43 -149 -43q-76 0 -122 37.5t-46 103.5q0 64 50.5 102.5t134.5 38.5q77 0 132 -31v24q0 57 -23 83.5t-84 26.5q-71 0 -134 -25zM126 133q0 -70 97 -70q53 0 89 19t36 51q0 31 -32.5 50.5
t-84.5 19.5q-48 0 -76.5 -18.5t-28.5 -51.5zM353 506l-80 86l-80 -86h-69l104 160h87l107 -160h-69z" />
    <glyph glyph-name="atilde" unicode="&#xe3;" horiz-adv-x="501" 
d="M106 349l-16 69q71 30 166 30q82 0 129.5 -35t47.5 -99v-314h-86v32q-58 -43 -149 -43q-76 0 -122 37.5t-46 103.5q0 64 50.5 102.5t134.5 38.5q77 0 132 -31v24q0 57 -23 83.5t-84 26.5q-71 0 -134 -25zM126 133q0 -70 97 -70q53 0 89 19t36 51q0 31 -32.5 50.5
t-84.5 19.5q-48 0 -76.5 -18.5t-28.5 -51.5zM163 524l-65 21q30 93 108 93q29 0 67 -18q39 -18 58 -18q30 0 45 35l65 -24q-9 -37 -36 -60t-65 -23q-23 0 -65 18t-62 18q-35 0 -50 -42z" />
    <glyph glyph-name="adieresis" unicode="&#xe4;" horiz-adv-x="501" 
d="M106 349l-16 69q71 30 166 30q82 0 129.5 -35t47.5 -99v-314h-86v32q-58 -43 -149 -43q-76 0 -122 37.5t-46 103.5q0 64 50.5 102.5t134.5 38.5q77 0 132 -31v24q0 57 -23 83.5t-84 26.5q-71 0 -134 -25zM126 133q0 -70 97 -70q53 0 89 19t36 51q0 31 -32.5 50.5
t-84.5 19.5q-48 0 -76.5 -18.5t-28.5 -51.5zM405 632v-96h-96v96h96zM222 632v-96h-96v96h96z" />
    <glyph glyph-name="aring" unicode="&#xe5;" horiz-adv-x="501" 
d="M106 349l-16 69q71 30 166 30q82 0 129.5 -35t47.5 -99v-314h-86v32q-58 -43 -149 -43q-76 0 -122 37.5t-46 103.5q0 64 50.5 102.5t134.5 38.5q77 0 132 -31v24q0 57 -23 83.5t-84 26.5q-71 0 -134 -25zM126 133q0 -70 97 -70q53 0 89 19t36 51q0 31 -32.5 50.5
t-84.5 19.5q-48 0 -76.5 -18.5t-28.5 -51.5zM198 512q-27 28 -27 67t27 66q27 28 66 28t66 -28q28 -28 28 -66t-28 -66q-27 -28 -66 -28t-66 27zM264 547q20 0 28 16t0 32t-28 16q-19 0 -26.5 -16t0 -32t26.5 -16z" />
    <glyph glyph-name="ae" unicode="&#xe6;" horiz-adv-x="850" 
d="M412 386q68 62 167 62q105 0 167 -63q61 -62 61 -149q0 -20 -3 -34h-371q4 -59 47 -97t109 -38q92 0 147 61l60 -48q-72 -91 -208 -91q-120 0 -188 75q-45 -36 -91 -57q-43 -18 -111 -18q-76 0 -122 37.5t-46 103.5q0 64 50.5 102.5t134.5 38.5q77 0 132 -31v24
q0 57 -23 83.5t-84 26.5q-71 0 -134 -25l-16 69q71 30 166 30q112 0 156 -62zM126 133q0 -70 97 -70q53 0 89 19t36 51q0 31 -32.5 50.5t-84.5 19.5q-48 0 -76.5 -18.5t-28.5 -51.5zM439 270h267q-8 46 -40.5 73t-82.5 27q-113 0 -144 -100z" />
    <glyph glyph-name="ccedilla" unicode="&#xe7;" horiz-adv-x="493" 
d="M417 113l48 -59q-58 -56 -155 -64v-36q37 -6 56.5 -25t19.5 -47q0 -39 -42.5 -65t-105.5 -26q-19 0 -37 3l5 60q14 -3 32 -3q52 0 52 28t-50 28v86q-94 14 -146 78t-52 147q0 40 14.5 79.5t43.5 73.5t77.5 55.5t110.5 21.5q99 0 172 -64l-51 -62q-55 48 -121 48
q-68 0 -109 -42.5t-41 -109.5q0 -68 44 -110q46 -41 111 -41q69 0 124 46z" />
    <glyph glyph-name="egrave" unicode="&#xe8;" horiz-adv-x="552" 
d="M438 128l60 -48q-72 -91 -208 -91q-116 0 -182 68q-66 69 -66 168q0 96 71 159q71 64 168 64q105 0 167 -63q61 -62 61 -149q0 -20 -3 -34h-376q4 -57 48 -96q45 -39 113 -39q92 0 147 61zM136 270h278q-9 44 -43 72t-86 28q-57 0 -95.5 -26t-53.5 -74zM231 666l86 -167
h-64l-165 167h143z" />
    <glyph glyph-name="eacute" unicode="&#xe9;" horiz-adv-x="552" 
d="M438 128l60 -48q-72 -91 -208 -91q-116 0 -182 68q-66 69 -66 168q0 96 71 159q71 64 168 64q105 0 167 -63q61 -62 61 -149q0 -20 -3 -34h-376q4 -57 48 -96q45 -39 113 -39q92 0 147 61zM136 270h278q-9 44 -43 72t-86 28q-57 0 -95.5 -26t-53.5 -74zM317 499h-65
l87 167h142z" />
    <glyph glyph-name="ecircumflex" unicode="&#xea;" horiz-adv-x="552" 
d="M438 128l60 -48q-72 -91 -208 -91q-116 0 -182 68q-66 69 -66 168q0 96 71 159q71 64 168 64q105 0 167 -63q61 -62 61 -149q0 -20 -3 -34h-376q4 -57 48 -96q45 -39 113 -39q92 0 147 61zM136 270h278q-9 44 -43 72t-86 28q-57 0 -95.5 -26t-53.5 -74zM354 506l-80 86
l-80 -86h-69l104 160h87l107 -160h-69z" />
    <glyph glyph-name="edieresis" unicode="&#xeb;" horiz-adv-x="552" 
d="M438 128l60 -48q-72 -91 -208 -91q-116 0 -182 68q-66 69 -66 168q0 96 71 159q71 64 168 64q105 0 167 -63q61 -62 61 -149q0 -20 -3 -34h-376q4 -57 48 -96q45 -39 113 -39q92 0 147 61zM136 270h278q-9 44 -43 72t-86 28q-57 0 -95.5 -26t-53.5 -74zM417 632v-96h-96
v96h96zM234 632v-96h-96v96h96z" />
    <glyph glyph-name="igrave" unicode="&#xec;" horiz-adv-x="234" 
d="M162 0h-90v437h90v-437zM60 666l86 -167h-64l-165 167h143z" />
    <glyph glyph-name="iacute" unicode="&#xed;" horiz-adv-x="234" 
d="M162 0h-90v437h90v-437zM149 499h-65l87 167h142z" />
    <glyph glyph-name="icircumflex" unicode="&#xee;" horiz-adv-x="234" 
d="M196 506l-80 86l-80 -86h-69l104 160h87l107 -160h-69zM162 0h-90v437h90v-437z" />
    <glyph glyph-name="idieresis" unicode="&#xef;" horiz-adv-x="234" 
d="M246 632v-96h-97v96h97zM82 632v-96h-96v96h96zM162 0h-90v437h90v-437z" />
    <glyph glyph-name="eth" unicode="&#xf0;" horiz-adv-x="572" 
d="M457 646l-81 -54q154 -136 154 -321q0 -127 -69 -205q-69 -77 -186 -77q-95 0 -164 63t-69 163q0 96 67 164q68 69 178 69q74 0 132 -53q-12 36 -45.5 77.5t-72.5 71.5l-120 -79l-42 55l104 65q-39 28 -118 57l69 58q55 -13 128 -61l92 62zM138 225q0 -70 40.5 -114
t109.5 -44q67 0 110 49q45 49 43 120q0 24 -4 39q-21 43 -59 69t-84 26q-71 0 -113.5 -40.5t-42.5 -104.5z" />
    <glyph glyph-name="ntilde" unicode="&#xf1;" horiz-adv-x="533" 
d="M162 0h-90v437h90v-72q47 83 142 83q166 0 166 -176v-272h-90v248q0 63 -22 92.5t-76 29.5q-53 0 -86.5 -35.5t-33.5 -89.5v-245zM171 524l-65 21q30 93 108 93q29 0 67 -18q39 -18 58 -18q30 0 45 35l65 -24q-9 -37 -36 -60t-65 -23q-23 0 -65 18t-62 18q-35 0 -50 -42z
" />
    <glyph glyph-name="ograve" unicode="&#xf2;" horiz-adv-x="578" 
d="M42 218q0 94 66 161q68 69 181 69q110 0 178 -65q69 -65 69 -165q0 -104 -69 -167q-70 -62 -178 -62q-115 0 -181 67q-66 68 -66 162zM138 218q0 -68 42 -109.5t109 -41.5q69 0 110 42t41 109q0 70 -42 111t-109 41t-109 -41.5t-42 -110.5zM235 666l86 -167h-64l-165 167
h143z" />
    <glyph glyph-name="oacute" unicode="&#xf3;" horiz-adv-x="578" 
d="M42 218q0 94 66 161q68 69 181 69q110 0 178 -65q69 -65 69 -165q0 -104 -69 -167q-70 -62 -178 -62q-115 0 -181 67q-66 68 -66 162zM138 218q0 -68 42 -109.5t109 -41.5q69 0 110 42t41 109q0 70 -42 111t-109 41t-109 -41.5t-42 -110.5zM321 499h-65l87 167h142z" />
    <glyph glyph-name="ocircumflex" unicode="&#xf4;" horiz-adv-x="578" 
d="M42 218q0 94 66 161q68 69 181 69q110 0 178 -65q69 -65 69 -165q0 -104 -69 -167q-70 -62 -178 -62q-115 0 -181 67q-66 68 -66 162zM138 218q0 -68 42 -109.5t109 -41.5q69 0 110 42t41 109q0 70 -42 111t-109 41t-109 -41.5t-42 -110.5zM369 506l-80 86l-80 -86h-69
l104 160h87l107 -160h-69z" />
    <glyph glyph-name="otilde" unicode="&#xf5;" horiz-adv-x="578" 
d="M42 218q0 94 66 161q68 69 181 69q110 0 178 -65q69 -65 69 -165q0 -104 -69 -167q-70 -62 -178 -62q-115 0 -181 67q-66 68 -66 162zM138 218q0 -68 42 -109.5t109 -41.5q69 0 110 42t41 109q0 70 -42 111t-109 41t-109 -41.5t-42 -110.5zM178 524l-65 21q30 93 108 93
q29 0 67 -18q39 -18 58 -18q30 0 45 35l65 -24q-9 -37 -36 -60t-65 -23q-23 0 -65 18t-62 18q-35 0 -50 -42z" />
    <glyph glyph-name="odieresis" unicode="&#xf6;" horiz-adv-x="578" 
d="M42 218q0 94 66 161q68 69 181 69q110 0 178 -65q69 -65 69 -165q0 -104 -69 -167q-70 -62 -178 -62q-115 0 -181 67q-66 68 -66 162zM138 218q0 -68 42 -109.5t109 -41.5q69 0 110 42t41 109q0 70 -42 111t-109 41t-109 -41.5t-42 -110.5zM432 632v-96h-96v96h96z
M249 632v-96h-96v96h96z" />
    <glyph glyph-name="divide" unicode="&#xf7;" horiz-adv-x="606" 
d="M244 419q-23 24 -23 57t23 56q24 24 57 24t56 -24q24 -23 24 -56t-24 -57q-23 -23 -56 -23t-57 23zM244 27q-23 24 -23 57t23 56q24 24 57 24t56 -24q24 -23 24 -56t-24 -57q-23 -23 -56 -23t-57 23zM556 240h-506v83h506v-83z" />
    <glyph glyph-name="oslash" unicode="&#xf8;" horiz-adv-x="580" 
d="M142 31l-49 -42l-51 55l47 43q-45 55 -45 132q0 94 64 161q65 68 181 68q82 0 145 -45l41 39l53 -55l-37 -34q47 -56 47 -135q0 -95 -70 -162t-179 -67q-85 0 -147 42zM422 290l-216 -198q32 -25 88 -25q72 0 111 45q39 46 39 103q0 47 -22 75zM155 148l216 198
q-34 24 -77 24q-72 0 -115 -45q-43 -43 -43 -107q0 -35 19 -70z" />
    <glyph glyph-name="ugrave" unicode="&#xf9;" horiz-adv-x="533" 
d="M371 437h90v-437h-90v75q-16 -35 -54 -60.5t-90 -25.5q-80 0 -122 44t-42 131v273h90v-250q0 -64 23 -92t76 -28q50 0 84 36q35 37 35 92v242zM208 666l86 -167h-64l-165 167h143z" />
    <glyph glyph-name="uacute" unicode="&#xfa;" horiz-adv-x="533" 
d="M371 437h90v-437h-90v75q-16 -35 -54 -60.5t-90 -25.5q-80 0 -122 44t-42 131v273h90v-250q0 -64 23 -92t76 -28q50 0 84 36q35 37 35 92v242zM294 499h-65l87 167h142z" />
    <glyph glyph-name="ucircumflex" unicode="&#xfb;" horiz-adv-x="533" 
d="M371 437h90v-437h-90v75q-16 -35 -54 -60.5t-90 -25.5q-80 0 -122 44t-42 131v273h90v-250q0 -64 23 -92t76 -28q50 0 84 36q35 37 35 92v242zM342 506l-80 86l-80 -86h-69l104 160h87l107 -160h-69z" />
    <glyph glyph-name="udieresis" unicode="&#xfc;" horiz-adv-x="533" 
d="M371 437h90v-437h-90v75q-16 -35 -54 -60.5t-90 -25.5q-80 0 -122 44t-42 131v273h90v-250q0 -64 23 -92t76 -28q50 0 84 36q35 37 35 92v242zM404 632v-96h-96v96h96zM221 632v-96h-96v96h96z" />
    <glyph glyph-name="yacute" unicode="&#xfd;" horiz-adv-x="473" 
d="M275 208l99 229h95l-295 -649h-90l108 239l-188 410h100l101 -230q6 -13 18 -52l16 -48q13 42 36 101zM270 499h-65l87 167h142z" />
    <glyph glyph-name="thorn" unicode="&#xfe;" horiz-adv-x="599" 
d="M160 218q0 -64 44 -108q43 -43 110 -43q68 0 107.5 41.5t39.5 111.5q0 56 -41 103t-110 47q-64 0 -107 -45q-43 -43 -43 -107zM162 67v-280h-90v913h90v-330q65 78 160 78q110 0 173 -72.5t62 -157.5q0 -95 -61 -162t-166 -67q-49 0 -95.5 21.5t-72.5 56.5z" />
    <glyph glyph-name="ydieresis" unicode="&#xff;" horiz-adv-x="473" 
d="M275 208l99 229h95l-295 -649h-90l108 239l-188 410h100l101 -230q6 -13 18 -52l16 -48q13 42 36 101zM380 632v-96h-96v96h96zM197 632v-96h-96v96h96z" />
    <glyph glyph-name="Amacron" unicode="&#x100;" horiz-adv-x="671" 
d="M474 179h-277l-86 -179h-103l327 680l328 -680h-103zM334 481l-105 -219h212zM488 739h-305v83h305v-83z" />
    <glyph glyph-name="amacron" unicode="&#x101;" horiz-adv-x="501" 
d="M106 349l-16 69q71 30 166 30q82 0 129.5 -35t47.5 -99v-314h-86v32q-58 -43 -149 -43q-76 0 -122 37.5t-46 103.5q0 64 50.5 102.5t134.5 38.5q77 0 132 -31v24q0 57 -23 83.5t-84 26.5q-71 0 -134 -25zM126 133q0 -70 97 -70q53 0 89 19t36 51q0 31 -32.5 50.5
t-84.5 19.5q-48 0 -76.5 -18.5t-28.5 -51.5zM407 551h-285v78h285v-78z" />
    <glyph glyph-name="Abreve" unicode="&#x102;" horiz-adv-x="671" 
d="M474 179h-277l-86 -179h-103l327 680l328 -680h-103zM334 481l-105 -219h212zM447 860l59 -44q-62 -104 -170 -104q-122 0 -170 103l58 45q44 -65 107 -65q69 0 116 65z" />
    <glyph glyph-name="abreve" unicode="&#x103;" horiz-adv-x="501" 
d="M106 349l-16 69q71 30 166 30q82 0 129.5 -35t47.5 -99v-314h-86v32q-58 -43 -149 -43q-76 0 -122 37.5t-46 103.5q0 64 50.5 102.5t134.5 38.5q77 0 132 -31v24q0 57 -23 83.5t-84 26.5q-71 0 -134 -25zM126 133q0 -70 97 -70q53 0 89 19t36 51q0 31 -32.5 50.5
t-84.5 19.5q-48 0 -76.5 -18.5t-28.5 -51.5zM378 646l52 -40q-56 -93 -164 -93q-118 0 -164 93l52 40q43 -61 111 -61q67 0 113 61z" />
    <glyph glyph-name="Aogonek" unicode="&#x104;" horiz-adv-x="671" 
d="M654 -120l20 -79q-39 -14 -92 -14q-57 0 -91.5 24.5t-34.5 71.5q0 66 99 127l-81 169h-277l-86 -179h-103l327 680l328 -680l-28 -17q-53 -30 -68 -50q-10 -13 -10 -28q0 -17 11.5 -26t30.5 -9q34 0 55 10zM334 481l-105 -219h212z" />
    <glyph glyph-name="aogonek" unicode="&#x105;" horiz-adv-x="501" 
d="M427 -132l18 -68q-32 -13 -86 -13q-55 0 -88 23.5t-33 67.5q0 69 109 133v21q-58 -43 -149 -43q-76 0 -122 37.5t-46 103.5q0 64 50.5 102.5t134.5 38.5q77 0 132 -31v24q0 57 -23 83.5t-84 26.5q-71 0 -134 -25l-16 69q71 30 166 30q82 0 129.5 -35t47.5 -99v-314
l-23 -14l-31 -20q-45 -35 -45 -65q0 -20 13 -31t34 -11q27 0 46 9zM126 133q0 -70 97 -70q53 0 89 19t36 51q0 31 -32.5 50.5t-84.5 19.5q-48 0 -76.5 -18.5t-28.5 -51.5z" />
    <glyph glyph-name="Cacute" unicode="&#x106;" horiz-adv-x="674" 
d="M588 128l53 -58q-93 -84 -232 -84q-85 0 -155.5 30t-114.5 81q-89 105 -89 237q0 147 102 246q103 100 259 100q140 0 219 -73l-52 -66q-68 56 -169 56q-111 0 -185 -74q-73 -73 -73 -189q0 -118 72 -192q73 -73 189 -73q94 0 176 59zM409 723h-65l87 139h142z" />
    <glyph glyph-name="cacute" unicode="&#x107;" horiz-adv-x="493" 
d="M289 -11q-115 0 -181 68t-66 161q0 40 14.5 79.5t43.5 73.5t77.5 55.5t110.5 21.5q99 0 172 -64l-51 -62q-55 48 -121 48q-68 0 -109 -42.5t-41 -109.5q0 -68 44 -110q46 -41 111 -41q69 0 124 46l48 -59q-70 -65 -176 -65zM313 499h-65l87 167h142z" />
    <glyph glyph-name="Ccircumflex" unicode="&#x108;" horiz-adv-x="674" 
d="M588 128l53 -58q-93 -84 -232 -84q-85 0 -155.5 30t-114.5 81q-89 105 -89 237q0 147 102 246q103 100 259 100q140 0 219 -73l-52 -66q-68 56 -169 56q-111 0 -185 -74q-73 -73 -73 -189q0 -118 72 -192q73 -73 189 -73q94 0 176 59zM479 712l-80 86l-80 -86h-69
l104 160h87l107 -160h-69z" />
    <glyph glyph-name="ccircumflex" unicode="&#x109;" horiz-adv-x="493" 
d="M289 -11q-115 0 -181 68t-66 161q0 40 14.5 79.5t43.5 73.5t77.5 55.5t110.5 21.5q99 0 172 -64l-51 -62q-55 48 -121 48q-68 0 -109 -42.5t-41 -109.5q0 -68 44 -110q46 -41 111 -41q69 0 124 46l48 -59q-70 -65 -176 -65zM362 506l-80 86l-80 -86h-69l104 160h87
l107 -160h-69z" />
    <glyph glyph-name="Cdotaccent" unicode="&#x10a;" horiz-adv-x="674" 
d="M588 128l53 -58q-93 -84 -232 -84q-85 0 -155.5 30t-114.5 81q-89 105 -89 237q0 147 102 246q103 100 259 100q140 0 219 -73l-52 -66q-68 56 -169 56q-111 0 -185 -74q-73 -73 -73 -189q0 -118 72 -192q73 -73 189 -73q94 0 176 59zM458 845v-101h-101v101h101z" />
    <glyph glyph-name="cdotaccent" unicode="&#x10b;" horiz-adv-x="493" 
d="M289 -11q-115 0 -181 68t-66 161q0 40 14.5 79.5t43.5 73.5t77.5 55.5t110.5 21.5q99 0 172 -64l-51 -62q-55 48 -121 48q-68 0 -109 -42.5t-41 -109.5q0 -68 44 -110q46 -41 111 -41q69 0 124 46l48 -59q-70 -65 -176 -65zM326 638v-102h-102v102h102z" />
    <glyph glyph-name="Ccaron" unicode="&#x10c;" horiz-adv-x="674" 
d="M588 128l53 -58q-93 -84 -232 -84q-85 0 -155.5 30t-114.5 81q-89 105 -89 237q0 147 102 246q103 100 259 100q140 0 219 -73l-52 -66q-68 56 -169 56q-111 0 -185 -74q-73 -73 -73 -189q0 -118 72 -192q73 -73 189 -73q94 0 176 59zM329 883l80 -86l80 86h69l-107 -160
h-87l-104 160h69z" />
    <glyph glyph-name="ccaron" unicode="&#x10d;" horiz-adv-x="493" 
d="M289 -11q-115 0 -181 68t-66 161q0 40 14.5 79.5t43.5 73.5t77.5 55.5t110.5 21.5q99 0 172 -64l-51 -62q-55 48 -121 48q-68 0 -109 -42.5t-41 -109.5q0 -68 44 -110q46 -41 111 -41q69 0 124 46l48 -59q-70 -65 -176 -65zM197 666l80 -86l80 86h69l-107 -160h-87
l-104 160h69z" />
    <glyph glyph-name="Dcaron" unicode="&#x10e;" horiz-adv-x="714" 
d="M297 0h-193v666h196q191 0 282 -104q82 -94 82 -229q0 -151 -91 -242q-90 -91 -276 -91zM299 583h-100v-500h100q264 0 264 249q0 121 -67 186t-197 65zM224 883l80 -86l80 86h69l-107 -160h-87l-104 160h69z" />
    <glyph glyph-name="dcaron" unicode="&#x10f;" horiz-adv-x="723" 
d="M438 0v67q-62 -78 -168 -78t-167 66q-61 65 -61 161q0 90 65 161q66 71 173 71q96 0 158 -78v330h90v-700h-90zM138 216q0 -64 41.5 -106.5t109.5 -42.5q64 0 107 43q44 44 44 108q0 65 -43 108q-44 44 -108 44q-67 0 -109 -44t-42 -110zM622 700h109l-83 -252h-61z" />
    <glyph glyph-name="Dcroat" unicode="&#x110;" horiz-adv-x="714" 
d="M304 0h-200v294h-81v83h81v289h200q176 0 267 -93q93 -93 93 -240q0 -146 -89 -240q-89 -93 -271 -93zM303 583h-104v-206h146v-83h-146v-211h107q125 0 191 62.5t66 186.5q0 118 -66.5 184.5t-193.5 66.5z" />
    <glyph glyph-name="dslash" unicode="&#x111;" horiz-adv-x="600" 
d="M438 370v168h-168v67h168v95h90v-95h49v-67h-49v-538h-90v67q-62 -78 -168 -78t-167 66q-61 65 -61 161q0 90 65 161q66 71 173 71q96 0 158 -78zM139 216q0 -65 41 -107t109 -42q64 0 107 43q44 44 44 108q0 65 -43 108q-44 44 -108 44q-67 0 -109 -44q-41 -44 -41 -110
z" />
    <glyph glyph-name="Emacron" unicode="&#x112;" horiz-adv-x="571" 
d="M199 383h283v-83h-283v-217h314v-83h-409v666h406v-83h-311v-200zM461 739h-305v83h305v-83z" />
    <glyph glyph-name="emacron" unicode="&#x113;" horiz-adv-x="552" 
d="M438 128l60 -48q-72 -91 -208 -91q-116 0 -182 68q-66 69 -66 168q0 96 71 159q71 64 168 64q105 0 167 -63q61 -62 61 -149q0 -20 -3 -34h-376q4 -57 48 -96q45 -39 113 -39q92 0 147 61zM136 270h278q-9 44 -43 72t-86 28q-57 0 -95.5 -26t-53.5 -74zM426 551h-285v78
h285v-78z" />
    <glyph glyph-name="Edotaccent" unicode="&#x116;" horiz-adv-x="571" 
d="M199 383h283v-83h-283v-217h314v-83h-409v666h406v-83h-311v-200zM358 845v-101h-101v101h101z" />
    <glyph glyph-name="edotaccent" unicode="&#x117;" horiz-adv-x="552" 
d="M438 128l60 -48q-72 -91 -208 -91q-116 0 -182 68q-66 69 -66 168q0 96 71 159q71 64 168 64q105 0 167 -63q61 -62 61 -149q0 -20 -3 -34h-376q4 -57 48 -96q45 -39 113 -39q92 0 147 61zM136 270h278q-9 44 -43 72t-86 28q-57 0 -95.5 -26t-53.5 -74zM328 638v-102
h-102v102h102z" />
    <glyph glyph-name="Eogonek" unicode="&#x118;" horiz-adv-x="571" 
d="M503 -120l20 -79q-40 -14 -92 -14q-57 0 -91.5 24.5t-34.5 71.5q0 60 83 117h-284v666h406v-83h-311v-200h283v-83h-283v-217h314v-83h-1l-28 -17q-53 -30 -68 -50q-10 -13 -10 -28q0 -17 11.5 -26t30.5 -9q34 0 55 10z" />
    <glyph glyph-name="eogonek" unicode="&#x119;" horiz-adv-x="552" 
d="M369 -132l18 -68q-32 -13 -86 -13q-55 0 -88 23.5t-33 67.5q0 56 78 113q-102 9 -159 75q-57 68 -57 159q0 96 71 159q71 64 168 64q105 0 167 -63q61 -62 61 -149q0 -20 -3 -34h-376q4 -57 48 -96q45 -39 113 -39q92 0 147 61l60 -48q-48 -61 -125 -81q-5 -4 -26 -15
q-19 -12 -27 -18q-50 -34 -44 -65q0 -20 13 -31t34 -11q27 0 46 9zM136 270h278q-9 44 -43 72t-86 28q-57 0 -95.5 -26t-53.5 -74z" />
    <glyph glyph-name="Ecaron" unicode="&#x11a;" horiz-adv-x="571" 
d="M199 383h283v-83h-283v-217h314v-83h-409v666h406v-83h-311v-200zM228 883l80 -86l80 86h69l-107 -160h-87l-104 160h69z" />
    <glyph glyph-name="ecaron" unicode="&#x11b;" horiz-adv-x="552" 
d="M438 128l60 -48q-72 -91 -208 -91q-116 0 -182 68q-66 69 -66 168q0 96 71 159q71 64 168 64q105 0 167 -63q61 -62 61 -149q0 -20 -3 -34h-376q4 -57 48 -96q45 -39 113 -39q92 0 147 61zM136 270h278q-9 44 -43 72t-86 28q-57 0 -95.5 -26t-53.5 -74zM205 666l80 -86
l80 86h69l-107 -160h-87l-104 160h69z" />
    <glyph glyph-name="Gcircumflex" unicode="&#x11c;" horiz-adv-x="787" 
d="M667 574l-68 -53q-80 76 -190 76q-114 0 -186 -77q-72 -76 -72 -188q0 -115 70 -189q71 -74 188 -74q96 0 160 55q65 56 74 144h-245l34 83h315q-2 -102 -46 -192q-35 -78 -108 -125t-183 -48q-163 0 -262 101q-98 103 -98 246q0 139 102 243q104 104 258 104
q147 0 257 -106zM478 712l-80 86l-80 -86h-69l104 160h87l107 -160h-69z" />
    <glyph glyph-name="gcircumflex" unicode="&#x11d;" horiz-adv-x="600" 
d="M438 370v67h90v-385q0 -161 -63 -217q-32 -28 -76 -39.5t-114 -11.5q-104 0 -206 37l22 80q101 -39 194 -39q68 0 107 29q46 31 46 137v39q-28 -34 -73 -56t-95 -22q-102 0 -165 68q-63 67 -63 161q0 90 64 160t172 70q48 0 91 -22.5t69 -55.5zM138 218q0 -68 40 -109.5
t108 -41.5q65 0 109 41q45 42 45 110q0 65 -43 108q-44 44 -108 44q-69 0 -110 -42.5t-41 -109.5zM367 506l-80 86l-80 -86h-69l104 160h87l107 -160h-69z" />
    <glyph glyph-name="Gbreve" unicode="&#x11e;" horiz-adv-x="787" 
d="M667 574l-68 -53q-80 76 -190 76q-114 0 -186 -77q-72 -76 -72 -188q0 -115 70 -189q71 -74 188 -74q96 0 160 55q65 56 74 144h-245l34 83h315q-2 -102 -46 -192q-35 -78 -108 -125t-183 -48q-163 0 -262 101q-98 103 -98 246q0 139 102 243q104 104 258 104
q147 0 257 -106zM510 860l59 -44q-62 -104 -170 -104q-122 0 -170 103l58 45q44 -65 107 -65q69 0 116 65z" />
    <glyph glyph-name="gbreve" unicode="&#x11f;" horiz-adv-x="600" 
d="M438 370v67h90v-385q0 -161 -63 -217q-32 -28 -76 -39.5t-114 -11.5q-104 0 -206 37l22 80q101 -39 194 -39q68 0 107 29q46 31 46 137v39q-28 -34 -73 -56t-95 -22q-102 0 -165 68q-63 67 -63 161q0 90 64 160t172 70q48 0 91 -22.5t69 -55.5zM138 218q0 -68 40 -109.5
t108 -41.5q65 0 109 41q45 42 45 110q0 65 -43 108q-44 44 -108 44q-69 0 -110 -42.5t-41 -109.5zM405 646l52 -40q-55 -93 -164 -93q-117 0 -164 93l52 40q43 -61 111 -61q67 0 113 61z" />
    <glyph glyph-name="Gdotaccent" unicode="&#x120;" horiz-adv-x="787" 
d="M667 574l-68 -53q-80 76 -190 76q-114 0 -186 -77q-72 -76 -72 -188q0 -115 70 -189q71 -74 188 -74q96 0 160 55q65 56 74 144h-245l34 83h315q-2 -102 -46 -192q-35 -78 -108 -125t-183 -48q-163 0 -262 101q-98 103 -98 246q0 139 102 243q104 104 258 104
q147 0 257 -106zM448 845v-101h-101v101h101z" />
    <glyph glyph-name="gdotaccent" unicode="&#x121;" horiz-adv-x="600" 
d="M438 370v67h90v-385q0 -161 -63 -217q-32 -28 -76 -39.5t-114 -11.5q-104 0 -206 37l22 80q101 -39 194 -39q68 0 107 29q46 31 46 137v39q-28 -34 -73 -56t-95 -22q-102 0 -165 68q-63 67 -63 161q0 90 64 160t172 70q48 0 91 -22.5t69 -55.5zM138 218q0 -68 40 -109.5
t108 -41.5q65 0 109 41q45 42 45 110q0 65 -43 108q-44 44 -108 44q-69 0 -110 -42.5t-41 -109.5zM337 638v-102h-102v102h102z" />
    <glyph glyph-name="Gcommaaccent" unicode="&#x122;" horiz-adv-x="787" 
d="M667 574l-68 -53q-80 76 -190 76q-114 0 -186 -77q-72 -76 -72 -188q0 -115 70 -189q71 -74 188 -74q96 0 160 55q65 56 74 144h-245l34 83h315q-2 -102 -46 -192q-35 -78 -108 -125t-183 -48q-163 0 -262 101q-98 103 -98 246q0 139 102 243q104 104 258 104
q147 0 257 -106zM332 -50h106l-64 -165h-68z" />
    <glyph glyph-name="gcommaaccent" unicode="&#x123;" horiz-adv-x="600" 
d="M438 370v67h90v-385q0 -161 -63 -217q-32 -28 -76 -39.5t-114 -11.5q-104 0 -206 37l22 85q101 -39 194 -39q74 0 113 33q40 33 40 132v35q-28 -34 -73 -56t-95 -22q-102 0 -165 68q-63 67 -63 161q0 90 64 160t172 70q48 0 91 -22.5t69 -55.5zM138 218q0 -68 40 -109.5
t108 -41.5q65 0 109 41q45 42 45 110q0 65 -43 108q-44 44 -108 44q-69 0 -110 -42.5t-41 -109.5zM338 536h-106l74 167h63z" />
    <glyph glyph-name="Hcircumflex" unicode="&#x124;" horiz-adv-x="768" 
d="M569 320h-370v-320h-95v666h95v-263h370v263h95v-666h-95v320zM464 712l-80 86l-80 -86h-69l104 160h87l107 -160h-69z" />
    <glyph glyph-name="hcircumflex" unicode="&#x125;" horiz-adv-x="533" 
d="M162 0h-90v700h90v-335q19 39 57.5 61t86.5 22q164 0 164 -176v-272h-90v248q0 60 -23 91t-76 31t-86 -35.5t-33 -89.5v-245zM197 737l-80 86l-80 -86h-69l104 160h87l107 -160h-69z" />
    <glyph glyph-name="Hbar" unicode="&#x126;" horiz-adv-x="768" 
d="M569 320h-370v-320h-95v538h-53v67h53v61h95v-61h370v61h95v-61h53v-67h-53v-538h-95v320zM569 403v135h-370v-135h370z" />
    <glyph glyph-name="hbar" unicode="&#x127;" horiz-adv-x="533" 
d="M162 700v-95h202v-67h-202v-173q19 39 57.5 61t86.5 22q164 0 164 -176v-272h-90v248q0 60 -23 91t-76 31t-86 -35.5t-33 -89.5v-245h-90v538h-69v67h69v95h90z" />
    <glyph glyph-name="Imacron" unicode="&#x12a;" horiz-adv-x="303" 
d="M304 739h-305v83h305v-83zM199 0h-95v666h95v-666z" />
    <glyph glyph-name="imacron" unicode="&#x12b;" horiz-adv-x="234" 
d="M259 551h-285v78h285v-78zM162 0h-90v437h90v-437z" />
    <glyph glyph-name="Iogonek" unicode="&#x12e;" horiz-adv-x="303" 
d="M191 -120l20 -79q-39 -14 -92 -14q-57 0 -91.5 24.5t-34.5 71.5q0 69 111 134v649h95v-666l-27 -17l-15 -9q-7 -4 -11.5 -7l-9.5 -6.5l-9 -6.5q-33 -21 -33 -49q0 -17 11.5 -26t30.5 -9q34 0 55 10z" />
    <glyph glyph-name="iogonek" unicode="&#x12f;" horiz-adv-x="234" 
d="M155 -132l18 -68q-32 -13 -86 -13q-55 0 -88 23.5t-33 67.5q0 67 106 131v428h90v-437h-1l-23 -14l-31 -20q-45 -35 -45 -65q0 -20 13 -31t34 -11q27 0 46 9zM162 632v-96h-90v96h90z" />
    <glyph glyph-name="Idot" unicode="&#x130;" horiz-adv-x="303" 
d="M202 818v-98h-98v98h98zM201 0h-96v666h96v-666z" />
    <glyph glyph-name="dotlessi" unicode="&#x131;" horiz-adv-x="234" 
d="M162 0h-90v437h90v-437z" />
    <glyph glyph-name="Jcircumflex" unicode="&#x134;" horiz-adv-x="361" 
d="M18 0v83q36 -14 68 -14q47 0 62.5 32t15.5 116v449h95v-434q0 -139 -33 -193q-33 -53 -131 -53q-46 0 -77 14zM291 712l-80 86l-80 -86h-69l104 160h87l107 -160h-69z" />
    <glyph glyph-name="jcircumflex" unicode="&#x135;" horiz-adv-x="234" 
d="M72 -15v452h90v-478q0 -26 -8 -54t-25 -55.5t-48.5 -45t-72.5 -17.5h-10v78h6q68 0 68 120zM193 506l-80 86l-80 -86h-69l104 160h87l107 -160h-69z" />
    <glyph glyph-name="Kcommaaccent" unicode="&#x136;" horiz-adv-x="631" 
d="M199 0h-95v666h95v-333l266 333h109l-221 -275l262 -391h-115l-209 315l-92 -109v-206zM288 -50h106l-64 -165h-68z" />
    <glyph glyph-name="kcommaaccent" unicode="&#x137;" horiz-adv-x="480" 
d="M162 0h-90v700h90v-460l182 197h103l-166 -175l199 -262h-105l-156 206l-57 -55v-151zM188 -50h106l-74 -167h-63z" />
    <glyph glyph-name="Lacute" unicode="&#x139;" horiz-adv-x="527" 
d="M513 83v-83h-409v666h95v-583h314zM185 723h-65l87 139h142z" />
    <glyph glyph-name="lacute" unicode="&#x13a;" horiz-adv-x="234" 
d="M162 0h-90v700h90v-700zM148 731h-65l87 167h142z" />
    <glyph glyph-name="Lcommaaccent" unicode="&#x13b;" horiz-adv-x="527" 
d="M513 83v-83h-409v666h95v-583h314zM259 -50h106l-64 -165h-68z" />
    <glyph glyph-name="lcommaaccent" unicode="&#x13c;" horiz-adv-x="234" 
d="M162 0h-90v700h90v-700zM64 -50h106l-74 -167h-63z" />
    <glyph glyph-name="Lcaron" unicode="&#x13d;" horiz-adv-x="527" 
d="M513 83v-83h-409v666h95v-583h314zM412 667h109l-73 -252h-81z" />
    <glyph glyph-name="lcaron" unicode="&#x13e;" horiz-adv-x="357" 
d="M162 0h-90v700h90v-700zM256 680h109l-83 -252h-61z" />
    <glyph glyph-name="Ldot" unicode="&#x13f;" horiz-adv-x="527" 
d="M513 83v-83h-409v666h95v-583h314zM337 299v126h126v-126h-126z" />
    <glyph glyph-name="ldot" unicode="&#x140;" horiz-adv-x="412" 
d="M252 299v126h126v-126h-126zM162 0h-90v700h90v-700z" />
    <glyph glyph-name="Lslash" unicode="&#x141;" horiz-adv-x="527" 
d="M347 510v-92l-148 -86v-249h314v-83h-409v277l-96 -56v94l96 55v296h95v-241z" />
    <glyph glyph-name="lslash" unicode="&#x142;" horiz-adv-x="308" 
d="M298 453v-92l-99 -58v-303h-90v250l-99 -57v94l99 57v356h90v-304z" />
    <glyph glyph-name="Nacute" unicode="&#x143;" horiz-adv-x="747" 
d="M643 -14l-455 483v-469h-84v680l455 -480v466h84v-680zM366 723h-65l87 139h142z" />
    <glyph glyph-name="nacute" unicode="&#x144;" horiz-adv-x="533" 
d="M162 0h-90v437h90v-72q47 83 142 83q166 0 166 -176v-272h-90v248q0 63 -22 92.5t-76 29.5q-53 0 -86.5 -35.5t-33.5 -89.5v-245zM325 499h-65l87 167h142z" />
    <glyph glyph-name="Ncommaaccent" unicode="&#x145;" horiz-adv-x="747" 
d="M643 -14l-455 483v-469h-84v680l455 -480v466h84v-680zM324 -50h106l-64 -165h-68z" />
    <glyph glyph-name="ncommaaccent" unicode="&#x146;" horiz-adv-x="533" 
d="M162 0h-90v437h90v-72q47 83 142 83q166 0 166 -176v-272h-90v248q0 63 -22 92.5t-76 29.5q-53 0 -86.5 -35.5t-33.5 -89.5v-245zM264 -50h106l-74 -167h-63z" />
    <glyph glyph-name="Ncaron" unicode="&#x147;" horiz-adv-x="747" 
d="M643 -14l-455 483v-469h-84v680l455 -480v466h84v-680zM293 883l80 -86l80 86h69l-107 -160h-87l-104 160h69z" />
    <glyph glyph-name="ncaron" unicode="&#x148;" horiz-adv-x="533" 
d="M162 0h-90v437h90v-72q47 83 142 83q166 0 166 -176v-272h-90v248q0 63 -22 92.5t-76 29.5q-53 0 -86.5 -35.5t-33.5 -89.5v-245zM193 666l80 -86l80 86h69l-107 -160h-87l-104 160h69z" />
    <glyph glyph-name="Omacron" unicode="&#x14c;" horiz-adv-x="817" 
d="M50 333q0 149 101 248t259 99q85 0 155 -30.5t113 -82.5q89 -106 89 -234q0 -141 -99 -244t-258 -103q-157 -1 -260.5 104t-99.5 243zM151 332q0 -110 72 -187q72 -76 186 -76q113 0 185 76t72 187q0 69 -28 126q-29 62 -89.5 100.5t-139.5 38.5q-114 0 -186 -77
q-72 -76 -72 -188zM561 739h-305v83h305v-83z" />
    <glyph glyph-name="omacron" unicode="&#x14d;" horiz-adv-x="578" 
d="M42 218q0 94 66 161q68 69 181 69q110 0 178 -65q69 -65 69 -165q0 -104 -69 -167q-70 -62 -178 -62q-115 0 -181 67q-66 68 -66 162zM138 218q0 -68 42 -109.5t109 -41.5q69 0 110 42t41 109q0 70 -42 111t-109 41t-109 -41.5t-42 -110.5zM421 551h-285v78h285v-78z" />
    <glyph glyph-name="Ohungarumlaut" unicode="&#x150;" horiz-adv-x="817" 
d="M50 333q0 149 101 248t259 99q85 0 155 -30.5t113 -82.5q89 -106 89 -234q0 -141 -99 -244t-258 -103q-157 -1 -260.5 104t-99.5 243zM151 332q0 -110 72 -187q72 -76 186 -76q113 0 185 76t72 187q0 69 -28 126q-29 62 -89.5 100.5t-139.5 38.5q-114 0 -186 -77
q-72 -76 -72 -188zM342 723h-55l87 139h132zM502 723h-55l87 139h132z" />
    <glyph glyph-name="ohungarumlaut" unicode="&#x151;" horiz-adv-x="578" 
d="M42 218q0 94 66 161q68 69 181 69q110 0 178 -65q69 -65 69 -165q0 -104 -69 -167q-70 -62 -178 -62q-115 0 -181 67q-66 68 -66 162zM138 218q0 -68 42 -109.5t109 -41.5q69 0 110 42t41 109q0 70 -42 111t-109 41t-109 -41.5t-42 -110.5zM245 499h-55l87 167h132z
M405 499h-55l87 167h132z" />
    <glyph glyph-name="OE" unicode="&#x152;" horiz-adv-x="965" 
d="M907 0h-402q-53 -14 -95 -14q-160 0 -260 102q-100 103 -100 245q0 90 40 166q40 78 125 129q83 52 195 52q43 0 88 -13h407v-83h-311v-201h283v-83h-283v-217h313v-83zM498 82v503q-45 12 -89 12q-114 0 -186 -77q-72 -76 -72 -188q0 -110 72 -187q72 -76 186 -76
q41 0 89 13z" />
    <glyph glyph-name="oe" unicode="&#x153;" horiz-adv-x="954" 
d="M545 280h255q-7 40 -38 65t-81 25q-51 0 -86 -24t-50 -66zM491 79q-66 -90 -202 -90q-115 0 -181 67q-66 68 -66 162t66 161q68 69 181 69q129 0 198 -85q67 85 195 85q111 0 169 -61q60 -61 60 -146q0 -25 -3 -39h-370q2 -58 45 -96.5t109 -38.5q92 0 147 61l60 -48
q-72 -91 -208 -91q-129 0 -200 90zM139 218q0 -68 41.5 -109.5t108.5 -41.5q69 0 110.5 42t41.5 109q0 70 -42.5 111t-109.5 41t-108.5 -41.5t-41.5 -110.5z" />
    <glyph glyph-name="Racute" unicode="&#x154;" horiz-adv-x="622" 
d="M241 280h-42v-280h-95v666h224q96 0 157 -51q61 -49 61 -137q0 -166 -192 -195l248 -283h-118zM300 583h-101v-220h100q71 0 108.5 30t37.5 84q0 106 -145 106zM306 723h-65l87 139h142z" />
    <glyph glyph-name="racute" unicode="&#x155;" horiz-adv-x="335" 
d="M162 0h-90v437h90v-99q19 49 57 79.5t85 30.5h26v-90h-48q-53 0 -86.5 -39t-33.5 -100v-219zM209 499h-65l87 167h142z" />
    <glyph glyph-name="Rcommaaccent" unicode="&#x156;" horiz-adv-x="622" 
d="M241 280h-42v-280h-95v666h224q96 0 157 -51q61 -49 61 -137q0 -166 -192 -195l248 -283h-118zM300 583h-101v-220h100q71 0 108.5 30t37.5 84q0 106 -145 106zM270 -50h106l-64 -165h-68z" />
    <glyph glyph-name="rcommaaccent" unicode="&#x157;" horiz-adv-x="335" 
d="M162 0h-90v437h90v-99q19 49 57 79.5t85 30.5h26v-90h-48q-53 0 -86.5 -39t-33.5 -100v-219zM63 -50h106l-74 -167h-63z" />
    <glyph glyph-name="Rcaron" unicode="&#x158;" horiz-adv-x="622" 
d="M241 280h-42v-280h-95v666h224q96 0 157 -51q61 -49 61 -137q0 -166 -192 -195l248 -283h-118zM300 583h-101v-220h100q71 0 108.5 30t37.5 84q0 106 -145 106zM224 883l80 -86l80 86h69l-107 -160h-87l-104 160h69z" />
    <glyph glyph-name="rcaron" unicode="&#x159;" horiz-adv-x="335" 
d="M162 0h-90v437h90v-99q19 49 57 79.5t85 30.5h26v-90h-48q-53 0 -86.5 -39t-33.5 -100v-219zM116 666l80 -86l80 86h69l-107 -160h-87l-104 160h69z" />
    <glyph glyph-name="Sacute" unicode="&#x15a;" horiz-adv-x="507" 
d="M47 43l39 74q32 -20 77 -34t82 -14q57 0 85.5 26.5t28.5 68.5q0 38 -37 75q-21 25 -56 46l-34 24l-35 25l-21 14l-22 16q-40 35 -41 36q-27 38 -31 46q-11 35 -11 62q0 72 54 121q55 51 145 51q82 0 154 -42l-34 -72q-72 31 -119 31q-45 0 -72 -24t-27 -63q0 -32 27 -61
q25 -26 83 -64q54 -33 72 -47q55 -44 80.5 -83.5t25.5 -91.5q0 -81 -62 -129t-155 -48q-55 0 -109 15.5t-87 41.5zM302 723h-65l87 139h142z" />
    <glyph glyph-name="sacute" unicode="&#x15b;" horiz-adv-x="400" 
d="M341 416l-33 -67q-60 21 -96 21q-52 0 -52 -39q0 -21 22 -37l21 -14q7 -4 28 -14.5t24 -12.5q53 -28 79 -59.5t26 -77.5q0 -57 -43.5 -91.5t-113.5 -34.5q-91 0 -163 51l39 68q64 -41 118 -41q67 0 67 54q0 14 -13.5 30t-29.5 25q-15 10 -41 23l-31 17q-46 28 -65.5 54.5
t-19.5 66.5q0 53 43 81q44 29 102 29q73 0 132 -32zM242 499h-65l87 167h142z" />
    <glyph glyph-name="Scircumflex" unicode="&#x15c;" horiz-adv-x="507" 
d="M47 43l39 74q32 -20 77 -34t82 -14q57 0 85.5 26.5t28.5 68.5q0 38 -37 75q-21 25 -56 46l-34 24l-35 25l-21 14l-22 16q-40 35 -41 36q-27 38 -31 46q-11 35 -11 62q0 72 54 121q55 51 145 51q82 0 154 -42l-34 -72q-72 31 -119 31q-45 0 -72 -24t-27 -63q0 -32 27 -61
q25 -26 83 -64q54 -33 72 -47q55 -44 80.5 -83.5t25.5 -91.5q0 -81 -62 -129t-155 -48q-55 0 -109 15.5t-87 41.5zM357 712l-80 86l-80 -86h-69l104 160h87l107 -160h-69z" />
    <glyph glyph-name="scircumflex" unicode="&#x15d;" horiz-adv-x="400" 
d="M341 416l-33 -67q-60 21 -96 21q-52 0 -52 -39q0 -21 22 -37l21 -14q7 -4 28 -14.5t24 -12.5q53 -28 79 -59.5t26 -77.5q0 -57 -43.5 -91.5t-113.5 -34.5q-91 0 -163 51l39 68q64 -41 118 -41q67 0 67 54q0 14 -13.5 30t-29.5 25q-15 10 -41 23l-31 17q-46 28 -65.5 54.5
t-19.5 66.5q0 53 43 81q44 29 102 29q73 0 132 -32zM294 506l-80 86l-80 -86h-69l104 160h87l107 -160h-69z" />
    <glyph glyph-name="Scedilla" unicode="&#x15e;" horiz-adv-x="507" 
d="M47 43l39 74q32 -20 77 -34t82 -14q57 0 85.5 26.5t28.5 68.5q0 38 -37 75q-21 25 -56 46l-34 24l-35 25l-21 14l-22 16q-40 35 -41 36q-27 38 -31 46q-11 35 -11 62q0 72 54 121q55 51 145 51q82 0 154 -42l-34 -72q-72 31 -119 31q-45 0 -72 -24t-27 -63q0 -32 27 -61
q25 -26 83 -64q54 -33 72 -47q55 -44 80.5 -83.5t25.5 -91.5q0 -70 -46.5 -115.5t-123.5 -57.5v-27q76 -14 76 -76q0 -42 -44 -69t-109 -27q-23 0 -42 4l5 70q15 -4 37 -4q47 0 47 23t-50 23v81q-100 7 -163 55z" />
    <glyph glyph-name="scedilla" unicode="&#x15f;" horiz-adv-x="400" 
d="M341 416l-33 -67q-60 21 -96 21q-52 0 -52 -39q0 -21 22 -37l21 -14q7 -4 28 -14.5t24 -12.5q53 -28 79 -59.5t26 -77.5q0 -51 -34.5 -84t-92.5 -40v-38q37 -6 56.5 -25t19.5 -47q0 -39 -42.5 -65t-105.5 -26q-19 0 -37 3l5 60q13 -3 32 -3q52 0 52 28t-50 28v86
q-71 11 -123 48l39 68q64 -41 118 -41q67 0 67 54q0 14 -13.5 30t-29.5 25q-15 10 -41 23l-31 17q-46 28 -65.5 54.5t-19.5 66.5q0 53 43 81q44 29 102 29q73 0 132 -32z" />
    <glyph glyph-name="Scaron" unicode="&#x160;" horiz-adv-x="507" 
d="M47 43l39 74q32 -20 77 -34t82 -14q57 0 85.5 26.5t28.5 68.5q0 38 -37 75q-21 25 -56 46l-34 24l-35 25l-21 14l-22 16q-40 35 -41 36q-27 38 -31 46q-11 35 -11 62q0 72 54 121q55 51 145 51q82 0 154 -42l-34 -72q-72 31 -119 31q-45 0 -72 -24t-27 -63q0 -32 27 -61
q25 -26 83 -64q54 -33 72 -47q55 -44 80.5 -83.5t25.5 -91.5q0 -81 -62 -129t-155 -48q-55 0 -109 15.5t-87 41.5zM186 883l80 -86l80 86h69l-107 -160h-87l-104 160h69z" />
    <glyph glyph-name="scaron" unicode="&#x161;" horiz-adv-x="400" 
d="M341 416l-33 -67q-60 21 -96 21q-52 0 -52 -39q0 -21 22 -37l21 -14q7 -4 28 -14.5t24 -12.5q53 -28 79 -59.5t26 -77.5q0 -57 -43.5 -91.5t-113.5 -34.5q-91 0 -163 51l39 68q64 -41 118 -41q67 0 67 54q0 14 -13.5 30t-29.5 25q-15 10 -41 23l-31 17q-46 28 -65.5 54.5
t-19.5 66.5q0 53 43 81q44 29 102 29q73 0 132 -32zM121 666l80 -86l80 86h69l-107 -160h-87l-104 160h69z" />
    <glyph glyph-name="Tcedilla" unicode="&#x162;" horiz-adv-x="491" 
d="M205 0h-7v583h-168v83h431v-83h-168v-583h-8v-37q76 -14 76 -76q0 -42 -44 -69q-43 -27 -109 -27q-23 0 -42 4l5 70q15 -4 37 -4q47 0 47 23t-50 23v93z" />
    <glyph glyph-name="tcedilla" unicode="&#x163;" horiz-adv-x="298" 
d="M113 0h-10v359h-89v78h89v154l90 47v-201h91v-78h-91v-359h-10v-46q37 -6 56.5 -25t19.5 -47q0 -39 -42.5 -65t-105.5 -26q-19 0 -37 3l5 60q14 -3 32 -3q52 0 52 28t-50 28v93z" />
    <glyph glyph-name="Tcaron" unicode="&#x164;" horiz-adv-x="491" 
d="M293 0h-95v583h-168v83h431v-83h-168v-583zM165 883l80 -86l80 86h69l-107 -160h-87l-104 160h69z" />
    <glyph glyph-name="tcaron" unicode="&#x165;" horiz-adv-x="392" 
d="M193 0h-90v359h-89v78h89v154l90 47v-201h91v-78h-91v-359zM298 727h109l-83 -252h-61z" />
    <glyph glyph-name="Umacron" unicode="&#x16a;" horiz-adv-x="754" 
d="M559 666h95v-374q0 -149 -72 -227.5t-204 -78.5q-139 0 -208.5 78.5t-69.5 227.5v374h95v-378q0 -219 183 -219q181 0 181 219v378zM529 739h-305v83h305v-83z" />
    <glyph glyph-name="umacron" unicode="&#x16b;" horiz-adv-x="533" 
d="M371 437h90v-437h-90v75q-16 -35 -54 -60.5t-90 -25.5q-80 0 -122 44t-42 131v273h90v-250q0 -64 23 -92t76 -28q50 0 84 36q35 37 35 92v242zM394 551h-285v78h285v-78z" />
    <glyph glyph-name="Ubreve" unicode="&#x16c;" horiz-adv-x="754" 
d="M559 666h95v-374q0 -149 -72 -227.5t-204 -78.5q-139 0 -208.5 78.5t-69.5 227.5v374h95v-378q0 -219 183 -219q181 0 181 219v378zM488 860l59 -44q-62 -104 -170 -104q-122 0 -170 103l58 45q44 -65 107 -65q69 0 116 65z" />
    <glyph glyph-name="ubreve" unicode="&#x16d;" horiz-adv-x="533" 
d="M371 437h90v-437h-90v75q-16 -35 -54 -60.5t-90 -25.5q-80 0 -122 44t-42 131v273h90v-250q0 -64 23 -92t76 -28q50 0 84 36q35 37 35 92v242zM373 646l52 -40q-55 -93 -164 -93q-117 0 -164 93l52 40q43 -61 111 -61q67 0 113 61z" />
    <glyph glyph-name="Uring" unicode="&#x16e;" horiz-adv-x="754" 
d="M559 666h95v-374q0 -149 -72 -227.5t-204 -78.5q-139 0 -208.5 78.5t-69.5 227.5v374h95v-378q0 -219 183 -219q181 0 181 219v378zM278 812q0 42 28 70q29 29 70 29t70 -30q23 -20 27.5 -50t-6.5 -56.5t-35.5 -44.5t-55.5 -17q-42 0 -70 28.5t-28 70.5zM357 831
q-17 -19 1 -38t37 0t0 38t-38 0z" />
    <glyph glyph-name="uring" unicode="&#x16f;" horiz-adv-x="533" 
d="M195 512q-27 28 -27 67t27 66q27 28 66 28t66 -28q28 -28 28 -66t-28 -66q-27 -28 -66 -28t-66 27zM239 601q-14 -13 -8 -30.5t22 -22t30 7.5q14 14 8 31.5t-22 21.5t-30 -8zM371 437h90v-437h-90v75q-16 -35 -54 -60.5t-90 -25.5q-80 0 -122 44t-42 131v273h90v-250
q0 -64 23 -92t76 -28q50 0 84 36q35 37 35 92v242z" />
    <glyph glyph-name="Uhungarumlaut" unicode="&#x170;" horiz-adv-x="754" 
d="M559 666h95v-374q0 -149 -72 -227.5t-204 -78.5q-139 0 -208.5 78.5t-69.5 227.5v374h95v-378q0 -219 183 -219q181 0 181 219v378zM298 723h-55l87 139h132zM458 723h-55l87 139h132z" />
    <glyph glyph-name="uhungarumlaut" unicode="&#x171;" horiz-adv-x="533" 
d="M371 437h90v-437h-90v75q-16 -35 -54 -60.5t-90 -25.5q-80 0 -122 44t-42 131v273h90v-250q0 -64 23 -92t76 -28q50 0 84 36q35 37 35 92v242zM204 499h-55l87 167h132zM364 499h-55l87 167h132z" />
    <glyph glyph-name="Uogonek" unicode="&#x172;" horiz-adv-x="754" 
d="M453 -120l20 -79q-40 -14 -92 -14q-57 0 -91.5 24.5t-34.5 71.5q0 55 69 107q-224 27 -224 302v374h95v-378q0 -219 183 -219q181 0 181 219v378h95v-374q0 -127 -52.5 -203t-151.5 -96l-16 -10q-53 -30 -68 -50q-10 -13 -10 -28q0 -17 11.5 -26t30.5 -9q34 0 55 10z" />
    <glyph glyph-name="uogonek" unicode="&#x173;" horiz-adv-x="533" 
d="M453 -132l18 -68q-32 -13 -86 -13q-55 0 -88 23.5t-33 67.5q0 66 107 132v65q-16 -35 -54 -60.5t-90 -25.5q-80 0 -122 44t-42 131v273h90v-250q0 -64 23 -92t76 -28q50 0 84 36q35 37 35 92v242h90v-437h-2q-4 -2 -15.5 -9.5l-22 -14l-16.5 -10.5q-45 -35 -45 -65
q0 -20 13 -31t34 -11q27 0 46 9z" />
    <glyph glyph-name="Ydieresis" unicode="&#x178;" horiz-adv-x="597" 
d="M251 0v218l-241 448h103l185 -346l186 346h103l-241 -448v-218h-95zM254 845v-101h-101v101h101zM443 845v-101h-101v101h101z" />
    <glyph glyph-name="Zacute" unicode="&#x179;" horiz-adv-x="575" 
d="M526 0h-506l369 583h-345l25 83h486l-369 -583h369zM283 723h-65l87 139h142z" />
    <glyph glyph-name="zacute" unicode="&#x17a;" horiz-adv-x="422" 
d="M416 437l-252 -359h252l-34 -78h-376l253 359h-214l32 78h339zM257 499h-65l87 167h142z" />
    <glyph glyph-name="Zdotaccent" unicode="&#x17b;" horiz-adv-x="575" 
d="M526 0h-506l369 583h-345l25 83h486l-369 -583h369zM341 845v-101h-101v101h101z" />
    <glyph glyph-name="zdotaccent" unicode="&#x17c;" horiz-adv-x="422" 
d="M416 437l-252 -359h252l-34 -78h-376l253 359h-214l32 78h339zM288 638v-102h-102v102h102z" />
    <glyph glyph-name="Zcaron" unicode="&#x17d;" horiz-adv-x="575" 
d="M526 0h-506l369 583h-345l25 83h486l-369 -583h369zM211 883l80 -86l80 86h69l-107 -160h-87l-104 160h69z" />
    <glyph glyph-name="zcaron" unicode="&#x17e;" horiz-adv-x="422" 
d="M416 437l-252 -359h252l-34 -78h-376l253 359h-214l32 78h339zM150 666l80 -86l80 86h69l-107 -160h-87l-104 160h69z" />
    <glyph glyph-name="uni018F" unicode="&#x18f;" horiz-adv-x="798" 
d="M181 500l-68 54q52 61 123.5 93.5t151.5 32.5q165 0 262 -103q98 -103 98 -244q0 -92 -50 -178q-40 -74 -118.5 -121t-191.5 -48q-152 0 -245 96q-93 98 -93 243q0 19 1 26h596q-8 104 -79 174q-71 72 -179 72q-60 0 -115.5 -26.5t-92.5 -70.5zM389 69q97 0 164 55
q69 57 88 144h-486q9 -88 75 -144q65 -55 159 -55z" />
    <glyph glyph-name="florin" unicode="&#x192;" horiz-adv-x="363" 
d="M280 359h-54l-36 -359q-7 -82 -38 -141q-37 -72 -129 -72h-41l8 76h20q43 0 63.5 33t26.5 100l36 363h-51l8 78h51l6 50q7 82 38 141q37 72 129 72h41l-8 -76h-20q-43 0 -63.5 -33t-26.5 -100l-6 -54h54z" />
    <glyph glyph-name="uni01DD" unicode="&#x1dd;" horiz-adv-x="552" 
d="M114 309l-60 48q72 91 208 91q116 0 182 -69q66 -68 66 -167q0 -96 -72 -160q-70 -63 -167 -63q-105 0 -167 63q-61 62 -61 149q0 21 3 34h376q-5 57 -49 96q-43 39 -112 39q-92 0 -147 -61zM416 167h-278q9 -44 43 -72t86 -28q57 0 95.5 26t53.5 74z" />
    <glyph glyph-name="Gcaron" unicode="&#x1e6;" horiz-adv-x="787" 
d="M667 574l-68 -53q-80 76 -190 76q-114 0 -186 -77q-72 -76 -72 -188q0 -115 70 -189q71 -74 188 -74q96 0 160 55q65 56 74 144h-245l34 83h315q-2 -102 -46 -192q-35 -78 -108 -125t-183 -48q-163 0 -262 101q-98 103 -98 246q0 139 102 243q104 104 258 104
q147 0 257 -106zM324 883l80 -86l80 86h69l-107 -160h-87l-104 160h69z" />
    <glyph glyph-name="gcaron" unicode="&#x1e7;" horiz-adv-x="600" 
d="M438 370v67h90v-385q0 -161 -63 -217q-32 -28 -76 -39.5t-114 -11.5q-104 0 -206 37l22 80q101 -39 194 -39q68 0 107 29q46 31 46 137v39q-28 -34 -73 -56t-95 -22q-102 0 -165 68q-63 67 -63 161q0 90 64 160t172 70q48 0 91 -22.5t69 -55.5zM138 218q0 -68 40 -109.5
t108 -41.5q65 0 109 41q45 42 45 110q0 65 -43 108q-44 44 -108 44q-69 0 -110 -42.5t-41 -109.5zM207 666l80 -86l80 86h69l-107 -160h-87l-104 160h69z" />
    <glyph glyph-name="Scommaaccent" unicode="&#x218;" horiz-adv-x="507" 
d="M47 43l39 74q32 -20 77 -34t82 -14q57 0 85.5 26.5t28.5 68.5q0 38 -37 75q-21 25 -56 46l-34 24l-35 25l-21 14l-22 16q-40 35 -41 36q-27 38 -31 46q-11 35 -11 62q0 72 54 121q55 51 145 51q82 0 154 -42l-34 -72q-72 31 -119 31q-45 0 -72 -24t-27 -63q0 -32 27 -61
q25 -26 83 -64q54 -33 72 -47q55 -44 80.5 -83.5t25.5 -91.5q0 -81 -62 -129t-155 -48q-55 0 -109 15.5t-87 41.5zM204 -50h106l-64 -165h-68z" />
    <glyph glyph-name="scommaaccent" unicode="&#x219;" horiz-adv-x="400" 
d="M341 416l-33 -67q-60 21 -96 21q-52 0 -52 -39q0 -21 22 -37l21 -14q7 -4 28 -14.5t24 -12.5q53 -28 79 -59.5t26 -77.5q0 -57 -43.5 -91.5t-113.5 -34.5q-91 0 -163 51l39 68q64 -41 118 -41q67 0 67 54q0 14 -13.5 30t-29.5 25q-15 10 -41 23l-31 17q-46 28 -65.5 54.5
t-19.5 66.5q0 53 43 81q44 29 102 29q73 0 132 -32zM147 -50h106l-74 -167h-63z" />
    <glyph glyph-name="Tcommaaccent" unicode="&#x21a;" horiz-adv-x="491" 
d="M293 0h-95v583h-168v83h431v-83h-168v-583zM192 -50h106l-64 -165h-68z" />
    <glyph glyph-name="tcommaaccent" unicode="&#x21b;" horiz-adv-x="298" 
d="M193 0h-90v359h-89v78h89v154l90 47v-201h91v-78h-91v-359zM102 -50h106l-74 -167h-63z" />
    <glyph glyph-name="uni0237" unicode="&#x237;" horiz-adv-x="234" 
d="M72 -15v452h90v-478q0 -26 -8 -54t-25 -55.5t-48.5 -45t-72.5 -17.5h-10v78h6q68 0 68 120z" />
    <glyph glyph-name="uni0259" unicode="&#x259;" horiz-adv-x="552" 
d="M114 309l-60 48q72 91 208 91q116 0 182 -69q66 -68 66 -167q0 -96 -72 -160q-70 -63 -167 -63q-105 0 -167 63q-61 62 -61 149q0 21 3 34h376q-5 57 -49 96q-43 39 -112 39q-92 0 -147 -61zM416 167h-278q9 -44 43 -72t86 -28q57 0 95.5 26t53.5 74z" />
    <glyph glyph-name="afii57929" unicode="&#x2bc;" horiz-adv-x="350" 
d="M143 680h109l-83 -252h-61z" />
    <glyph glyph-name="circumflex" unicode="&#x2c6;" horiz-adv-x="358" 
d="M259 506l-80 86l-80 -86h-69l104 160h87l107 -160h-69z" />
    <glyph glyph-name="caron" unicode="&#x2c7;" horiz-adv-x="358" 
d="M99 666l80 -86l80 86h69l-107 -160h-87l-104 160h69z" />
    <glyph glyph-name="breve" unicode="&#x2d8;" horiz-adv-x="419" 
d="M321 646l52 -40q-55 -93 -164 -93q-117 0 -164 93l52 40q43 -61 111 -61q67 0 113 61z" />
    <glyph glyph-name="dotaccent" unicode="&#x2d9;" horiz-adv-x="186" 
d="M143 638v-102h-102v102h102z" />
    <glyph glyph-name="ring" unicode="&#x2da;" horiz-adv-x="247" 
d="M57 512q-27 28 -27 67t27 66q27 28 66 28t66 -28q28 -28 28 -66t-28 -66q-27 -28 -66 -28t-66 27zM101 601q-14 -13 -8 -30.5t22 -22t30 7.5q14 14 8 31.5t-22 21.5t-30 -8z" />
    <glyph glyph-name="ogonek" unicode="&#x2db;" horiz-adv-x="561" 
d="M323 -132l18 -68q-32 -13 -86 -13q-55 0 -88 23.5t-33 67.5q0 48 49 90q27 22 42 32q12 8 28.5 18l30 18t15.5 9l30 -45q-4 -2 -15.5 -9.5l-22 -14l-16.5 -10.5q-45 -35 -45 -65q0 -20 13 -31t34 -11q27 0 46 9z" />
    <glyph glyph-name="tilde" unicode="&#x2dc;" horiz-adv-x="411" 
d="M95 524l-65 21q30 93 108 93q30 0 67 -18q39 -18 58 -18q30 0 45 35l65 -24q-9 -37 -36 -60t-65 -23q-23 0 -65 18t-62 18q-35 0 -50 -42z" />
    <glyph glyph-name="hungarumlaut" unicode="&#x2dd;" horiz-adv-x="409" 
d="M70 499h-55l87 167h132zM230 499h-55l87 167h132z" />
    <glyph glyph-name="acutecomb" unicode="&#x301;" horiz-adv-x="0" 
d="M-295 499h-65l87 167h142z" />
    <glyph glyph-name="uni0394" unicode="&#x394;" horiz-adv-x="665" 
d="M541 83l-194 483l-192 -483h386zM399 667l266 -667h-636l266 667h104z" />
    <glyph glyph-name="uni0394" unicode="&#x2206;" horiz-adv-x="665" 
d="M541 83l-194 483l-192 -483h386zM399 667l266 -667h-636l266 667h104z" />
    <glyph glyph-name="uni03A9" unicode="&#x3a9;" horiz-adv-x="809" 
d="M333 66v-66h-259v83h114q-67 34 -105 107q-37 73 -37 143q0 148 99 247q99 100 261 100q161 0 259 -101t98 -246q0 -71 -40 -141t-106 -109h128v-83h-273v64q85 21 137 97q53 77 53 171q0 112 -66 189q-64 76 -191 76q-121 0 -190 -74q-68 -74 -68 -191q0 -90 51 -167
q52 -75 135 -99z" />
    <glyph glyph-name="uni03A9" unicode="&#x2126;" horiz-adv-x="809" 
d="M333 66v-66h-259v83h114q-67 34 -105 107q-37 73 -37 143q0 148 99 247q99 100 261 100q161 0 259 -101t98 -246q0 -71 -40 -141t-106 -109h128v-83h-273v64q85 21 137 97q53 77 53 171q0 112 -66 189q-64 76 -191 76q-121 0 -190 -74q-68 -74 -68 -191q0 -90 51 -167
q52 -75 135 -99z" />
    <glyph glyph-name="pi" unicode="&#x3c0;" horiz-adv-x="557" 
d="M104 290v69h-90v78h517v-78h-64v-240q0 -32 10.5 -42t36.5 -10v-74q-23 -4 -47 -4q-40 0 -65 24t-25 68v278h-183v-90q0 -280 -157 -280h-29v78h12q84 0 84 223z" />
    <glyph glyph-name="afii10023" unicode="&#x401;" horiz-adv-x="571" 
d="M199 383h283v-83h-283v-217h314v-83h-409v666h406v-83h-311v-200zM259 845v-101h-101v101h101zM448 845v-101h-101v101h101z" />
    <glyph glyph-name="afii10051" unicode="&#x402;" horiz-adv-x="689" 
d="M461 583h-168l1 -208q64 34 150 34q113 0 168 -50t55 -161q0 -97 -49.5 -154.5t-138.5 -57.5q-39 0 -75 13l19 80q29 -10 56 -10q93 0 93 124q0 133 -132 133q-85 0 -146 -37l-1 -289h-95v583h-168v83h431v-83z" />
    <glyph glyph-name="afii10052" unicode="&#x403;" horiz-adv-x="494" 
d="M480 666v-83h-281v-583h-95v666h376zM267 723h-65l87 139h142z" />
    <glyph glyph-name="afii10053" unicode="&#x404;" horiz-adv-x="682" 
d="M151 385h322v-83h-325q6 -104 80 -169q74 -64 184 -64q105 0 178 58l52 -57q-52 -45 -106 -64.5t-127 -19.5q-85 0 -155.5 30t-114.5 81q-89 105 -89 237q0 147 102 246q103 100 259 100q135 0 217 -76l-50 -63q-68 56 -169 56q-99 0 -173 -59q-71 -58 -85 -153z" />
    <glyph glyph-name="afii10054" unicode="&#x405;" horiz-adv-x="507" 
d="M47 43l39 74q32 -20 77 -34t82 -14q57 0 85.5 26.5t28.5 68.5q0 38 -37 75q-21 25 -56 46l-34 24l-35 25l-21 14l-22 16q-40 35 -41 36q-27 38 -31 46q-11 35 -11 62q0 72 54 121q55 51 145 51q82 0 154 -42l-34 -72q-72 31 -119 31q-45 0 -72 -24t-27 -63q0 -32 27 -61
q25 -26 83 -64q54 -33 72 -47q55 -44 80.5 -83.5t25.5 -91.5q0 -81 -62 -129t-155 -48q-55 0 -109 15.5t-87 41.5z" />
    <glyph glyph-name="afii10055" unicode="&#x406;" horiz-adv-x="303" 
d="M199 0h-95v666h95v-666z" />
    <glyph glyph-name="afii10056" unicode="&#x407;" horiz-adv-x="303" 
d="M199 0h-95v666h95v-666zM107 845v-101h-101v101h101zM296 845v-101h-101v101h101z" />
    <glyph glyph-name="afii10057" unicode="&#x408;" horiz-adv-x="361" 
d="M18 0v83q36 -14 68 -14q47 0 62.5 32t15.5 116v449h95v-434q0 -139 -33 -193q-33 -53 -131 -53q-46 0 -77 14z" />
    <glyph glyph-name="afii10058" unicode="&#x409;" horiz-adv-x="984" 
d="M726 0h-206v583h-252v-100q0 -332 -91 -441q-47 -56 -121 -56q-16 0 -34 6v92l21 -4q75 0 104 116q26 103 26 275v195h443v-255h114q113 -1 172.5 -54.5t59.5 -140.5q0 -86 -46 -147q-53 -69 -190 -69zM616 328v-245h108q137 0 137 122q0 59 -36 91t-99 32h-110z" />
    <glyph glyph-name="afii10059" unicode="&#x40a;" horiz-adv-x="1032" 
d="M654 666v-255h110q118 -2 182 -52t64 -143q0 -216 -229 -216h-222v328h-360v-328h-95v666h95v-255h360v255h95zM654 328v-245h114q72 0 106.5 30.5t34.5 96.5q0 62 -40 92q-15 12 -40 18q-33 8 -75 8h-100z" />
    <glyph glyph-name="afii10060" unicode="&#x40b;" horiz-adv-x="689" 
d="M462 583h-168v-208q64 34 150 34q113 0 168 -49t55 -159v-201h-93v196q0 130 -134 130q-85 0 -146 -37v-289h-95v583h-169v83h432v-83z" />
    <glyph glyph-name="afii10061" unicode="&#x40c;" horiz-adv-x="645" 
d="M199 0h-95v666h95v-310l278 310h117l-290 -317l323 -349h-129l-299 330v-330zM340 723h-65l87 139h142z" />
    <glyph glyph-name="afii10062" unicode="&#x40e;" horiz-adv-x="606" 
d="M111 666l227 -400l160 400h96l-194 -485q-80 -195 -215 -195q-39 0 -81 14v86q37 -17 72 -17q37 0 68.5 28.5t46.5 69.5l-283 499h103zM387 853h94q0 -60 -46.5 -96t-126.5 -36q-83 0 -128.5 35.5t-45.5 96.5h95q0 -49 78 -49q80 0 80 49z" />
    <glyph glyph-name="afii10145" unicode="&#x40f;" horiz-adv-x="772" 
d="M199 666v-583h374v583h95v-666h-237v-168h-83v168h-244v666h95z" />
    <glyph glyph-name="afii10017" unicode="&#x410;" horiz-adv-x="671" 
d="M474 179h-277l-86 -179h-103l327 680l328 -680h-103zM334 481l-105 -219h212z" />
    <glyph glyph-name="afii10018" unicode="&#x411;" horiz-adv-x="589" 
d="M484 666v-83h-285v-185h128q104 0 166 -51t62 -142q0 -205 -233 -205h-218v666h380zM199 315v-232h110q76 0 110.5 27.5t34.5 88.5q0 71 -48 94q-26 15 -59 19q-19 3 -52 3h-96z" />
    <glyph glyph-name="afii10019" unicode="&#x412;" horiz-adv-x="602" 
d="M322 0h-218v666h183q232 0 232 -169q0 -47 -31 -88q-32 -42 -78 -54v-3q67 -12 104.5 -55t37.5 -101q0 -91 -59.5 -143.5t-170.5 -52.5zM199 583v-198h99q120 0 120 102q0 45 -31.5 70.5t-93.5 25.5h-94zM199 302v-219h109q143 0 143 112q0 107 -140 107h-112z" />
    <glyph glyph-name="afii10020" unicode="&#x413;" horiz-adv-x="494" 
d="M480 666v-83h-281v-583h-95v666h376z" />
    <glyph glyph-name="afii10021" unicode="&#x414;" horiz-adv-x="723" 
d="M107 0v-143h-95v226h90q60 127 60 339v244h438v-583h95v-226h-95v143h-493zM505 83v500h-251v-156q0 -113 -12 -192q-10 -78 -42 -152h305z" />
    <glyph glyph-name="afii10022" unicode="&#x415;" horiz-adv-x="571" 
d="M199 383h283v-83h-283v-217h314v-83h-409v666h406v-83h-311v-200z" />
    <glyph glyph-name="afii10024" unicode="&#x416;" horiz-adv-x="926" 
d="M51 666h113l251 -312v312h95v-312l252 312h114l-262 -317l294 -349h-129l-269 328v-328h-95v327l-268 -327h-129l293 349z" />
    <glyph glyph-name="afii10025" unicode="&#x417;" horiz-adv-x="597" 
d="M116 532l-53 59q87 89 225 89q102 0 162 -47t60 -125q0 -109 -109 -148v-3q143 -35 143 -168q0 -86 -67 -144q-68 -59 -184 -59q-158 0 -252 100l57 62q83 -79 197 -79q68 0 108 34t40 89t-40.5 85.5t-114.5 30.5h-88v81h82q127 0 127 113q0 41 -31.5 68t-92.5 27
q-95 0 -169 -65z" />
    <glyph glyph-name="afii10026" unicode="&#x418;" horiz-adv-x="770" 
d="M571 0v461l-467 -475v680h95v-460l467 474v-680h-95z" />
    <glyph glyph-name="afii10027" unicode="&#x419;" horiz-adv-x="770" 
d="M571 0v461l-467 -475v680h95v-460l467 474v-680h-95zM483 853h94q0 -60 -46.5 -96t-126.5 -36q-83 0 -128.5 35.5t-45.5 96.5h95q0 -49 78 -49q80 0 80 49z" />
    <glyph glyph-name="afii10028" unicode="&#x41a;" horiz-adv-x="645" 
d="M199 0h-95v666h95v-310l278 310h117l-290 -317l323 -349h-129l-299 330v-330z" />
    <glyph glyph-name="afii10029" unicode="&#x41b;" horiz-adv-x="725" 
d="M526 0v583h-261v-100q0 -332 -91 -441q-47 -56 -118 -56q-16 0 -34 6v92l21 -4q75 0 104 116q26 103 26 275v195h448v-666h-95z" />
    <glyph glyph-name="afii10030" unicode="&#x41c;" horiz-adv-x="904" 
d="M236 680l216 -483l216 483l198 -680h-95l-123 429l-196 -443l-196 443l-123 -429h-95z" />
    <glyph glyph-name="afii10031" unicode="&#x41d;" horiz-adv-x="768" 
d="M569 320h-370v-320h-95v666h95v-263h370v263h95v-666h-95v320z" />
    <glyph glyph-name="afii10032" unicode="&#x41e;" horiz-adv-x="817" 
d="M50 333q0 149 101 248t259 99q85 0 155 -30.5t113 -82.5q89 -106 89 -234q0 -141 -99 -244t-258 -103q-157 -1 -260.5 104t-99.5 243zM151 332q0 -110 72 -187q72 -76 186 -76q113 0 185 76t72 187q0 69 -28 126q-29 62 -89.5 100.5t-139.5 38.5q-114 0 -186 -77
q-72 -76 -72 -188z" />
    <glyph glyph-name="afii10033" unicode="&#x41f;" horiz-adv-x="758" 
d="M559 583h-360v-583h-95v666h550v-666h-95v583z" />
    <glyph glyph-name="afii10034" unicode="&#x420;" horiz-adv-x="567" 
d="M302 255h-103v-255h-95v666h209q109 0 170 -57q62 -57 62 -142q0 -101 -61.5 -156.5t-181.5 -55.5zM199 583v-245h93q152 0 152 121q0 124 -147 124h-98z" />
    <glyph glyph-name="afii10035" unicode="&#x421;" horiz-adv-x="674" 
d="M588 128l53 -58q-93 -84 -232 -84q-85 0 -155.5 30t-114.5 81q-89 105 -89 237q0 147 102 246q103 100 259 100q140 0 219 -73l-52 -66q-68 56 -169 56q-111 0 -185 -74q-73 -73 -73 -189q0 -118 72 -192q73 -73 189 -73q94 0 176 59z" />
    <glyph glyph-name="afii10036" unicode="&#x422;" horiz-adv-x="491" 
d="M293 0h-95v583h-168v83h431v-83h-168v-583z" />
    <glyph glyph-name="afii10037" unicode="&#x423;" horiz-adv-x="606" 
d="M111 666l227 -400l160 400h96l-194 -485q-80 -195 -215 -195q-39 0 -81 14v86q37 -17 72 -17q37 0 68.5 28.5t46.5 69.5l-283 499h103z" />
    <glyph glyph-name="afii10038" unicode="&#x424;" horiz-adv-x="831" 
d="M463 528v-373q103 0 164 51q63 52 63 137t-57.5 135t-169.5 50zM368 611v69h95v-69q153 0 241 -74q87 -73 87 -191q0 -129 -91 -202q-92 -72 -237 -72v-86h-95v86q-165 0 -246.5 78t-81.5 188q0 132 93 203q92 70 235 70zM368 155v373q-95 0 -161 -48t-66 -139
q0 -89 57.5 -137.5t169.5 -48.5z" />
    <glyph glyph-name="afii10039" unicode="&#x425;" horiz-adv-x="591" 
d="M462 0l-168 268l-167 -268h-108l221 352l-201 314h109l149 -234l145 234h110l-201 -318l222 -348h-111z" />
    <glyph glyph-name="afii10040" unicode="&#x426;" horiz-adv-x="777" 
d="M654 666v-583h95v-226h-95v143h-550v666h95v-583h360v583h95z" />
    <glyph glyph-name="afii10041" unicode="&#x427;" horiz-adv-x="620" 
d="M421 377v289h95v-666h-95v291q-75 -34 -170 -34q-106 0 -159.5 50t-53.5 158v201h93v-182q0 -144 134 -144q95 0 156 37z" />
    <glyph glyph-name="afii10042" unicode="&#x428;" horiz-adv-x="991" 
d="M887 0h-783v666h95v-583h249v583h95v-583h249v583h95v-666z" />
    <glyph glyph-name="afii10043" unicode="&#x429;" horiz-adv-x="1011" 
d="M888 -143v143h-784v666h95v-583h249v583h95v-583h249v583h95v-583h96v-226h-95z" />
    <glyph glyph-name="afii10044" unicode="&#x42a;" horiz-adv-x="641" 
d="M20 666h253v-256h114q113 0 172.5 -53.5t59.5 -140.5q0 -86 -46 -147q-53 -69 -190 -69h-205v583h-158v83zM273 327v-244h108q137 0 137 122q0 59 -35.5 90.5t-99.5 31.5h-110z" />
    <glyph glyph-name="afii10045" unicode="&#x42b;" horiz-adv-x="864" 
d="M104 666h95v-256h114q113 0 172.5 -53.5t59.5 -140.5q0 -86 -46 -147q-53 -69 -190 -69h-205v666zM199 327v-244h108q137 0 137 122q0 59 -35.5 90.5t-99.5 31.5h-110zM760 0h-95v666h95v-666z" />
    <glyph glyph-name="afii10046" unicode="&#x42c;" horiz-adv-x="567" 
d="M104 666h95v-256h114q113 0 172.5 -53.5t59.5 -140.5q0 -86 -46 -147q-53 -69 -190 -69h-205v666zM199 327v-244h108q137 0 137 122q0 59 -35.5 90.5t-99.5 31.5h-110z" />
    <glyph glyph-name="afii10047" unicode="&#x42d;" horiz-adv-x="681" 
d="M40 80l51 62q82 -73 197 -73q104 0 171 69q68 71 77 164h-329v83h324q-11 80 -74.5 146t-166.5 66q-62 0 -107 -17t-93 -53l-47 62q97 91 247 91q105 0 184 -52q78 -50 117.5 -127t39.5 -169q0 -145 -98 -246q-97 -100 -245 -100q-157 0 -248 94z" />
    <glyph glyph-name="afii10048" unicode="&#x42e;" horiz-adv-x="1103" 
d="M336 320h-137v-320h-95v666h95v-263h143q24 124 120 200q97 77 234 77q85 0 155 -30.5t113 -82.5q89 -106 89 -234q0 -141 -99 -244t-258 -103q-155 0 -256 98q-99 98 -104 236zM437 332q0 -110 72 -187q72 -76 186 -76q113 0 185 76t72 187q0 69 -28 126
q-29 62 -89.5 100.5t-139.5 38.5q-114 0 -186 -77q-72 -76 -72 -188z" />
    <glyph glyph-name="afii10049" unicode="&#x42f;" horiz-adv-x="633" 
d="M433 0v255h-100l-185 -255h-118l194 266q-147 56 -147 192q0 89 58 148q59 60 163 60h231v-666h-96zM433 338v245h-107q-73 0 -110.5 -32.5t-37.5 -93.5q0 -52 40.5 -85.5t108.5 -33.5h106z" />
    <glyph glyph-name="afii10065" unicode="&#x430;" horiz-adv-x="501" 
d="M106 349l-16 69q71 30 166 30q82 0 129.5 -35t47.5 -99v-314h-86v32q-58 -43 -149 -43q-76 0 -122 37.5t-46 103.5q0 64 50.5 102.5t134.5 38.5q77 0 132 -31v24q0 57 -23 83.5t-84 26.5q-71 0 -134 -25zM126 133q0 -70 97 -70q53 0 89 19t36 51q0 31 -32.5 50.5
t-84.5 19.5q-48 0 -76.5 -18.5t-28.5 -51.5z" />
    <glyph glyph-name="afii10066" unicode="&#x431;" horiz-adv-x="577" 
d="M459 710l1 -95q-30 -37 -116 -46q-203 -22 -209 -241q29 48 79 76.5t103 28.5q104 0 161 -63t57 -159q0 -93 -65 -158q-64 -64 -172 -64q-122 0 -186 79q-63 80 -63 206q0 181 71 273t218 109q82 9 121 54zM145 243q-6 -70 34 -123q41 -53 114 -53q64 0 105 41
q41 43 41 104q0 58 -39 100q-37 43 -106 43q-52 0 -91.5 -29.5t-57.5 -82.5z" />
    <glyph glyph-name="afii10067" unicode="&#x432;" horiz-adv-x="480" 
d="M72 0v437h191q78 0 119 -30t41 -80q0 -36 -21 -59.5t-59 -30.5v-2q50 -10 76.5 -37.5t26.5 -66.5q0 -60 -44 -95.5t-128 -35.5h-202zM162 369v-111h90q76 0 76 56q0 55 -71 55h-95zM162 196v-128h101q40 0 64 16.5t24 46.5q0 33 -25.5 49t-60.5 16h-103z" />
    <glyph glyph-name="afii10068" unicode="&#x433;" horiz-adv-x="380" 
d="M72 437h302v-78h-212v-359h-90v437z" />
    <glyph glyph-name="afii10069" unicode="&#x434;" horiz-adv-x="560" 
d="M100 0v-132h-90v210h62q29 35 41 89.5t15 148.5v121h341v-359h76v-210h-90v132h-355zM170 78h209v281h-168v-71q-4 -132 -41 -210z" />
    <glyph glyph-name="afii10070" unicode="&#x435;" horiz-adv-x="552" 
d="M438 128l60 -48q-72 -91 -208 -91q-116 0 -182 68q-66 69 -66 168q0 96 71 159q71 64 168 64q105 0 167 -63q61 -62 61 -149q0 -20 -3 -34h-376q4 -57 48 -96q45 -39 113 -39q92 0 147 61zM136 270h278q-9 44 -43 72t-86 28q-57 0 -95.5 -26t-53.5 -74z" />
    <glyph glyph-name="afii10072" unicode="&#x436;" horiz-adv-x="672" 
d="M291 0v225l-177 -225h-114l194 240l-168 197h103l162 -197v197h90v-197l162 197h103l-167 -196l193 -241h-114l-177 225v-225h-90z" />
    <glyph glyph-name="afii10073" unicode="&#x437;" horiz-adv-x="436" 
d="M73 332l-38 54q25 28 71 45t95 17q82 0 128 -29t46 -86q0 -67 -74 -93v-3q101 -21 101 -106q0 -65 -52.5 -103.5t-149.5 -38.5q-109 0 -174 59l43 58q59 -42 136 -42q102 0 102 68q0 67 -110 67h-41v68h41q83 0 83 53t-85 53q-69 0 -122 -41z" />
    <glyph glyph-name="afii10074" unicode="&#x438;" horiz-adv-x="534" 
d="M372 0v271l-300 -282v448h90v-267l300 278v-448h-90z" />
    <glyph glyph-name="afii10075" unicode="&#x439;" horiz-adv-x="534" 
d="M372 0v271l-300 -282v448h90v-267l300 278v-448h-90zM348 646h84q0 -61 -41 -97t-113 -36q-75 0 -116 35.5t-41 97.5h85q0 -29 19 -45t52 -16t52 16t19 45z" />
    <glyph glyph-name="afii10076" unicode="&#x43a;" horiz-adv-x="483" 
d="M162 0h-90v437h90v-197l185 197h103l-190 -196l226 -241h-114l-210 225v-225z" />
    <glyph glyph-name="afii10077" unicode="&#x43b;" horiz-adv-x="532" 
d="M370 0v359h-173v-76q0 -153 -36 -223.5t-115 -70.5h-26v81h12q44 0 63 52.5t19 170.5v144h346v-437h-90z" />
    <glyph glyph-name="afii10078" unicode="&#x43c;" horiz-adv-x="690" 
d="M505 247l-160 -258l-161 257l-70 -246h-93l134 448l190 -309l189 309l131 -448h-90z" />
    <glyph glyph-name="afii10079" unicode="&#x43d;" horiz-adv-x="560" 
d="M398 193h-236v-193h-90v437h90v-166h236v166h90v-437h-90v193z" />
    <glyph glyph-name="afii10080" unicode="&#x43e;" horiz-adv-x="578" 
d="M42 218q0 94 66 161q68 69 181 69q110 0 178 -65q69 -65 69 -165q0 -104 -69 -167q-70 -62 -178 -62q-115 0 -181 67q-66 68 -66 162zM138 218q0 -68 42 -109.5t109 -41.5q69 0 110 42t41 109q0 70 -42 111t-109 41t-109 -41.5t-42 -110.5z" />
    <glyph glyph-name="afii10081" unicode="&#x43f;" horiz-adv-x="555" 
d="M483 0h-90v359h-231v-359h-90v437h411v-437z" />
    <glyph glyph-name="afii10082" unicode="&#x440;" horiz-adv-x="599" 
d="M162 67v-280h-90v650h90v-67q65 78 160 78q110 0 173 -72.5t62 -157.5q0 -95 -61 -162t-166 -67q-49 0 -95.5 21.5t-72.5 56.5zM160 218q0 -64 43 -107q44 -44 112 -44t107 42t39 109q0 56 -39 104q-38 48 -112 48q-63 0 -107 -44q-43 -43 -43 -108z" />
    <glyph glyph-name="afii10083" unicode="&#x441;" horiz-adv-x="493" 
d="M289 -11q-115 0 -181 68t-66 161q0 40 14.5 79.5t43.5 73.5t77.5 55.5t110.5 21.5q99 0 172 -64l-51 -62q-55 48 -121 48q-68 0 -109 -42.5t-41 -109.5q0 -68 44 -110q46 -41 111 -41q69 0 124 46l48 -59q-70 -65 -176 -65z" />
    <glyph glyph-name="afii10084" unicode="&#x442;" horiz-adv-x="394" 
d="M242 0h-90v359h-132v78h354v-78h-132v-359z" />
    <glyph glyph-name="afii10085" unicode="&#x443;" horiz-adv-x="473" 
d="M275 208l99 229h95l-295 -649h-90l108 239l-188 410h100l101 -230q6 -13 18 -52l16 -48q13 42 36 101z" />
    <glyph glyph-name="afii10086" unicode="&#x444;" horiz-adv-x="714" 
d="M318 67v303q-86 0 -132 -39.5t-46 -112.5q0 -65 37.5 -103.5t104.5 -45.5q22 -2 36 -2zM408 641v-193q136 0 206 -65q70 -64 70 -164q0 -106 -74 -168t-202 -62v-202h-90v202l-43 2q-115 6 -174 71q-59 67 -59 156q0 101 70 165q71 65 206 65v193h90zM408 370v-303
q81 0 129.5 39t48.5 113q0 75 -47 113t-131 38z" />
    <glyph glyph-name="afii10087" unicode="&#x445;" horiz-adv-x="445" 
d="M333 0l-115 161l-116 -161h-98l161 221l-155 216h106l107 -152l110 152h101l-159 -211l166 -226h-108z" />
    <glyph glyph-name="afii10088" unicode="&#x446;" horiz-adv-x="574" 
d="M484 437v-359h75v-210h-90v132h-397v437h90v-359h232v359h90z" />
    <glyph glyph-name="afii10089" unicode="&#x447;" horiz-adv-x="497" 
d="M335 254v183h90v-437h-90v177q-62 -28 -134 -28q-156 0 -156 156v132h90v-110q0 -54 23 -77t67 -23q69 0 110 27z" />
    <glyph glyph-name="afii10090" unicode="&#x448;" horiz-adv-x="774" 
d="M702 0h-630v437h90v-359h180v359h90v-359h180v359h90v-437z" />
    <glyph glyph-name="afii10091" unicode="&#x449;" horiz-adv-x="794" 
d="M779 -132h-90v132h-617v437h90v-359h180v359h90v-359h180v359h90v-359h77v-210z" />
    <glyph glyph-name="afii10092" unicode="&#x44a;" horiz-adv-x="546" 
d="M23 437h219v-156h117q82 0 125 -41q42 -40 42 -95q0 -145 -178 -145h-196v359h-129v78zM242 207v-133h104q85 0 85 70q0 63 -85 63h-104z" />
    <glyph glyph-name="afii10093" unicode="&#x44b;" horiz-adv-x="695" 
d="M623 0h-90v437h90v-437zM72 437h90v-156h117q83 0 126 -41q42 -40 42 -95q0 -48 -32 -92q-38 -53 -147 -53h-196v437zM162 207v-133h105q85 0 85 70q0 26 -18 41q-25 22 -67 22h-105z" />
    <glyph glyph-name="afii10094" unicode="&#x44c;" horiz-adv-x="466" 
d="M72 437h90v-156h117q82 0 125 -41q42 -40 42 -95q0 -48 -32 -92q-38 -53 -146 -53h-196v437zM162 207v-133h104q22 0 48 10q37 14 37 60q0 63 -85 63h-104z" />
    <glyph glyph-name="afii10095" unicode="&#x44d;" horiz-adv-x="506" 
d="M371 192h-216v68h213q-13 51 -53.5 80t-97.5 29q-67 0 -128 -41l-34 65q71 54 162 54q117 0 182 -69q65 -70 65 -160q0 -96 -64 -163t-183 -67q-104 0 -179 60l48 62q52 -44 131 -44q61 0 103.5 34.5t50.5 91.5z" />
    <glyph glyph-name="afii10096" unicode="&#x44e;" horiz-adv-x="756" 
d="M162 437v-162h85q20 75 80 124q61 49 150 49q103 0 170 -65q67 -64 67 -165q0 -104 -67 -167q-67 -62 -170 -62q-101 0 -165 60q-64 61 -71 148h-79v-197h-90v437h90zM337 218q0 -68 39.5 -109.5t100.5 -41.5q65 0 103 41.5t38 109.5q0 69 -40 110.5t-101 41.5
t-100.5 -41.5t-39.5 -110.5z" />
    <glyph glyph-name="afii10097" unicode="&#x44f;" horiz-adv-x="476" 
d="M226 437h178v-437h-90v168h-66l-112 -168h-111l126 176q-46 12 -71.5 46t-25.5 82q0 54 40 93q40 40 132 40zM314 233v130h-89q-75 0 -75 -63q0 -67 87 -67h77z" />
    <glyph glyph-name="afii10071" unicode="&#x451;" horiz-adv-x="552" 
d="M438 128l60 -48q-72 -91 -208 -91q-116 0 -182 68q-66 69 -66 168q0 96 71 159q71 64 168 64q105 0 167 -63q61 -62 61 -149q0 -20 -3 -34h-376q4 -57 48 -96q45 -39 113 -39q92 0 147 61zM136 270h278q-9 44 -43 72t-86 28q-57 0 -95.5 -26t-53.5 -74zM420 632v-96h-96
v96h96zM237 632v-96h-96v96h96z" />
    <glyph glyph-name="afii10099" unicode="&#x452;" horiz-adv-x="533" 
d="M379 -15v247q0 74 -20.5 106t-77.5 32q-53 0 -86 -35.5t-33 -89.5v-245h-90v538h-70v67h70v95h90v-95h205v-67h-205v-173q19 39 57.5 61t86.5 22q88 0 125.5 -46.5t37.5 -144.5v-298q0 -26 -8 -54t-25 -55.5t-48.5 -45t-72.5 -17.5h-10v78h6q68 0 68 120z" />
    <glyph glyph-name="afii10100" unicode="&#x453;" horiz-adv-x="380" 
d="M72 437h302v-78h-212v-359h-90v437zM207 499h-65l87 167h142z" />
    <glyph glyph-name="afii10101" unicode="&#x454;" horiz-adv-x="505" 
d="M351 266v-78h-213q8 -50 51 -86q44 -35 104 -35q69 0 124 46l50 -62q-74 -62 -178 -62q-115 0 -181 68t-66 161q0 40 14.5 79.5t43.5 73.5t77.5 55.5t110.5 21.5q99 0 172 -64l-51 -62q-55 48 -121 48q-54 0 -95 -29t-52 -75h210z" />
    <glyph glyph-name="afii10102" unicode="&#x455;" horiz-adv-x="400" 
d="M341 416l-33 -67q-60 21 -96 21q-52 0 -52 -39q0 -21 22 -37l21 -14q7 -4 28 -14.5t24 -12.5q53 -28 79 -59.5t26 -77.5q0 -57 -43.5 -91.5t-113.5 -34.5q-91 0 -163 51l39 68q64 -41 118 -41q67 0 67 54q0 14 -13.5 30t-29.5 25q-15 10 -41 23l-31 17q-46 28 -65.5 54.5
t-19.5 66.5q0 53 43 81q44 29 102 29q73 0 132 -32z" />
    <glyph glyph-name="afii10103" unicode="&#x456;" horiz-adv-x="234" 
d="M162 0h-90v437h90v-437zM162 632v-96h-90v96h90z" />
    <glyph glyph-name="afii10104" unicode="&#x457;" horiz-adv-x="234" 
d="M247 632v-96h-97v96h97zM83 632v-96h-96v96h96zM162 0h-90v437h90v-437z" />
    <glyph glyph-name="afii10105" unicode="&#x458;" horiz-adv-x="234" 
d="M72 -15v452h90v-478q0 -26 -8 -54t-25 -55.5t-48.5 -45t-72.5 -17.5h-10v78h6q68 0 68 120zM162 632v-96h-90v96h90z" />
    <glyph glyph-name="afii10106" unicode="&#x459;" horiz-adv-x="754" 
d="M450 437v-156h117q82 0 125 -41q42 -40 42 -95q0 -48 -32 -92q-38 -53 -146 -53h-196v359h-163v-76q0 -294 -151 -294h-26v77h12q24 -1 42 19.5t26 57.5q14 62 14 147v147h336zM450 207v-133h104q22 0 48 10q37 14 37 60q0 63 -85 63h-104z" />
    <glyph glyph-name="afii10107" unicode="&#x45a;" horiz-adv-x="783" 
d="M478 437v-156h118q82 0 125 -41q42 -40 42 -95q0 -48 -32 -92q-38 -53 -146 -53h-197v203h-226v-203h-90v437h90v-156h226v156h90zM478 208v-134h105q22 0 48 10q37 14 37 60q0 64 -85 64h-105z" />
    <glyph glyph-name="afii10108" unicode="&#x45b;" horiz-adv-x="533" 
d="M162 700v-95h204v-67h-204v-173q19 39 57.5 61t86.5 22q164 0 164 -176v-272h-90v248q0 60 -23 91t-76 31t-86 -35.5t-33 -89.5v-245h-90v538h-70v67h70v95h90z" />
    <glyph glyph-name="afii10109" unicode="&#x45c;" horiz-adv-x="483" 
d="M162 0h-90v437h90v-197l185 197h103l-190 -196l226 -241h-114l-210 225v-225zM258 499h-65l87 167h142z" />
    <glyph glyph-name="afii10110" unicode="&#x45e;" horiz-adv-x="473" 
d="M275 208l99 229h95l-295 -649h-90l108 239l-188 410h100l101 -230q6 -13 18 -52l16 -48q13 42 36 101zM309 646h84q0 -61 -41 -97t-113 -36q-75 0 -116 35.5t-41 97.5h85q0 -29 19 -45t52 -16t52 16t19 45z" />
    <glyph glyph-name="afii10193" unicode="&#x45f;" horiz-adv-x="544" 
d="M162 437v-359h220v359h90v-437h-154v-123h-84v123h-162v437h90z" />
    <glyph glyph-name="afii10146" unicode="&#x462;" horiz-adv-x="651" 
d="M476 494h-183v-84h114q113 0 172.5 -53.5t59.5 -140.5q0 -86 -46 -147q-53 -69 -190 -69h-205v494h-144v83h144v89h95v-89h183v-83zM293 327v-244h108q137 0 137 122q0 59 -35.5 90.5t-99.5 31.5h-110z" />
    <glyph glyph-name="afii10194" unicode="&#x463;" horiz-adv-x="466" 
d="M268 0h-196v367h-70v67h70v266h90v-266h205v-67h-205v-86h117q82 0 125 -41q42 -40 42 -95q0 -48 -32 -92q-38 -53 -146 -53zM162 207v-133h104q22 0 48 10q37 14 37 60q0 63 -85 63h-104z" />
    <glyph glyph-name="afii10147" unicode="&#x472;" horiz-adv-x="817" 
d="M50 333q0 149 101 248t259 99q85 0 155 -30.5t113 -82.5q89 -106 89 -234q0 -141 -99 -244t-258 -103q-157 -1 -260.5 104t-99.5 243zM153 294v-1q10 -96 81 -161q70 -63 175 -63q103 0 174 66q72 67 82 166q-64 -41 -126 -41q-53 0 -133 37q-82 38 -124 38
q-58 0 -129 -41zM153 378q71 40 139 40q41 0 122 -38q78 -37 125 -37q72 0 125 32q-14 91 -81 156q-67 66 -174 66q-99 0 -170 -63q-69 -62 -86 -156z" />
    <glyph glyph-name="afii10195" unicode="&#x473;" horiz-adv-x="578" 
d="M440 252q-10 55 -51.5 86.5t-99.5 31.5t-99.5 -32.5t-51.5 -86.5q38 26 90 26q26 0 70 -22q46 -21 69 -21q41 0 73 18zM440 186q-37 -24 -82 -24q-22 0 -68 20q-45 21 -67 21q-53 0 -84 -22q11 -53 52 -83.5t98 -30.5q60 0 101 32.5t50 86.5zM42 218q0 94 66 161
q68 69 181 69q110 0 178 -65q69 -65 69 -165q0 -104 -69 -167q-70 -62 -178 -62q-115 0 -181 67q-66 68 -66 162z" />
    <glyph glyph-name="afii10148" unicode="&#x474;" horiz-adv-x="703" 
d="M593 561l-267 -575l-318 680h103l215 -476l182 411q37 79 108 79q29 0 79 -14l-16 -76q-41 11 -58 5.5t-28 -34.5z" />
    <glyph glyph-name="afii10196" unicode="&#x475;" horiz-adv-x="512" 
d="M271 208l66 168q31 73 98 73q37 0 73 -14l-15 -66q-25 6 -38 6q-27 0 -40 -33l-148 -342h-64l-199 437h95l101 -230l37 -100q14 51 34 101z" />
    <glyph glyph-name="afii10050" unicode="&#x490;" horiz-adv-x="494" 
d="M480 756v-173h-281v-583h-95v666h292v90h84z" />
    <glyph glyph-name="afii10098" unicode="&#x491;" horiz-adv-x="381" 
d="M72 437h219v123h84v-201h-213v-359h-90v437z" />
    <glyph glyph-name="uni04AE" unicode="&#x4ae;" horiz-adv-x="597" 
d="M251 0v218l-241 448h103l185 -346l186 346h103l-241 -448v-218h-95z" />
    <glyph glyph-name="uni04AF" unicode="&#x4af;" horiz-adv-x="462" 
d="M458 437l-179 -399v-251h-90v251l-185 399h95l101 -230l37 -100q14 51 34 101l92 229h95z" />
    <glyph glyph-name="uni04BA" unicode="&#x4ba;" horiz-adv-x="620" 
d="M199 289v-289h-95v666h95v-291q75 34 170 34q106 0 159.5 -50t53.5 -158v-201h-93v182q0 144 -134 144q-95 0 -156 -37z" />
    <glyph glyph-name="uni04BB" unicode="&#x4bb;" horiz-adv-x="533" 
d="M162 0h-90v700h90v-335q19 39 57.5 61t86.5 22q164 0 164 -176v-272h-90v248q0 60 -23 91t-76 31t-86 -35.5t-33 -89.5v-245z" />
    <glyph glyph-name="uni1E9E" unicode="&#x1e9e;" horiz-adv-x="563" 
d="M209 36l38 68q47 -35 91 -35q41 0 65.5 25.5t24.5 78.5q5 36 -41 100q-14 20 -58 64q-18 18 -35 33l-32 31l96 180q-38 41 -101 41q-45 0 -70 -35.5t-25 -96.5v-490h-90v487q0 213 188 213q66 0 118 -27.5t80 -76.5l-94 -174l28 -25l35 -32q12 -9 34 -36q22 -25 32 -45
q30 -53 30 -111q0 -84 -47.5 -133t-132.5 -49q-74 0 -134 45z" />
    <glyph glyph-name="uni2010" unicode="&#x2010;" horiz-adv-x="444" 
d="M369 202h-294v83h294v-83z" />
    <glyph glyph-name="uni2011" unicode="&#x2011;" horiz-adv-x="444" 
d="M369 202h-294v83h294v-83z" />
    <glyph glyph-name="figuredash" unicode="&#x2012;" horiz-adv-x="565" 
d="M475 298h-385v83h385v-83z" />
    <glyph glyph-name="endash" unicode="&#x2013;" horiz-adv-x="565" 
d="M475 202h-385v83h385v-83z" />
    <glyph glyph-name="emdash" unicode="&#x2014;" horiz-adv-x="827" 
d="M737 202h-647v83h647v-83z" />
    <glyph glyph-name="quoteleft" unicode="&#x2018;" horiz-adv-x="244" 
d="M154 428h-109l73 252h81z" />
    <glyph glyph-name="quoteright" unicode="&#x2019;" horiz-adv-x="244" 
d="M90 680h109l-73 -252h-81z" />
    <glyph glyph-name="quotesinglbase" unicode="&#x201a;" horiz-adv-x="254" 
d="M95 126h109l-73 -252h-81z" />
    <glyph glyph-name="quotedblleft" unicode="&#x201c;" horiz-adv-x="467" 
d="M372 428h-109l73 252h81zM159 428h-109l73 252h81z" />
    <glyph glyph-name="quotedblright" unicode="&#x201d;" horiz-adv-x="467" 
d="M95 680h109l-73 -252h-81zM308 680h109l-73 -252h-81z" />
    <glyph glyph-name="quotedblbase" unicode="&#x201e;" horiz-adv-x="467" 
d="M95 126h109l-73 -252h-81zM308 126h109l-73 -252h-81z" />
    <glyph glyph-name="dagger" unicode="&#x2020;" horiz-adv-x="500" 
d="M295 -213h-90v588h-168v83h168v208h90v-208h168v-83h-168v-588z" />
    <glyph glyph-name="daggerdbl" unicode="&#x2021;" horiz-adv-x="500" 
d="M295 -213h-90v272h-168v83h168v233h-168v83h168v208h90v-208h168v-83h-168v-233h168v-83h-168v-272z" />
    <glyph glyph-name="bullet" unicode="&#x2022;" horiz-adv-x="186" 
d="M93 343q27 0 45 -19t18 -44q0 -24 -17.5 -43.5t-45.5 -19.5q-27 0 -45 18t-18 45t18 45t45 18z" />
    <glyph glyph-name="ellipsis" unicode="&#x2026;" horiz-adv-x="886" 
d="M60 0v126h126v-126h-126zM380 0v126h126v-126h-126zM700 0v126h126v-126h-126z" />
    <glyph glyph-name="perthousand" unicode="&#x2030;" horiz-adv-x="1281" 
d="M56 504q0 78 48 127t119 49q83 0 125 -52t42 -124q0 -76 -48 -126q-47 -50 -119 -50q-76 0 -121.5 48t-45.5 128zM136 503q0 -45 23 -72t64 -27t64 26.5t23 72.5t-22.5 73.5t-64.5 27.5q-29 0 -49 -13t-27 -35q-11 -34 -11 -53zM495 159q0 77 48 127q48 49 119 49
q83 0 125 -52t42 -124q0 -77 -48 -126q-47 -50 -119 -50q-76 0 -121.5 48t-45.5 128zM575 158q0 -45 23 -72t64 -27t64 26.5t23 72.5t-22.5 73.5t-64.5 27.5q-29 0 -49 -13t-27 -35q-11 -34 -11 -53zM880 159q0 77 48 127q48 49 119 49q83 0 125 -52t42 -124q0 -77 -48 -126
q-47 -50 -119 -50q-76 0 -121.5 48t-45.5 128zM960 158q0 -45 23 -72t64 -27t64 26.5t23 72.5t-22.5 73.5t-64.5 27.5q-29 0 -49 -13t-27 -35q-11 -34 -11 -53zM764 643l-562 -648l-58 54l558 647z" />
    <glyph glyph-name="guilsinglleft" unicode="&#x2039;" horiz-adv-x="352" 
d="M191 45l-127 173l127 174h97l-124 -174l124 -173h-97z" />
    <glyph glyph-name="guilsinglright" unicode="&#x203a;" horiz-adv-x="352" 
d="M162 392l126 -174l-126 -173h-98l125 173l-125 174h98z" />
    <glyph glyph-name="fraction" unicode="&#x2044;" horiz-adv-x="153" 
d="M399 643l-562 -648l-58 54l558 647z" />
    <glyph glyph-name="Euro" unicode="&#x20ac;" horiz-adv-x="542" 
d="M207 443h233l-20 -66h-229q-3 -21 -3 -43q0 -21 1 -26h218l-20 -66h-185q26 -79 85 -126q62 -47 130 -47q17 0 32 2t23.5 4t10.5 2l15 -82q-2 0 -15 -2.5t-33 -4.5t-40 -2q-119 0 -201 73q-81 72 -110 183h-85l20 66h54q-1 6 -1 26q0 25 2 43h-75l20 66h69
q33 104 119 171q86 66 191 66q53 0 101 -19l-32 -75q-35 11 -73 11q-68 0 -121.5 -42t-80.5 -112z" />
    <glyph glyph-name="uni20B4" unicode="&#x20b4;" horiz-adv-x="558" 
d="M432 116l37 -69q-79 -61 -202 -61q-89 0 -138 39t-49 103q0 56 54 108h-84v74h140l60 60h-200v74h258q58 55 58 89q0 27 -21.5 45.5t-59.5 18.5q-71 0 -133 -36l-38 71q76 48 172 48q83 0 132 -37.5t49 -98.5q0 -50 -45 -100h86v-74h-146l-60 -60h206v-74h-266
q-61 -54 -61 -98q0 -69 94 -69q77 0 157 47z" />
    <glyph glyph-name="uni20BD" unicode="&#x20bd;" horiz-adv-x="538" 
d="M129 280h-89v74h89v312h170q115 0 172 -53.5t57 -145.5q0 -85 -57.5 -136t-167.5 -51h-79v-60h121v-74h-121v-146h-95v146h-89v74h89v60zM224 583v-229h73q130 0 130 117q0 56 -31.5 84t-102.5 28h-69z" />
    <glyph glyph-name="afii61352" unicode="&#x2116;" horiz-adv-x="1070" 
d="M708 176v76h318v-76h-318zM616 -14l-428 483v-469h-84v680l428 -478v464h84v-680zM701 491q0 77 48 127q48 49 119 49q83 0 125 -52q42 -53 42 -124q0 -77 -48 -126q-47 -50 -119 -50q-76 0 -121.5 48t-45.5 128zM781 490q0 -45 23 -72t64 -27t64 26.5t23 72.5
t-22.5 73.5t-64.5 27.5q-29 0 -49 -13t-27 -35q-11 -34 -11 -53z" />
    <glyph glyph-name="trademark" unicode="&#x2122;" horiz-adv-x="630" 
d="M172 437h-67v167h-69v62h206v-62h-70v-167zM497 538l-73 -108l-83 107l-32 -100h-66l79 235l102 -147l99 147l81 -235h-70z" />
    <glyph glyph-name="partialdiff" unicode="&#x2202;" horiz-adv-x="580" 
d="M452 362q-5 117 -69.5 192t-187.5 95l18 68q95 -14 161.5 -49.5t101.5 -89t50.5 -112t16.5 -132.5q0 -50 -10 -98t-32 -92.5t-53.5 -78t-79.5 -53.5t-106 -20q-100 0 -165 66q-63 66 -60 160q0 91 68 162q69 71 174 71q111 0 173 -89zM444 258q-18 54 -57 84.5t-96 30.5
q-71 0 -114 -49q-44 -49 -44 -111q-1 -63 37.5 -103t99.5 -40q66 -1 116 53q51 55 58 135z" />
    <glyph glyph-name="product" unicode="&#x220f;" horiz-adv-x="833" 
d="M648 584h-463v-799h-95v882h653v-882h-95v799z" />
    <glyph glyph-name="summation" unicode="&#x2211;" horiz-adv-x="541" 
d="M268 225l-294 442h566v-83h-388l226 -354l-253 -360h415v-83h-580z" />
    <glyph glyph-name="minus" unicode="&#x2212;" horiz-adv-x="606" 
d="M562 308h-506v83h506v-83z" />
    <glyph glyph-name="uni2215" unicode="&#x2215;" horiz-adv-x="639" 
d="M569 622l-504 -835l-65 42l502 837z" />
    <glyph glyph-name="radical" unicode="&#x221a;" horiz-adv-x="471" 
d="M107 462l132 -368l144 617h246v-83h-182l-157 -668h-85l-161 419h-94v83h157z" />
    <glyph glyph-name="infinity" unicode="&#x221e;" horiz-adv-x="742" 
d="M377 308q36 38 46 46q43 39 112 39t102 -42q34 -40 34 -93t-37 -94q-36 -41 -106 -41q-48 0 -82.5 20t-78.5 67q-32 -33 -47 -47q-45 -40 -106 -40q-69 0 -107 41q-36 42 -36 94q0 50 39 92q40 43 110 43q85 0 157 -85zM311 266q-14 15 -23 23q-26 26 -66 26
q-26 0 -44.5 -17.5t-18.5 -39.5q0 -25 16 -41t42 -16q38 0 94 65zM459 282l-26 -30q43 -51 92 -51q26 0 42 16t16 41q0 24 -16 40.5t-42 16.5q-19 0 -39 -12t-27 -21z" />
    <glyph glyph-name="integral" unicode="&#x222b;" horiz-adv-x="270" 
d="M356 683l-20 -79q-50 14 -79 14q-43 0 -60 -30t-17 -96v-492q0 -84 -24 -141q-30 -72 -122 -72q-52 0 -95 15l19 77q29 -9 55 -9q43 0 60 29.5t17 95.5v492q0 69 14 116q33 98 133 98q47 0 119 -18z" />
    <glyph glyph-name="approxequal" unicode="&#x2248;" horiz-adv-x="640" 
d="M459 436q45 0 88 42l42 -65q-62 -65 -130 -65q-53 0 -145 39t-123 39q-21 0 -42 -10q-24 -12 -30 -17l-28 -23l-41 60q37 40 68 58t74 18q34 0 130 -38t137 -38zM460 270q45 0 88 42l42 -65q-62 -65 -130 -65q-54 0 -145 39t-123 39q-21 0 -42 -10q-24 -12 -30 -17
l-28 -23l-41 60q37 40 68 58t74 18q34 0 130 -38t137 -38z" />
    <glyph glyph-name="notequal" unicode="&#x2260;" horiz-adv-x="609" 
d="M281 405h-231v83h284l99 157l67 -42l-73 -115h132v-83h-186l-69 -111h255v-83h-308l-100 -156l-65 42l72 114h-108v83h161z" />
    <glyph glyph-name="lessequal" unicode="&#x2264;" horiz-adv-x="606" 
d="M556 160l-506 234l506 234v-86l-317 -149l317 -149v-84zM556 66v-84l-506 237v89z" />
    <glyph glyph-name="greaterequal" unicode="&#x2265;" horiz-adv-x="606" 
d="M51 631l505 -237l-506 -236v85l317 152l-316 149v87zM556 307v-90l-506 -234v86z" />
    <glyph glyph-name="lozenge" unicode="&#x25ca;" horiz-adv-x="340" 
d="M198 478l140 -240l-140 -238h-56l-140 237l140 241h56zM168 122l71 118l-68 116l-70 -120z" />
    <glyph glyph-name="uniF400" unicode="&#xf400;" horiz-adv-x="0" 
d="M-295 499h-65l87 167h142z" />
    <glyph glyph-name="uniF401" unicode="&#xf401;" horiz-adv-x="0" 
d="M-335 723h-65l87 139h142z" />
    <glyph glyph-name="uniF406" unicode="&#xf406;" horiz-adv-x="400" 
d="M311 860l59 -44q-62 -104 -170 -104q-122 0 -170 103l58 45q44 -65 107 -65q69 0 116 65z" />
    <glyph glyph-name="uniF407" unicode="&#xf407;" horiz-adv-x="255" 
d="M69 0h80v-37q76 -14 76 -76q0 -42 -44 -69t-109 -27q-23 0 -42 4l5 70q15 -4 37 -4q47 0 47 23t-50 23v93z" />
    <glyph glyph-name="uniF408" unicode="&#xf408;" horiz-adv-x="358" 
d="M259 712l-80 86l-80 -86h-69l104 160h87l107 -160h-69z" />
    <glyph glyph-name="uniF409" unicode="&#xf409;" horiz-adv-x="350" 
d="M117 -50h106l-64 -165h-68z" />
    <glyph glyph-name="uniF40A" unicode="&#xf40a;" horiz-adv-x="350" 
d="M143 680h109l-73 -252h-81z" />
    <glyph glyph-name="uniF40B" unicode="&#xf40b;" horiz-adv-x="186" 
d="M143 845v-101h-101v101h101z" />
    <glyph glyph-name="uniF40C" unicode="&#xf40c;" horiz-adv-x="247" 
d="M25 812q0 41 28.5 70t69.5 29t70 -30q29 -29 29 -69q0 -39 -29 -70q-29 -29 -70 -29t-69.5 28.5t-28.5 70.5zM104 831q-17 -19 1 -38t37 0t0 38t-38 0z" />
    <glyph glyph-name="uniF40D" unicode="&#xf40d;" horiz-adv-x="403" 
d="M95 713l-65 21q6 44 36 74t74 30q28 0 65 -18q39 -18 58 -18q30 0 45 35l65 -24q-6 -39 -34 -66.5t-67 -27.5q-23 0 -65 18t-62 18q-35 0 -50 -42z" />
    <glyph glyph-name="uniF40E" unicode="&#xf40e;" horiz-adv-x="278" 
d="M228 -120l20 -79q-39 -14 -92 -14q-57 0 -91.5 24.5t-34.5 71.5q0 51 52 93q26 20 43 31q31 20 46 28l31 18l35 -53l-28 -17q-53 -30 -68 -50q-10 -13 -10 -28q0 -17 11.5 -26t30.5 -9q34 0 55 10z" />
    <glyph glyph-name="zero.tab" unicode="&#xf4e0;" 
d="M45 333q0 128 24 205q39 138 194 142q128 0 175 -99q43 -86 43 -248q0 -165 -44 -253q-48 -94 -174 -94q-105 0 -159 68q-24 32 -37 77q-22 83 -22 202zM141 385v-52q0 -52 1 -71q7 -93 17 -119q16 -39 40 -59t65 -20q43 0 66.5 20t38.5 58q8 23 11 57l4 62q1 17 1 72
q0 47 -1 61q0 21 -3 59q-3 36 -11 59q-29 95 -106 90q-40 -3 -63.5 -19t-36.5 -51q-17 -44 -20 -95z" />
    <glyph glyph-name="one.tab" unicode="&#xf4e1;" 
d="M227 526l-93 -87v100l128 127h55v-666h-90v526z" />
    <glyph glyph-name="two.tab" unicode="&#xf4e2;" 
d="M192 78h262l-38 -78h-395l144 172q113 132 153 192q41 62 41 118q0 53 -27.5 86t-77.5 33q-64 0 -131 -45l-20 35l-17 29q82 59 176 59q92 0 142 -54q51 -53 51 -125q0 -85 -65 -183q-62 -94 -198 -239z" />
    <glyph glyph-name="three.tab" unicode="&#xf4e3;" 
d="M91 565l-32 68q80 46 178 46q89 0 140 -43t51 -112q0 -47 -28 -88.5t-77 -58.5q68 -18 106 -65t38 -106q0 -104 -72 -162q-71 -58 -188 -58q-66 0 -142 29v83q75 -34 142 -34q78 0 121 35t43 100q0 60 -43 96.5t-125 35.5h-33v78h28q134 0 134 101q0 42 -28 66.5
t-85 24.5q-56 0 -128 -36z" />
    <glyph glyph-name="four.tab" unicode="&#xf4e4;" 
d="M412 187h73l-22 -78h-51v-109h-90v109h-298v53l333 504h55v-479zM129 187h193v294z" />
    <glyph glyph-name="five.tab" unicode="&#xf4e5;" 
d="M438 588h-213l-46 -145q133 -1 202 -58q80 -67 78 -177q0 -79 -58 -146q-28 -35 -81 -55.5t-118 -20.5q-82 0 -144 28v83q54 -33 126 -33q97 0 141 54q38 45 38 94q0 66 -52 111q-52 46 -141 46h-91l96 297h286z" />
    <glyph glyph-name="six.tab" unicode="&#xf4e6;" 
d="M167 485l140 181h115l-229 -289l1 -2q35 18 86 18q87 0 146 -56q60 -55 60 -139q0 -83 -59 -148q-58 -64 -157 -64q-95 0 -159 59q-63 60 -63 150q0 59 20 119q22 60 43 93q27 42 56 78zM144 191q0 -58 33.5 -92.5t89.5 -34.5q55 0 89 35t34 92q0 49 -33 86
q-33 38 -90 38q-56 0 -89.5 -35t-33.5 -89z" />
    <glyph glyph-name="seven.tab" unicode="&#xf4e7;" 
d="M353 588h-299l39 78h400l-338 -666h-99z" />
    <glyph glyph-name="eight.tab" unicode="&#xf4e8;" 
d="M171 358v3q-44 17 -70.5 55t-26.5 86q0 73 52 125q53 53 137 53q85 0 137 -52q53 -53 53 -125q0 -100 -99 -142v-3q62 -20 94.5 -65.5t32.5 -109.5q0 -79 -60 -138q-61 -59 -158 -59q-95 0 -157 59q-61 60 -61 138q0 64 34 111t92 64zM387 190q0 58 -34 94t-90 36
t-90 -36.5t-34 -93.5q0 -55 33.5 -91.5t89.5 -36.5q57 0 91 36t34 92zM263 394q43 0 69.5 29.5t26.5 75.5q0 39 -25 71q-25 34 -71 34q-43 0 -69 -31.5t-26 -73.5q0 -44 26 -74.5t69 -30.5z" />
    <glyph glyph-name="nine.tab" unicode="&#xf4e9;" 
d="M360 182l-141 -182h-115l223 285l-1 2q-42 -17 -73 -17q-89 0 -151 60q-61 60 -61 139q0 85 58 147q58 64 157 64q95 0 159 -58t64 -142q0 -85 -29 -152t-90 -146zM383 476q0 54 -36 90t-88 36t-87 -36t-35 -90q0 -53 35 -91q34 -37 87 -37q51 0 87 37q37 37 37 91z" />
    <glyph glyph-name="dollar.tab" unicode="&#xf4ec;" 
d="M319 -6v-108h-83v100q-112 8 -182 54l38 77q76 -47 162 -47q57 0 85.5 26.5t28.5 68.5q0 38 -37 75q-13 15 -55 46l-35 24l-35 24l-24 16l-15.5 11.5t-10.5 7.5l-22 19q-19 17 -38 49q-16 28 -16 70q0 61 42 109q44 48 114 60v77h83v-76q53 -8 115 -37l-37 -75
q-59 31 -117 31q-45 0 -72 -24t-27 -63q0 -27 27 -56q26 -27 84 -67q53 -34 71 -48q55 -44 80.5 -83.5t25.5 -91.5q0 -64 -41 -108.5t-109 -60.5z" />
    <glyph glyph-name="Euro.tab" unicode="&#xf4ed;" 
d="M205 443h233l-20 -66h-229q-3 -21 -3 -43q0 -21 1 -26h218l-20 -66h-185q26 -79 85 -126q62 -47 130 -47q17 0 32 2t23.5 4t10.5 2l15 -82q-2 0 -15 -2.5t-33 -4.5t-40 -2q-119 0 -201 73q-81 72 -110 183h-85l20 66h54q-1 6 -1 26q0 25 2 43h-75l20 66h69
q33 104 119 171q86 66 191 66q53 0 101 -19l-32 -75q-35 11 -73 11q-68 0 -121.5 -42t-80.5 -112z" />
    <glyph glyph-name="cent.tab" unicode="&#xf4ee;" 
d="M329 -10v-108h-78v110q-94 13 -147 79q-53 65 -53 147q0 78 51 145q52 67 149 82v109h78v-108q76 -7 140 -62l-51 -62q-55 48 -121 48q-67 0 -108 -42.5t-41 -109.5q0 -60 42 -106q43 -45 112 -45t124 46l50 -62q-61 -52 -147 -61z" />
    <glyph glyph-name="sterling.tab" unicode="&#xf4ef;" 
d="M462 636l-37 -74q-56 35 -108 35q-55 0 -86 -32t-31 -87q0 -46 27 -128h152v-74h-131q4 -17 4 -57q0 -37 -15 -70t-33 -51l2 -5q21 8 45 8q18 0 54 -16t56 -16q43 0 81 42l50 -59q-63 -66 -134 -66q-32 0 -73 16q-39 16 -62 16q-59 0 -100 -32l-53 93q50 36 72 66.5
t22 66.5q0 41 -10 64h-97v74h67q-25 63 -25 127q0 94 59 148.5t159 54.5q86 0 145 -44z" />
    <glyph glyph-name="yen.tab" unicode="&#xf4fa;" 
d="M216 255h-171v74h141l-186 337h110l159 -306l163 306h94l-185 -337h142v-74h-172v-60h172v-74h-172v-121h-95v121h-171v74h171v60z" />
    <glyph glyph-name="florin.tab" unicode="&#xf4fb;" 
d="M357 359h-54l-36 -359q-7 -82 -38 -141q-37 -72 -129 -72h-41l8 76h20q43 0 63.5 33t26.5 100l36 363h-51l8 78h51l6 50q7 82 38 141q37 72 129 72h41l-8 -76h-20q-43 0 -63.5 -33t-26.5 -100l-6 -54h54z" />
    <glyph glyph-name="uni20B4.tab" unicode="&#xf4fc;" 
d="M416 116l37 -69q-79 -61 -202 -61q-89 0 -138 39t-49 103q0 56 54 108h-84v74h140l60 60h-200v74h258q58 55 58 89q0 27 -21.5 45.5t-59.5 18.5q-71 0 -133 -36l-38 71q76 48 172 48q83 0 132 -37.5t49 -98.5q0 -50 -45 -100h86v-74h-146l-60 -60h206v-74h-266
q-61 -54 -61 -98q0 -69 94 -69q77 0 157 47z" />
    <glyph glyph-name="uni20BD.tab" unicode="&#xf4fd;" 
d="M117 280h-89v74h89v312h170q115 0 172 -53.5t57 -145.5q0 -85 -57.5 -136t-167.5 -51h-79v-60h121v-74h-121v-146h-95v146h-89v74h89v60zM212 583v-229h73q130 0 130 117q0 56 -31.5 84t-102.5 28h-69z" />
    <glyph glyph-name="currency.tab" unicode="&#xf4fe;" 
d="M43 62l-59 59l90 89q-40 53 -40 128q0 74 40 130l-91 89l59 59l90 -89q52 42 132 42q78 0 131 -42l91 89l58 -59l-91 -90q40 -53 40 -129q0 -72 -39 -127l90 -90l-59 -59l-90 89q-61 -42 -131 -42q-80 0 -132 42zM129 338q0 -56 38 -96q40 -38 97 -38q55 0 94 36
q40 36 40 98q0 52 -37 93q-37 43 -97 43q-58 0 -96.5 -38.5t-38.5 -97.5z" />
    <glyph glyph-name="uniF643" unicode="&#xf643;" 
d="M19 218q0 88 66 158q66 72 178 72q109 0 177 -69q67 -68 67 -161q0 -98 -69 -164q-68 -65 -175 -65q-119 0 -186 77q-58 71 -58 152zM117 218q0 -64 40.5 -105t105.5 -41t105 42q41 44 41 104q0 58 -39 101q-37 44 -107 46q-66 1 -106 -40t-40 -107z" />
    <glyph glyph-name="uniF644" unicode="&#xf644;" 
d="M259 303l-84 -81v96l118 119h58v-437h-92v303z" />
    <glyph glyph-name="uniF645" unicode="&#xf645;" 
d="M280 80h166l-38 -80h-329l48 39q35 28 45 37q57 46 77 65q43 40 56 58q34 49 34 80q0 89 -96 89q-67 0 -112 -47l-39 74q74 53 160 53q85 0 135 -44t50 -106q0 -61 -36.5 -109.5t-120.5 -108.5z" />
    <glyph glyph-name="uniF646" unicode="&#xf646;" 
d="M104 324l-39 74q70 49 170 49q79 0 133 -42q55 -42 55 -107q0 -47 -27 -84.5t-76 -55.5v-2q67 -15 104 -58.5t37 -105.5q0 -94 -73 -149q-72 -57 -182 -57q-71 0 -136 28v83q66 -31 136 -31q75 0 116 32t41 92q0 55 -41 88.5t-119 32.5h-33v80h28q127 0 127 94
q0 36 -28.5 59t-78.5 23q-70 0 -114 -43z" />
    <glyph glyph-name="uniF647" unicode="&#xf647;" 
d="M392 80h94l-25 -80h-69v-213h-92v213h-261v48l295 399h58v-367zM154 80h146v201z" />
    <glyph glyph-name="uniF648" unicode="&#xf648;" 
d="M431 357h-202l-44 -132q79 -1 137 -22t86 -56q50 -61 50 -137q0 -82 -58 -147q-28 -34 -79 -54.5t-114 -20.5q-79 0 -139 28v84q59 -32 133 -32q81 0 120 44t39 98q0 63 -48 102.5t-141 39.5h-83l91 285h276z" />
    <glyph glyph-name="uniF649" unicode="&#xf649;" 
d="M162 486l140 180h119l-231 -290l1 -2q32 20 85 20q88 0 147 -56q60 -56 60 -139q0 -85 -60 -149q-58 -64 -157 -64q-96 0 -160 59q-63 60 -63 151q0 59 20 119q22 60 43 93q27 42 56 78zM141 192q0 -58 33 -92t89 -34q55 0 88.5 35t33.5 91q0 50 -33.5 86t-88.5 36
t-88.5 -34.5t-33.5 -87.5z" />
    <glyph glyph-name="uniF64A" unicode="&#xf64a;" 
d="M344 356h-301l42 80h397l-329 -649h-97z" />
    <glyph glyph-name="uniF64B" unicode="&#xf64b;" 
d="M170 357v3q-44 17 -70.5 55t-26.5 86q0 73 53 126t137 53q86 0 138 -52q53 -53 53 -126q0 -49 -25.5 -86t-71.5 -56v-3q60 -19 92.5 -62t32.5 -104q0 -79 -63 -142t-156 -63q-97 0 -159 59q-60 60 -60 139q0 63 34 110t92 63zM262 66q55 0 88.5 35t33.5 90q0 56 -33 91
t-88 35q-54 0 -87.5 -35.5t-33.5 -90.5t32 -90t88 -35zM263 397q41 0 67 29t26 72q0 38 -24 69q-24 33 -69 33t-69 -32q-23 -32 -23 -70q0 -41 25.5 -71t66.5 -30z" />
    <glyph glyph-name="uniF64C" unicode="&#xf64c;" 
d="M362 -38l-137 -177h-116l219 279q-37 -17 -71 -17q-96 0 -153 58q-57 59 -57 136q0 83 58 144q59 62 155 62q94 0 156 -57q63 -56 63 -138q0 -90 -30 -154q-29 -63 -87 -136zM261 367q-48 0 -83 -35q-33 -34 -33 -84q0 -53 31 -87t85 -34q50 0 85 35q35 37 35 86t-35 84
t-85 35z" />
    <glyph glyph-name="uniF6BA" unicode="&#xf6ba;" horiz-adv-x="444" 
d="M369 298h-294v83h294v-83z" />
    <glyph glyph-name="uniF6BB" unicode="&#xf6bb;" horiz-adv-x="565" 
d="M475 298h-385v83h385v-83z" />
    <glyph glyph-name="uniF6BC" unicode="&#xf6bc;" horiz-adv-x="827" 
d="M737 298h-647v83h647v-83z" />
    <glyph glyph-name="uniF6C3" unicode="&#xf6c3;" horiz-adv-x="350" 
d="M117 -50h106l-74 -167h-63z" />
    <glyph glyph-name="uniF6C9" unicode="&#xf6c9;" horiz-adv-x="289" 
d="M95 723h-65l87 139h142z" />
    <glyph glyph-name="uniF6CA" unicode="&#xf6ca;" horiz-adv-x="358" 
d="M99 883l80 -86l80 86h69l-107 -160h-87l-104 160h69z" />
    <glyph glyph-name="uniF6CB" unicode="&#xf6cb;" horiz-adv-x="340" 
d="M126 845v-101h-101v101h101zM315 845v-101h-101v101h101z" />
    <glyph glyph-name="uniF6CC" unicode="&#xf6cc;" horiz-adv-x="440" 
d="M130 818v-101h-101v101h101zM402 818v-101h-101v101h101zM214 773h-65l87 139h142z" />
    <glyph glyph-name="uniF6CE" unicode="&#xf6ce;" horiz-adv-x="289" 
d="M173 862l86 -139h-64l-165 139h143z" />
    <glyph glyph-name="uniF6CF" unicode="&#xf6cf;" horiz-adv-x="379" 
d="M55 723h-55l87 139h132zM215 723h-55l87 139h132z" />
    <glyph glyph-name="uniF6D0" unicode="&#xf6d0;" horiz-adv-x="365" 
d="M335 739h-305v83h305v-83z" />
    <glyph glyph-name="uniF6D1" unicode="&#xf6d1;" horiz-adv-x="407" 
d="M283 853h94q0 -60 -46.5 -96t-126.5 -36q-83 0 -128.5 35.5t-45.5 96.5h95q0 -49 78 -49q80 0 80 49z" />
    <glyph glyph-name="uniF6D4" unicode="&#xf6d4;" horiz-adv-x="498" 
d="M335 646h84q0 -61 -41 -97t-113 -36q-75 0 -116 35.5t-41 97.5h85q0 -29 19 -45t52 -16t52 16t19 45z" />
    <glyph glyph-name="uniF6D7" unicode="&#xf6d7;" horiz-adv-x="340" 
d="M312 632v-96h-96v96h96zM129 632v-96h-96v96h96zM206 664h-65l87 167h142z" />
    <glyph glyph-name="uniF730" unicode="&#xf730;" horiz-adv-x="572" 
d="M42 218q0 88 66 158q66 72 178 72q110 0 177 -69q67 -68 67 -161q0 -98 -69 -164q-68 -65 -175 -65q-119 0 -186 77q-58 71 -58 152zM140 218q0 -64 40.5 -105t105.5 -41q64 0 105 42q41 44 41 104q0 58 -39 101q-37 44 -107 46q-66 1 -106 -40t-40 -107z" />
    <glyph glyph-name="uniF731" unicode="&#xf731;" horiz-adv-x="304" 
d="M129 303l-84 -81v96l118 119h58v-437h-92v303z" />
    <glyph glyph-name="uniF732" unicode="&#xf732;" horiz-adv-x="407" 
d="M201 80h166l-38 -80h-329l48 39q35 28 45 37q57 46 77 65q42 40 56 58q34 49 34 80q0 89 -96 89q-67 0 -112 -47l-39 74q74 53 160 53q85 0 135 -44t50 -106q0 -61 -36.5 -109.5t-120.5 -108.5z" />
    <glyph glyph-name="uniF733" unicode="&#xf733;" horiz-adv-x="434" 
d="M55 324l-39 74q70 49 170 49q79 0 133 -42q55 -42 55 -107q0 -47 -27 -84.5t-76 -55.5v-2q67 -15 104 -58.5t37 -105.5q0 -94 -73 -149q-72 -57 -182 -57q-70 0 -136 28v83q66 -31 136 -31q75 0 116 32t41 92q0 55 -41 88.5t-119 32.5h-33v80h28q127 0 127 94
q0 36 -28.5 59t-78.5 23q-70 0 -114 -43z" />
    <glyph glyph-name="uniF734" unicode="&#xf734;" horiz-adv-x="462" 
d="M358 80h94l-25 -80h-69v-213h-92v213h-261v48l295 399h58v-367zM120 80h146v201z" />
    <glyph glyph-name="uniF735" unicode="&#xf735;" horiz-adv-x="451" 
d="M399 357h-202l-44 -132q79 -1 137 -22t86 -56q50 -61 50 -137q0 -82 -58 -147q-28 -34 -79 -54.5t-114 -20.5q-79 0 -139 28v84q59 -32 133 -32q81 0 120 44t39 98q0 63 -48 102.5t-141 39.5h-83l91 285h276z" />
    <glyph glyph-name="uniF736" unicode="&#xf736;" horiz-adv-x="558" 
d="M156 486l140 180h119l-231 -290l1 -2q32 20 85 20q88 0 147 -56q60 -56 60 -139q0 -85 -60 -149q-58 -64 -157 -64q-96 0 -160 59q-63 60 -63 151q0 59 20 119q22 60 43 93q27 42 56 78zM135 192q0 -58 33 -92t89 -34q55 0 88.5 35t33.5 91q0 50 -33.5 86t-88.5 36
t-88.5 -34.5t-33.5 -87.5z" />
    <glyph glyph-name="uniF737" unicode="&#xf737;" horiz-adv-x="439" 
d="M301 356h-301l42 80h397l-329 -649h-97z" />
    <glyph glyph-name="uniF738" unicode="&#xf738;" horiz-adv-x="556" 
d="M182 357v3q-44 17 -70.5 55t-26.5 86q0 73 53 126t137 53q86 0 138 -52q53 -53 53 -126q0 -49 -25.5 -86t-71.5 -56v-3q60 -19 92.5 -62t32.5 -104q0 -79 -63 -142t-156 -63q-97 0 -159 59q-60 60 -60 139q0 63 34 110t92 63zM274 66q55 0 88.5 35t33.5 90q0 56 -33 91
t-88 35q-54 0 -87.5 -35.5t-33.5 -90.5t32 -90t88 -35zM275 397q41 0 67 29t26 72q0 38 -24 69q-24 33 -69 33t-69 -32q-23 -32 -23 -70q0 -41 25.5 -71t66.5 -30z" />
    <glyph glyph-name="uniF739" unicode="&#xf739;" horiz-adv-x="516" 
d="M357 -38l-137 -177h-116l219 279q-37 -17 -71 -17q-96 0 -153 58q-57 59 -57 136q0 83 58 144q59 62 155 62q95 0 156 -57q63 -56 63 -138q0 -90 -30 -154q-29 -63 -87 -136zM256 367q-48 0 -83 -35q-33 -34 -33 -84q0 -53 31 -87t85 -34q50 0 85 35q35 37 35 86t-35 84
t-85 35z" />
    <glyph glyph-name="uniFEFF" unicode="&#xfeff;" horiz-adv-x="0" 
 />
    <glyph glyph-name="NULL" horiz-adv-x="0" 
 />
    <glyph glyph-name="CR" horiz-adv-x="333" 
 />
    <glyph glyph-name="afii10021.ss01" horiz-adv-x="761" 
d="M14 83h78l289 597l287 -597h79v-226h-95v143h-543v-143h-95v226zM380 481l-185 -398h369z" />
    <glyph glyph-name="afii10069.ss01" horiz-adv-x="557" 
d="M171 78h201l-101 186zM271 452l199 -374h83v-210h-90v132h-369v-132h-90v210h70z" />
    <glyph glyph-name="afii10024.ss01" horiz-adv-x="925" 
d="M368 382h48v284h95v-284h48q34 0 59 24.5t34 57.5l30 85q21 63 56 94t90 31h38v-83h-23q-27 0 -44.5 -20.5t-38.5 -75.5l-28 -75q-22 -56 -78 -73q82 -25 106 -106l24 -87q15 -46 33 -65.5t51 -19.5h12v-77q-20 -6 -57 -6q-48 0 -78 31t-51 106l-17 59q-19 61 -44 89
t-73 28h-49v-299h-95v299h-49q-48 0 -74.5 -28.5t-44.5 -88.5l-17 -59q-21 -75 -51 -106t-78 -31q-38 0 -57 6v77h12q33 0 51 19.5t33 65.5l24 87q24 80 108 106q-59 17 -80 73l-28 75q-21 55 -38.5 75.5t-44.5 20.5h-23v83h38q55 0 90 -31t56 -94l30 -85q9 -32 35 -57
t60 -25z" />
    <glyph glyph-name="afii10072.ss01" horiz-adv-x="718" 
d="M405 0h-90v185h-33q-35 0 -53.5 -18t-40.5 -69l-9 -21q-18 -48 -39.5 -67.5t-55.5 -19.5q-32 0 -57 6v74h19q40 0 69 69l10 25q20 49 63 59q-38 15 -51 55l-9 28q-20 60 -61 64h-19v77h46q80 0 106 -89l9 -28q22 -67 72 -67h34v174h90v-174h34q48 0 70 67l9 27
q24 90 106 90h46v-78h-19q-41 -4 -61 -63l-9 -28q-14 -42 -50 -55q43 -11 62 -59l10 -25q29 -69 69 -69h19v-74q-25 -6 -57 -6q-34 0 -55.5 19.5t-40.5 67.5l-9 21q-19 44 -34 63q-16 24 -57 24h-33v-185z" />
    <glyph glyph-name="afii10028.ss01" horiz-adv-x="653" 
d="M422 123l-17 59q-19 61 -44 89t-73 28h-89v-299h-95v666h95v-284h88q34 0 59 24.5t34 57.5l30 85q21 63 56 94t90 31h38v-83h-23q-27 0 -44.5 -20.5t-38.5 -75.5l-28 -75q-22 -56 -78 -73q82 -25 106 -106l24 -87q15 -46 33 -65.5t51 -19.5h12v-77q-20 -6 -57 -6
q-48 0 -78 31t-51 106z" />
    <glyph glyph-name="afii10076.ss01" horiz-adv-x="495" 
d="M162 437v-174h54q48 0 70 67l9 27q24 90 106 90h46v-78h-19q-41 -4 -61 -63l-9 -28q-14 -42 -50 -55q43 -11 62 -59l10 -25q28 -69 69 -69h19v-74q-26 -6 -57 -6q-34 0 -55.5 19.5t-40.5 67.5l-9 21q-19 44 -34 63q-16 24 -57 24h-53v-185h-90v437h90z" />
    <glyph glyph-name="afii10029.ss01" horiz-adv-x="667" 
d="M659 0h-103l-224 481l-221 -481h-103l325 680z" />
    <glyph glyph-name="afii10077.ss01" horiz-adv-x="459" 
d="M360 0l-131 259l-130 -259h-95l225 452l226 -452h-95z" />
    <glyph glyph-name="afii10058.ss01" horiz-adv-x="921" 
d="M663 0h-107l-224 481l-221 -481h-103l325 680l129 -269h205q113 -1 172.5 -54.5t59.5 -140.5q0 -86 -46 -147q-53 -69 -190 -69zM502 328l117 -245h42q137 0 137 122q0 59 -36 91t-99 32h-161z" />
    <glyph glyph-name="afii10106.ss01" horiz-adv-x="681" 
d="M483 0h-123l-131 259l-130 -259h-95l225 452l85 -171h180q82 0 125 -41q42 -40 42 -95q0 -48 -32 -92q-38 -53 -146 -53zM351 207l67 -133h63q22 0 48 10q37 14 37 60q0 63 -85 63h-130z" />
    </font>
</defs>
</svg>
